%TF.GenerationSoftware,KiCad,Pcbnew,7.0.6*%
%TF.CreationDate,2023-11-30T13:04:14+07:00*%
%TF.ProjectId,testboard,74657374-626f-4617-9264-2e6b69636164,rev?*%
%TF.SameCoordinates,Original*%
%TF.FileFunction,Drillmap*%
%TF.FilePolarity,Positive*%
%FSLAX45Y45*%
G04 Gerber Fmt 4.5, Leading zero omitted, Abs format (unit mm)*
G04 Created by KiCad (PCBNEW 7.0.6) date 2023-11-30 13:04:14*
%MOMM*%
%LPD*%
G01*
G04 APERTURE LIST*
%ADD10C,0.100000*%
%ADD11C,0.200000*%
%ADD12C,0.102000*%
%ADD13C,0.149000*%
%ADD14C,0.175000*%
G04 APERTURE END LIST*
D10*
X8662000Y-4612000D02*
X24583000Y-4612000D01*
X24583000Y-15216000D01*
X8662000Y-15216000D01*
X8662000Y-4612000D01*
D11*
D10*
X9626000Y-8205000D02*
X9726000Y-8305000D01*
X9726000Y-8205000D02*
X9626000Y-8305000D01*
X9626000Y-8459000D02*
X9726000Y-8559000D01*
X9726000Y-8459000D02*
X9626000Y-8559000D01*
X9626000Y-8713000D02*
X9726000Y-8813000D01*
X9726000Y-8713000D02*
X9626000Y-8813000D01*
X9626000Y-8967000D02*
X9726000Y-9067000D01*
X9726000Y-8967000D02*
X9626000Y-9067000D01*
X9626000Y-9221000D02*
X9726000Y-9321000D01*
X9726000Y-9221000D02*
X9626000Y-9321000D01*
X9626000Y-9475000D02*
X9726000Y-9575000D01*
X9726000Y-9475000D02*
X9626000Y-9575000D01*
X9626000Y-9729000D02*
X9726000Y-9829000D01*
X9726000Y-9729000D02*
X9626000Y-9829000D01*
X9626000Y-9983000D02*
X9726000Y-10083000D01*
X9726000Y-9983000D02*
X9626000Y-10083000D01*
X9626000Y-10237000D02*
X9726000Y-10337000D01*
X9726000Y-10237000D02*
X9626000Y-10337000D01*
X9626000Y-10491000D02*
X9726000Y-10591000D01*
X9726000Y-10491000D02*
X9626000Y-10591000D01*
X9626000Y-10745000D02*
X9726000Y-10845000D01*
X9726000Y-10745000D02*
X9626000Y-10845000D01*
X9626000Y-10999000D02*
X9726000Y-11099000D01*
X9726000Y-10999000D02*
X9626000Y-11099000D01*
X9626000Y-11253000D02*
X9726000Y-11353000D01*
X9726000Y-11253000D02*
X9626000Y-11353000D01*
X9626000Y-11507000D02*
X9726000Y-11607000D01*
X9726000Y-11507000D02*
X9626000Y-11607000D01*
X9626000Y-11761000D02*
X9726000Y-11861000D01*
X9726000Y-11761000D02*
X9626000Y-11861000D01*
X9626000Y-12015000D02*
X9726000Y-12115000D01*
X9726000Y-12015000D02*
X9626000Y-12115000D01*
X9626000Y-12269000D02*
X9726000Y-12369000D01*
X9726000Y-12269000D02*
X9626000Y-12369000D01*
X9626000Y-12523000D02*
X9726000Y-12623000D01*
X9726000Y-12523000D02*
X9626000Y-12623000D01*
X9626000Y-12777000D02*
X9726000Y-12877000D01*
X9726000Y-12777000D02*
X9626000Y-12877000D01*
X9626000Y-13031000D02*
X9726000Y-13131000D01*
X9726000Y-13031000D02*
X9626000Y-13131000D01*
X9626000Y-13285000D02*
X9726000Y-13385000D01*
X9726000Y-13285000D02*
X9626000Y-13385000D01*
X9626000Y-13539000D02*
X9726000Y-13639000D01*
X9726000Y-13539000D02*
X9626000Y-13639000D01*
X9626000Y-13793000D02*
X9726000Y-13893000D01*
X9726000Y-13793000D02*
X9626000Y-13893000D01*
X9626000Y-14047000D02*
X9726000Y-14147000D01*
X9726000Y-14047000D02*
X9626000Y-14147000D01*
X9626000Y-14301000D02*
X9726000Y-14401000D01*
X9726000Y-14301000D02*
X9626000Y-14401000D01*
X9998000Y-8201000D02*
X10098000Y-8301000D01*
X10098000Y-8201000D02*
X9998000Y-8301000D01*
X9998000Y-8455000D02*
X10098000Y-8555000D01*
X10098000Y-8455000D02*
X9998000Y-8555000D01*
X9998000Y-8709000D02*
X10098000Y-8809000D01*
X10098000Y-8709000D02*
X9998000Y-8809000D01*
X9998000Y-8963000D02*
X10098000Y-9063000D01*
X10098000Y-8963000D02*
X9998000Y-9063000D01*
X9998000Y-9217000D02*
X10098000Y-9317000D01*
X10098000Y-9217000D02*
X9998000Y-9317000D01*
X9998000Y-9471000D02*
X10098000Y-9571000D01*
X10098000Y-9471000D02*
X9998000Y-9571000D01*
X9998000Y-9725000D02*
X10098000Y-9825000D01*
X10098000Y-9725000D02*
X9998000Y-9825000D01*
X9998000Y-9979000D02*
X10098000Y-10079000D01*
X10098000Y-9979000D02*
X9998000Y-10079000D01*
X9998000Y-10233000D02*
X10098000Y-10333000D01*
X10098000Y-10233000D02*
X9998000Y-10333000D01*
X9998000Y-10487000D02*
X10098000Y-10587000D01*
X10098000Y-10487000D02*
X9998000Y-10587000D01*
X9998000Y-10741000D02*
X10098000Y-10841000D01*
X10098000Y-10741000D02*
X9998000Y-10841000D01*
X9998000Y-10995000D02*
X10098000Y-11095000D01*
X10098000Y-10995000D02*
X9998000Y-11095000D01*
X9998000Y-11249000D02*
X10098000Y-11349000D01*
X10098000Y-11249000D02*
X9998000Y-11349000D01*
X9998000Y-11503000D02*
X10098000Y-11603000D01*
X10098000Y-11503000D02*
X9998000Y-11603000D01*
X9998000Y-11757000D02*
X10098000Y-11857000D01*
X10098000Y-11757000D02*
X9998000Y-11857000D01*
X9998000Y-12011000D02*
X10098000Y-12111000D01*
X10098000Y-12011000D02*
X9998000Y-12111000D01*
X9998000Y-12265000D02*
X10098000Y-12365000D01*
X10098000Y-12265000D02*
X9998000Y-12365000D01*
X9998000Y-12519000D02*
X10098000Y-12619000D01*
X10098000Y-12519000D02*
X9998000Y-12619000D01*
X9998000Y-12773000D02*
X10098000Y-12873000D01*
X10098000Y-12773000D02*
X9998000Y-12873000D01*
X9998000Y-13027000D02*
X10098000Y-13127000D01*
X10098000Y-13027000D02*
X9998000Y-13127000D01*
X9998000Y-13281000D02*
X10098000Y-13381000D01*
X10098000Y-13281000D02*
X9998000Y-13381000D01*
X9998000Y-13535000D02*
X10098000Y-13635000D01*
X10098000Y-13535000D02*
X9998000Y-13635000D01*
X9998000Y-13789000D02*
X10098000Y-13889000D01*
X10098000Y-13789000D02*
X9998000Y-13889000D01*
X9998000Y-14043000D02*
X10098000Y-14143000D01*
X10098000Y-14043000D02*
X9998000Y-14143000D01*
X9998000Y-14297000D02*
X10098000Y-14397000D01*
X10098000Y-14297000D02*
X9998000Y-14397000D01*
X11009000Y-8201000D02*
X11109000Y-8301000D01*
X11109000Y-8201000D02*
X11009000Y-8301000D01*
X11009000Y-8455000D02*
X11109000Y-8555000D01*
X11109000Y-8455000D02*
X11009000Y-8555000D01*
X11009000Y-8709000D02*
X11109000Y-8809000D01*
X11109000Y-8709000D02*
X11009000Y-8809000D01*
X11009000Y-8963000D02*
X11109000Y-9063000D01*
X11109000Y-8963000D02*
X11009000Y-9063000D01*
X11009000Y-9217000D02*
X11109000Y-9317000D01*
X11109000Y-9217000D02*
X11009000Y-9317000D01*
X11009000Y-9471000D02*
X11109000Y-9571000D01*
X11109000Y-9471000D02*
X11009000Y-9571000D01*
X11009000Y-9725000D02*
X11109000Y-9825000D01*
X11109000Y-9725000D02*
X11009000Y-9825000D01*
X11009000Y-9979000D02*
X11109000Y-10079000D01*
X11109000Y-9979000D02*
X11009000Y-10079000D01*
X11009000Y-10233000D02*
X11109000Y-10333000D01*
X11109000Y-10233000D02*
X11009000Y-10333000D01*
X11009000Y-10487000D02*
X11109000Y-10587000D01*
X11109000Y-10487000D02*
X11009000Y-10587000D01*
X11009000Y-10741000D02*
X11109000Y-10841000D01*
X11109000Y-10741000D02*
X11009000Y-10841000D01*
X11009000Y-10995000D02*
X11109000Y-11095000D01*
X11109000Y-10995000D02*
X11009000Y-11095000D01*
X11009000Y-11249000D02*
X11109000Y-11349000D01*
X11109000Y-11249000D02*
X11009000Y-11349000D01*
X11009000Y-11503000D02*
X11109000Y-11603000D01*
X11109000Y-11503000D02*
X11009000Y-11603000D01*
X11009000Y-11757000D02*
X11109000Y-11857000D01*
X11109000Y-11757000D02*
X11009000Y-11857000D01*
X11009000Y-12011000D02*
X11109000Y-12111000D01*
X11109000Y-12011000D02*
X11009000Y-12111000D01*
X11009000Y-12265000D02*
X11109000Y-12365000D01*
X11109000Y-12265000D02*
X11009000Y-12365000D01*
X11009000Y-12519000D02*
X11109000Y-12619000D01*
X11109000Y-12519000D02*
X11009000Y-12619000D01*
X11009000Y-12773000D02*
X11109000Y-12873000D01*
X11109000Y-12773000D02*
X11009000Y-12873000D01*
X11009000Y-13027000D02*
X11109000Y-13127000D01*
X11109000Y-13027000D02*
X11009000Y-13127000D01*
X11009000Y-13281000D02*
X11109000Y-13381000D01*
X11109000Y-13281000D02*
X11009000Y-13381000D01*
X11009000Y-13535000D02*
X11109000Y-13635000D01*
X11109000Y-13535000D02*
X11009000Y-13635000D01*
X11009000Y-13789000D02*
X11109000Y-13889000D01*
X11109000Y-13789000D02*
X11009000Y-13889000D01*
X11009000Y-14043000D02*
X11109000Y-14143000D01*
X11109000Y-14043000D02*
X11009000Y-14143000D01*
X11009000Y-14297000D02*
X11109000Y-14397000D01*
X11109000Y-14297000D02*
X11009000Y-14397000D01*
X11263000Y-8201000D02*
X11363000Y-8301000D01*
X11363000Y-8201000D02*
X11263000Y-8301000D01*
X11263000Y-8455000D02*
X11363000Y-8555000D01*
X11363000Y-8455000D02*
X11263000Y-8555000D01*
X11263000Y-8709000D02*
X11363000Y-8809000D01*
X11363000Y-8709000D02*
X11263000Y-8809000D01*
X11263000Y-8963000D02*
X11363000Y-9063000D01*
X11363000Y-8963000D02*
X11263000Y-9063000D01*
X11263000Y-9217000D02*
X11363000Y-9317000D01*
X11363000Y-9217000D02*
X11263000Y-9317000D01*
X11263000Y-9471000D02*
X11363000Y-9571000D01*
X11363000Y-9471000D02*
X11263000Y-9571000D01*
X11263000Y-9725000D02*
X11363000Y-9825000D01*
X11363000Y-9725000D02*
X11263000Y-9825000D01*
X11263000Y-9979000D02*
X11363000Y-10079000D01*
X11363000Y-9979000D02*
X11263000Y-10079000D01*
X11263000Y-10233000D02*
X11363000Y-10333000D01*
X11363000Y-10233000D02*
X11263000Y-10333000D01*
X11263000Y-10487000D02*
X11363000Y-10587000D01*
X11363000Y-10487000D02*
X11263000Y-10587000D01*
X11263000Y-10741000D02*
X11363000Y-10841000D01*
X11363000Y-10741000D02*
X11263000Y-10841000D01*
X11263000Y-10995000D02*
X11363000Y-11095000D01*
X11363000Y-10995000D02*
X11263000Y-11095000D01*
X11263000Y-11249000D02*
X11363000Y-11349000D01*
X11363000Y-11249000D02*
X11263000Y-11349000D01*
X11263000Y-11503000D02*
X11363000Y-11603000D01*
X11363000Y-11503000D02*
X11263000Y-11603000D01*
X11263000Y-11757000D02*
X11363000Y-11857000D01*
X11363000Y-11757000D02*
X11263000Y-11857000D01*
X11263000Y-12011000D02*
X11363000Y-12111000D01*
X11363000Y-12011000D02*
X11263000Y-12111000D01*
X11263000Y-12265000D02*
X11363000Y-12365000D01*
X11363000Y-12265000D02*
X11263000Y-12365000D01*
X11263000Y-12519000D02*
X11363000Y-12619000D01*
X11363000Y-12519000D02*
X11263000Y-12619000D01*
X11263000Y-12773000D02*
X11363000Y-12873000D01*
X11363000Y-12773000D02*
X11263000Y-12873000D01*
X11263000Y-13027000D02*
X11363000Y-13127000D01*
X11363000Y-13027000D02*
X11263000Y-13127000D01*
X11263000Y-13281000D02*
X11363000Y-13381000D01*
X11363000Y-13281000D02*
X11263000Y-13381000D01*
X11263000Y-13535000D02*
X11363000Y-13635000D01*
X11363000Y-13535000D02*
X11263000Y-13635000D01*
X11263000Y-13789000D02*
X11363000Y-13889000D01*
X11363000Y-13789000D02*
X11263000Y-13889000D01*
X11263000Y-14043000D02*
X11363000Y-14143000D01*
X11363000Y-14043000D02*
X11263000Y-14143000D01*
X11263000Y-14297000D02*
X11363000Y-14397000D01*
X11363000Y-14297000D02*
X11263000Y-14397000D01*
X16089000Y-8201000D02*
X16189000Y-8301000D01*
X16189000Y-8201000D02*
X16089000Y-8301000D01*
X16089000Y-8455000D02*
X16189000Y-8555000D01*
X16189000Y-8455000D02*
X16089000Y-8555000D01*
X16089000Y-8709000D02*
X16189000Y-8809000D01*
X16189000Y-8709000D02*
X16089000Y-8809000D01*
X16089000Y-8963000D02*
X16189000Y-9063000D01*
X16189000Y-8963000D02*
X16089000Y-9063000D01*
X16089000Y-9217000D02*
X16189000Y-9317000D01*
X16189000Y-9217000D02*
X16089000Y-9317000D01*
X16089000Y-9471000D02*
X16189000Y-9571000D01*
X16189000Y-9471000D02*
X16089000Y-9571000D01*
X16089000Y-9725000D02*
X16189000Y-9825000D01*
X16189000Y-9725000D02*
X16089000Y-9825000D01*
X16089000Y-9979000D02*
X16189000Y-10079000D01*
X16189000Y-9979000D02*
X16089000Y-10079000D01*
X16089000Y-10233000D02*
X16189000Y-10333000D01*
X16189000Y-10233000D02*
X16089000Y-10333000D01*
X16089000Y-10487000D02*
X16189000Y-10587000D01*
X16189000Y-10487000D02*
X16089000Y-10587000D01*
X16089000Y-10741000D02*
X16189000Y-10841000D01*
X16189000Y-10741000D02*
X16089000Y-10841000D01*
X16089000Y-10995000D02*
X16189000Y-11095000D01*
X16189000Y-10995000D02*
X16089000Y-11095000D01*
X16089000Y-11249000D02*
X16189000Y-11349000D01*
X16189000Y-11249000D02*
X16089000Y-11349000D01*
X16089000Y-11503000D02*
X16189000Y-11603000D01*
X16189000Y-11503000D02*
X16089000Y-11603000D01*
X16089000Y-11757000D02*
X16189000Y-11857000D01*
X16189000Y-11757000D02*
X16089000Y-11857000D01*
X16089000Y-12011000D02*
X16189000Y-12111000D01*
X16189000Y-12011000D02*
X16089000Y-12111000D01*
X16089000Y-12265000D02*
X16189000Y-12365000D01*
X16189000Y-12265000D02*
X16089000Y-12365000D01*
X16089000Y-12519000D02*
X16189000Y-12619000D01*
X16189000Y-12519000D02*
X16089000Y-12619000D01*
X16089000Y-12773000D02*
X16189000Y-12873000D01*
X16189000Y-12773000D02*
X16089000Y-12873000D01*
X16089000Y-13027000D02*
X16189000Y-13127000D01*
X16189000Y-13027000D02*
X16089000Y-13127000D01*
X16089000Y-13281000D02*
X16189000Y-13381000D01*
X16189000Y-13281000D02*
X16089000Y-13381000D01*
X16089000Y-13535000D02*
X16189000Y-13635000D01*
X16189000Y-13535000D02*
X16089000Y-13635000D01*
X16089000Y-13789000D02*
X16189000Y-13889000D01*
X16189000Y-13789000D02*
X16089000Y-13889000D01*
X16089000Y-14043000D02*
X16189000Y-14143000D01*
X16189000Y-14043000D02*
X16089000Y-14143000D01*
X16089000Y-14297000D02*
X16189000Y-14397000D01*
X16189000Y-14297000D02*
X16089000Y-14397000D01*
X16343000Y-8201000D02*
X16443000Y-8301000D01*
X16443000Y-8201000D02*
X16343000Y-8301000D01*
X16343000Y-8455000D02*
X16443000Y-8555000D01*
X16443000Y-8455000D02*
X16343000Y-8555000D01*
X16343000Y-8709000D02*
X16443000Y-8809000D01*
X16443000Y-8709000D02*
X16343000Y-8809000D01*
X16343000Y-8963000D02*
X16443000Y-9063000D01*
X16443000Y-8963000D02*
X16343000Y-9063000D01*
X16343000Y-9217000D02*
X16443000Y-9317000D01*
X16443000Y-9217000D02*
X16343000Y-9317000D01*
X16343000Y-9471000D02*
X16443000Y-9571000D01*
X16443000Y-9471000D02*
X16343000Y-9571000D01*
X16343000Y-9725000D02*
X16443000Y-9825000D01*
X16443000Y-9725000D02*
X16343000Y-9825000D01*
X16343000Y-9979000D02*
X16443000Y-10079000D01*
X16443000Y-9979000D02*
X16343000Y-10079000D01*
X16343000Y-10233000D02*
X16443000Y-10333000D01*
X16443000Y-10233000D02*
X16343000Y-10333000D01*
X16343000Y-10487000D02*
X16443000Y-10587000D01*
X16443000Y-10487000D02*
X16343000Y-10587000D01*
X16343000Y-10741000D02*
X16443000Y-10841000D01*
X16443000Y-10741000D02*
X16343000Y-10841000D01*
X16343000Y-10995000D02*
X16443000Y-11095000D01*
X16443000Y-10995000D02*
X16343000Y-11095000D01*
X16343000Y-11249000D02*
X16443000Y-11349000D01*
X16443000Y-11249000D02*
X16343000Y-11349000D01*
X16343000Y-11503000D02*
X16443000Y-11603000D01*
X16443000Y-11503000D02*
X16343000Y-11603000D01*
X16343000Y-11757000D02*
X16443000Y-11857000D01*
X16443000Y-11757000D02*
X16343000Y-11857000D01*
X16343000Y-12011000D02*
X16443000Y-12111000D01*
X16443000Y-12011000D02*
X16343000Y-12111000D01*
X16343000Y-12265000D02*
X16443000Y-12365000D01*
X16443000Y-12265000D02*
X16343000Y-12365000D01*
X16343000Y-12519000D02*
X16443000Y-12619000D01*
X16443000Y-12519000D02*
X16343000Y-12619000D01*
X16343000Y-12773000D02*
X16443000Y-12873000D01*
X16443000Y-12773000D02*
X16343000Y-12873000D01*
X16343000Y-13027000D02*
X16443000Y-13127000D01*
X16443000Y-13027000D02*
X16343000Y-13127000D01*
X16343000Y-13281000D02*
X16443000Y-13381000D01*
X16443000Y-13281000D02*
X16343000Y-13381000D01*
X16343000Y-13535000D02*
X16443000Y-13635000D01*
X16443000Y-13535000D02*
X16343000Y-13635000D01*
X16343000Y-13789000D02*
X16443000Y-13889000D01*
X16443000Y-13789000D02*
X16343000Y-13889000D01*
X16343000Y-14043000D02*
X16443000Y-14143000D01*
X16443000Y-14043000D02*
X16343000Y-14143000D01*
X16343000Y-14297000D02*
X16443000Y-14397000D01*
X16443000Y-14297000D02*
X16343000Y-14397000D01*
X17383000Y-8197000D02*
X17483000Y-8297000D01*
X17483000Y-8197000D02*
X17383000Y-8297000D01*
X17383000Y-8451000D02*
X17483000Y-8551000D01*
X17483000Y-8451000D02*
X17383000Y-8551000D01*
X17383000Y-8705000D02*
X17483000Y-8805000D01*
X17483000Y-8705000D02*
X17383000Y-8805000D01*
X17383000Y-8959000D02*
X17483000Y-9059000D01*
X17483000Y-8959000D02*
X17383000Y-9059000D01*
X17383000Y-9213000D02*
X17483000Y-9313000D01*
X17483000Y-9213000D02*
X17383000Y-9313000D01*
X17383000Y-9467000D02*
X17483000Y-9567000D01*
X17483000Y-9467000D02*
X17383000Y-9567000D01*
X17383000Y-9721000D02*
X17483000Y-9821000D01*
X17483000Y-9721000D02*
X17383000Y-9821000D01*
X17383000Y-9975000D02*
X17483000Y-10075000D01*
X17483000Y-9975000D02*
X17383000Y-10075000D01*
X17383000Y-10229000D02*
X17483000Y-10329000D01*
X17483000Y-10229000D02*
X17383000Y-10329000D01*
X17383000Y-10483000D02*
X17483000Y-10583000D01*
X17483000Y-10483000D02*
X17383000Y-10583000D01*
X17383000Y-10737000D02*
X17483000Y-10837000D01*
X17483000Y-10737000D02*
X17383000Y-10837000D01*
X17383000Y-10991000D02*
X17483000Y-11091000D01*
X17483000Y-10991000D02*
X17383000Y-11091000D01*
X17383000Y-11245000D02*
X17483000Y-11345000D01*
X17483000Y-11245000D02*
X17383000Y-11345000D01*
X17383000Y-11499000D02*
X17483000Y-11599000D01*
X17483000Y-11499000D02*
X17383000Y-11599000D01*
X17383000Y-11753000D02*
X17483000Y-11853000D01*
X17483000Y-11753000D02*
X17383000Y-11853000D01*
X17383000Y-12007000D02*
X17483000Y-12107000D01*
X17483000Y-12007000D02*
X17383000Y-12107000D01*
X17383000Y-12261000D02*
X17483000Y-12361000D01*
X17483000Y-12261000D02*
X17383000Y-12361000D01*
X17383000Y-12515000D02*
X17483000Y-12615000D01*
X17483000Y-12515000D02*
X17383000Y-12615000D01*
X17383000Y-12769000D02*
X17483000Y-12869000D01*
X17483000Y-12769000D02*
X17383000Y-12869000D01*
X17383000Y-13023000D02*
X17483000Y-13123000D01*
X17483000Y-13023000D02*
X17383000Y-13123000D01*
X17383000Y-13277000D02*
X17483000Y-13377000D01*
X17483000Y-13277000D02*
X17383000Y-13377000D01*
X17383000Y-13531000D02*
X17483000Y-13631000D01*
X17483000Y-13531000D02*
X17383000Y-13631000D01*
X17383000Y-13785000D02*
X17483000Y-13885000D01*
X17483000Y-13785000D02*
X17383000Y-13885000D01*
X17383000Y-14039000D02*
X17483000Y-14139000D01*
X17483000Y-14039000D02*
X17383000Y-14139000D01*
X17383000Y-14293000D02*
X17483000Y-14393000D01*
X17483000Y-14293000D02*
X17383000Y-14393000D01*
X17748000Y-8195000D02*
X17848000Y-8295000D01*
X17848000Y-8195000D02*
X17748000Y-8295000D01*
X17748000Y-8449000D02*
X17848000Y-8549000D01*
X17848000Y-8449000D02*
X17748000Y-8549000D01*
X17748000Y-8703000D02*
X17848000Y-8803000D01*
X17848000Y-8703000D02*
X17748000Y-8803000D01*
X17748000Y-8957000D02*
X17848000Y-9057000D01*
X17848000Y-8957000D02*
X17748000Y-9057000D01*
X17748000Y-9211000D02*
X17848000Y-9311000D01*
X17848000Y-9211000D02*
X17748000Y-9311000D01*
X17748000Y-9465000D02*
X17848000Y-9565000D01*
X17848000Y-9465000D02*
X17748000Y-9565000D01*
X17748000Y-9719000D02*
X17848000Y-9819000D01*
X17848000Y-9719000D02*
X17748000Y-9819000D01*
X17748000Y-9973000D02*
X17848000Y-10073000D01*
X17848000Y-9973000D02*
X17748000Y-10073000D01*
X17748000Y-10227000D02*
X17848000Y-10327000D01*
X17848000Y-10227000D02*
X17748000Y-10327000D01*
X17748000Y-10481000D02*
X17848000Y-10581000D01*
X17848000Y-10481000D02*
X17748000Y-10581000D01*
X17748000Y-10735000D02*
X17848000Y-10835000D01*
X17848000Y-10735000D02*
X17748000Y-10835000D01*
X17748000Y-10989000D02*
X17848000Y-11089000D01*
X17848000Y-10989000D02*
X17748000Y-11089000D01*
X17748000Y-11243000D02*
X17848000Y-11343000D01*
X17848000Y-11243000D02*
X17748000Y-11343000D01*
X17748000Y-11497000D02*
X17848000Y-11597000D01*
X17848000Y-11497000D02*
X17748000Y-11597000D01*
X17748000Y-11751000D02*
X17848000Y-11851000D01*
X17848000Y-11751000D02*
X17748000Y-11851000D01*
X17748000Y-12005000D02*
X17848000Y-12105000D01*
X17848000Y-12005000D02*
X17748000Y-12105000D01*
X17748000Y-12259000D02*
X17848000Y-12359000D01*
X17848000Y-12259000D02*
X17748000Y-12359000D01*
X17748000Y-12513000D02*
X17848000Y-12613000D01*
X17848000Y-12513000D02*
X17748000Y-12613000D01*
X17748000Y-12767000D02*
X17848000Y-12867000D01*
X17848000Y-12767000D02*
X17748000Y-12867000D01*
X17748000Y-13021000D02*
X17848000Y-13121000D01*
X17848000Y-13021000D02*
X17748000Y-13121000D01*
X17748000Y-13275000D02*
X17848000Y-13375000D01*
X17848000Y-13275000D02*
X17748000Y-13375000D01*
X17748000Y-13529000D02*
X17848000Y-13629000D01*
X17848000Y-13529000D02*
X17748000Y-13629000D01*
X17748000Y-13783000D02*
X17848000Y-13883000D01*
X17848000Y-13783000D02*
X17748000Y-13883000D01*
X17748000Y-14037000D02*
X17848000Y-14137000D01*
X17848000Y-14037000D02*
X17748000Y-14137000D01*
X17748000Y-14291000D02*
X17848000Y-14391000D01*
X17848000Y-14291000D02*
X17748000Y-14391000D01*
D12*
X21124250Y-6768700D02*
G75*
G03*
X21124250Y-6768700I-51000J0D01*
G01*
X21124250Y-6948700D02*
G75*
G03*
X21124250Y-6948700I-51000J0D01*
G01*
X21124250Y-7128700D02*
G75*
G03*
X21124250Y-7128700I-51000J0D01*
G01*
X21124250Y-7308800D02*
G75*
G03*
X21124250Y-7308800I-51000J0D01*
G01*
X21124250Y-7488700D02*
G75*
G03*
X21124250Y-7488700I-51000J0D01*
G01*
X21124250Y-7668800D02*
G75*
G03*
X21124250Y-7668800I-51000J0D01*
G01*
X21124250Y-7848800D02*
G75*
G03*
X21124250Y-7848800I-51000J0D01*
G01*
X21124250Y-8028800D02*
G75*
G03*
X21124250Y-8028800I-51000J0D01*
G01*
X21124250Y-8208800D02*
G75*
G03*
X21124250Y-8208800I-51000J0D01*
G01*
X21124250Y-8388700D02*
G75*
G03*
X21124250Y-8388700I-51000J0D01*
G01*
X21124250Y-8568700D02*
G75*
G03*
X21124250Y-8568700I-51000J0D01*
G01*
X21124250Y-8748700D02*
G75*
G03*
X21124250Y-8748700I-51000J0D01*
G01*
X21124250Y-8928800D02*
G75*
G03*
X21124250Y-8928800I-51000J0D01*
G01*
X21124250Y-9108800D02*
G75*
G03*
X21124250Y-9108800I-51000J0D01*
G01*
X21124250Y-9288700D02*
G75*
G03*
X21124250Y-9288700I-51000J0D01*
G01*
X21124250Y-9468700D02*
G75*
G03*
X21124250Y-9468700I-51000J0D01*
G01*
X22579250Y-6743700D02*
G75*
G03*
X22579250Y-6743700I-51000J0D01*
G01*
X22579250Y-6993700D02*
G75*
G03*
X22579250Y-6993700I-51000J0D01*
G01*
X22579250Y-7243700D02*
G75*
G03*
X22579250Y-7243700I-51000J0D01*
G01*
X22579250Y-7743700D02*
G75*
G03*
X22579250Y-7743700I-51000J0D01*
G01*
X22579250Y-7993700D02*
G75*
G03*
X22579250Y-7993700I-51000J0D01*
G01*
X22579250Y-8493700D02*
G75*
G03*
X22579250Y-8493700I-51000J0D01*
G01*
X22579250Y-8743700D02*
G75*
G03*
X22579250Y-8743700I-51000J0D01*
G01*
X22579250Y-8993700D02*
G75*
G03*
X22579250Y-8993700I-51000J0D01*
G01*
X22579250Y-9243700D02*
G75*
G03*
X22579250Y-9243700I-51000J0D01*
G01*
X22579250Y-9493700D02*
G75*
G03*
X22579250Y-9493700I-51000J0D01*
G01*
D13*
X21134550Y-12868250D02*
X21134550Y-13017250D01*
X21060050Y-12942750D02*
X21209050Y-12942750D01*
X21642550Y-12868250D02*
X21642550Y-13017250D01*
X21568050Y-12942750D02*
X21717050Y-12942750D01*
X22150550Y-12868250D02*
X22150550Y-13017250D01*
X22076050Y-12942750D02*
X22225050Y-12942750D01*
X22658550Y-12868250D02*
X22658550Y-13017250D01*
X22584050Y-12942750D02*
X22733050Y-12942750D01*
D14*
X19923422Y-13003822D02*
X19923422Y-12880078D01*
X19799678Y-12880078D01*
X19799678Y-13003822D01*
X19923422Y-13003822D01*
X19923422Y-13511822D02*
X19923422Y-13388078D01*
X19799678Y-13388078D01*
X19799678Y-13511822D01*
X19923422Y-13511822D01*
X19953422Y-6456822D02*
X19953422Y-6333078D01*
X19829678Y-6333078D01*
X19829678Y-6456822D01*
X19953422Y-6456822D01*
X19953422Y-6964822D02*
X19953422Y-6841078D01*
X19829678Y-6841078D01*
X19829678Y-6964822D01*
X19953422Y-6964822D01*
X19953422Y-7472822D02*
X19953422Y-7349078D01*
X19829678Y-7349078D01*
X19829678Y-7472822D01*
X19953422Y-7472822D01*
X19953422Y-7980822D02*
X19953422Y-7857078D01*
X19829678Y-7857078D01*
X19829678Y-7980822D01*
X19953422Y-7980822D01*
X19953422Y-8488822D02*
X19953422Y-8365078D01*
X19829678Y-8365078D01*
X19829678Y-8488822D01*
X19953422Y-8488822D01*
X19953422Y-8996822D02*
X19953422Y-8873078D01*
X19829678Y-8873078D01*
X19829678Y-8996822D01*
X19953422Y-8996822D01*
X19953422Y-9504822D02*
X19953422Y-9381078D01*
X19829678Y-9381078D01*
X19829678Y-9504822D01*
X19953422Y-9504822D01*
X19953422Y-10012822D02*
X19953422Y-9889078D01*
X19829678Y-9889078D01*
X19829678Y-10012822D01*
X19953422Y-10012822D01*
X21139422Y-10824822D02*
X21139422Y-10701078D01*
X21015678Y-10701078D01*
X21015678Y-10824822D01*
X21139422Y-10824822D01*
X21140422Y-5535822D02*
X21140422Y-5412078D01*
X21016678Y-5412078D01*
X21016678Y-5535822D01*
X21140422Y-5535822D01*
X21647422Y-10824822D02*
X21647422Y-10701078D01*
X21523678Y-10701078D01*
X21523678Y-10824822D01*
X21647422Y-10824822D01*
X21648422Y-5535822D02*
X21648422Y-5412078D01*
X21524678Y-5412078D01*
X21524678Y-5535822D01*
X21648422Y-5535822D01*
X22155422Y-10824822D02*
X22155422Y-10701078D01*
X22031678Y-10701078D01*
X22031678Y-10824822D01*
X22155422Y-10824822D01*
X22156422Y-5535822D02*
X22156422Y-5412078D01*
X22032678Y-5412078D01*
X22032678Y-5535822D01*
X22156422Y-5535822D01*
X22663422Y-10824822D02*
X22663422Y-10701078D01*
X22539678Y-10701078D01*
X22539678Y-10824822D01*
X22663422Y-10824822D01*
X22664422Y-5535822D02*
X22664422Y-5412078D01*
X22540678Y-5412078D01*
X22540678Y-5535822D01*
X22664422Y-5535822D01*
X23757172Y-12504072D02*
X23757172Y-12380328D01*
X23633428Y-12380328D01*
X23633428Y-12504072D01*
X23757172Y-12504072D01*
X23757172Y-13012072D02*
X23757172Y-12888328D01*
X23633428Y-12888328D01*
X23633428Y-13012072D01*
X23757172Y-13012072D01*
X23769122Y-6019122D02*
X23769122Y-5895378D01*
X23645378Y-5895378D01*
X23645378Y-6019122D01*
X23769122Y-6019122D01*
X23769122Y-6527122D02*
X23769122Y-6403378D01*
X23645378Y-6403378D01*
X23645378Y-6527122D01*
X23769122Y-6527122D01*
X23769122Y-7035122D02*
X23769122Y-6911378D01*
X23645378Y-6911378D01*
X23645378Y-7035122D01*
X23769122Y-7035122D01*
X23769122Y-7543122D02*
X23769122Y-7419378D01*
X23645378Y-7419378D01*
X23645378Y-7543122D01*
X23769122Y-7543122D01*
X23769122Y-8051122D02*
X23769122Y-7927378D01*
X23645378Y-7927378D01*
X23645378Y-8051122D01*
X23769122Y-8051122D01*
X23769122Y-8559122D02*
X23769122Y-8435378D01*
X23645378Y-8435378D01*
X23645378Y-8559122D01*
X23769122Y-8559122D01*
X23769122Y-9067122D02*
X23769122Y-8943378D01*
X23645378Y-8943378D01*
X23645378Y-9067122D01*
X23769122Y-9067122D01*
X23769122Y-9575122D02*
X23769122Y-9451378D01*
X23645378Y-9451378D01*
X23645378Y-9575122D01*
X23769122Y-9575122D01*
X23769122Y-10083122D02*
X23769122Y-9959378D01*
X23645378Y-9959378D01*
X23645378Y-10083122D01*
X23769122Y-10083122D01*
X23769122Y-10591122D02*
X23769122Y-10467378D01*
X23645378Y-10467378D01*
X23645378Y-10591122D01*
X23769122Y-10591122D01*
D11*
X8917777Y-15532484D02*
X8917777Y-15332484D01*
X8917777Y-15332484D02*
X8965396Y-15332484D01*
X8965396Y-15332484D02*
X8993967Y-15342008D01*
X8993967Y-15342008D02*
X9013015Y-15361055D01*
X9013015Y-15361055D02*
X9022539Y-15380103D01*
X9022539Y-15380103D02*
X9032063Y-15418198D01*
X9032063Y-15418198D02*
X9032063Y-15446769D01*
X9032063Y-15446769D02*
X9022539Y-15484865D01*
X9022539Y-15484865D02*
X9013015Y-15503912D01*
X9013015Y-15503912D02*
X8993967Y-15522960D01*
X8993967Y-15522960D02*
X8965396Y-15532484D01*
X8965396Y-15532484D02*
X8917777Y-15532484D01*
X9117777Y-15532484D02*
X9117777Y-15399150D01*
X9117777Y-15437246D02*
X9127301Y-15418198D01*
X9127301Y-15418198D02*
X9136824Y-15408674D01*
X9136824Y-15408674D02*
X9155872Y-15399150D01*
X9155872Y-15399150D02*
X9174920Y-15399150D01*
X9241586Y-15532484D02*
X9241586Y-15399150D01*
X9241586Y-15332484D02*
X9232063Y-15342008D01*
X9232063Y-15342008D02*
X9241586Y-15351531D01*
X9241586Y-15351531D02*
X9251110Y-15342008D01*
X9251110Y-15342008D02*
X9241586Y-15332484D01*
X9241586Y-15332484D02*
X9241586Y-15351531D01*
X9365396Y-15532484D02*
X9346348Y-15522960D01*
X9346348Y-15522960D02*
X9336824Y-15503912D01*
X9336824Y-15503912D02*
X9336824Y-15332484D01*
X9470158Y-15532484D02*
X9451110Y-15522960D01*
X9451110Y-15522960D02*
X9441586Y-15503912D01*
X9441586Y-15503912D02*
X9441586Y-15332484D01*
X9698729Y-15532484D02*
X9698729Y-15332484D01*
X9698729Y-15332484D02*
X9765396Y-15475341D01*
X9765396Y-15475341D02*
X9832063Y-15332484D01*
X9832063Y-15332484D02*
X9832063Y-15532484D01*
X10013015Y-15532484D02*
X10013015Y-15427722D01*
X10013015Y-15427722D02*
X10003491Y-15408674D01*
X10003491Y-15408674D02*
X9984444Y-15399150D01*
X9984444Y-15399150D02*
X9946348Y-15399150D01*
X9946348Y-15399150D02*
X9927301Y-15408674D01*
X10013015Y-15522960D02*
X9993967Y-15532484D01*
X9993967Y-15532484D02*
X9946348Y-15532484D01*
X9946348Y-15532484D02*
X9927301Y-15522960D01*
X9927301Y-15522960D02*
X9917777Y-15503912D01*
X9917777Y-15503912D02*
X9917777Y-15484865D01*
X9917777Y-15484865D02*
X9927301Y-15465817D01*
X9927301Y-15465817D02*
X9946348Y-15456293D01*
X9946348Y-15456293D02*
X9993967Y-15456293D01*
X9993967Y-15456293D02*
X10013015Y-15446769D01*
X10108253Y-15399150D02*
X10108253Y-15599150D01*
X10108253Y-15408674D02*
X10127301Y-15399150D01*
X10127301Y-15399150D02*
X10165396Y-15399150D01*
X10165396Y-15399150D02*
X10184444Y-15408674D01*
X10184444Y-15408674D02*
X10193967Y-15418198D01*
X10193967Y-15418198D02*
X10203491Y-15437246D01*
X10203491Y-15437246D02*
X10203491Y-15494388D01*
X10203491Y-15494388D02*
X10193967Y-15513436D01*
X10193967Y-15513436D02*
X10184444Y-15522960D01*
X10184444Y-15522960D02*
X10165396Y-15532484D01*
X10165396Y-15532484D02*
X10127301Y-15532484D01*
X10127301Y-15532484D02*
X10108253Y-15522960D01*
X10289205Y-15513436D02*
X10298729Y-15522960D01*
X10298729Y-15522960D02*
X10289205Y-15532484D01*
X10289205Y-15532484D02*
X10279682Y-15522960D01*
X10279682Y-15522960D02*
X10289205Y-15513436D01*
X10289205Y-15513436D02*
X10289205Y-15532484D01*
X10289205Y-15408674D02*
X10298729Y-15418198D01*
X10298729Y-15418198D02*
X10289205Y-15427722D01*
X10289205Y-15427722D02*
X10279682Y-15418198D01*
X10279682Y-15418198D02*
X10289205Y-15408674D01*
X10289205Y-15408674D02*
X10289205Y-15427722D01*
D10*
X8557000Y-15811000D02*
X8657000Y-15911000D01*
X8657000Y-15811000D02*
X8557000Y-15911000D01*
D11*
X9022539Y-15952484D02*
X8908253Y-15952484D01*
X8965396Y-15952484D02*
X8965396Y-15752484D01*
X8965396Y-15752484D02*
X8946348Y-15781055D01*
X8946348Y-15781055D02*
X8927301Y-15800103D01*
X8927301Y-15800103D02*
X8908253Y-15809627D01*
X9108253Y-15933436D02*
X9117777Y-15942960D01*
X9117777Y-15942960D02*
X9108253Y-15952484D01*
X9108253Y-15952484D02*
X9098729Y-15942960D01*
X9098729Y-15942960D02*
X9108253Y-15933436D01*
X9108253Y-15933436D02*
X9108253Y-15952484D01*
X9241586Y-15752484D02*
X9260634Y-15752484D01*
X9260634Y-15752484D02*
X9279682Y-15762008D01*
X9279682Y-15762008D02*
X9289205Y-15771531D01*
X9289205Y-15771531D02*
X9298729Y-15790579D01*
X9298729Y-15790579D02*
X9308253Y-15828674D01*
X9308253Y-15828674D02*
X9308253Y-15876293D01*
X9308253Y-15876293D02*
X9298729Y-15914388D01*
X9298729Y-15914388D02*
X9289205Y-15933436D01*
X9289205Y-15933436D02*
X9279682Y-15942960D01*
X9279682Y-15942960D02*
X9260634Y-15952484D01*
X9260634Y-15952484D02*
X9241586Y-15952484D01*
X9241586Y-15952484D02*
X9222539Y-15942960D01*
X9222539Y-15942960D02*
X9213015Y-15933436D01*
X9213015Y-15933436D02*
X9203491Y-15914388D01*
X9203491Y-15914388D02*
X9193967Y-15876293D01*
X9193967Y-15876293D02*
X9193967Y-15828674D01*
X9193967Y-15828674D02*
X9203491Y-15790579D01*
X9203491Y-15790579D02*
X9213015Y-15771531D01*
X9213015Y-15771531D02*
X9222539Y-15762008D01*
X9222539Y-15762008D02*
X9241586Y-15752484D01*
X9432063Y-15752484D02*
X9451110Y-15752484D01*
X9451110Y-15752484D02*
X9470158Y-15762008D01*
X9470158Y-15762008D02*
X9479682Y-15771531D01*
X9479682Y-15771531D02*
X9489205Y-15790579D01*
X9489205Y-15790579D02*
X9498729Y-15828674D01*
X9498729Y-15828674D02*
X9498729Y-15876293D01*
X9498729Y-15876293D02*
X9489205Y-15914388D01*
X9489205Y-15914388D02*
X9479682Y-15933436D01*
X9479682Y-15933436D02*
X9470158Y-15942960D01*
X9470158Y-15942960D02*
X9451110Y-15952484D01*
X9451110Y-15952484D02*
X9432063Y-15952484D01*
X9432063Y-15952484D02*
X9413015Y-15942960D01*
X9413015Y-15942960D02*
X9403491Y-15933436D01*
X9403491Y-15933436D02*
X9393967Y-15914388D01*
X9393967Y-15914388D02*
X9384444Y-15876293D01*
X9384444Y-15876293D02*
X9384444Y-15828674D01*
X9384444Y-15828674D02*
X9393967Y-15790579D01*
X9393967Y-15790579D02*
X9403491Y-15771531D01*
X9403491Y-15771531D02*
X9413015Y-15762008D01*
X9413015Y-15762008D02*
X9432063Y-15752484D01*
X9622539Y-15752484D02*
X9641586Y-15752484D01*
X9641586Y-15752484D02*
X9660634Y-15762008D01*
X9660634Y-15762008D02*
X9670158Y-15771531D01*
X9670158Y-15771531D02*
X9679682Y-15790579D01*
X9679682Y-15790579D02*
X9689205Y-15828674D01*
X9689205Y-15828674D02*
X9689205Y-15876293D01*
X9689205Y-15876293D02*
X9679682Y-15914388D01*
X9679682Y-15914388D02*
X9670158Y-15933436D01*
X9670158Y-15933436D02*
X9660634Y-15942960D01*
X9660634Y-15942960D02*
X9641586Y-15952484D01*
X9641586Y-15952484D02*
X9622539Y-15952484D01*
X9622539Y-15952484D02*
X9603491Y-15942960D01*
X9603491Y-15942960D02*
X9593967Y-15933436D01*
X9593967Y-15933436D02*
X9584444Y-15914388D01*
X9584444Y-15914388D02*
X9574920Y-15876293D01*
X9574920Y-15876293D02*
X9574920Y-15828674D01*
X9574920Y-15828674D02*
X9584444Y-15790579D01*
X9584444Y-15790579D02*
X9593967Y-15771531D01*
X9593967Y-15771531D02*
X9603491Y-15762008D01*
X9603491Y-15762008D02*
X9622539Y-15752484D01*
X9774920Y-15952484D02*
X9774920Y-15819150D01*
X9774920Y-15838198D02*
X9784444Y-15828674D01*
X9784444Y-15828674D02*
X9803491Y-15819150D01*
X9803491Y-15819150D02*
X9832063Y-15819150D01*
X9832063Y-15819150D02*
X9851110Y-15828674D01*
X9851110Y-15828674D02*
X9860634Y-15847722D01*
X9860634Y-15847722D02*
X9860634Y-15952484D01*
X9860634Y-15847722D02*
X9870158Y-15828674D01*
X9870158Y-15828674D02*
X9889205Y-15819150D01*
X9889205Y-15819150D02*
X9917777Y-15819150D01*
X9917777Y-15819150D02*
X9936825Y-15828674D01*
X9936825Y-15828674D02*
X9946348Y-15847722D01*
X9946348Y-15847722D02*
X9946348Y-15952484D01*
X10041586Y-15952484D02*
X10041586Y-15819150D01*
X10041586Y-15838198D02*
X10051110Y-15828674D01*
X10051110Y-15828674D02*
X10070158Y-15819150D01*
X10070158Y-15819150D02*
X10098729Y-15819150D01*
X10098729Y-15819150D02*
X10117777Y-15828674D01*
X10117777Y-15828674D02*
X10127301Y-15847722D01*
X10127301Y-15847722D02*
X10127301Y-15952484D01*
X10127301Y-15847722D02*
X10136825Y-15828674D01*
X10136825Y-15828674D02*
X10155872Y-15819150D01*
X10155872Y-15819150D02*
X10184444Y-15819150D01*
X10184444Y-15819150D02*
X10203491Y-15828674D01*
X10203491Y-15828674D02*
X10213015Y-15847722D01*
X10213015Y-15847722D02*
X10213015Y-15952484D01*
X10603491Y-15742960D02*
X10432063Y-16000103D01*
X10860634Y-15752484D02*
X10879682Y-15752484D01*
X10879682Y-15752484D02*
X10898729Y-15762008D01*
X10898729Y-15762008D02*
X10908253Y-15771531D01*
X10908253Y-15771531D02*
X10917777Y-15790579D01*
X10917777Y-15790579D02*
X10927301Y-15828674D01*
X10927301Y-15828674D02*
X10927301Y-15876293D01*
X10927301Y-15876293D02*
X10917777Y-15914388D01*
X10917777Y-15914388D02*
X10908253Y-15933436D01*
X10908253Y-15933436D02*
X10898729Y-15942960D01*
X10898729Y-15942960D02*
X10879682Y-15952484D01*
X10879682Y-15952484D02*
X10860634Y-15952484D01*
X10860634Y-15952484D02*
X10841587Y-15942960D01*
X10841587Y-15942960D02*
X10832063Y-15933436D01*
X10832063Y-15933436D02*
X10822539Y-15914388D01*
X10822539Y-15914388D02*
X10813015Y-15876293D01*
X10813015Y-15876293D02*
X10813015Y-15828674D01*
X10813015Y-15828674D02*
X10822539Y-15790579D01*
X10822539Y-15790579D02*
X10832063Y-15771531D01*
X10832063Y-15771531D02*
X10841587Y-15762008D01*
X10841587Y-15762008D02*
X10860634Y-15752484D01*
X11013015Y-15933436D02*
X11022539Y-15942960D01*
X11022539Y-15942960D02*
X11013015Y-15952484D01*
X11013015Y-15952484D02*
X11003491Y-15942960D01*
X11003491Y-15942960D02*
X11013015Y-15933436D01*
X11013015Y-15933436D02*
X11013015Y-15952484D01*
X11146348Y-15752484D02*
X11165396Y-15752484D01*
X11165396Y-15752484D02*
X11184444Y-15762008D01*
X11184444Y-15762008D02*
X11193967Y-15771531D01*
X11193967Y-15771531D02*
X11203491Y-15790579D01*
X11203491Y-15790579D02*
X11213015Y-15828674D01*
X11213015Y-15828674D02*
X11213015Y-15876293D01*
X11213015Y-15876293D02*
X11203491Y-15914388D01*
X11203491Y-15914388D02*
X11193967Y-15933436D01*
X11193967Y-15933436D02*
X11184444Y-15942960D01*
X11184444Y-15942960D02*
X11165396Y-15952484D01*
X11165396Y-15952484D02*
X11146348Y-15952484D01*
X11146348Y-15952484D02*
X11127301Y-15942960D01*
X11127301Y-15942960D02*
X11117777Y-15933436D01*
X11117777Y-15933436D02*
X11108253Y-15914388D01*
X11108253Y-15914388D02*
X11098729Y-15876293D01*
X11098729Y-15876293D02*
X11098729Y-15828674D01*
X11098729Y-15828674D02*
X11108253Y-15790579D01*
X11108253Y-15790579D02*
X11117777Y-15771531D01*
X11117777Y-15771531D02*
X11127301Y-15762008D01*
X11127301Y-15762008D02*
X11146348Y-15752484D01*
X11279682Y-15752484D02*
X11403491Y-15752484D01*
X11403491Y-15752484D02*
X11336825Y-15828674D01*
X11336825Y-15828674D02*
X11365396Y-15828674D01*
X11365396Y-15828674D02*
X11384444Y-15838198D01*
X11384444Y-15838198D02*
X11393967Y-15847722D01*
X11393967Y-15847722D02*
X11403491Y-15866769D01*
X11403491Y-15866769D02*
X11403491Y-15914388D01*
X11403491Y-15914388D02*
X11393967Y-15933436D01*
X11393967Y-15933436D02*
X11384444Y-15942960D01*
X11384444Y-15942960D02*
X11365396Y-15952484D01*
X11365396Y-15952484D02*
X11308253Y-15952484D01*
X11308253Y-15952484D02*
X11289206Y-15942960D01*
X11289206Y-15942960D02*
X11279682Y-15933436D01*
X11498729Y-15952484D02*
X11536825Y-15952484D01*
X11536825Y-15952484D02*
X11555872Y-15942960D01*
X11555872Y-15942960D02*
X11565396Y-15933436D01*
X11565396Y-15933436D02*
X11584444Y-15904865D01*
X11584444Y-15904865D02*
X11593967Y-15866769D01*
X11593967Y-15866769D02*
X11593967Y-15790579D01*
X11593967Y-15790579D02*
X11584444Y-15771531D01*
X11584444Y-15771531D02*
X11574920Y-15762008D01*
X11574920Y-15762008D02*
X11555872Y-15752484D01*
X11555872Y-15752484D02*
X11517777Y-15752484D01*
X11517777Y-15752484D02*
X11498729Y-15762008D01*
X11498729Y-15762008D02*
X11489206Y-15771531D01*
X11489206Y-15771531D02*
X11479682Y-15790579D01*
X11479682Y-15790579D02*
X11479682Y-15838198D01*
X11479682Y-15838198D02*
X11489206Y-15857246D01*
X11489206Y-15857246D02*
X11498729Y-15866769D01*
X11498729Y-15866769D02*
X11517777Y-15876293D01*
X11517777Y-15876293D02*
X11555872Y-15876293D01*
X11555872Y-15876293D02*
X11574920Y-15866769D01*
X11574920Y-15866769D02*
X11584444Y-15857246D01*
X11584444Y-15857246D02*
X11593967Y-15838198D01*
X11765396Y-15819150D02*
X11765396Y-15952484D01*
X11717777Y-15742960D02*
X11670158Y-15885817D01*
X11670158Y-15885817D02*
X11793967Y-15885817D01*
X11860634Y-15752484D02*
X11860634Y-15790579D01*
X11936825Y-15752484D02*
X11936825Y-15790579D01*
X12232063Y-16028674D02*
X12222539Y-16019150D01*
X12222539Y-16019150D02*
X12203491Y-15990579D01*
X12203491Y-15990579D02*
X12193968Y-15971531D01*
X12193968Y-15971531D02*
X12184444Y-15942960D01*
X12184444Y-15942960D02*
X12174920Y-15895341D01*
X12174920Y-15895341D02*
X12174920Y-15857246D01*
X12174920Y-15857246D02*
X12184444Y-15809627D01*
X12184444Y-15809627D02*
X12193968Y-15781055D01*
X12193968Y-15781055D02*
X12203491Y-15762008D01*
X12203491Y-15762008D02*
X12222539Y-15733436D01*
X12222539Y-15733436D02*
X12232063Y-15723912D01*
X12298729Y-15771531D02*
X12308253Y-15762008D01*
X12308253Y-15762008D02*
X12327301Y-15752484D01*
X12327301Y-15752484D02*
X12374920Y-15752484D01*
X12374920Y-15752484D02*
X12393968Y-15762008D01*
X12393968Y-15762008D02*
X12403491Y-15771531D01*
X12403491Y-15771531D02*
X12413015Y-15790579D01*
X12413015Y-15790579D02*
X12413015Y-15809627D01*
X12413015Y-15809627D02*
X12403491Y-15838198D01*
X12403491Y-15838198D02*
X12289206Y-15952484D01*
X12289206Y-15952484D02*
X12413015Y-15952484D01*
X12536825Y-15752484D02*
X12555872Y-15752484D01*
X12555872Y-15752484D02*
X12574920Y-15762008D01*
X12574920Y-15762008D02*
X12584444Y-15771531D01*
X12584444Y-15771531D02*
X12593968Y-15790579D01*
X12593968Y-15790579D02*
X12603491Y-15828674D01*
X12603491Y-15828674D02*
X12603491Y-15876293D01*
X12603491Y-15876293D02*
X12593968Y-15914388D01*
X12593968Y-15914388D02*
X12584444Y-15933436D01*
X12584444Y-15933436D02*
X12574920Y-15942960D01*
X12574920Y-15942960D02*
X12555872Y-15952484D01*
X12555872Y-15952484D02*
X12536825Y-15952484D01*
X12536825Y-15952484D02*
X12517777Y-15942960D01*
X12517777Y-15942960D02*
X12508253Y-15933436D01*
X12508253Y-15933436D02*
X12498729Y-15914388D01*
X12498729Y-15914388D02*
X12489206Y-15876293D01*
X12489206Y-15876293D02*
X12489206Y-15828674D01*
X12489206Y-15828674D02*
X12498729Y-15790579D01*
X12498729Y-15790579D02*
X12508253Y-15771531D01*
X12508253Y-15771531D02*
X12517777Y-15762008D01*
X12517777Y-15762008D02*
X12536825Y-15752484D01*
X12727301Y-15752484D02*
X12746349Y-15752484D01*
X12746349Y-15752484D02*
X12765396Y-15762008D01*
X12765396Y-15762008D02*
X12774920Y-15771531D01*
X12774920Y-15771531D02*
X12784444Y-15790579D01*
X12784444Y-15790579D02*
X12793968Y-15828674D01*
X12793968Y-15828674D02*
X12793968Y-15876293D01*
X12793968Y-15876293D02*
X12784444Y-15914388D01*
X12784444Y-15914388D02*
X12774920Y-15933436D01*
X12774920Y-15933436D02*
X12765396Y-15942960D01*
X12765396Y-15942960D02*
X12746349Y-15952484D01*
X12746349Y-15952484D02*
X12727301Y-15952484D01*
X12727301Y-15952484D02*
X12708253Y-15942960D01*
X12708253Y-15942960D02*
X12698729Y-15933436D01*
X12698729Y-15933436D02*
X12689206Y-15914388D01*
X12689206Y-15914388D02*
X12679682Y-15876293D01*
X12679682Y-15876293D02*
X12679682Y-15828674D01*
X12679682Y-15828674D02*
X12689206Y-15790579D01*
X12689206Y-15790579D02*
X12698729Y-15771531D01*
X12698729Y-15771531D02*
X12708253Y-15762008D01*
X12708253Y-15762008D02*
X12727301Y-15752484D01*
X13032063Y-15952484D02*
X13032063Y-15752484D01*
X13117777Y-15952484D02*
X13117777Y-15847722D01*
X13117777Y-15847722D02*
X13108253Y-15828674D01*
X13108253Y-15828674D02*
X13089206Y-15819150D01*
X13089206Y-15819150D02*
X13060634Y-15819150D01*
X13060634Y-15819150D02*
X13041587Y-15828674D01*
X13041587Y-15828674D02*
X13032063Y-15838198D01*
X13241587Y-15952484D02*
X13222539Y-15942960D01*
X13222539Y-15942960D02*
X13213015Y-15933436D01*
X13213015Y-15933436D02*
X13203491Y-15914388D01*
X13203491Y-15914388D02*
X13203491Y-15857246D01*
X13203491Y-15857246D02*
X13213015Y-15838198D01*
X13213015Y-15838198D02*
X13222539Y-15828674D01*
X13222539Y-15828674D02*
X13241587Y-15819150D01*
X13241587Y-15819150D02*
X13270158Y-15819150D01*
X13270158Y-15819150D02*
X13289206Y-15828674D01*
X13289206Y-15828674D02*
X13298730Y-15838198D01*
X13298730Y-15838198D02*
X13308253Y-15857246D01*
X13308253Y-15857246D02*
X13308253Y-15914388D01*
X13308253Y-15914388D02*
X13298730Y-15933436D01*
X13298730Y-15933436D02*
X13289206Y-15942960D01*
X13289206Y-15942960D02*
X13270158Y-15952484D01*
X13270158Y-15952484D02*
X13241587Y-15952484D01*
X13422539Y-15952484D02*
X13403491Y-15942960D01*
X13403491Y-15942960D02*
X13393968Y-15923912D01*
X13393968Y-15923912D02*
X13393968Y-15752484D01*
X13574920Y-15942960D02*
X13555872Y-15952484D01*
X13555872Y-15952484D02*
X13517777Y-15952484D01*
X13517777Y-15952484D02*
X13498730Y-15942960D01*
X13498730Y-15942960D02*
X13489206Y-15923912D01*
X13489206Y-15923912D02*
X13489206Y-15847722D01*
X13489206Y-15847722D02*
X13498730Y-15828674D01*
X13498730Y-15828674D02*
X13517777Y-15819150D01*
X13517777Y-15819150D02*
X13555872Y-15819150D01*
X13555872Y-15819150D02*
X13574920Y-15828674D01*
X13574920Y-15828674D02*
X13584444Y-15847722D01*
X13584444Y-15847722D02*
X13584444Y-15866769D01*
X13584444Y-15866769D02*
X13489206Y-15885817D01*
X13660634Y-15942960D02*
X13679682Y-15952484D01*
X13679682Y-15952484D02*
X13717777Y-15952484D01*
X13717777Y-15952484D02*
X13736825Y-15942960D01*
X13736825Y-15942960D02*
X13746349Y-15923912D01*
X13746349Y-15923912D02*
X13746349Y-15914388D01*
X13746349Y-15914388D02*
X13736825Y-15895341D01*
X13736825Y-15895341D02*
X13717777Y-15885817D01*
X13717777Y-15885817D02*
X13689206Y-15885817D01*
X13689206Y-15885817D02*
X13670158Y-15876293D01*
X13670158Y-15876293D02*
X13660634Y-15857246D01*
X13660634Y-15857246D02*
X13660634Y-15847722D01*
X13660634Y-15847722D02*
X13670158Y-15828674D01*
X13670158Y-15828674D02*
X13689206Y-15819150D01*
X13689206Y-15819150D02*
X13717777Y-15819150D01*
X13717777Y-15819150D02*
X13736825Y-15828674D01*
X13813015Y-16028674D02*
X13822539Y-16019150D01*
X13822539Y-16019150D02*
X13841587Y-15990579D01*
X13841587Y-15990579D02*
X13851111Y-15971531D01*
X13851111Y-15971531D02*
X13860634Y-15942960D01*
X13860634Y-15942960D02*
X13870158Y-15895341D01*
X13870158Y-15895341D02*
X13870158Y-15857246D01*
X13870158Y-15857246D02*
X13860634Y-15809627D01*
X13860634Y-15809627D02*
X13851111Y-15781055D01*
X13851111Y-15781055D02*
X13841587Y-15762008D01*
X13841587Y-15762008D02*
X13822539Y-15733436D01*
X13822539Y-15733436D02*
X13813015Y-15723912D01*
D12*
X8657000Y-16125000D02*
G75*
G03*
X8657000Y-16125000I-51000J0D01*
G01*
D11*
X9022539Y-16216484D02*
X8908253Y-16216484D01*
X8965396Y-16216484D02*
X8965396Y-16016484D01*
X8965396Y-16016484D02*
X8946348Y-16045055D01*
X8946348Y-16045055D02*
X8927301Y-16064103D01*
X8927301Y-16064103D02*
X8908253Y-16073627D01*
X9108253Y-16197436D02*
X9117777Y-16206960D01*
X9117777Y-16206960D02*
X9108253Y-16216484D01*
X9108253Y-16216484D02*
X9098729Y-16206960D01*
X9098729Y-16206960D02*
X9108253Y-16197436D01*
X9108253Y-16197436D02*
X9108253Y-16216484D01*
X9241586Y-16016484D02*
X9260634Y-16016484D01*
X9260634Y-16016484D02*
X9279682Y-16026008D01*
X9279682Y-16026008D02*
X9289205Y-16035531D01*
X9289205Y-16035531D02*
X9298729Y-16054579D01*
X9298729Y-16054579D02*
X9308253Y-16092674D01*
X9308253Y-16092674D02*
X9308253Y-16140293D01*
X9308253Y-16140293D02*
X9298729Y-16178388D01*
X9298729Y-16178388D02*
X9289205Y-16197436D01*
X9289205Y-16197436D02*
X9279682Y-16206960D01*
X9279682Y-16206960D02*
X9260634Y-16216484D01*
X9260634Y-16216484D02*
X9241586Y-16216484D01*
X9241586Y-16216484D02*
X9222539Y-16206960D01*
X9222539Y-16206960D02*
X9213015Y-16197436D01*
X9213015Y-16197436D02*
X9203491Y-16178388D01*
X9203491Y-16178388D02*
X9193967Y-16140293D01*
X9193967Y-16140293D02*
X9193967Y-16092674D01*
X9193967Y-16092674D02*
X9203491Y-16054579D01*
X9203491Y-16054579D02*
X9213015Y-16035531D01*
X9213015Y-16035531D02*
X9222539Y-16026008D01*
X9222539Y-16026008D02*
X9241586Y-16016484D01*
X9384444Y-16035531D02*
X9393967Y-16026008D01*
X9393967Y-16026008D02*
X9413015Y-16016484D01*
X9413015Y-16016484D02*
X9460634Y-16016484D01*
X9460634Y-16016484D02*
X9479682Y-16026008D01*
X9479682Y-16026008D02*
X9489205Y-16035531D01*
X9489205Y-16035531D02*
X9498729Y-16054579D01*
X9498729Y-16054579D02*
X9498729Y-16073627D01*
X9498729Y-16073627D02*
X9489205Y-16102198D01*
X9489205Y-16102198D02*
X9374920Y-16216484D01*
X9374920Y-16216484D02*
X9498729Y-16216484D01*
X9622539Y-16016484D02*
X9641586Y-16016484D01*
X9641586Y-16016484D02*
X9660634Y-16026008D01*
X9660634Y-16026008D02*
X9670158Y-16035531D01*
X9670158Y-16035531D02*
X9679682Y-16054579D01*
X9679682Y-16054579D02*
X9689205Y-16092674D01*
X9689205Y-16092674D02*
X9689205Y-16140293D01*
X9689205Y-16140293D02*
X9679682Y-16178388D01*
X9679682Y-16178388D02*
X9670158Y-16197436D01*
X9670158Y-16197436D02*
X9660634Y-16206960D01*
X9660634Y-16206960D02*
X9641586Y-16216484D01*
X9641586Y-16216484D02*
X9622539Y-16216484D01*
X9622539Y-16216484D02*
X9603491Y-16206960D01*
X9603491Y-16206960D02*
X9593967Y-16197436D01*
X9593967Y-16197436D02*
X9584444Y-16178388D01*
X9584444Y-16178388D02*
X9574920Y-16140293D01*
X9574920Y-16140293D02*
X9574920Y-16092674D01*
X9574920Y-16092674D02*
X9584444Y-16054579D01*
X9584444Y-16054579D02*
X9593967Y-16035531D01*
X9593967Y-16035531D02*
X9603491Y-16026008D01*
X9603491Y-16026008D02*
X9622539Y-16016484D01*
X9774920Y-16216484D02*
X9774920Y-16083150D01*
X9774920Y-16102198D02*
X9784444Y-16092674D01*
X9784444Y-16092674D02*
X9803491Y-16083150D01*
X9803491Y-16083150D02*
X9832063Y-16083150D01*
X9832063Y-16083150D02*
X9851110Y-16092674D01*
X9851110Y-16092674D02*
X9860634Y-16111722D01*
X9860634Y-16111722D02*
X9860634Y-16216484D01*
X9860634Y-16111722D02*
X9870158Y-16092674D01*
X9870158Y-16092674D02*
X9889205Y-16083150D01*
X9889205Y-16083150D02*
X9917777Y-16083150D01*
X9917777Y-16083150D02*
X9936825Y-16092674D01*
X9936825Y-16092674D02*
X9946348Y-16111722D01*
X9946348Y-16111722D02*
X9946348Y-16216484D01*
X10041586Y-16216484D02*
X10041586Y-16083150D01*
X10041586Y-16102198D02*
X10051110Y-16092674D01*
X10051110Y-16092674D02*
X10070158Y-16083150D01*
X10070158Y-16083150D02*
X10098729Y-16083150D01*
X10098729Y-16083150D02*
X10117777Y-16092674D01*
X10117777Y-16092674D02*
X10127301Y-16111722D01*
X10127301Y-16111722D02*
X10127301Y-16216484D01*
X10127301Y-16111722D02*
X10136825Y-16092674D01*
X10136825Y-16092674D02*
X10155872Y-16083150D01*
X10155872Y-16083150D02*
X10184444Y-16083150D01*
X10184444Y-16083150D02*
X10203491Y-16092674D01*
X10203491Y-16092674D02*
X10213015Y-16111722D01*
X10213015Y-16111722D02*
X10213015Y-16216484D01*
X10603491Y-16006960D02*
X10432063Y-16264103D01*
X10860634Y-16016484D02*
X10879682Y-16016484D01*
X10879682Y-16016484D02*
X10898729Y-16026008D01*
X10898729Y-16026008D02*
X10908253Y-16035531D01*
X10908253Y-16035531D02*
X10917777Y-16054579D01*
X10917777Y-16054579D02*
X10927301Y-16092674D01*
X10927301Y-16092674D02*
X10927301Y-16140293D01*
X10927301Y-16140293D02*
X10917777Y-16178388D01*
X10917777Y-16178388D02*
X10908253Y-16197436D01*
X10908253Y-16197436D02*
X10898729Y-16206960D01*
X10898729Y-16206960D02*
X10879682Y-16216484D01*
X10879682Y-16216484D02*
X10860634Y-16216484D01*
X10860634Y-16216484D02*
X10841587Y-16206960D01*
X10841587Y-16206960D02*
X10832063Y-16197436D01*
X10832063Y-16197436D02*
X10822539Y-16178388D01*
X10822539Y-16178388D02*
X10813015Y-16140293D01*
X10813015Y-16140293D02*
X10813015Y-16092674D01*
X10813015Y-16092674D02*
X10822539Y-16054579D01*
X10822539Y-16054579D02*
X10832063Y-16035531D01*
X10832063Y-16035531D02*
X10841587Y-16026008D01*
X10841587Y-16026008D02*
X10860634Y-16016484D01*
X11013015Y-16197436D02*
X11022539Y-16206960D01*
X11022539Y-16206960D02*
X11013015Y-16216484D01*
X11013015Y-16216484D02*
X11003491Y-16206960D01*
X11003491Y-16206960D02*
X11013015Y-16197436D01*
X11013015Y-16197436D02*
X11013015Y-16216484D01*
X11146348Y-16016484D02*
X11165396Y-16016484D01*
X11165396Y-16016484D02*
X11184444Y-16026008D01*
X11184444Y-16026008D02*
X11193967Y-16035531D01*
X11193967Y-16035531D02*
X11203491Y-16054579D01*
X11203491Y-16054579D02*
X11213015Y-16092674D01*
X11213015Y-16092674D02*
X11213015Y-16140293D01*
X11213015Y-16140293D02*
X11203491Y-16178388D01*
X11203491Y-16178388D02*
X11193967Y-16197436D01*
X11193967Y-16197436D02*
X11184444Y-16206960D01*
X11184444Y-16206960D02*
X11165396Y-16216484D01*
X11165396Y-16216484D02*
X11146348Y-16216484D01*
X11146348Y-16216484D02*
X11127301Y-16206960D01*
X11127301Y-16206960D02*
X11117777Y-16197436D01*
X11117777Y-16197436D02*
X11108253Y-16178388D01*
X11108253Y-16178388D02*
X11098729Y-16140293D01*
X11098729Y-16140293D02*
X11098729Y-16092674D01*
X11098729Y-16092674D02*
X11108253Y-16054579D01*
X11108253Y-16054579D02*
X11117777Y-16035531D01*
X11117777Y-16035531D02*
X11127301Y-16026008D01*
X11127301Y-16026008D02*
X11146348Y-16016484D01*
X11384444Y-16083150D02*
X11384444Y-16216484D01*
X11336825Y-16006960D02*
X11289206Y-16149817D01*
X11289206Y-16149817D02*
X11413015Y-16149817D01*
X11527301Y-16016484D02*
X11546348Y-16016484D01*
X11546348Y-16016484D02*
X11565396Y-16026008D01*
X11565396Y-16026008D02*
X11574920Y-16035531D01*
X11574920Y-16035531D02*
X11584444Y-16054579D01*
X11584444Y-16054579D02*
X11593967Y-16092674D01*
X11593967Y-16092674D02*
X11593967Y-16140293D01*
X11593967Y-16140293D02*
X11584444Y-16178388D01*
X11584444Y-16178388D02*
X11574920Y-16197436D01*
X11574920Y-16197436D02*
X11565396Y-16206960D01*
X11565396Y-16206960D02*
X11546348Y-16216484D01*
X11546348Y-16216484D02*
X11527301Y-16216484D01*
X11527301Y-16216484D02*
X11508253Y-16206960D01*
X11508253Y-16206960D02*
X11498729Y-16197436D01*
X11498729Y-16197436D02*
X11489206Y-16178388D01*
X11489206Y-16178388D02*
X11479682Y-16140293D01*
X11479682Y-16140293D02*
X11479682Y-16092674D01*
X11479682Y-16092674D02*
X11489206Y-16054579D01*
X11489206Y-16054579D02*
X11498729Y-16035531D01*
X11498729Y-16035531D02*
X11508253Y-16026008D01*
X11508253Y-16026008D02*
X11527301Y-16016484D01*
X11670158Y-16035531D02*
X11679682Y-16026008D01*
X11679682Y-16026008D02*
X11698729Y-16016484D01*
X11698729Y-16016484D02*
X11746348Y-16016484D01*
X11746348Y-16016484D02*
X11765396Y-16026008D01*
X11765396Y-16026008D02*
X11774920Y-16035531D01*
X11774920Y-16035531D02*
X11784444Y-16054579D01*
X11784444Y-16054579D02*
X11784444Y-16073627D01*
X11784444Y-16073627D02*
X11774920Y-16102198D01*
X11774920Y-16102198D02*
X11660634Y-16216484D01*
X11660634Y-16216484D02*
X11784444Y-16216484D01*
X11860634Y-16016484D02*
X11860634Y-16054579D01*
X11936825Y-16016484D02*
X11936825Y-16054579D01*
X12232063Y-16292674D02*
X12222539Y-16283150D01*
X12222539Y-16283150D02*
X12203491Y-16254579D01*
X12203491Y-16254579D02*
X12193968Y-16235531D01*
X12193968Y-16235531D02*
X12184444Y-16206960D01*
X12184444Y-16206960D02*
X12174920Y-16159341D01*
X12174920Y-16159341D02*
X12174920Y-16121246D01*
X12174920Y-16121246D02*
X12184444Y-16073627D01*
X12184444Y-16073627D02*
X12193968Y-16045055D01*
X12193968Y-16045055D02*
X12203491Y-16026008D01*
X12203491Y-16026008D02*
X12222539Y-15997436D01*
X12222539Y-15997436D02*
X12232063Y-15987912D01*
X12298729Y-16035531D02*
X12308253Y-16026008D01*
X12308253Y-16026008D02*
X12327301Y-16016484D01*
X12327301Y-16016484D02*
X12374920Y-16016484D01*
X12374920Y-16016484D02*
X12393968Y-16026008D01*
X12393968Y-16026008D02*
X12403491Y-16035531D01*
X12403491Y-16035531D02*
X12413015Y-16054579D01*
X12413015Y-16054579D02*
X12413015Y-16073627D01*
X12413015Y-16073627D02*
X12403491Y-16102198D01*
X12403491Y-16102198D02*
X12289206Y-16216484D01*
X12289206Y-16216484D02*
X12413015Y-16216484D01*
X12584444Y-16016484D02*
X12546348Y-16016484D01*
X12546348Y-16016484D02*
X12527301Y-16026008D01*
X12527301Y-16026008D02*
X12517777Y-16035531D01*
X12517777Y-16035531D02*
X12498729Y-16064103D01*
X12498729Y-16064103D02*
X12489206Y-16102198D01*
X12489206Y-16102198D02*
X12489206Y-16178388D01*
X12489206Y-16178388D02*
X12498729Y-16197436D01*
X12498729Y-16197436D02*
X12508253Y-16206960D01*
X12508253Y-16206960D02*
X12527301Y-16216484D01*
X12527301Y-16216484D02*
X12565396Y-16216484D01*
X12565396Y-16216484D02*
X12584444Y-16206960D01*
X12584444Y-16206960D02*
X12593968Y-16197436D01*
X12593968Y-16197436D02*
X12603491Y-16178388D01*
X12603491Y-16178388D02*
X12603491Y-16130769D01*
X12603491Y-16130769D02*
X12593968Y-16111722D01*
X12593968Y-16111722D02*
X12584444Y-16102198D01*
X12584444Y-16102198D02*
X12565396Y-16092674D01*
X12565396Y-16092674D02*
X12527301Y-16092674D01*
X12527301Y-16092674D02*
X12508253Y-16102198D01*
X12508253Y-16102198D02*
X12498729Y-16111722D01*
X12498729Y-16111722D02*
X12489206Y-16130769D01*
X12841587Y-16216484D02*
X12841587Y-16016484D01*
X12927301Y-16216484D02*
X12927301Y-16111722D01*
X12927301Y-16111722D02*
X12917777Y-16092674D01*
X12917777Y-16092674D02*
X12898730Y-16083150D01*
X12898730Y-16083150D02*
X12870158Y-16083150D01*
X12870158Y-16083150D02*
X12851110Y-16092674D01*
X12851110Y-16092674D02*
X12841587Y-16102198D01*
X13051110Y-16216484D02*
X13032063Y-16206960D01*
X13032063Y-16206960D02*
X13022539Y-16197436D01*
X13022539Y-16197436D02*
X13013015Y-16178388D01*
X13013015Y-16178388D02*
X13013015Y-16121246D01*
X13013015Y-16121246D02*
X13022539Y-16102198D01*
X13022539Y-16102198D02*
X13032063Y-16092674D01*
X13032063Y-16092674D02*
X13051110Y-16083150D01*
X13051110Y-16083150D02*
X13079682Y-16083150D01*
X13079682Y-16083150D02*
X13098730Y-16092674D01*
X13098730Y-16092674D02*
X13108253Y-16102198D01*
X13108253Y-16102198D02*
X13117777Y-16121246D01*
X13117777Y-16121246D02*
X13117777Y-16178388D01*
X13117777Y-16178388D02*
X13108253Y-16197436D01*
X13108253Y-16197436D02*
X13098730Y-16206960D01*
X13098730Y-16206960D02*
X13079682Y-16216484D01*
X13079682Y-16216484D02*
X13051110Y-16216484D01*
X13232063Y-16216484D02*
X13213015Y-16206960D01*
X13213015Y-16206960D02*
X13203491Y-16187912D01*
X13203491Y-16187912D02*
X13203491Y-16016484D01*
X13384444Y-16206960D02*
X13365396Y-16216484D01*
X13365396Y-16216484D02*
X13327301Y-16216484D01*
X13327301Y-16216484D02*
X13308253Y-16206960D01*
X13308253Y-16206960D02*
X13298730Y-16187912D01*
X13298730Y-16187912D02*
X13298730Y-16111722D01*
X13298730Y-16111722D02*
X13308253Y-16092674D01*
X13308253Y-16092674D02*
X13327301Y-16083150D01*
X13327301Y-16083150D02*
X13365396Y-16083150D01*
X13365396Y-16083150D02*
X13384444Y-16092674D01*
X13384444Y-16092674D02*
X13393968Y-16111722D01*
X13393968Y-16111722D02*
X13393968Y-16130769D01*
X13393968Y-16130769D02*
X13298730Y-16149817D01*
X13470158Y-16206960D02*
X13489206Y-16216484D01*
X13489206Y-16216484D02*
X13527301Y-16216484D01*
X13527301Y-16216484D02*
X13546349Y-16206960D01*
X13546349Y-16206960D02*
X13555872Y-16187912D01*
X13555872Y-16187912D02*
X13555872Y-16178388D01*
X13555872Y-16178388D02*
X13546349Y-16159341D01*
X13546349Y-16159341D02*
X13527301Y-16149817D01*
X13527301Y-16149817D02*
X13498730Y-16149817D01*
X13498730Y-16149817D02*
X13479682Y-16140293D01*
X13479682Y-16140293D02*
X13470158Y-16121246D01*
X13470158Y-16121246D02*
X13470158Y-16111722D01*
X13470158Y-16111722D02*
X13479682Y-16092674D01*
X13479682Y-16092674D02*
X13498730Y-16083150D01*
X13498730Y-16083150D02*
X13527301Y-16083150D01*
X13527301Y-16083150D02*
X13546349Y-16092674D01*
X13622539Y-16292674D02*
X13632063Y-16283150D01*
X13632063Y-16283150D02*
X13651111Y-16254579D01*
X13651111Y-16254579D02*
X13660634Y-16235531D01*
X13660634Y-16235531D02*
X13670158Y-16206960D01*
X13670158Y-16206960D02*
X13679682Y-16159341D01*
X13679682Y-16159341D02*
X13679682Y-16121246D01*
X13679682Y-16121246D02*
X13670158Y-16073627D01*
X13670158Y-16073627D02*
X13660634Y-16045055D01*
X13660634Y-16045055D02*
X13651111Y-16026008D01*
X13651111Y-16026008D02*
X13632063Y-15997436D01*
X13632063Y-15997436D02*
X13622539Y-15987912D01*
D13*
X8582500Y-16314500D02*
X8582500Y-16463500D01*
X8508000Y-16389000D02*
X8657000Y-16389000D01*
D11*
X9022539Y-16480484D02*
X8908253Y-16480484D01*
X8965396Y-16480484D02*
X8965396Y-16280484D01*
X8965396Y-16280484D02*
X8946348Y-16309055D01*
X8946348Y-16309055D02*
X8927301Y-16328103D01*
X8927301Y-16328103D02*
X8908253Y-16337627D01*
X9108253Y-16461436D02*
X9117777Y-16470960D01*
X9117777Y-16470960D02*
X9108253Y-16480484D01*
X9108253Y-16480484D02*
X9098729Y-16470960D01*
X9098729Y-16470960D02*
X9108253Y-16461436D01*
X9108253Y-16461436D02*
X9108253Y-16480484D01*
X9289205Y-16347150D02*
X9289205Y-16480484D01*
X9241586Y-16270960D02*
X9193967Y-16413817D01*
X9193967Y-16413817D02*
X9317777Y-16413817D01*
X9403491Y-16480484D02*
X9441586Y-16480484D01*
X9441586Y-16480484D02*
X9460634Y-16470960D01*
X9460634Y-16470960D02*
X9470158Y-16461436D01*
X9470158Y-16461436D02*
X9489205Y-16432865D01*
X9489205Y-16432865D02*
X9498729Y-16394769D01*
X9498729Y-16394769D02*
X9498729Y-16318579D01*
X9498729Y-16318579D02*
X9489205Y-16299531D01*
X9489205Y-16299531D02*
X9479682Y-16290008D01*
X9479682Y-16290008D02*
X9460634Y-16280484D01*
X9460634Y-16280484D02*
X9422539Y-16280484D01*
X9422539Y-16280484D02*
X9403491Y-16290008D01*
X9403491Y-16290008D02*
X9393967Y-16299531D01*
X9393967Y-16299531D02*
X9384444Y-16318579D01*
X9384444Y-16318579D02*
X9384444Y-16366198D01*
X9384444Y-16366198D02*
X9393967Y-16385246D01*
X9393967Y-16385246D02*
X9403491Y-16394769D01*
X9403491Y-16394769D02*
X9422539Y-16404293D01*
X9422539Y-16404293D02*
X9460634Y-16404293D01*
X9460634Y-16404293D02*
X9479682Y-16394769D01*
X9479682Y-16394769D02*
X9489205Y-16385246D01*
X9489205Y-16385246D02*
X9498729Y-16366198D01*
X9622539Y-16280484D02*
X9641586Y-16280484D01*
X9641586Y-16280484D02*
X9660634Y-16290008D01*
X9660634Y-16290008D02*
X9670158Y-16299531D01*
X9670158Y-16299531D02*
X9679682Y-16318579D01*
X9679682Y-16318579D02*
X9689205Y-16356674D01*
X9689205Y-16356674D02*
X9689205Y-16404293D01*
X9689205Y-16404293D02*
X9679682Y-16442388D01*
X9679682Y-16442388D02*
X9670158Y-16461436D01*
X9670158Y-16461436D02*
X9660634Y-16470960D01*
X9660634Y-16470960D02*
X9641586Y-16480484D01*
X9641586Y-16480484D02*
X9622539Y-16480484D01*
X9622539Y-16480484D02*
X9603491Y-16470960D01*
X9603491Y-16470960D02*
X9593967Y-16461436D01*
X9593967Y-16461436D02*
X9584444Y-16442388D01*
X9584444Y-16442388D02*
X9574920Y-16404293D01*
X9574920Y-16404293D02*
X9574920Y-16356674D01*
X9574920Y-16356674D02*
X9584444Y-16318579D01*
X9584444Y-16318579D02*
X9593967Y-16299531D01*
X9593967Y-16299531D02*
X9603491Y-16290008D01*
X9603491Y-16290008D02*
X9622539Y-16280484D01*
X9774920Y-16480484D02*
X9774920Y-16347150D01*
X9774920Y-16366198D02*
X9784444Y-16356674D01*
X9784444Y-16356674D02*
X9803491Y-16347150D01*
X9803491Y-16347150D02*
X9832063Y-16347150D01*
X9832063Y-16347150D02*
X9851110Y-16356674D01*
X9851110Y-16356674D02*
X9860634Y-16375722D01*
X9860634Y-16375722D02*
X9860634Y-16480484D01*
X9860634Y-16375722D02*
X9870158Y-16356674D01*
X9870158Y-16356674D02*
X9889205Y-16347150D01*
X9889205Y-16347150D02*
X9917777Y-16347150D01*
X9917777Y-16347150D02*
X9936825Y-16356674D01*
X9936825Y-16356674D02*
X9946348Y-16375722D01*
X9946348Y-16375722D02*
X9946348Y-16480484D01*
X10041586Y-16480484D02*
X10041586Y-16347150D01*
X10041586Y-16366198D02*
X10051110Y-16356674D01*
X10051110Y-16356674D02*
X10070158Y-16347150D01*
X10070158Y-16347150D02*
X10098729Y-16347150D01*
X10098729Y-16347150D02*
X10117777Y-16356674D01*
X10117777Y-16356674D02*
X10127301Y-16375722D01*
X10127301Y-16375722D02*
X10127301Y-16480484D01*
X10127301Y-16375722D02*
X10136825Y-16356674D01*
X10136825Y-16356674D02*
X10155872Y-16347150D01*
X10155872Y-16347150D02*
X10184444Y-16347150D01*
X10184444Y-16347150D02*
X10203491Y-16356674D01*
X10203491Y-16356674D02*
X10213015Y-16375722D01*
X10213015Y-16375722D02*
X10213015Y-16480484D01*
X10603491Y-16270960D02*
X10432063Y-16528103D01*
X10860634Y-16280484D02*
X10879682Y-16280484D01*
X10879682Y-16280484D02*
X10898729Y-16290008D01*
X10898729Y-16290008D02*
X10908253Y-16299531D01*
X10908253Y-16299531D02*
X10917777Y-16318579D01*
X10917777Y-16318579D02*
X10927301Y-16356674D01*
X10927301Y-16356674D02*
X10927301Y-16404293D01*
X10927301Y-16404293D02*
X10917777Y-16442388D01*
X10917777Y-16442388D02*
X10908253Y-16461436D01*
X10908253Y-16461436D02*
X10898729Y-16470960D01*
X10898729Y-16470960D02*
X10879682Y-16480484D01*
X10879682Y-16480484D02*
X10860634Y-16480484D01*
X10860634Y-16480484D02*
X10841587Y-16470960D01*
X10841587Y-16470960D02*
X10832063Y-16461436D01*
X10832063Y-16461436D02*
X10822539Y-16442388D01*
X10822539Y-16442388D02*
X10813015Y-16404293D01*
X10813015Y-16404293D02*
X10813015Y-16356674D01*
X10813015Y-16356674D02*
X10822539Y-16318579D01*
X10822539Y-16318579D02*
X10832063Y-16299531D01*
X10832063Y-16299531D02*
X10841587Y-16290008D01*
X10841587Y-16290008D02*
X10860634Y-16280484D01*
X11013015Y-16461436D02*
X11022539Y-16470960D01*
X11022539Y-16470960D02*
X11013015Y-16480484D01*
X11013015Y-16480484D02*
X11003491Y-16470960D01*
X11003491Y-16470960D02*
X11013015Y-16461436D01*
X11013015Y-16461436D02*
X11013015Y-16480484D01*
X11146348Y-16280484D02*
X11165396Y-16280484D01*
X11165396Y-16280484D02*
X11184444Y-16290008D01*
X11184444Y-16290008D02*
X11193967Y-16299531D01*
X11193967Y-16299531D02*
X11203491Y-16318579D01*
X11203491Y-16318579D02*
X11213015Y-16356674D01*
X11213015Y-16356674D02*
X11213015Y-16404293D01*
X11213015Y-16404293D02*
X11203491Y-16442388D01*
X11203491Y-16442388D02*
X11193967Y-16461436D01*
X11193967Y-16461436D02*
X11184444Y-16470960D01*
X11184444Y-16470960D02*
X11165396Y-16480484D01*
X11165396Y-16480484D02*
X11146348Y-16480484D01*
X11146348Y-16480484D02*
X11127301Y-16470960D01*
X11127301Y-16470960D02*
X11117777Y-16461436D01*
X11117777Y-16461436D02*
X11108253Y-16442388D01*
X11108253Y-16442388D02*
X11098729Y-16404293D01*
X11098729Y-16404293D02*
X11098729Y-16356674D01*
X11098729Y-16356674D02*
X11108253Y-16318579D01*
X11108253Y-16318579D02*
X11117777Y-16299531D01*
X11117777Y-16299531D02*
X11127301Y-16290008D01*
X11127301Y-16290008D02*
X11146348Y-16280484D01*
X11393967Y-16280484D02*
X11298729Y-16280484D01*
X11298729Y-16280484D02*
X11289206Y-16375722D01*
X11289206Y-16375722D02*
X11298729Y-16366198D01*
X11298729Y-16366198D02*
X11317777Y-16356674D01*
X11317777Y-16356674D02*
X11365396Y-16356674D01*
X11365396Y-16356674D02*
X11384444Y-16366198D01*
X11384444Y-16366198D02*
X11393967Y-16375722D01*
X11393967Y-16375722D02*
X11403491Y-16394769D01*
X11403491Y-16394769D02*
X11403491Y-16442388D01*
X11403491Y-16442388D02*
X11393967Y-16461436D01*
X11393967Y-16461436D02*
X11384444Y-16470960D01*
X11384444Y-16470960D02*
X11365396Y-16480484D01*
X11365396Y-16480484D02*
X11317777Y-16480484D01*
X11317777Y-16480484D02*
X11298729Y-16470960D01*
X11298729Y-16470960D02*
X11289206Y-16461436D01*
X11517777Y-16366198D02*
X11498729Y-16356674D01*
X11498729Y-16356674D02*
X11489206Y-16347150D01*
X11489206Y-16347150D02*
X11479682Y-16328103D01*
X11479682Y-16328103D02*
X11479682Y-16318579D01*
X11479682Y-16318579D02*
X11489206Y-16299531D01*
X11489206Y-16299531D02*
X11498729Y-16290008D01*
X11498729Y-16290008D02*
X11517777Y-16280484D01*
X11517777Y-16280484D02*
X11555872Y-16280484D01*
X11555872Y-16280484D02*
X11574920Y-16290008D01*
X11574920Y-16290008D02*
X11584444Y-16299531D01*
X11584444Y-16299531D02*
X11593967Y-16318579D01*
X11593967Y-16318579D02*
X11593967Y-16328103D01*
X11593967Y-16328103D02*
X11584444Y-16347150D01*
X11584444Y-16347150D02*
X11574920Y-16356674D01*
X11574920Y-16356674D02*
X11555872Y-16366198D01*
X11555872Y-16366198D02*
X11517777Y-16366198D01*
X11517777Y-16366198D02*
X11498729Y-16375722D01*
X11498729Y-16375722D02*
X11489206Y-16385246D01*
X11489206Y-16385246D02*
X11479682Y-16404293D01*
X11479682Y-16404293D02*
X11479682Y-16442388D01*
X11479682Y-16442388D02*
X11489206Y-16461436D01*
X11489206Y-16461436D02*
X11498729Y-16470960D01*
X11498729Y-16470960D02*
X11517777Y-16480484D01*
X11517777Y-16480484D02*
X11555872Y-16480484D01*
X11555872Y-16480484D02*
X11574920Y-16470960D01*
X11574920Y-16470960D02*
X11584444Y-16461436D01*
X11584444Y-16461436D02*
X11593967Y-16442388D01*
X11593967Y-16442388D02*
X11593967Y-16404293D01*
X11593967Y-16404293D02*
X11584444Y-16385246D01*
X11584444Y-16385246D02*
X11574920Y-16375722D01*
X11574920Y-16375722D02*
X11555872Y-16366198D01*
X11660634Y-16280484D02*
X11793967Y-16280484D01*
X11793967Y-16280484D02*
X11708253Y-16480484D01*
X11860634Y-16280484D02*
X11860634Y-16318579D01*
X11936825Y-16280484D02*
X11936825Y-16318579D01*
X12232063Y-16556674D02*
X12222539Y-16547150D01*
X12222539Y-16547150D02*
X12203491Y-16518579D01*
X12203491Y-16518579D02*
X12193968Y-16499531D01*
X12193968Y-16499531D02*
X12184444Y-16470960D01*
X12184444Y-16470960D02*
X12174920Y-16423341D01*
X12174920Y-16423341D02*
X12174920Y-16385246D01*
X12174920Y-16385246D02*
X12184444Y-16337627D01*
X12184444Y-16337627D02*
X12193968Y-16309055D01*
X12193968Y-16309055D02*
X12203491Y-16290008D01*
X12203491Y-16290008D02*
X12222539Y-16261436D01*
X12222539Y-16261436D02*
X12232063Y-16251912D01*
X12393968Y-16347150D02*
X12393968Y-16480484D01*
X12346348Y-16270960D02*
X12298729Y-16413817D01*
X12298729Y-16413817D02*
X12422539Y-16413817D01*
X12651110Y-16480484D02*
X12651110Y-16280484D01*
X12736825Y-16480484D02*
X12736825Y-16375722D01*
X12736825Y-16375722D02*
X12727301Y-16356674D01*
X12727301Y-16356674D02*
X12708253Y-16347150D01*
X12708253Y-16347150D02*
X12679682Y-16347150D01*
X12679682Y-16347150D02*
X12660634Y-16356674D01*
X12660634Y-16356674D02*
X12651110Y-16366198D01*
X12860634Y-16480484D02*
X12841587Y-16470960D01*
X12841587Y-16470960D02*
X12832063Y-16461436D01*
X12832063Y-16461436D02*
X12822539Y-16442388D01*
X12822539Y-16442388D02*
X12822539Y-16385246D01*
X12822539Y-16385246D02*
X12832063Y-16366198D01*
X12832063Y-16366198D02*
X12841587Y-16356674D01*
X12841587Y-16356674D02*
X12860634Y-16347150D01*
X12860634Y-16347150D02*
X12889206Y-16347150D01*
X12889206Y-16347150D02*
X12908253Y-16356674D01*
X12908253Y-16356674D02*
X12917777Y-16366198D01*
X12917777Y-16366198D02*
X12927301Y-16385246D01*
X12927301Y-16385246D02*
X12927301Y-16442388D01*
X12927301Y-16442388D02*
X12917777Y-16461436D01*
X12917777Y-16461436D02*
X12908253Y-16470960D01*
X12908253Y-16470960D02*
X12889206Y-16480484D01*
X12889206Y-16480484D02*
X12860634Y-16480484D01*
X13041587Y-16480484D02*
X13022539Y-16470960D01*
X13022539Y-16470960D02*
X13013015Y-16451912D01*
X13013015Y-16451912D02*
X13013015Y-16280484D01*
X13193968Y-16470960D02*
X13174920Y-16480484D01*
X13174920Y-16480484D02*
X13136825Y-16480484D01*
X13136825Y-16480484D02*
X13117777Y-16470960D01*
X13117777Y-16470960D02*
X13108253Y-16451912D01*
X13108253Y-16451912D02*
X13108253Y-16375722D01*
X13108253Y-16375722D02*
X13117777Y-16356674D01*
X13117777Y-16356674D02*
X13136825Y-16347150D01*
X13136825Y-16347150D02*
X13174920Y-16347150D01*
X13174920Y-16347150D02*
X13193968Y-16356674D01*
X13193968Y-16356674D02*
X13203491Y-16375722D01*
X13203491Y-16375722D02*
X13203491Y-16394769D01*
X13203491Y-16394769D02*
X13108253Y-16413817D01*
X13279682Y-16470960D02*
X13298730Y-16480484D01*
X13298730Y-16480484D02*
X13336825Y-16480484D01*
X13336825Y-16480484D02*
X13355872Y-16470960D01*
X13355872Y-16470960D02*
X13365396Y-16451912D01*
X13365396Y-16451912D02*
X13365396Y-16442388D01*
X13365396Y-16442388D02*
X13355872Y-16423341D01*
X13355872Y-16423341D02*
X13336825Y-16413817D01*
X13336825Y-16413817D02*
X13308253Y-16413817D01*
X13308253Y-16413817D02*
X13289206Y-16404293D01*
X13289206Y-16404293D02*
X13279682Y-16385246D01*
X13279682Y-16385246D02*
X13279682Y-16375722D01*
X13279682Y-16375722D02*
X13289206Y-16356674D01*
X13289206Y-16356674D02*
X13308253Y-16347150D01*
X13308253Y-16347150D02*
X13336825Y-16347150D01*
X13336825Y-16347150D02*
X13355872Y-16356674D01*
X13432063Y-16556674D02*
X13441587Y-16547150D01*
X13441587Y-16547150D02*
X13460634Y-16518579D01*
X13460634Y-16518579D02*
X13470158Y-16499531D01*
X13470158Y-16499531D02*
X13479682Y-16470960D01*
X13479682Y-16470960D02*
X13489206Y-16423341D01*
X13489206Y-16423341D02*
X13489206Y-16385246D01*
X13489206Y-16385246D02*
X13479682Y-16337627D01*
X13479682Y-16337627D02*
X13470158Y-16309055D01*
X13470158Y-16309055D02*
X13460634Y-16290008D01*
X13460634Y-16290008D02*
X13441587Y-16261436D01*
X13441587Y-16261436D02*
X13432063Y-16251912D01*
D14*
X8631372Y-16719872D02*
X8631372Y-16596128D01*
X8507628Y-16596128D01*
X8507628Y-16719872D01*
X8631372Y-16719872D01*
D11*
X9022539Y-16749484D02*
X8908253Y-16749484D01*
X8965396Y-16749484D02*
X8965396Y-16549484D01*
X8965396Y-16549484D02*
X8946348Y-16578055D01*
X8946348Y-16578055D02*
X8927301Y-16597103D01*
X8927301Y-16597103D02*
X8908253Y-16606627D01*
X9108253Y-16730436D02*
X9117777Y-16739960D01*
X9117777Y-16739960D02*
X9108253Y-16749484D01*
X9108253Y-16749484D02*
X9098729Y-16739960D01*
X9098729Y-16739960D02*
X9108253Y-16730436D01*
X9108253Y-16730436D02*
X9108253Y-16749484D01*
X9184444Y-16549484D02*
X9317777Y-16549484D01*
X9317777Y-16549484D02*
X9232063Y-16749484D01*
X9489205Y-16549484D02*
X9393967Y-16549484D01*
X9393967Y-16549484D02*
X9384444Y-16644722D01*
X9384444Y-16644722D02*
X9393967Y-16635198D01*
X9393967Y-16635198D02*
X9413015Y-16625674D01*
X9413015Y-16625674D02*
X9460634Y-16625674D01*
X9460634Y-16625674D02*
X9479682Y-16635198D01*
X9479682Y-16635198D02*
X9489205Y-16644722D01*
X9489205Y-16644722D02*
X9498729Y-16663769D01*
X9498729Y-16663769D02*
X9498729Y-16711388D01*
X9498729Y-16711388D02*
X9489205Y-16730436D01*
X9489205Y-16730436D02*
X9479682Y-16739960D01*
X9479682Y-16739960D02*
X9460634Y-16749484D01*
X9460634Y-16749484D02*
X9413015Y-16749484D01*
X9413015Y-16749484D02*
X9393967Y-16739960D01*
X9393967Y-16739960D02*
X9384444Y-16730436D01*
X9622539Y-16549484D02*
X9641586Y-16549484D01*
X9641586Y-16549484D02*
X9660634Y-16559008D01*
X9660634Y-16559008D02*
X9670158Y-16568531D01*
X9670158Y-16568531D02*
X9679682Y-16587579D01*
X9679682Y-16587579D02*
X9689205Y-16625674D01*
X9689205Y-16625674D02*
X9689205Y-16673293D01*
X9689205Y-16673293D02*
X9679682Y-16711388D01*
X9679682Y-16711388D02*
X9670158Y-16730436D01*
X9670158Y-16730436D02*
X9660634Y-16739960D01*
X9660634Y-16739960D02*
X9641586Y-16749484D01*
X9641586Y-16749484D02*
X9622539Y-16749484D01*
X9622539Y-16749484D02*
X9603491Y-16739960D01*
X9603491Y-16739960D02*
X9593967Y-16730436D01*
X9593967Y-16730436D02*
X9584444Y-16711388D01*
X9584444Y-16711388D02*
X9574920Y-16673293D01*
X9574920Y-16673293D02*
X9574920Y-16625674D01*
X9574920Y-16625674D02*
X9584444Y-16587579D01*
X9584444Y-16587579D02*
X9593967Y-16568531D01*
X9593967Y-16568531D02*
X9603491Y-16559008D01*
X9603491Y-16559008D02*
X9622539Y-16549484D01*
X9774920Y-16749484D02*
X9774920Y-16616150D01*
X9774920Y-16635198D02*
X9784444Y-16625674D01*
X9784444Y-16625674D02*
X9803491Y-16616150D01*
X9803491Y-16616150D02*
X9832063Y-16616150D01*
X9832063Y-16616150D02*
X9851110Y-16625674D01*
X9851110Y-16625674D02*
X9860634Y-16644722D01*
X9860634Y-16644722D02*
X9860634Y-16749484D01*
X9860634Y-16644722D02*
X9870158Y-16625674D01*
X9870158Y-16625674D02*
X9889205Y-16616150D01*
X9889205Y-16616150D02*
X9917777Y-16616150D01*
X9917777Y-16616150D02*
X9936825Y-16625674D01*
X9936825Y-16625674D02*
X9946348Y-16644722D01*
X9946348Y-16644722D02*
X9946348Y-16749484D01*
X10041586Y-16749484D02*
X10041586Y-16616150D01*
X10041586Y-16635198D02*
X10051110Y-16625674D01*
X10051110Y-16625674D02*
X10070158Y-16616150D01*
X10070158Y-16616150D02*
X10098729Y-16616150D01*
X10098729Y-16616150D02*
X10117777Y-16625674D01*
X10117777Y-16625674D02*
X10127301Y-16644722D01*
X10127301Y-16644722D02*
X10127301Y-16749484D01*
X10127301Y-16644722D02*
X10136825Y-16625674D01*
X10136825Y-16625674D02*
X10155872Y-16616150D01*
X10155872Y-16616150D02*
X10184444Y-16616150D01*
X10184444Y-16616150D02*
X10203491Y-16625674D01*
X10203491Y-16625674D02*
X10213015Y-16644722D01*
X10213015Y-16644722D02*
X10213015Y-16749484D01*
X10603491Y-16539960D02*
X10432063Y-16797103D01*
X10860634Y-16549484D02*
X10879682Y-16549484D01*
X10879682Y-16549484D02*
X10898729Y-16559008D01*
X10898729Y-16559008D02*
X10908253Y-16568531D01*
X10908253Y-16568531D02*
X10917777Y-16587579D01*
X10917777Y-16587579D02*
X10927301Y-16625674D01*
X10927301Y-16625674D02*
X10927301Y-16673293D01*
X10927301Y-16673293D02*
X10917777Y-16711388D01*
X10917777Y-16711388D02*
X10908253Y-16730436D01*
X10908253Y-16730436D02*
X10898729Y-16739960D01*
X10898729Y-16739960D02*
X10879682Y-16749484D01*
X10879682Y-16749484D02*
X10860634Y-16749484D01*
X10860634Y-16749484D02*
X10841587Y-16739960D01*
X10841587Y-16739960D02*
X10832063Y-16730436D01*
X10832063Y-16730436D02*
X10822539Y-16711388D01*
X10822539Y-16711388D02*
X10813015Y-16673293D01*
X10813015Y-16673293D02*
X10813015Y-16625674D01*
X10813015Y-16625674D02*
X10822539Y-16587579D01*
X10822539Y-16587579D02*
X10832063Y-16568531D01*
X10832063Y-16568531D02*
X10841587Y-16559008D01*
X10841587Y-16559008D02*
X10860634Y-16549484D01*
X11013015Y-16730436D02*
X11022539Y-16739960D01*
X11022539Y-16739960D02*
X11013015Y-16749484D01*
X11013015Y-16749484D02*
X11003491Y-16739960D01*
X11003491Y-16739960D02*
X11013015Y-16730436D01*
X11013015Y-16730436D02*
X11013015Y-16749484D01*
X11146348Y-16549484D02*
X11165396Y-16549484D01*
X11165396Y-16549484D02*
X11184444Y-16559008D01*
X11184444Y-16559008D02*
X11193967Y-16568531D01*
X11193967Y-16568531D02*
X11203491Y-16587579D01*
X11203491Y-16587579D02*
X11213015Y-16625674D01*
X11213015Y-16625674D02*
X11213015Y-16673293D01*
X11213015Y-16673293D02*
X11203491Y-16711388D01*
X11203491Y-16711388D02*
X11193967Y-16730436D01*
X11193967Y-16730436D02*
X11184444Y-16739960D01*
X11184444Y-16739960D02*
X11165396Y-16749484D01*
X11165396Y-16749484D02*
X11146348Y-16749484D01*
X11146348Y-16749484D02*
X11127301Y-16739960D01*
X11127301Y-16739960D02*
X11117777Y-16730436D01*
X11117777Y-16730436D02*
X11108253Y-16711388D01*
X11108253Y-16711388D02*
X11098729Y-16673293D01*
X11098729Y-16673293D02*
X11098729Y-16625674D01*
X11098729Y-16625674D02*
X11108253Y-16587579D01*
X11108253Y-16587579D02*
X11117777Y-16568531D01*
X11117777Y-16568531D02*
X11127301Y-16559008D01*
X11127301Y-16559008D02*
X11146348Y-16549484D01*
X11384444Y-16549484D02*
X11346348Y-16549484D01*
X11346348Y-16549484D02*
X11327301Y-16559008D01*
X11327301Y-16559008D02*
X11317777Y-16568531D01*
X11317777Y-16568531D02*
X11298729Y-16597103D01*
X11298729Y-16597103D02*
X11289206Y-16635198D01*
X11289206Y-16635198D02*
X11289206Y-16711388D01*
X11289206Y-16711388D02*
X11298729Y-16730436D01*
X11298729Y-16730436D02*
X11308253Y-16739960D01*
X11308253Y-16739960D02*
X11327301Y-16749484D01*
X11327301Y-16749484D02*
X11365396Y-16749484D01*
X11365396Y-16749484D02*
X11384444Y-16739960D01*
X11384444Y-16739960D02*
X11393967Y-16730436D01*
X11393967Y-16730436D02*
X11403491Y-16711388D01*
X11403491Y-16711388D02*
X11403491Y-16663769D01*
X11403491Y-16663769D02*
X11393967Y-16644722D01*
X11393967Y-16644722D02*
X11384444Y-16635198D01*
X11384444Y-16635198D02*
X11365396Y-16625674D01*
X11365396Y-16625674D02*
X11327301Y-16625674D01*
X11327301Y-16625674D02*
X11308253Y-16635198D01*
X11308253Y-16635198D02*
X11298729Y-16644722D01*
X11298729Y-16644722D02*
X11289206Y-16663769D01*
X11517777Y-16635198D02*
X11498729Y-16625674D01*
X11498729Y-16625674D02*
X11489206Y-16616150D01*
X11489206Y-16616150D02*
X11479682Y-16597103D01*
X11479682Y-16597103D02*
X11479682Y-16587579D01*
X11479682Y-16587579D02*
X11489206Y-16568531D01*
X11489206Y-16568531D02*
X11498729Y-16559008D01*
X11498729Y-16559008D02*
X11517777Y-16549484D01*
X11517777Y-16549484D02*
X11555872Y-16549484D01*
X11555872Y-16549484D02*
X11574920Y-16559008D01*
X11574920Y-16559008D02*
X11584444Y-16568531D01*
X11584444Y-16568531D02*
X11593967Y-16587579D01*
X11593967Y-16587579D02*
X11593967Y-16597103D01*
X11593967Y-16597103D02*
X11584444Y-16616150D01*
X11584444Y-16616150D02*
X11574920Y-16625674D01*
X11574920Y-16625674D02*
X11555872Y-16635198D01*
X11555872Y-16635198D02*
X11517777Y-16635198D01*
X11517777Y-16635198D02*
X11498729Y-16644722D01*
X11498729Y-16644722D02*
X11489206Y-16654246D01*
X11489206Y-16654246D02*
X11479682Y-16673293D01*
X11479682Y-16673293D02*
X11479682Y-16711388D01*
X11479682Y-16711388D02*
X11489206Y-16730436D01*
X11489206Y-16730436D02*
X11498729Y-16739960D01*
X11498729Y-16739960D02*
X11517777Y-16749484D01*
X11517777Y-16749484D02*
X11555872Y-16749484D01*
X11555872Y-16749484D02*
X11574920Y-16739960D01*
X11574920Y-16739960D02*
X11584444Y-16730436D01*
X11584444Y-16730436D02*
X11593967Y-16711388D01*
X11593967Y-16711388D02*
X11593967Y-16673293D01*
X11593967Y-16673293D02*
X11584444Y-16654246D01*
X11584444Y-16654246D02*
X11574920Y-16644722D01*
X11574920Y-16644722D02*
X11555872Y-16635198D01*
X11689206Y-16749484D02*
X11727301Y-16749484D01*
X11727301Y-16749484D02*
X11746348Y-16739960D01*
X11746348Y-16739960D02*
X11755872Y-16730436D01*
X11755872Y-16730436D02*
X11774920Y-16701865D01*
X11774920Y-16701865D02*
X11784444Y-16663769D01*
X11784444Y-16663769D02*
X11784444Y-16587579D01*
X11784444Y-16587579D02*
X11774920Y-16568531D01*
X11774920Y-16568531D02*
X11765396Y-16559008D01*
X11765396Y-16559008D02*
X11746348Y-16549484D01*
X11746348Y-16549484D02*
X11708253Y-16549484D01*
X11708253Y-16549484D02*
X11689206Y-16559008D01*
X11689206Y-16559008D02*
X11679682Y-16568531D01*
X11679682Y-16568531D02*
X11670158Y-16587579D01*
X11670158Y-16587579D02*
X11670158Y-16635198D01*
X11670158Y-16635198D02*
X11679682Y-16654246D01*
X11679682Y-16654246D02*
X11689206Y-16663769D01*
X11689206Y-16663769D02*
X11708253Y-16673293D01*
X11708253Y-16673293D02*
X11746348Y-16673293D01*
X11746348Y-16673293D02*
X11765396Y-16663769D01*
X11765396Y-16663769D02*
X11774920Y-16654246D01*
X11774920Y-16654246D02*
X11784444Y-16635198D01*
X11860634Y-16549484D02*
X11860634Y-16587579D01*
X11936825Y-16549484D02*
X11936825Y-16587579D01*
X12232063Y-16825674D02*
X12222539Y-16816150D01*
X12222539Y-16816150D02*
X12203491Y-16787579D01*
X12203491Y-16787579D02*
X12193968Y-16768531D01*
X12193968Y-16768531D02*
X12184444Y-16739960D01*
X12184444Y-16739960D02*
X12174920Y-16692341D01*
X12174920Y-16692341D02*
X12174920Y-16654246D01*
X12174920Y-16654246D02*
X12184444Y-16606627D01*
X12184444Y-16606627D02*
X12193968Y-16578055D01*
X12193968Y-16578055D02*
X12203491Y-16559008D01*
X12203491Y-16559008D02*
X12222539Y-16530436D01*
X12222539Y-16530436D02*
X12232063Y-16520912D01*
X12289206Y-16549484D02*
X12413015Y-16549484D01*
X12413015Y-16549484D02*
X12346348Y-16625674D01*
X12346348Y-16625674D02*
X12374920Y-16625674D01*
X12374920Y-16625674D02*
X12393968Y-16635198D01*
X12393968Y-16635198D02*
X12403491Y-16644722D01*
X12403491Y-16644722D02*
X12413015Y-16663769D01*
X12413015Y-16663769D02*
X12413015Y-16711388D01*
X12413015Y-16711388D02*
X12403491Y-16730436D01*
X12403491Y-16730436D02*
X12393968Y-16739960D01*
X12393968Y-16739960D02*
X12374920Y-16749484D01*
X12374920Y-16749484D02*
X12317777Y-16749484D01*
X12317777Y-16749484D02*
X12298729Y-16739960D01*
X12298729Y-16739960D02*
X12289206Y-16730436D01*
X12536825Y-16549484D02*
X12555872Y-16549484D01*
X12555872Y-16549484D02*
X12574920Y-16559008D01*
X12574920Y-16559008D02*
X12584444Y-16568531D01*
X12584444Y-16568531D02*
X12593968Y-16587579D01*
X12593968Y-16587579D02*
X12603491Y-16625674D01*
X12603491Y-16625674D02*
X12603491Y-16673293D01*
X12603491Y-16673293D02*
X12593968Y-16711388D01*
X12593968Y-16711388D02*
X12584444Y-16730436D01*
X12584444Y-16730436D02*
X12574920Y-16739960D01*
X12574920Y-16739960D02*
X12555872Y-16749484D01*
X12555872Y-16749484D02*
X12536825Y-16749484D01*
X12536825Y-16749484D02*
X12517777Y-16739960D01*
X12517777Y-16739960D02*
X12508253Y-16730436D01*
X12508253Y-16730436D02*
X12498729Y-16711388D01*
X12498729Y-16711388D02*
X12489206Y-16673293D01*
X12489206Y-16673293D02*
X12489206Y-16625674D01*
X12489206Y-16625674D02*
X12498729Y-16587579D01*
X12498729Y-16587579D02*
X12508253Y-16568531D01*
X12508253Y-16568531D02*
X12517777Y-16559008D01*
X12517777Y-16559008D02*
X12536825Y-16549484D01*
X12841587Y-16749484D02*
X12841587Y-16549484D01*
X12927301Y-16749484D02*
X12927301Y-16644722D01*
X12927301Y-16644722D02*
X12917777Y-16625674D01*
X12917777Y-16625674D02*
X12898730Y-16616150D01*
X12898730Y-16616150D02*
X12870158Y-16616150D01*
X12870158Y-16616150D02*
X12851110Y-16625674D01*
X12851110Y-16625674D02*
X12841587Y-16635198D01*
X13051110Y-16749484D02*
X13032063Y-16739960D01*
X13032063Y-16739960D02*
X13022539Y-16730436D01*
X13022539Y-16730436D02*
X13013015Y-16711388D01*
X13013015Y-16711388D02*
X13013015Y-16654246D01*
X13013015Y-16654246D02*
X13022539Y-16635198D01*
X13022539Y-16635198D02*
X13032063Y-16625674D01*
X13032063Y-16625674D02*
X13051110Y-16616150D01*
X13051110Y-16616150D02*
X13079682Y-16616150D01*
X13079682Y-16616150D02*
X13098730Y-16625674D01*
X13098730Y-16625674D02*
X13108253Y-16635198D01*
X13108253Y-16635198D02*
X13117777Y-16654246D01*
X13117777Y-16654246D02*
X13117777Y-16711388D01*
X13117777Y-16711388D02*
X13108253Y-16730436D01*
X13108253Y-16730436D02*
X13098730Y-16739960D01*
X13098730Y-16739960D02*
X13079682Y-16749484D01*
X13079682Y-16749484D02*
X13051110Y-16749484D01*
X13232063Y-16749484D02*
X13213015Y-16739960D01*
X13213015Y-16739960D02*
X13203491Y-16720912D01*
X13203491Y-16720912D02*
X13203491Y-16549484D01*
X13384444Y-16739960D02*
X13365396Y-16749484D01*
X13365396Y-16749484D02*
X13327301Y-16749484D01*
X13327301Y-16749484D02*
X13308253Y-16739960D01*
X13308253Y-16739960D02*
X13298730Y-16720912D01*
X13298730Y-16720912D02*
X13298730Y-16644722D01*
X13298730Y-16644722D02*
X13308253Y-16625674D01*
X13308253Y-16625674D02*
X13327301Y-16616150D01*
X13327301Y-16616150D02*
X13365396Y-16616150D01*
X13365396Y-16616150D02*
X13384444Y-16625674D01*
X13384444Y-16625674D02*
X13393968Y-16644722D01*
X13393968Y-16644722D02*
X13393968Y-16663769D01*
X13393968Y-16663769D02*
X13298730Y-16682817D01*
X13470158Y-16739960D02*
X13489206Y-16749484D01*
X13489206Y-16749484D02*
X13527301Y-16749484D01*
X13527301Y-16749484D02*
X13546349Y-16739960D01*
X13546349Y-16739960D02*
X13555872Y-16720912D01*
X13555872Y-16720912D02*
X13555872Y-16711388D01*
X13555872Y-16711388D02*
X13546349Y-16692341D01*
X13546349Y-16692341D02*
X13527301Y-16682817D01*
X13527301Y-16682817D02*
X13498730Y-16682817D01*
X13498730Y-16682817D02*
X13479682Y-16673293D01*
X13479682Y-16673293D02*
X13470158Y-16654246D01*
X13470158Y-16654246D02*
X13470158Y-16644722D01*
X13470158Y-16644722D02*
X13479682Y-16625674D01*
X13479682Y-16625674D02*
X13498730Y-16616150D01*
X13498730Y-16616150D02*
X13527301Y-16616150D01*
X13527301Y-16616150D02*
X13546349Y-16625674D01*
X13622539Y-16825674D02*
X13632063Y-16816150D01*
X13632063Y-16816150D02*
X13651111Y-16787579D01*
X13651111Y-16787579D02*
X13660634Y-16768531D01*
X13660634Y-16768531D02*
X13670158Y-16739960D01*
X13670158Y-16739960D02*
X13679682Y-16692341D01*
X13679682Y-16692341D02*
X13679682Y-16654246D01*
X13679682Y-16654246D02*
X13670158Y-16606627D01*
X13670158Y-16606627D02*
X13660634Y-16578055D01*
X13660634Y-16578055D02*
X13651111Y-16559008D01*
X13651111Y-16559008D02*
X13632063Y-16530436D01*
X13632063Y-16530436D02*
X13622539Y-16520912D01*
M02*
