%TF.GenerationSoftware,KiCad,Pcbnew,7.0.6*%
%TF.CreationDate,2023-11-30T13:04:14+07:00*%
%TF.ProjectId,testboard,74657374-626f-4617-9264-2e6b69636164,rev?*%
%TF.SameCoordinates,Original*%
%TF.FileFunction,Drillmap*%
%TF.FilePolarity,Positive*%
%FSLAX45Y45*%
G04 Gerber Fmt 4.5, Leading zero omitted, Abs format (unit mm)*
G04 Created by KiCad (PCBNEW 7.0.6) date 2023-11-30 13:04:14*
%MOMM*%
%LPD*%
G01*
G04 APERTURE LIST*
%ADD10C,0.100000*%
%ADD11C,0.200000*%
%ADD12C,0.340000*%
G04 APERTURE END LIST*
D10*
X8662000Y-4612000D02*
X24583000Y-4612000D01*
X24583000Y-15216000D01*
X8662000Y-15216000D01*
X8662000Y-4612000D01*
D11*
D12*
X21630750Y-6427500D02*
X21970750Y-6767500D01*
X21970750Y-6427500D02*
X21630750Y-6767500D01*
X21630750Y-9502500D02*
X21970750Y-9842500D01*
X21970750Y-9502500D02*
X21630750Y-9842500D01*
D11*
X8917777Y-15532484D02*
X8917777Y-15332484D01*
X8917777Y-15332484D02*
X8965396Y-15332484D01*
X8965396Y-15332484D02*
X8993967Y-15342008D01*
X8993967Y-15342008D02*
X9013015Y-15361055D01*
X9013015Y-15361055D02*
X9022539Y-15380103D01*
X9022539Y-15380103D02*
X9032063Y-15418198D01*
X9032063Y-15418198D02*
X9032063Y-15446769D01*
X9032063Y-15446769D02*
X9022539Y-15484865D01*
X9022539Y-15484865D02*
X9013015Y-15503912D01*
X9013015Y-15503912D02*
X8993967Y-15522960D01*
X8993967Y-15522960D02*
X8965396Y-15532484D01*
X8965396Y-15532484D02*
X8917777Y-15532484D01*
X9117777Y-15532484D02*
X9117777Y-15399150D01*
X9117777Y-15437246D02*
X9127301Y-15418198D01*
X9127301Y-15418198D02*
X9136824Y-15408674D01*
X9136824Y-15408674D02*
X9155872Y-15399150D01*
X9155872Y-15399150D02*
X9174920Y-15399150D01*
X9241586Y-15532484D02*
X9241586Y-15399150D01*
X9241586Y-15332484D02*
X9232063Y-15342008D01*
X9232063Y-15342008D02*
X9241586Y-15351531D01*
X9241586Y-15351531D02*
X9251110Y-15342008D01*
X9251110Y-15342008D02*
X9241586Y-15332484D01*
X9241586Y-15332484D02*
X9241586Y-15351531D01*
X9365396Y-15532484D02*
X9346348Y-15522960D01*
X9346348Y-15522960D02*
X9336824Y-15503912D01*
X9336824Y-15503912D02*
X9336824Y-15332484D01*
X9470158Y-15532484D02*
X9451110Y-15522960D01*
X9451110Y-15522960D02*
X9441586Y-15503912D01*
X9441586Y-15503912D02*
X9441586Y-15332484D01*
X9698729Y-15532484D02*
X9698729Y-15332484D01*
X9698729Y-15332484D02*
X9765396Y-15475341D01*
X9765396Y-15475341D02*
X9832063Y-15332484D01*
X9832063Y-15332484D02*
X9832063Y-15532484D01*
X10013015Y-15532484D02*
X10013015Y-15427722D01*
X10013015Y-15427722D02*
X10003491Y-15408674D01*
X10003491Y-15408674D02*
X9984444Y-15399150D01*
X9984444Y-15399150D02*
X9946348Y-15399150D01*
X9946348Y-15399150D02*
X9927301Y-15408674D01*
X10013015Y-15522960D02*
X9993967Y-15532484D01*
X9993967Y-15532484D02*
X9946348Y-15532484D01*
X9946348Y-15532484D02*
X9927301Y-15522960D01*
X9927301Y-15522960D02*
X9917777Y-15503912D01*
X9917777Y-15503912D02*
X9917777Y-15484865D01*
X9917777Y-15484865D02*
X9927301Y-15465817D01*
X9927301Y-15465817D02*
X9946348Y-15456293D01*
X9946348Y-15456293D02*
X9993967Y-15456293D01*
X9993967Y-15456293D02*
X10013015Y-15446769D01*
X10108253Y-15399150D02*
X10108253Y-15599150D01*
X10108253Y-15408674D02*
X10127301Y-15399150D01*
X10127301Y-15399150D02*
X10165396Y-15399150D01*
X10165396Y-15399150D02*
X10184444Y-15408674D01*
X10184444Y-15408674D02*
X10193967Y-15418198D01*
X10193967Y-15418198D02*
X10203491Y-15437246D01*
X10203491Y-15437246D02*
X10203491Y-15494388D01*
X10203491Y-15494388D02*
X10193967Y-15513436D01*
X10193967Y-15513436D02*
X10184444Y-15522960D01*
X10184444Y-15522960D02*
X10165396Y-15532484D01*
X10165396Y-15532484D02*
X10127301Y-15532484D01*
X10127301Y-15532484D02*
X10108253Y-15522960D01*
X10289205Y-15513436D02*
X10298729Y-15522960D01*
X10298729Y-15522960D02*
X10289205Y-15532484D01*
X10289205Y-15532484D02*
X10279682Y-15522960D01*
X10279682Y-15522960D02*
X10289205Y-15513436D01*
X10289205Y-15513436D02*
X10289205Y-15532484D01*
X10289205Y-15408674D02*
X10298729Y-15418198D01*
X10298729Y-15418198D02*
X10289205Y-15427722D01*
X10289205Y-15427722D02*
X10279682Y-15418198D01*
X10279682Y-15418198D02*
X10289205Y-15408674D01*
X10289205Y-15408674D02*
X10289205Y-15427722D01*
X8457000Y-15761000D02*
X8657000Y-15961000D01*
X8657000Y-15761000D02*
X8457000Y-15961000D01*
X8898729Y-15752484D02*
X9022539Y-15752484D01*
X9022539Y-15752484D02*
X8955872Y-15828674D01*
X8955872Y-15828674D02*
X8984444Y-15828674D01*
X8984444Y-15828674D02*
X9003491Y-15838198D01*
X9003491Y-15838198D02*
X9013015Y-15847722D01*
X9013015Y-15847722D02*
X9022539Y-15866769D01*
X9022539Y-15866769D02*
X9022539Y-15914388D01*
X9022539Y-15914388D02*
X9013015Y-15933436D01*
X9013015Y-15933436D02*
X9003491Y-15942960D01*
X9003491Y-15942960D02*
X8984444Y-15952484D01*
X8984444Y-15952484D02*
X8927301Y-15952484D01*
X8927301Y-15952484D02*
X8908253Y-15942960D01*
X8908253Y-15942960D02*
X8898729Y-15933436D01*
X9108253Y-15933436D02*
X9117777Y-15942960D01*
X9117777Y-15942960D02*
X9108253Y-15952484D01*
X9108253Y-15952484D02*
X9098729Y-15942960D01*
X9098729Y-15942960D02*
X9108253Y-15933436D01*
X9108253Y-15933436D02*
X9108253Y-15952484D01*
X9289205Y-15819150D02*
X9289205Y-15952484D01*
X9241586Y-15742960D02*
X9193967Y-15885817D01*
X9193967Y-15885817D02*
X9317777Y-15885817D01*
X9432063Y-15752484D02*
X9451110Y-15752484D01*
X9451110Y-15752484D02*
X9470158Y-15762008D01*
X9470158Y-15762008D02*
X9479682Y-15771531D01*
X9479682Y-15771531D02*
X9489205Y-15790579D01*
X9489205Y-15790579D02*
X9498729Y-15828674D01*
X9498729Y-15828674D02*
X9498729Y-15876293D01*
X9498729Y-15876293D02*
X9489205Y-15914388D01*
X9489205Y-15914388D02*
X9479682Y-15933436D01*
X9479682Y-15933436D02*
X9470158Y-15942960D01*
X9470158Y-15942960D02*
X9451110Y-15952484D01*
X9451110Y-15952484D02*
X9432063Y-15952484D01*
X9432063Y-15952484D02*
X9413015Y-15942960D01*
X9413015Y-15942960D02*
X9403491Y-15933436D01*
X9403491Y-15933436D02*
X9393967Y-15914388D01*
X9393967Y-15914388D02*
X9384444Y-15876293D01*
X9384444Y-15876293D02*
X9384444Y-15828674D01*
X9384444Y-15828674D02*
X9393967Y-15790579D01*
X9393967Y-15790579D02*
X9403491Y-15771531D01*
X9403491Y-15771531D02*
X9413015Y-15762008D01*
X9413015Y-15762008D02*
X9432063Y-15752484D01*
X9622539Y-15752484D02*
X9641586Y-15752484D01*
X9641586Y-15752484D02*
X9660634Y-15762008D01*
X9660634Y-15762008D02*
X9670158Y-15771531D01*
X9670158Y-15771531D02*
X9679682Y-15790579D01*
X9679682Y-15790579D02*
X9689205Y-15828674D01*
X9689205Y-15828674D02*
X9689205Y-15876293D01*
X9689205Y-15876293D02*
X9679682Y-15914388D01*
X9679682Y-15914388D02*
X9670158Y-15933436D01*
X9670158Y-15933436D02*
X9660634Y-15942960D01*
X9660634Y-15942960D02*
X9641586Y-15952484D01*
X9641586Y-15952484D02*
X9622539Y-15952484D01*
X9622539Y-15952484D02*
X9603491Y-15942960D01*
X9603491Y-15942960D02*
X9593967Y-15933436D01*
X9593967Y-15933436D02*
X9584444Y-15914388D01*
X9584444Y-15914388D02*
X9574920Y-15876293D01*
X9574920Y-15876293D02*
X9574920Y-15828674D01*
X9574920Y-15828674D02*
X9584444Y-15790579D01*
X9584444Y-15790579D02*
X9593967Y-15771531D01*
X9593967Y-15771531D02*
X9603491Y-15762008D01*
X9603491Y-15762008D02*
X9622539Y-15752484D01*
X9774920Y-15952484D02*
X9774920Y-15819150D01*
X9774920Y-15838198D02*
X9784444Y-15828674D01*
X9784444Y-15828674D02*
X9803491Y-15819150D01*
X9803491Y-15819150D02*
X9832063Y-15819150D01*
X9832063Y-15819150D02*
X9851110Y-15828674D01*
X9851110Y-15828674D02*
X9860634Y-15847722D01*
X9860634Y-15847722D02*
X9860634Y-15952484D01*
X9860634Y-15847722D02*
X9870158Y-15828674D01*
X9870158Y-15828674D02*
X9889205Y-15819150D01*
X9889205Y-15819150D02*
X9917777Y-15819150D01*
X9917777Y-15819150D02*
X9936825Y-15828674D01*
X9936825Y-15828674D02*
X9946348Y-15847722D01*
X9946348Y-15847722D02*
X9946348Y-15952484D01*
X10041586Y-15952484D02*
X10041586Y-15819150D01*
X10041586Y-15838198D02*
X10051110Y-15828674D01*
X10051110Y-15828674D02*
X10070158Y-15819150D01*
X10070158Y-15819150D02*
X10098729Y-15819150D01*
X10098729Y-15819150D02*
X10117777Y-15828674D01*
X10117777Y-15828674D02*
X10127301Y-15847722D01*
X10127301Y-15847722D02*
X10127301Y-15952484D01*
X10127301Y-15847722D02*
X10136825Y-15828674D01*
X10136825Y-15828674D02*
X10155872Y-15819150D01*
X10155872Y-15819150D02*
X10184444Y-15819150D01*
X10184444Y-15819150D02*
X10203491Y-15828674D01*
X10203491Y-15828674D02*
X10213015Y-15847722D01*
X10213015Y-15847722D02*
X10213015Y-15952484D01*
X10603491Y-15742960D02*
X10432063Y-16000103D01*
X10860634Y-15752484D02*
X10879682Y-15752484D01*
X10879682Y-15752484D02*
X10898729Y-15762008D01*
X10898729Y-15762008D02*
X10908253Y-15771531D01*
X10908253Y-15771531D02*
X10917777Y-15790579D01*
X10917777Y-15790579D02*
X10927301Y-15828674D01*
X10927301Y-15828674D02*
X10927301Y-15876293D01*
X10927301Y-15876293D02*
X10917777Y-15914388D01*
X10917777Y-15914388D02*
X10908253Y-15933436D01*
X10908253Y-15933436D02*
X10898729Y-15942960D01*
X10898729Y-15942960D02*
X10879682Y-15952484D01*
X10879682Y-15952484D02*
X10860634Y-15952484D01*
X10860634Y-15952484D02*
X10841587Y-15942960D01*
X10841587Y-15942960D02*
X10832063Y-15933436D01*
X10832063Y-15933436D02*
X10822539Y-15914388D01*
X10822539Y-15914388D02*
X10813015Y-15876293D01*
X10813015Y-15876293D02*
X10813015Y-15828674D01*
X10813015Y-15828674D02*
X10822539Y-15790579D01*
X10822539Y-15790579D02*
X10832063Y-15771531D01*
X10832063Y-15771531D02*
X10841587Y-15762008D01*
X10841587Y-15762008D02*
X10860634Y-15752484D01*
X11013015Y-15933436D02*
X11022539Y-15942960D01*
X11022539Y-15942960D02*
X11013015Y-15952484D01*
X11013015Y-15952484D02*
X11003491Y-15942960D01*
X11003491Y-15942960D02*
X11013015Y-15933436D01*
X11013015Y-15933436D02*
X11013015Y-15952484D01*
X11213015Y-15952484D02*
X11098729Y-15952484D01*
X11155872Y-15952484D02*
X11155872Y-15752484D01*
X11155872Y-15752484D02*
X11136825Y-15781055D01*
X11136825Y-15781055D02*
X11117777Y-15800103D01*
X11117777Y-15800103D02*
X11098729Y-15809627D01*
X11279682Y-15752484D02*
X11403491Y-15752484D01*
X11403491Y-15752484D02*
X11336825Y-15828674D01*
X11336825Y-15828674D02*
X11365396Y-15828674D01*
X11365396Y-15828674D02*
X11384444Y-15838198D01*
X11384444Y-15838198D02*
X11393967Y-15847722D01*
X11393967Y-15847722D02*
X11403491Y-15866769D01*
X11403491Y-15866769D02*
X11403491Y-15914388D01*
X11403491Y-15914388D02*
X11393967Y-15933436D01*
X11393967Y-15933436D02*
X11384444Y-15942960D01*
X11384444Y-15942960D02*
X11365396Y-15952484D01*
X11365396Y-15952484D02*
X11308253Y-15952484D01*
X11308253Y-15952484D02*
X11289206Y-15942960D01*
X11289206Y-15942960D02*
X11279682Y-15933436D01*
X11470158Y-15752484D02*
X11593967Y-15752484D01*
X11593967Y-15752484D02*
X11527301Y-15828674D01*
X11527301Y-15828674D02*
X11555872Y-15828674D01*
X11555872Y-15828674D02*
X11574920Y-15838198D01*
X11574920Y-15838198D02*
X11584444Y-15847722D01*
X11584444Y-15847722D02*
X11593967Y-15866769D01*
X11593967Y-15866769D02*
X11593967Y-15914388D01*
X11593967Y-15914388D02*
X11584444Y-15933436D01*
X11584444Y-15933436D02*
X11574920Y-15942960D01*
X11574920Y-15942960D02*
X11555872Y-15952484D01*
X11555872Y-15952484D02*
X11498729Y-15952484D01*
X11498729Y-15952484D02*
X11479682Y-15942960D01*
X11479682Y-15942960D02*
X11470158Y-15933436D01*
X11689206Y-15952484D02*
X11727301Y-15952484D01*
X11727301Y-15952484D02*
X11746348Y-15942960D01*
X11746348Y-15942960D02*
X11755872Y-15933436D01*
X11755872Y-15933436D02*
X11774920Y-15904865D01*
X11774920Y-15904865D02*
X11784444Y-15866769D01*
X11784444Y-15866769D02*
X11784444Y-15790579D01*
X11784444Y-15790579D02*
X11774920Y-15771531D01*
X11774920Y-15771531D02*
X11765396Y-15762008D01*
X11765396Y-15762008D02*
X11746348Y-15752484D01*
X11746348Y-15752484D02*
X11708253Y-15752484D01*
X11708253Y-15752484D02*
X11689206Y-15762008D01*
X11689206Y-15762008D02*
X11679682Y-15771531D01*
X11679682Y-15771531D02*
X11670158Y-15790579D01*
X11670158Y-15790579D02*
X11670158Y-15838198D01*
X11670158Y-15838198D02*
X11679682Y-15857246D01*
X11679682Y-15857246D02*
X11689206Y-15866769D01*
X11689206Y-15866769D02*
X11708253Y-15876293D01*
X11708253Y-15876293D02*
X11746348Y-15876293D01*
X11746348Y-15876293D02*
X11765396Y-15866769D01*
X11765396Y-15866769D02*
X11774920Y-15857246D01*
X11774920Y-15857246D02*
X11784444Y-15838198D01*
X11860634Y-15752484D02*
X11860634Y-15790579D01*
X11936825Y-15752484D02*
X11936825Y-15790579D01*
X12232063Y-16028674D02*
X12222539Y-16019150D01*
X12222539Y-16019150D02*
X12203491Y-15990579D01*
X12203491Y-15990579D02*
X12193968Y-15971531D01*
X12193968Y-15971531D02*
X12184444Y-15942960D01*
X12184444Y-15942960D02*
X12174920Y-15895341D01*
X12174920Y-15895341D02*
X12174920Y-15857246D01*
X12174920Y-15857246D02*
X12184444Y-15809627D01*
X12184444Y-15809627D02*
X12193968Y-15781055D01*
X12193968Y-15781055D02*
X12203491Y-15762008D01*
X12203491Y-15762008D02*
X12222539Y-15733436D01*
X12222539Y-15733436D02*
X12232063Y-15723912D01*
X12298729Y-15771531D02*
X12308253Y-15762008D01*
X12308253Y-15762008D02*
X12327301Y-15752484D01*
X12327301Y-15752484D02*
X12374920Y-15752484D01*
X12374920Y-15752484D02*
X12393968Y-15762008D01*
X12393968Y-15762008D02*
X12403491Y-15771531D01*
X12403491Y-15771531D02*
X12413015Y-15790579D01*
X12413015Y-15790579D02*
X12413015Y-15809627D01*
X12413015Y-15809627D02*
X12403491Y-15838198D01*
X12403491Y-15838198D02*
X12289206Y-15952484D01*
X12289206Y-15952484D02*
X12413015Y-15952484D01*
X12651110Y-15952484D02*
X12651110Y-15752484D01*
X12736825Y-15952484D02*
X12736825Y-15847722D01*
X12736825Y-15847722D02*
X12727301Y-15828674D01*
X12727301Y-15828674D02*
X12708253Y-15819150D01*
X12708253Y-15819150D02*
X12679682Y-15819150D01*
X12679682Y-15819150D02*
X12660634Y-15828674D01*
X12660634Y-15828674D02*
X12651110Y-15838198D01*
X12860634Y-15952484D02*
X12841587Y-15942960D01*
X12841587Y-15942960D02*
X12832063Y-15933436D01*
X12832063Y-15933436D02*
X12822539Y-15914388D01*
X12822539Y-15914388D02*
X12822539Y-15857246D01*
X12822539Y-15857246D02*
X12832063Y-15838198D01*
X12832063Y-15838198D02*
X12841587Y-15828674D01*
X12841587Y-15828674D02*
X12860634Y-15819150D01*
X12860634Y-15819150D02*
X12889206Y-15819150D01*
X12889206Y-15819150D02*
X12908253Y-15828674D01*
X12908253Y-15828674D02*
X12917777Y-15838198D01*
X12917777Y-15838198D02*
X12927301Y-15857246D01*
X12927301Y-15857246D02*
X12927301Y-15914388D01*
X12927301Y-15914388D02*
X12917777Y-15933436D01*
X12917777Y-15933436D02*
X12908253Y-15942960D01*
X12908253Y-15942960D02*
X12889206Y-15952484D01*
X12889206Y-15952484D02*
X12860634Y-15952484D01*
X13041587Y-15952484D02*
X13022539Y-15942960D01*
X13022539Y-15942960D02*
X13013015Y-15923912D01*
X13013015Y-15923912D02*
X13013015Y-15752484D01*
X13193968Y-15942960D02*
X13174920Y-15952484D01*
X13174920Y-15952484D02*
X13136825Y-15952484D01*
X13136825Y-15952484D02*
X13117777Y-15942960D01*
X13117777Y-15942960D02*
X13108253Y-15923912D01*
X13108253Y-15923912D02*
X13108253Y-15847722D01*
X13108253Y-15847722D02*
X13117777Y-15828674D01*
X13117777Y-15828674D02*
X13136825Y-15819150D01*
X13136825Y-15819150D02*
X13174920Y-15819150D01*
X13174920Y-15819150D02*
X13193968Y-15828674D01*
X13193968Y-15828674D02*
X13203491Y-15847722D01*
X13203491Y-15847722D02*
X13203491Y-15866769D01*
X13203491Y-15866769D02*
X13108253Y-15885817D01*
X13279682Y-15942960D02*
X13298730Y-15952484D01*
X13298730Y-15952484D02*
X13336825Y-15952484D01*
X13336825Y-15952484D02*
X13355872Y-15942960D01*
X13355872Y-15942960D02*
X13365396Y-15923912D01*
X13365396Y-15923912D02*
X13365396Y-15914388D01*
X13365396Y-15914388D02*
X13355872Y-15895341D01*
X13355872Y-15895341D02*
X13336825Y-15885817D01*
X13336825Y-15885817D02*
X13308253Y-15885817D01*
X13308253Y-15885817D02*
X13289206Y-15876293D01*
X13289206Y-15876293D02*
X13279682Y-15857246D01*
X13279682Y-15857246D02*
X13279682Y-15847722D01*
X13279682Y-15847722D02*
X13289206Y-15828674D01*
X13289206Y-15828674D02*
X13308253Y-15819150D01*
X13308253Y-15819150D02*
X13336825Y-15819150D01*
X13336825Y-15819150D02*
X13355872Y-15828674D01*
X13432063Y-16028674D02*
X13441587Y-16019150D01*
X13441587Y-16019150D02*
X13460634Y-15990579D01*
X13460634Y-15990579D02*
X13470158Y-15971531D01*
X13470158Y-15971531D02*
X13479682Y-15942960D01*
X13479682Y-15942960D02*
X13489206Y-15895341D01*
X13489206Y-15895341D02*
X13489206Y-15857246D01*
X13489206Y-15857246D02*
X13479682Y-15809627D01*
X13479682Y-15809627D02*
X13470158Y-15781055D01*
X13470158Y-15781055D02*
X13460634Y-15762008D01*
X13460634Y-15762008D02*
X13441587Y-15733436D01*
X13441587Y-15733436D02*
X13432063Y-15723912D01*
X13793968Y-16028674D02*
X13784444Y-16019150D01*
X13784444Y-16019150D02*
X13765396Y-15990579D01*
X13765396Y-15990579D02*
X13755872Y-15971531D01*
X13755872Y-15971531D02*
X13746349Y-15942960D01*
X13746349Y-15942960D02*
X13736825Y-15895341D01*
X13736825Y-15895341D02*
X13736825Y-15857246D01*
X13736825Y-15857246D02*
X13746349Y-15809627D01*
X13746349Y-15809627D02*
X13755872Y-15781055D01*
X13755872Y-15781055D02*
X13765396Y-15762008D01*
X13765396Y-15762008D02*
X13784444Y-15733436D01*
X13784444Y-15733436D02*
X13793968Y-15723912D01*
X13870158Y-15819150D02*
X13870158Y-15952484D01*
X13870158Y-15838198D02*
X13879682Y-15828674D01*
X13879682Y-15828674D02*
X13898730Y-15819150D01*
X13898730Y-15819150D02*
X13927301Y-15819150D01*
X13927301Y-15819150D02*
X13946349Y-15828674D01*
X13946349Y-15828674D02*
X13955872Y-15847722D01*
X13955872Y-15847722D02*
X13955872Y-15952484D01*
X14079682Y-15952484D02*
X14060634Y-15942960D01*
X14060634Y-15942960D02*
X14051111Y-15933436D01*
X14051111Y-15933436D02*
X14041587Y-15914388D01*
X14041587Y-15914388D02*
X14041587Y-15857246D01*
X14041587Y-15857246D02*
X14051111Y-15838198D01*
X14051111Y-15838198D02*
X14060634Y-15828674D01*
X14060634Y-15828674D02*
X14079682Y-15819150D01*
X14079682Y-15819150D02*
X14108253Y-15819150D01*
X14108253Y-15819150D02*
X14127301Y-15828674D01*
X14127301Y-15828674D02*
X14136825Y-15838198D01*
X14136825Y-15838198D02*
X14146349Y-15857246D01*
X14146349Y-15857246D02*
X14146349Y-15914388D01*
X14146349Y-15914388D02*
X14136825Y-15933436D01*
X14136825Y-15933436D02*
X14127301Y-15942960D01*
X14127301Y-15942960D02*
X14108253Y-15952484D01*
X14108253Y-15952484D02*
X14079682Y-15952484D01*
X14203492Y-15819150D02*
X14279682Y-15819150D01*
X14232063Y-15752484D02*
X14232063Y-15923912D01*
X14232063Y-15923912D02*
X14241587Y-15942960D01*
X14241587Y-15942960D02*
X14260634Y-15952484D01*
X14260634Y-15952484D02*
X14279682Y-15952484D01*
X14498730Y-15819150D02*
X14498730Y-16019150D01*
X14498730Y-15828674D02*
X14517777Y-15819150D01*
X14517777Y-15819150D02*
X14555873Y-15819150D01*
X14555873Y-15819150D02*
X14574920Y-15828674D01*
X14574920Y-15828674D02*
X14584444Y-15838198D01*
X14584444Y-15838198D02*
X14593968Y-15857246D01*
X14593968Y-15857246D02*
X14593968Y-15914388D01*
X14593968Y-15914388D02*
X14584444Y-15933436D01*
X14584444Y-15933436D02*
X14574920Y-15942960D01*
X14574920Y-15942960D02*
X14555873Y-15952484D01*
X14555873Y-15952484D02*
X14517777Y-15952484D01*
X14517777Y-15952484D02*
X14498730Y-15942960D01*
X14708253Y-15952484D02*
X14689206Y-15942960D01*
X14689206Y-15942960D02*
X14679682Y-15923912D01*
X14679682Y-15923912D02*
X14679682Y-15752484D01*
X14870158Y-15952484D02*
X14870158Y-15847722D01*
X14870158Y-15847722D02*
X14860634Y-15828674D01*
X14860634Y-15828674D02*
X14841587Y-15819150D01*
X14841587Y-15819150D02*
X14803492Y-15819150D01*
X14803492Y-15819150D02*
X14784444Y-15828674D01*
X14870158Y-15942960D02*
X14851111Y-15952484D01*
X14851111Y-15952484D02*
X14803492Y-15952484D01*
X14803492Y-15952484D02*
X14784444Y-15942960D01*
X14784444Y-15942960D02*
X14774920Y-15923912D01*
X14774920Y-15923912D02*
X14774920Y-15904865D01*
X14774920Y-15904865D02*
X14784444Y-15885817D01*
X14784444Y-15885817D02*
X14803492Y-15876293D01*
X14803492Y-15876293D02*
X14851111Y-15876293D01*
X14851111Y-15876293D02*
X14870158Y-15866769D01*
X14936825Y-15819150D02*
X15013015Y-15819150D01*
X14965396Y-15752484D02*
X14965396Y-15923912D01*
X14965396Y-15923912D02*
X14974920Y-15942960D01*
X14974920Y-15942960D02*
X14993968Y-15952484D01*
X14993968Y-15952484D02*
X15013015Y-15952484D01*
X15155873Y-15942960D02*
X15136825Y-15952484D01*
X15136825Y-15952484D02*
X15098730Y-15952484D01*
X15098730Y-15952484D02*
X15079682Y-15942960D01*
X15079682Y-15942960D02*
X15070158Y-15923912D01*
X15070158Y-15923912D02*
X15070158Y-15847722D01*
X15070158Y-15847722D02*
X15079682Y-15828674D01*
X15079682Y-15828674D02*
X15098730Y-15819150D01*
X15098730Y-15819150D02*
X15136825Y-15819150D01*
X15136825Y-15819150D02*
X15155873Y-15828674D01*
X15155873Y-15828674D02*
X15165396Y-15847722D01*
X15165396Y-15847722D02*
X15165396Y-15866769D01*
X15165396Y-15866769D02*
X15070158Y-15885817D01*
X15336825Y-15952484D02*
X15336825Y-15752484D01*
X15336825Y-15942960D02*
X15317777Y-15952484D01*
X15317777Y-15952484D02*
X15279682Y-15952484D01*
X15279682Y-15952484D02*
X15260634Y-15942960D01*
X15260634Y-15942960D02*
X15251111Y-15933436D01*
X15251111Y-15933436D02*
X15241587Y-15914388D01*
X15241587Y-15914388D02*
X15241587Y-15857246D01*
X15241587Y-15857246D02*
X15251111Y-15838198D01*
X15251111Y-15838198D02*
X15260634Y-15828674D01*
X15260634Y-15828674D02*
X15279682Y-15819150D01*
X15279682Y-15819150D02*
X15317777Y-15819150D01*
X15317777Y-15819150D02*
X15336825Y-15828674D01*
X15413015Y-16028674D02*
X15422539Y-16019150D01*
X15422539Y-16019150D02*
X15441587Y-15990579D01*
X15441587Y-15990579D02*
X15451111Y-15971531D01*
X15451111Y-15971531D02*
X15460634Y-15942960D01*
X15460634Y-15942960D02*
X15470158Y-15895341D01*
X15470158Y-15895341D02*
X15470158Y-15857246D01*
X15470158Y-15857246D02*
X15460634Y-15809627D01*
X15460634Y-15809627D02*
X15451111Y-15781055D01*
X15451111Y-15781055D02*
X15441587Y-15762008D01*
X15441587Y-15762008D02*
X15422539Y-15733436D01*
X15422539Y-15733436D02*
X15413015Y-15723912D01*
M02*
