M48
; DRILL file {KiCad 7.0.6} date Wed Jan 17 12:47:23 2024
; FORMAT={-:-/ absolute / inch / decimal}
; #@! TF.CreationDate,2024-01-17T12:47:23+07:00
; #@! TF.GenerationSoftware,Kicad,Pcbnew,7.0.6
; #@! TF.FileFunction,Plated,1,2,PTH
FMAT,2
INCH
; #@! TA.AperFunction,Plated,PTH,ViaDrill
T1C0.0157
; #@! TA.AperFunction,Plated,PTH,ComponentDrill
T2C0.0236
; #@! TA.AperFunction,Plated,PTH,ComponentDrill
T3C0.0315
; #@! TA.AperFunction,Plated,PTH,ComponentDrill
T4C0.0354
; #@! TA.AperFunction,Plated,PTH,ComponentDrill
T5C0.0394
; #@! TA.AperFunction,Plated,PTH,ComponentDrill
T6C0.0402
; #@! TA.AperFunction,Plated,PTH,ComponentDrill
T7C0.0512
; #@! TA.AperFunction,Plated,PTH,ComponentDrill
T8C0.0587
; #@! TA.AperFunction,Plated,PTH,ComponentDrill
T9C0.0689
; #@! TA.AperFunction,Plated,PTH,ComponentDrill
T10C0.0787
%
G90
G05
T1
X4.0177Y-4.8476
X4.0177Y-5.1232
X4.5846Y-2.2299
X4.7087Y-4.1118
X4.8622Y-5.2559
X5.0823Y-3.0591
X5.1063Y-2.3791
X5.1071Y-2.0248
X5.1756Y-5.2268
X5.1992Y-5.5161
X5.4685Y-5.2299
X5.5504Y-3.9185
X5.6114Y-5.5161
X5.7511Y-3.7731
X5.887Y-3.8902
X5.9402Y-5.2386
X5.9783Y-5.3752
X5.9878Y-5.5201
X6.0421Y-3.9267
X6.1583Y-5.237
X6.1689Y-5.526
X6.2232Y-3.7276
X6.4453Y-3.928
X6.4732Y-3.7256
X6.5583Y-1.7008
X6.5602Y-3.3528
X6.639Y-3.9941
X6.6465Y-5.2524
X6.6827Y-5.3591
X6.9512Y-4.6862
X7.0386Y-5.1587
X7.7657Y-4.5882
X8.0535Y-1.8067
X8.1047Y-4.0768
X8.1949Y-3.8744
X8.5563Y-1.7386
X8.7382Y-1.7488
X9.1339Y-3.8028
T2
X1.9514Y-3.2727
X2.0026Y-3.0759
T3
X3.8145Y-4.716
X3.8145Y-4.9129
X4.2083Y-4.6256
X4.2087Y-4.413
X4.2087Y-4.8433
X4.2098Y-5.0614
X4.5122Y-3.2171
X4.5122Y-3.3156
X4.5161Y-2.8767
X4.5161Y-2.9751
X4.7083Y-4.6256
X4.7087Y-4.413
X4.7087Y-4.8433
X4.7098Y-5.0614
X4.9409Y-2.8387
X4.9409Y-3.0355
X4.9457Y-3.185
X4.9457Y-3.3819
X5.1491Y-4.9223
X5.2029Y-4.6814
X5.2609Y-3.0842
X5.2609Y-3.468
X5.2617Y-3.2822
X5.2633Y-2.4349
X5.2661Y-2.8704
X5.2692Y-2.6574
X5.3013Y-4.6814
X5.346Y-4.9223
X5.4578Y-3.0842
X5.4578Y-3.468
X5.4586Y-3.2822
X5.4602Y-2.4349
X5.4629Y-2.8704
X5.4661Y-2.6574
X5.7169Y-3.0838
X5.7184Y-3.4751
X5.7192Y-3.2818
X5.722Y-2.8751
X5.7239Y-2.4408
X5.7239Y-2.657
X5.8515Y-4.9129
X5.894Y-4.6743
X5.9924Y-4.6743
X6.0483Y-4.9129
X6.2169Y-3.0838
X6.2184Y-3.4751
X6.2192Y-3.2818
X6.222Y-2.8751
X6.2239Y-2.4408
X6.2239Y-2.657
X6.5582Y-4.907
X6.5587Y-4.1839
X6.5587Y-4.4008
X6.5591Y-3.9945
X6.606Y-4.6723
X6.7044Y-4.6723
X6.755Y-4.907
X6.7559Y-3.9945
X7.0354Y-4.7705
X7.0354Y-5.2705
X7.0587Y-4.1839
X7.0587Y-4.4008
X7.2665Y-4.6516
X7.2689Y-5.2232
X7.2693Y-4.935
X7.3157Y-3.8898
X7.3157Y-4.3898
X7.7031Y-3.9646
X7.7031Y-4.4646
X7.7665Y-4.6516
X7.7689Y-5.2232
X7.7693Y-4.935
X7.9819Y-3.9646
X7.9819Y-4.4646
X8.263Y-3.963
X8.263Y-4.463
X8.4386Y-3.9614
X8.6354Y-3.9614
T4
X3.967Y-4.4932
X4.067Y-4.4932
X5.0987Y-5.1097
X5.3987Y-5.1097
X5.8027Y-5.1078
X6.1027Y-5.1078
X6.507Y-5.1042
X6.807Y-5.1042
T5
X4.7583Y-3.1835
X4.7583Y-3.3835
X4.7594Y-2.8383
X4.7594Y-3.0383
X6.5563Y-1.4665
X6.5563Y-1.5665
X6.5563Y-3.4665
X6.5563Y-3.5665
X6.6563Y-1.4665
X6.6563Y-1.5665
X6.6563Y-3.4665
X6.6563Y-3.5665
X6.7563Y-1.4665
X6.7563Y-1.5665
X6.7563Y-3.4665
X6.7563Y-3.5665
X6.8563Y-1.4665
X6.8563Y-1.5665
X6.8563Y-3.4665
X6.8563Y-3.5665
X6.9563Y-1.4665
X6.9563Y-1.5665
X6.9563Y-3.4665
X6.9563Y-3.5665
X7.0563Y-1.4665
X7.0563Y-1.5665
X7.0563Y-3.4665
X7.0563Y-3.5665
X7.1563Y-1.4665
X7.1563Y-1.5665
X7.1563Y-3.4665
X7.1563Y-3.5665
X7.2563Y-1.4665
X7.2563Y-1.5665
X7.2563Y-3.4665
X7.2563Y-3.5665
X7.3563Y-1.4665
X7.3563Y-1.5665
X7.3563Y-3.4665
X7.3563Y-3.5665
X7.4563Y-1.4665
X7.4563Y-1.5665
X7.4563Y-3.4665
X7.4563Y-3.5665
X7.5563Y-1.4665
X7.5563Y-1.5665
X7.5563Y-3.4665
X7.5563Y-3.5665
X7.6563Y-1.4665
X7.6563Y-1.5665
X7.6563Y-3.4665
X7.6563Y-3.5665
X7.7563Y-1.4665
X7.7563Y-1.5665
X7.7563Y-3.4665
X7.7563Y-3.5665
X7.8563Y-1.4665
X7.8563Y-1.5665
X7.8563Y-3.4665
X7.8563Y-3.5665
X7.9563Y-1.4665
X7.9563Y-1.5665
X7.9563Y-3.4665
X7.9563Y-3.5665
X8.0563Y-1.4665
X8.0563Y-1.5665
X8.0563Y-3.4665
X8.0563Y-3.5665
X8.1563Y-1.4665
X8.1563Y-1.5665
X8.1563Y-3.4665
X8.1563Y-3.5665
X8.2563Y-1.4665
X8.2563Y-1.5665
X8.2563Y-3.4665
X8.2563Y-3.5665
X8.3563Y-1.4665
X8.3563Y-1.5665
X8.3563Y-3.4665
X8.3563Y-3.5665
X8.4563Y-1.4665
X8.4563Y-1.5665
X8.4563Y-3.4665
X8.4563Y-3.5665
X8.5563Y-1.4665
X8.5563Y-1.5665
X8.5563Y-3.4665
X8.5563Y-3.5665
X8.6563Y-1.4665
X8.6563Y-1.5665
X8.6563Y-3.4665
X8.6563Y-3.5665
X8.7563Y-1.4665
X8.7563Y-1.5665
X8.7563Y-3.4665
X8.7563Y-3.5665
X8.8563Y-1.4665
X8.8563Y-1.5665
X8.8563Y-3.4665
X8.8563Y-3.5665
X8.9563Y-1.4665
X8.9563Y-1.5665
X8.9563Y-3.4665
X8.9563Y-3.5665
T6
X5.1587Y-4.4142
X5.1685Y-3.8413
X5.2394Y-3.8413
X5.2571Y-4.4142
X5.3102Y-3.8413
X5.3556Y-4.4142
X5.3811Y-3.8413
X5.452Y-3.8413
X5.454Y-4.4142
X5.5229Y-3.8413
X5.5524Y-4.4142
X5.5937Y-3.8413
X5.6646Y-3.8413
X5.7354Y-3.8413
X5.7493Y-4.4142
X5.8063Y-3.8413
X5.8477Y-4.4142
X5.8772Y-3.8413
X5.9481Y-3.8413
X6.0189Y-3.8413
X6.0445Y-4.4142
X6.0898Y-3.8413
X6.143Y-4.4142
X6.1607Y-3.8413
X6.2315Y-3.8413
X6.2414Y-4.4142
T7
X2.5274Y-2.1164
X2.5274Y-2.4235
X2.5353Y-3.5122
X2.5353Y-3.8193
X4.2006Y-1.8251
X4.2006Y-2.7149
X4.2086Y-3.2209
X4.2086Y-4.1106
T8
X2.0058Y-3.6339
X2.0058Y-3.8339
X2.0058Y-4.0339
X2.0058Y-4.2339
T9
X2.0416Y-2.5237
X2.0416Y-2.7237
X4.5826Y-1.8176
X4.7826Y-1.8176
X4.9826Y-1.8176
X5.1826Y-1.8176
X5.6945Y-5.7074
X5.8945Y-5.7074
X6.0945Y-5.7074
T10
X3.0455Y-4.7542
X3.0455Y-5.1479
T0
M30
