M48
; DRILL file {KiCad 7.0.6} date Thu Nov 30 13:04:12 2023
; FORMAT={-:-/ absolute / inch / decimal}
; #@! TF.CreationDate,2023-11-30T13:04:12+07:00
; #@! TF.GenerationSoftware,Kicad,Pcbnew,7.0.6
; #@! TF.FileFunction,Plated,1,2,PTH
FMAT,2
INCH
; #@! TA.AperFunction,Plated,PTH,ComponentDrill
T1C0.0394
; #@! TA.AperFunction,Plated,PTH,ComponentDrill
T2C0.0402
; #@! TA.AperFunction,Plated,PTH,ComponentDrill
T3C0.0587
; #@! TA.AperFunction,Plated,PTH,ComponentDrill
T4C0.0689
%
G90
G05
T1
X3.8094Y-3.25
X3.8094Y-3.35
X3.8094Y-3.45
X3.8094Y-3.55
X3.8094Y-3.65
X3.8094Y-3.75
X3.8094Y-3.85
X3.8094Y-3.95
X3.8094Y-4.05
X3.8094Y-4.15
X3.8094Y-4.25
X3.8094Y-4.35
X3.8094Y-4.45
X3.8094Y-4.55
X3.8094Y-4.65
X3.8094Y-4.75
X3.8094Y-4.85
X3.8094Y-4.95
X3.8094Y-5.05
X3.8094Y-5.15
X3.8094Y-5.25
X3.8094Y-5.35
X3.8094Y-5.45
X3.8094Y-5.55
X3.8094Y-5.65
X3.9559Y-3.2484
X3.9559Y-3.3484
X3.9559Y-3.4484
X3.9559Y-3.5484
X3.9559Y-3.6484
X3.9559Y-3.7484
X3.9559Y-3.8484
X3.9559Y-3.9484
X3.9559Y-4.0484
X3.9559Y-4.1484
X3.9559Y-4.2484
X3.9559Y-4.3484
X3.9559Y-4.4484
X3.9559Y-4.5484
X3.9559Y-4.6484
X3.9559Y-4.7484
X3.9559Y-4.8484
X3.9559Y-4.9484
X3.9559Y-5.0484
X3.9559Y-5.1484
X3.9559Y-5.2484
X3.9559Y-5.3484
X3.9559Y-5.4484
X3.9559Y-5.5484
X3.9559Y-5.6484
X4.3539Y-3.2484
X4.3539Y-3.3484
X4.3539Y-3.4484
X4.3539Y-3.5484
X4.3539Y-3.6484
X4.3539Y-3.7484
X4.3539Y-3.8484
X4.3539Y-3.9484
X4.3539Y-4.0484
X4.3539Y-4.1484
X4.3539Y-4.2484
X4.3539Y-4.3484
X4.3539Y-4.4484
X4.3539Y-4.5484
X4.3539Y-4.6484
X4.3539Y-4.7484
X4.3539Y-4.8484
X4.3539Y-4.9484
X4.3539Y-5.0484
X4.3539Y-5.1484
X4.3539Y-5.2484
X4.3539Y-5.3484
X4.3539Y-5.4484
X4.3539Y-5.5484
X4.3539Y-5.6484
X4.4539Y-3.2484
X4.4539Y-3.3484
X4.4539Y-3.4484
X4.4539Y-3.5484
X4.4539Y-3.6484
X4.4539Y-3.7484
X4.4539Y-3.8484
X4.4539Y-3.9484
X4.4539Y-4.0484
X4.4539Y-4.1484
X4.4539Y-4.2484
X4.4539Y-4.3484
X4.4539Y-4.4484
X4.4539Y-4.5484
X4.4539Y-4.6484
X4.4539Y-4.7484
X4.4539Y-4.8484
X4.4539Y-4.9484
X4.4539Y-5.0484
X4.4539Y-5.1484
X4.4539Y-5.2484
X4.4539Y-5.3484
X4.4539Y-5.4484
X4.4539Y-5.5484
X4.4539Y-5.6484
X6.3539Y-3.2484
X6.3539Y-3.3484
X6.3539Y-3.4484
X6.3539Y-3.5484
X6.3539Y-3.6484
X6.3539Y-3.7484
X6.3539Y-3.8484
X6.3539Y-3.9484
X6.3539Y-4.0484
X6.3539Y-4.1484
X6.3539Y-4.2484
X6.3539Y-4.3484
X6.3539Y-4.4484
X6.3539Y-4.5484
X6.3539Y-4.6484
X6.3539Y-4.7484
X6.3539Y-4.8484
X6.3539Y-4.9484
X6.3539Y-5.0484
X6.3539Y-5.1484
X6.3539Y-5.2484
X6.3539Y-5.3484
X6.3539Y-5.4484
X6.3539Y-5.5484
X6.3539Y-5.6484
X6.4539Y-3.2484
X6.4539Y-3.3484
X6.4539Y-3.4484
X6.4539Y-3.5484
X6.4539Y-3.6484
X6.4539Y-3.7484
X6.4539Y-3.8484
X6.4539Y-3.9484
X6.4539Y-4.0484
X6.4539Y-4.1484
X6.4539Y-4.2484
X6.4539Y-4.3484
X6.4539Y-4.4484
X6.4539Y-4.5484
X6.4539Y-4.6484
X6.4539Y-4.7484
X6.4539Y-4.8484
X6.4539Y-4.9484
X6.4539Y-5.0484
X6.4539Y-5.1484
X6.4539Y-5.2484
X6.4539Y-5.3484
X6.4539Y-5.4484
X6.4539Y-5.5484
X6.4539Y-5.6484
X6.8634Y-3.2469
X6.8634Y-3.3469
X6.8634Y-3.4469
X6.8634Y-3.5469
X6.8634Y-3.6469
X6.8634Y-3.7469
X6.8634Y-3.8469
X6.8634Y-3.9469
X6.8634Y-4.0469
X6.8634Y-4.1469
X6.8634Y-4.2469
X6.8634Y-4.3469
X6.8634Y-4.4469
X6.8634Y-4.5469
X6.8634Y-4.6469
X6.8634Y-4.7469
X6.8634Y-4.8469
X6.8634Y-4.9469
X6.8634Y-5.0469
X6.8634Y-5.1469
X6.8634Y-5.2469
X6.8634Y-5.3469
X6.8634Y-5.4469
X6.8634Y-5.5469
X6.8634Y-5.6469
X7.0071Y-3.2461
X7.0071Y-3.3461
X7.0071Y-3.4461
X7.0071Y-3.5461
X7.0071Y-3.6461
X7.0071Y-3.7461
X7.0071Y-3.8461
X7.0071Y-3.9461
X7.0071Y-4.0461
X7.0071Y-4.1461
X7.0071Y-4.2461
X7.0071Y-4.3461
X7.0071Y-4.4461
X7.0071Y-4.5461
X7.0071Y-4.6461
X7.0071Y-4.7461
X7.0071Y-4.8461
X7.0071Y-4.9461
X7.0071Y-5.0461
X7.0071Y-5.1461
X7.0071Y-5.2461
X7.0071Y-5.3461
X7.0071Y-5.4461
X7.0071Y-5.5461
X7.0071Y-5.6461
T2
X8.2966Y-2.6648
X8.2966Y-2.7357
X8.2966Y-2.8066
X8.2966Y-2.8775
X8.2966Y-2.9483
X8.2966Y-3.0192
X8.2966Y-3.0901
X8.2966Y-3.1609
X8.2966Y-3.2318
X8.2966Y-3.3026
X8.2966Y-3.3735
X8.2966Y-3.4444
X8.2966Y-3.5153
X8.2966Y-3.5861
X8.2966Y-3.657
X8.2966Y-3.7278
X8.8694Y-2.655
X8.8694Y-2.7534
X8.8694Y-2.8519
X8.8694Y-3.0487
X8.8694Y-3.1471
X8.8694Y-3.344
X8.8694Y-3.4424
X8.8694Y-3.5408
X8.8694Y-3.6393
X8.8694Y-3.7377
T3
X8.3207Y-5.0956
X8.5207Y-5.0956
X8.7207Y-5.0956
X8.9207Y-5.0956
T4
X7.8195Y-5.0953
X7.8195Y-5.2953
X7.8313Y-2.5177
X7.8313Y-2.7177
X7.8313Y-2.9177
X7.8313Y-3.1177
X7.8313Y-3.3177
X7.8313Y-3.5177
X7.8313Y-3.7177
X7.8313Y-3.9177
X8.2982Y-4.2374
X8.2986Y-2.1551
X8.4982Y-4.2374
X8.4986Y-2.1551
X8.6982Y-4.2374
X8.6986Y-2.1551
X8.8982Y-4.2374
X8.8986Y-2.1551
X9.3289Y-4.8985
X9.3289Y-5.0985
X9.3336Y-2.3454
X9.3336Y-2.5454
X9.3336Y-2.7454
X9.3336Y-2.9454
X9.3336Y-3.1454
X9.3336Y-3.3454
X9.3336Y-3.5454
X9.3336Y-3.7454
X9.3336Y-3.9454
X9.3336Y-4.1454
T0
M30
