%TF.GenerationSoftware,KiCad,Pcbnew,7.0.6*%
%TF.CreationDate,2024-01-17T13:08:57+07:00*%
%TF.ProjectId,Main,4d61696e-2e6b-4696-9361-645f70636258,rev?*%
%TF.SameCoordinates,Original*%
%TF.FileFunction,Drillmap*%
%TF.FilePolarity,Positive*%
%FSLAX45Y45*%
G04 Gerber Fmt 4.5, Leading zero omitted, Abs format (unit mm)*
G04 Created by KiCad (PCBNEW 7.0.6) date 2024-01-17 13:08:57*
%MOMM*%
%LPD*%
G01*
G04 APERTURE LIST*
%ADD10C,0.150000*%
%ADD11C,0.100000*%
%ADD12C,0.200000*%
%ADD13C,0.040000*%
%ADD14C,0.060000*%
%ADD15C,0.080000*%
%ADD16C,0.090000*%
%ADD17C,0.102000*%
%ADD18C,0.130000*%
%ADD19C,0.149000*%
%ADD20C,0.175000*%
G04 APERTURE END LIST*
D10*
X4655000Y-14943000D02*
G75*
G03*
X4655000Y-14943000I-200000J0D01*
G01*
X26780000Y-14935000D02*
G75*
G03*
X26780000Y-14935000I-200000J0D01*
G01*
D11*
X4080000Y-2556000D02*
X26991800Y-2556000D01*
X26991800Y-15344750D01*
X4080000Y-15344750D01*
X4080000Y-2556000D01*
D10*
X4679000Y-2921000D02*
G75*
G03*
X4679000Y-2921000I-200000J0D01*
G01*
X26780000Y-2945000D02*
G75*
G03*
X26780000Y-2945000I-200000J0D01*
G01*
D12*
D13*
X10185000Y-12293000D02*
X10225000Y-12333000D01*
X10225000Y-12293000D02*
X10185000Y-12333000D01*
X10185000Y-12993000D02*
X10225000Y-13033000D01*
X10225000Y-12993000D02*
X10185000Y-13033000D01*
X11625000Y-5644000D02*
X11665000Y-5684000D01*
X11665000Y-5644000D02*
X11625000Y-5684000D01*
X11940000Y-10424000D02*
X11980000Y-10464000D01*
X11980000Y-10424000D02*
X11940000Y-10464000D01*
X12330000Y-13330000D02*
X12370000Y-13370000D01*
X12370000Y-13330000D02*
X12330000Y-13370000D01*
X12889000Y-7750000D02*
X12929000Y-7790000D01*
X12929000Y-7750000D02*
X12889000Y-7790000D01*
X12950000Y-6023000D02*
X12990000Y-6063000D01*
X12990000Y-6023000D02*
X12950000Y-6063000D01*
X12952000Y-5123000D02*
X12992000Y-5163000D01*
X12992000Y-5123000D02*
X12952000Y-5163000D01*
X13126000Y-13256000D02*
X13166000Y-13296000D01*
X13166000Y-13256000D02*
X13126000Y-13296000D01*
X13186000Y-13991000D02*
X13226000Y-14031000D01*
X13226000Y-13991000D02*
X13186000Y-14031000D01*
X13870000Y-13264000D02*
X13910000Y-13304000D01*
X13910000Y-13264000D02*
X13870000Y-13304000D01*
X14078000Y-9933000D02*
X14118000Y-9973000D01*
X14118000Y-9933000D02*
X14078000Y-9973000D01*
X14233000Y-13991000D02*
X14273000Y-14031000D01*
X14273000Y-13991000D02*
X14233000Y-14031000D01*
X14587800Y-9563750D02*
X14627800Y-9603750D01*
X14627800Y-9563750D02*
X14587800Y-9603750D01*
X14933000Y-9861000D02*
X14973000Y-9901000D01*
X14973000Y-9861000D02*
X14933000Y-9901000D01*
X15068000Y-13286000D02*
X15108000Y-13326000D01*
X15108000Y-13286000D02*
X15068000Y-13326000D01*
X15165000Y-13633000D02*
X15205000Y-13673000D01*
X15205000Y-13633000D02*
X15165000Y-13673000D01*
X15189000Y-14001000D02*
X15229000Y-14041000D01*
X15229000Y-14001000D02*
X15189000Y-14041000D01*
X15327000Y-9953750D02*
X15367000Y-9993750D01*
X15367000Y-9953750D02*
X15327000Y-9993750D01*
X15622000Y-13282000D02*
X15662000Y-13322000D01*
X15662000Y-13282000D02*
X15622000Y-13322000D01*
X15649000Y-14016000D02*
X15689000Y-14056000D01*
X15689000Y-14016000D02*
X15649000Y-14056000D01*
X15787000Y-9448000D02*
X15827000Y-9488000D01*
X15827000Y-9448000D02*
X15787000Y-9488000D01*
X16351000Y-9957000D02*
X16391000Y-9997000D01*
X16391000Y-9957000D02*
X16351000Y-9997000D01*
X16422000Y-9443000D02*
X16462000Y-9483000D01*
X16462000Y-9443000D02*
X16422000Y-9483000D01*
X16638000Y-4300000D02*
X16678000Y-4340000D01*
X16678000Y-4300000D02*
X16638000Y-4340000D01*
X16643000Y-8496000D02*
X16683000Y-8536000D01*
X16683000Y-8496000D02*
X16643000Y-8536000D01*
X16843000Y-10125000D02*
X16883000Y-10165000D01*
X16883000Y-10125000D02*
X16843000Y-10165000D01*
X16862000Y-13321000D02*
X16902000Y-13361000D01*
X16902000Y-13321000D02*
X16862000Y-13361000D01*
X16954000Y-13592000D02*
X16994000Y-13632000D01*
X16994000Y-13592000D02*
X16954000Y-13632000D01*
X17636000Y-11883000D02*
X17676000Y-11923000D01*
X17676000Y-11883000D02*
X17636000Y-11923000D01*
X17858000Y-13083000D02*
X17898000Y-13123000D01*
X17898000Y-13083000D02*
X17858000Y-13123000D01*
X19705000Y-11634000D02*
X19745000Y-11674000D01*
X19745000Y-11634000D02*
X19705000Y-11674000D01*
X20436000Y-4569000D02*
X20476000Y-4609000D01*
X20476000Y-4569000D02*
X20436000Y-4609000D01*
X20566000Y-10335000D02*
X20606000Y-10375000D01*
X20606000Y-10335000D02*
X20566000Y-10375000D01*
X20795000Y-9821000D02*
X20835000Y-9861000D01*
X20835000Y-9821000D02*
X20795000Y-9861000D01*
X21713000Y-4396000D02*
X21753000Y-4436000D01*
X21753000Y-4396000D02*
X21713000Y-4436000D01*
X22175000Y-4422000D02*
X22215000Y-4462000D01*
X22215000Y-4422000D02*
X22175000Y-4462000D01*
X23180000Y-9639000D02*
X23220000Y-9679000D01*
X23220000Y-9639000D02*
X23180000Y-9679000D01*
D14*
X4986550Y-8312750D02*
G75*
G03*
X4986550Y-8312750I-30000J0D01*
G01*
X5116550Y-7812750D02*
G75*
G03*
X5116550Y-7812750I-30000J0D01*
G01*
D15*
X9688800Y-11938750D02*
X9688800Y-12018750D01*
X9648800Y-11978750D02*
X9728800Y-11978750D01*
X9688800Y-12438750D02*
X9688800Y-12518750D01*
X9648800Y-12478750D02*
X9728800Y-12478750D01*
X10689000Y-11709000D02*
X10689000Y-11789000D01*
X10649000Y-11749000D02*
X10729000Y-11749000D01*
X10690000Y-11169000D02*
X10690000Y-11249000D01*
X10650000Y-11209000D02*
X10730000Y-11209000D01*
X10690000Y-12262000D02*
X10690000Y-12342000D01*
X10650000Y-12302000D02*
X10730000Y-12302000D01*
X10693000Y-12816000D02*
X10693000Y-12896000D01*
X10653000Y-12856000D02*
X10733000Y-12856000D01*
X11461000Y-8131511D02*
X11461000Y-8211511D01*
X11421000Y-8171511D02*
X11501000Y-8171511D01*
X11461000Y-8381511D02*
X11461000Y-8461511D01*
X11421000Y-8421511D02*
X11501000Y-8421511D01*
X11470800Y-7266750D02*
X11470800Y-7346750D01*
X11430800Y-7306750D02*
X11510800Y-7306750D01*
X11470800Y-7516750D02*
X11470800Y-7596750D01*
X11430800Y-7556750D02*
X11510800Y-7556750D01*
X11959000Y-11709000D02*
X11959000Y-11789000D01*
X11919000Y-11749000D02*
X11999000Y-11749000D01*
X11960000Y-11169000D02*
X11960000Y-11249000D01*
X11920000Y-11209000D02*
X12000000Y-11209000D01*
X11960000Y-12262000D02*
X11960000Y-12342000D01*
X11920000Y-12302000D02*
X12000000Y-12302000D01*
X11963000Y-12816000D02*
X11963000Y-12896000D01*
X11923000Y-12856000D02*
X12003000Y-12856000D01*
X12549800Y-7170239D02*
X12549800Y-7250239D01*
X12509800Y-7210239D02*
X12589800Y-7210239D01*
X12549800Y-7670239D02*
X12549800Y-7750239D01*
X12509800Y-7710239D02*
X12589800Y-7710239D01*
X12562000Y-8050000D02*
X12562000Y-8130000D01*
X12522000Y-8090000D02*
X12602000Y-8090000D01*
X12562000Y-8550000D02*
X12562000Y-8630000D01*
X12522000Y-8590000D02*
X12602000Y-8590000D01*
X13078800Y-12462750D02*
X13078800Y-12542750D01*
X13038800Y-12502750D02*
X13118800Y-12502750D01*
X13215289Y-11850750D02*
X13215289Y-11930750D01*
X13175289Y-11890750D02*
X13255289Y-11890750D01*
X13362800Y-7793750D02*
X13362800Y-7873750D01*
X13322800Y-7833750D02*
X13402800Y-7833750D01*
X13362800Y-8768750D02*
X13362800Y-8848750D01*
X13322800Y-8808750D02*
X13402800Y-8808750D01*
X13364800Y-8296750D02*
X13364800Y-8376750D01*
X13324800Y-8336750D02*
X13404800Y-8336750D01*
X13368800Y-6144750D02*
X13368800Y-6224750D01*
X13328800Y-6184750D02*
X13408800Y-6184750D01*
X13375800Y-7250750D02*
X13375800Y-7330750D01*
X13335800Y-7290750D02*
X13415800Y-7290750D01*
X13383800Y-6709750D02*
X13383800Y-6789750D01*
X13343800Y-6749750D02*
X13423800Y-6749750D01*
X13465289Y-11850750D02*
X13465289Y-11930750D01*
X13425289Y-11890750D02*
X13505289Y-11890750D01*
X13578800Y-12462750D02*
X13578800Y-12542750D01*
X13538800Y-12502750D02*
X13618800Y-12502750D01*
X13862800Y-7793750D02*
X13862800Y-7873750D01*
X13822800Y-7833750D02*
X13902800Y-7833750D01*
X13862800Y-8768750D02*
X13862800Y-8848750D01*
X13822800Y-8808750D02*
X13902800Y-8808750D01*
X13864800Y-8296750D02*
X13864800Y-8376750D01*
X13824800Y-8336750D02*
X13904800Y-8336750D01*
X13868800Y-6144750D02*
X13868800Y-6224750D01*
X13828800Y-6184750D02*
X13908800Y-6184750D01*
X13875800Y-7250750D02*
X13875800Y-7330750D01*
X13835800Y-7290750D02*
X13915800Y-7290750D01*
X13883800Y-6709750D02*
X13883800Y-6789750D01*
X13843800Y-6749750D02*
X13923800Y-6749750D01*
X14520800Y-7792750D02*
X14520800Y-7872750D01*
X14480800Y-7832750D02*
X14560800Y-7832750D01*
X14524800Y-8786750D02*
X14524800Y-8866750D01*
X14484800Y-8826750D02*
X14564800Y-8826750D01*
X14526800Y-8295750D02*
X14526800Y-8375750D01*
X14486800Y-8335750D02*
X14566800Y-8335750D01*
X14533800Y-7262750D02*
X14533800Y-7342750D01*
X14493800Y-7302750D02*
X14573800Y-7302750D01*
X14538800Y-6159750D02*
X14538800Y-6239750D01*
X14498800Y-6199750D02*
X14578800Y-6199750D01*
X14538800Y-6708750D02*
X14538800Y-6788750D01*
X14498800Y-6748750D02*
X14578800Y-6748750D01*
X14862800Y-12438750D02*
X14862800Y-12518750D01*
X14822800Y-12478750D02*
X14902800Y-12478750D01*
X14970800Y-11832750D02*
X14970800Y-11912750D01*
X14930800Y-11872750D02*
X15010800Y-11872750D01*
X15220800Y-11832750D02*
X15220800Y-11912750D01*
X15180800Y-11872750D02*
X15260800Y-11872750D01*
X15362800Y-12438750D02*
X15362800Y-12518750D01*
X15322800Y-12478750D02*
X15402800Y-12478750D01*
X15790800Y-7792750D02*
X15790800Y-7872750D01*
X15750800Y-7832750D02*
X15830800Y-7832750D01*
X15794800Y-8786750D02*
X15794800Y-8866750D01*
X15754800Y-8826750D02*
X15834800Y-8826750D01*
X15796800Y-8295750D02*
X15796800Y-8375750D01*
X15756800Y-8335750D02*
X15836800Y-8335750D01*
X15803800Y-7262750D02*
X15803800Y-7342750D01*
X15763800Y-7302750D02*
X15843800Y-7302750D01*
X15808800Y-6159750D02*
X15808800Y-6239750D01*
X15768800Y-6199750D02*
X15848800Y-6199750D01*
X15808800Y-6708750D02*
X15808800Y-6788750D01*
X15768800Y-6748750D02*
X15848800Y-6748750D01*
X16657800Y-12423750D02*
X16657800Y-12503750D01*
X16617800Y-12463750D02*
X16697800Y-12463750D01*
X16659000Y-10587000D02*
X16659000Y-10667000D01*
X16619000Y-10627000D02*
X16699000Y-10627000D01*
X16659000Y-11138000D02*
X16659000Y-11218000D01*
X16619000Y-11178000D02*
X16699000Y-11178000D01*
X16660000Y-10106000D02*
X16660000Y-10186000D01*
X16620000Y-10146000D02*
X16700000Y-10146000D01*
X16779289Y-11827750D02*
X16779289Y-11907750D01*
X16739289Y-11867750D02*
X16819289Y-11867750D01*
X17029289Y-11827750D02*
X17029289Y-11907750D01*
X16989289Y-11867750D02*
X17069289Y-11867750D01*
X17157800Y-12423750D02*
X17157800Y-12503750D01*
X17117800Y-12463750D02*
X17197800Y-12463750D01*
X17160000Y-10106000D02*
X17160000Y-10186000D01*
X17120000Y-10146000D02*
X17200000Y-10146000D01*
X17870000Y-12077000D02*
X17870000Y-12157000D01*
X17830000Y-12117000D02*
X17910000Y-12117000D01*
X17870000Y-13347000D02*
X17870000Y-13427000D01*
X17830000Y-13387000D02*
X17910000Y-13387000D01*
X17929000Y-10587000D02*
X17929000Y-10667000D01*
X17889000Y-10627000D02*
X17969000Y-10627000D01*
X17929000Y-11138000D02*
X17929000Y-11218000D01*
X17889000Y-11178000D02*
X17969000Y-11178000D01*
X18457000Y-11775000D02*
X18457000Y-11855000D01*
X18417000Y-11815000D02*
X18497000Y-11815000D01*
X18463000Y-13227000D02*
X18463000Y-13307000D01*
X18423000Y-13267000D02*
X18503000Y-13267000D01*
X18464000Y-12495000D02*
X18464000Y-12575000D01*
X18424000Y-12535000D02*
X18504000Y-12535000D01*
X18581000Y-10041000D02*
X18581000Y-10121000D01*
X18541000Y-10081000D02*
X18621000Y-10081000D01*
X18581000Y-11311000D02*
X18581000Y-11391000D01*
X18541000Y-11351000D02*
X18621000Y-11351000D01*
X19566000Y-10030000D02*
X19566000Y-10110000D01*
X19526000Y-10070000D02*
X19606000Y-10070000D01*
X19566000Y-11300000D02*
X19566000Y-11380000D01*
X19526000Y-11340000D02*
X19606000Y-11340000D01*
X19727000Y-11775000D02*
X19727000Y-11855000D01*
X19687000Y-11815000D02*
X19767000Y-11815000D01*
X19733000Y-13227000D02*
X19733000Y-13307000D01*
X19693000Y-13267000D02*
X19773000Y-13267000D01*
X19734000Y-12495000D02*
X19734000Y-12575000D01*
X19694000Y-12535000D02*
X19774000Y-12535000D01*
X20274000Y-10030000D02*
X20274000Y-10110000D01*
X20234000Y-10070000D02*
X20314000Y-10070000D01*
X20274000Y-11300000D02*
X20274000Y-11380000D01*
X20234000Y-11340000D02*
X20314000Y-11340000D01*
X20988000Y-10026000D02*
X20988000Y-10106000D01*
X20948000Y-10066000D02*
X21028000Y-10066000D01*
X20988000Y-11296000D02*
X20988000Y-11376000D01*
X20948000Y-11336000D02*
X21028000Y-11336000D01*
X21434000Y-10022000D02*
X21434000Y-10102000D01*
X21394000Y-10062000D02*
X21474000Y-10062000D01*
X21934000Y-10022000D02*
X21934000Y-10102000D01*
X21894000Y-10062000D02*
X21974000Y-10062000D01*
D16*
X10108120Y-11444570D02*
X10108120Y-11380930D01*
X10044480Y-11380930D01*
X10044480Y-11444570D01*
X10108120Y-11444570D01*
X10362120Y-11444570D02*
X10362120Y-11380930D01*
X10298480Y-11380930D01*
X10298480Y-11444570D01*
X10362120Y-11444570D01*
X12982620Y-13010570D02*
X12982620Y-12946930D01*
X12918980Y-12946930D01*
X12918980Y-13010570D01*
X12982620Y-13010570D01*
X13744620Y-13010570D02*
X13744620Y-12946930D01*
X13680980Y-12946930D01*
X13680980Y-13010570D01*
X13744620Y-13010570D01*
X14770620Y-13005570D02*
X14770620Y-12941930D01*
X14706980Y-12941930D01*
X14706980Y-13005570D01*
X14770620Y-13005570D01*
X15532620Y-13005570D02*
X15532620Y-12941930D01*
X15468980Y-12941930D01*
X15468980Y-13005570D01*
X15532620Y-13005570D01*
X16559620Y-12996570D02*
X16559620Y-12932930D01*
X16495980Y-12932930D01*
X16495980Y-12996570D01*
X16559620Y-12996570D01*
X17321620Y-12996570D02*
X17321620Y-12932930D01*
X17257980Y-12932930D01*
X17257980Y-12996570D01*
X17321620Y-12996570D01*
D11*
X12086000Y-8136000D02*
X12136000Y-8086000D01*
X12086000Y-8036000D01*
X12036000Y-8086000D01*
X12086000Y-8136000D01*
X12086000Y-8644000D02*
X12136000Y-8594000D01*
X12086000Y-8544000D01*
X12036000Y-8594000D01*
X12086000Y-8644000D01*
X12088800Y-7259239D02*
X12138800Y-7209239D01*
X12088800Y-7159239D01*
X12038800Y-7209239D01*
X12088800Y-7259239D01*
X12088800Y-7767239D02*
X12138800Y-7717239D01*
X12088800Y-7667239D01*
X12038800Y-7717239D01*
X12088800Y-7767239D01*
X16653000Y-3775000D02*
X16703000Y-3725000D01*
X16653000Y-3675000D01*
X16603000Y-3725000D01*
X16653000Y-3775000D01*
X16653000Y-4029000D02*
X16703000Y-3979000D01*
X16653000Y-3929000D01*
X16603000Y-3979000D01*
X16653000Y-4029000D01*
X16653000Y-8855000D02*
X16703000Y-8805000D01*
X16653000Y-8755000D01*
X16603000Y-8805000D01*
X16653000Y-8855000D01*
X16653000Y-9109000D02*
X16703000Y-9059000D01*
X16653000Y-9009000D01*
X16603000Y-9059000D01*
X16653000Y-9109000D01*
X16907000Y-3775000D02*
X16957000Y-3725000D01*
X16907000Y-3675000D01*
X16857000Y-3725000D01*
X16907000Y-3775000D01*
X16907000Y-4029000D02*
X16957000Y-3979000D01*
X16907000Y-3929000D01*
X16857000Y-3979000D01*
X16907000Y-4029000D01*
X16907000Y-8855000D02*
X16957000Y-8805000D01*
X16907000Y-8755000D01*
X16857000Y-8805000D01*
X16907000Y-8855000D01*
X16907000Y-9109000D02*
X16957000Y-9059000D01*
X16907000Y-9009000D01*
X16857000Y-9059000D01*
X16907000Y-9109000D01*
X17161000Y-3775000D02*
X17211000Y-3725000D01*
X17161000Y-3675000D01*
X17111000Y-3725000D01*
X17161000Y-3775000D01*
X17161000Y-4029000D02*
X17211000Y-3979000D01*
X17161000Y-3929000D01*
X17111000Y-3979000D01*
X17161000Y-4029000D01*
X17161000Y-8855000D02*
X17211000Y-8805000D01*
X17161000Y-8755000D01*
X17111000Y-8805000D01*
X17161000Y-8855000D01*
X17161000Y-9109000D02*
X17211000Y-9059000D01*
X17161000Y-9009000D01*
X17111000Y-9059000D01*
X17161000Y-9109000D01*
X17415000Y-3775000D02*
X17465000Y-3725000D01*
X17415000Y-3675000D01*
X17365000Y-3725000D01*
X17415000Y-3775000D01*
X17415000Y-4029000D02*
X17465000Y-3979000D01*
X17415000Y-3929000D01*
X17365000Y-3979000D01*
X17415000Y-4029000D01*
X17415000Y-8855000D02*
X17465000Y-8805000D01*
X17415000Y-8755000D01*
X17365000Y-8805000D01*
X17415000Y-8855000D01*
X17415000Y-9109000D02*
X17465000Y-9059000D01*
X17415000Y-9009000D01*
X17365000Y-9059000D01*
X17415000Y-9109000D01*
X17669000Y-3775000D02*
X17719000Y-3725000D01*
X17669000Y-3675000D01*
X17619000Y-3725000D01*
X17669000Y-3775000D01*
X17669000Y-4029000D02*
X17719000Y-3979000D01*
X17669000Y-3929000D01*
X17619000Y-3979000D01*
X17669000Y-4029000D01*
X17669000Y-8855000D02*
X17719000Y-8805000D01*
X17669000Y-8755000D01*
X17619000Y-8805000D01*
X17669000Y-8855000D01*
X17669000Y-9109000D02*
X17719000Y-9059000D01*
X17669000Y-9009000D01*
X17619000Y-9059000D01*
X17669000Y-9109000D01*
X17923000Y-3775000D02*
X17973000Y-3725000D01*
X17923000Y-3675000D01*
X17873000Y-3725000D01*
X17923000Y-3775000D01*
X17923000Y-4029000D02*
X17973000Y-3979000D01*
X17923000Y-3929000D01*
X17873000Y-3979000D01*
X17923000Y-4029000D01*
X17923000Y-8855000D02*
X17973000Y-8805000D01*
X17923000Y-8755000D01*
X17873000Y-8805000D01*
X17923000Y-8855000D01*
X17923000Y-9109000D02*
X17973000Y-9059000D01*
X17923000Y-9009000D01*
X17873000Y-9059000D01*
X17923000Y-9109000D01*
X18177000Y-3775000D02*
X18227000Y-3725000D01*
X18177000Y-3675000D01*
X18127000Y-3725000D01*
X18177000Y-3775000D01*
X18177000Y-4029000D02*
X18227000Y-3979000D01*
X18177000Y-3929000D01*
X18127000Y-3979000D01*
X18177000Y-4029000D01*
X18177000Y-8855000D02*
X18227000Y-8805000D01*
X18177000Y-8755000D01*
X18127000Y-8805000D01*
X18177000Y-8855000D01*
X18177000Y-9109000D02*
X18227000Y-9059000D01*
X18177000Y-9009000D01*
X18127000Y-9059000D01*
X18177000Y-9109000D01*
X18431000Y-3775000D02*
X18481000Y-3725000D01*
X18431000Y-3675000D01*
X18381000Y-3725000D01*
X18431000Y-3775000D01*
X18431000Y-4029000D02*
X18481000Y-3979000D01*
X18431000Y-3929000D01*
X18381000Y-3979000D01*
X18431000Y-4029000D01*
X18431000Y-8855000D02*
X18481000Y-8805000D01*
X18431000Y-8755000D01*
X18381000Y-8805000D01*
X18431000Y-8855000D01*
X18431000Y-9109000D02*
X18481000Y-9059000D01*
X18431000Y-9009000D01*
X18381000Y-9059000D01*
X18431000Y-9109000D01*
X18685000Y-3775000D02*
X18735000Y-3725000D01*
X18685000Y-3675000D01*
X18635000Y-3725000D01*
X18685000Y-3775000D01*
X18685000Y-4029000D02*
X18735000Y-3979000D01*
X18685000Y-3929000D01*
X18635000Y-3979000D01*
X18685000Y-4029000D01*
X18685000Y-8855000D02*
X18735000Y-8805000D01*
X18685000Y-8755000D01*
X18635000Y-8805000D01*
X18685000Y-8855000D01*
X18685000Y-9109000D02*
X18735000Y-9059000D01*
X18685000Y-9009000D01*
X18635000Y-9059000D01*
X18685000Y-9109000D01*
X18939000Y-3775000D02*
X18989000Y-3725000D01*
X18939000Y-3675000D01*
X18889000Y-3725000D01*
X18939000Y-3775000D01*
X18939000Y-4029000D02*
X18989000Y-3979000D01*
X18939000Y-3929000D01*
X18889000Y-3979000D01*
X18939000Y-4029000D01*
X18939000Y-8855000D02*
X18989000Y-8805000D01*
X18939000Y-8755000D01*
X18889000Y-8805000D01*
X18939000Y-8855000D01*
X18939000Y-9109000D02*
X18989000Y-9059000D01*
X18939000Y-9009000D01*
X18889000Y-9059000D01*
X18939000Y-9109000D01*
X19193000Y-3775000D02*
X19243000Y-3725000D01*
X19193000Y-3675000D01*
X19143000Y-3725000D01*
X19193000Y-3775000D01*
X19193000Y-4029000D02*
X19243000Y-3979000D01*
X19193000Y-3929000D01*
X19143000Y-3979000D01*
X19193000Y-4029000D01*
X19193000Y-8855000D02*
X19243000Y-8805000D01*
X19193000Y-8755000D01*
X19143000Y-8805000D01*
X19193000Y-8855000D01*
X19193000Y-9109000D02*
X19243000Y-9059000D01*
X19193000Y-9009000D01*
X19143000Y-9059000D01*
X19193000Y-9109000D01*
X19447000Y-3775000D02*
X19497000Y-3725000D01*
X19447000Y-3675000D01*
X19397000Y-3725000D01*
X19447000Y-3775000D01*
X19447000Y-4029000D02*
X19497000Y-3979000D01*
X19447000Y-3929000D01*
X19397000Y-3979000D01*
X19447000Y-4029000D01*
X19447000Y-8855000D02*
X19497000Y-8805000D01*
X19447000Y-8755000D01*
X19397000Y-8805000D01*
X19447000Y-8855000D01*
X19447000Y-9109000D02*
X19497000Y-9059000D01*
X19447000Y-9009000D01*
X19397000Y-9059000D01*
X19447000Y-9109000D01*
X19701000Y-3775000D02*
X19751000Y-3725000D01*
X19701000Y-3675000D01*
X19651000Y-3725000D01*
X19701000Y-3775000D01*
X19701000Y-4029000D02*
X19751000Y-3979000D01*
X19701000Y-3929000D01*
X19651000Y-3979000D01*
X19701000Y-4029000D01*
X19701000Y-8855000D02*
X19751000Y-8805000D01*
X19701000Y-8755000D01*
X19651000Y-8805000D01*
X19701000Y-8855000D01*
X19701000Y-9109000D02*
X19751000Y-9059000D01*
X19701000Y-9009000D01*
X19651000Y-9059000D01*
X19701000Y-9109000D01*
X19955000Y-3775000D02*
X20005000Y-3725000D01*
X19955000Y-3675000D01*
X19905000Y-3725000D01*
X19955000Y-3775000D01*
X19955000Y-4029000D02*
X20005000Y-3979000D01*
X19955000Y-3929000D01*
X19905000Y-3979000D01*
X19955000Y-4029000D01*
X19955000Y-8855000D02*
X20005000Y-8805000D01*
X19955000Y-8755000D01*
X19905000Y-8805000D01*
X19955000Y-8855000D01*
X19955000Y-9109000D02*
X20005000Y-9059000D01*
X19955000Y-9009000D01*
X19905000Y-9059000D01*
X19955000Y-9109000D01*
X20209000Y-3775000D02*
X20259000Y-3725000D01*
X20209000Y-3675000D01*
X20159000Y-3725000D01*
X20209000Y-3775000D01*
X20209000Y-4029000D02*
X20259000Y-3979000D01*
X20209000Y-3929000D01*
X20159000Y-3979000D01*
X20209000Y-4029000D01*
X20209000Y-8855000D02*
X20259000Y-8805000D01*
X20209000Y-8755000D01*
X20159000Y-8805000D01*
X20209000Y-8855000D01*
X20209000Y-9109000D02*
X20259000Y-9059000D01*
X20209000Y-9009000D01*
X20159000Y-9059000D01*
X20209000Y-9109000D01*
X20463000Y-3775000D02*
X20513000Y-3725000D01*
X20463000Y-3675000D01*
X20413000Y-3725000D01*
X20463000Y-3775000D01*
X20463000Y-4029000D02*
X20513000Y-3979000D01*
X20463000Y-3929000D01*
X20413000Y-3979000D01*
X20463000Y-4029000D01*
X20463000Y-8855000D02*
X20513000Y-8805000D01*
X20463000Y-8755000D01*
X20413000Y-8805000D01*
X20463000Y-8855000D01*
X20463000Y-9109000D02*
X20513000Y-9059000D01*
X20463000Y-9009000D01*
X20413000Y-9059000D01*
X20463000Y-9109000D01*
X20717000Y-3775000D02*
X20767000Y-3725000D01*
X20717000Y-3675000D01*
X20667000Y-3725000D01*
X20717000Y-3775000D01*
X20717000Y-4029000D02*
X20767000Y-3979000D01*
X20717000Y-3929000D01*
X20667000Y-3979000D01*
X20717000Y-4029000D01*
X20717000Y-8855000D02*
X20767000Y-8805000D01*
X20717000Y-8755000D01*
X20667000Y-8805000D01*
X20717000Y-8855000D01*
X20717000Y-9109000D02*
X20767000Y-9059000D01*
X20717000Y-9009000D01*
X20667000Y-9059000D01*
X20717000Y-9109000D01*
X20971000Y-3775000D02*
X21021000Y-3725000D01*
X20971000Y-3675000D01*
X20921000Y-3725000D01*
X20971000Y-3775000D01*
X20971000Y-4029000D02*
X21021000Y-3979000D01*
X20971000Y-3929000D01*
X20921000Y-3979000D01*
X20971000Y-4029000D01*
X20971000Y-8855000D02*
X21021000Y-8805000D01*
X20971000Y-8755000D01*
X20921000Y-8805000D01*
X20971000Y-8855000D01*
X20971000Y-9109000D02*
X21021000Y-9059000D01*
X20971000Y-9009000D01*
X20921000Y-9059000D01*
X20971000Y-9109000D01*
X21225000Y-3775000D02*
X21275000Y-3725000D01*
X21225000Y-3675000D01*
X21175000Y-3725000D01*
X21225000Y-3775000D01*
X21225000Y-4029000D02*
X21275000Y-3979000D01*
X21225000Y-3929000D01*
X21175000Y-3979000D01*
X21225000Y-4029000D01*
X21225000Y-8855000D02*
X21275000Y-8805000D01*
X21225000Y-8755000D01*
X21175000Y-8805000D01*
X21225000Y-8855000D01*
X21225000Y-9109000D02*
X21275000Y-9059000D01*
X21225000Y-9009000D01*
X21175000Y-9059000D01*
X21225000Y-9109000D01*
X21479000Y-3775000D02*
X21529000Y-3725000D01*
X21479000Y-3675000D01*
X21429000Y-3725000D01*
X21479000Y-3775000D01*
X21479000Y-4029000D02*
X21529000Y-3979000D01*
X21479000Y-3929000D01*
X21429000Y-3979000D01*
X21479000Y-4029000D01*
X21479000Y-8855000D02*
X21529000Y-8805000D01*
X21479000Y-8755000D01*
X21429000Y-8805000D01*
X21479000Y-8855000D01*
X21479000Y-9109000D02*
X21529000Y-9059000D01*
X21479000Y-9009000D01*
X21429000Y-9059000D01*
X21479000Y-9109000D01*
X21733000Y-3775000D02*
X21783000Y-3725000D01*
X21733000Y-3675000D01*
X21683000Y-3725000D01*
X21733000Y-3775000D01*
X21733000Y-4029000D02*
X21783000Y-3979000D01*
X21733000Y-3929000D01*
X21683000Y-3979000D01*
X21733000Y-4029000D01*
X21733000Y-8855000D02*
X21783000Y-8805000D01*
X21733000Y-8755000D01*
X21683000Y-8805000D01*
X21733000Y-8855000D01*
X21733000Y-9109000D02*
X21783000Y-9059000D01*
X21733000Y-9009000D01*
X21683000Y-9059000D01*
X21733000Y-9109000D01*
X21987000Y-3775000D02*
X22037000Y-3725000D01*
X21987000Y-3675000D01*
X21937000Y-3725000D01*
X21987000Y-3775000D01*
X21987000Y-4029000D02*
X22037000Y-3979000D01*
X21987000Y-3929000D01*
X21937000Y-3979000D01*
X21987000Y-4029000D01*
X21987000Y-8855000D02*
X22037000Y-8805000D01*
X21987000Y-8755000D01*
X21937000Y-8805000D01*
X21987000Y-8855000D01*
X21987000Y-9109000D02*
X22037000Y-9059000D01*
X21987000Y-9009000D01*
X21937000Y-9059000D01*
X21987000Y-9109000D01*
X22241000Y-3775000D02*
X22291000Y-3725000D01*
X22241000Y-3675000D01*
X22191000Y-3725000D01*
X22241000Y-3775000D01*
X22241000Y-4029000D02*
X22291000Y-3979000D01*
X22241000Y-3929000D01*
X22191000Y-3979000D01*
X22241000Y-4029000D01*
X22241000Y-8855000D02*
X22291000Y-8805000D01*
X22241000Y-8755000D01*
X22191000Y-8805000D01*
X22241000Y-8855000D01*
X22241000Y-9109000D02*
X22291000Y-9059000D01*
X22241000Y-9009000D01*
X22191000Y-9059000D01*
X22241000Y-9109000D01*
X22495000Y-3775000D02*
X22545000Y-3725000D01*
X22495000Y-3675000D01*
X22445000Y-3725000D01*
X22495000Y-3775000D01*
X22495000Y-4029000D02*
X22545000Y-3979000D01*
X22495000Y-3929000D01*
X22445000Y-3979000D01*
X22495000Y-4029000D01*
X22495000Y-8855000D02*
X22545000Y-8805000D01*
X22495000Y-8755000D01*
X22445000Y-8805000D01*
X22495000Y-8855000D01*
X22495000Y-9109000D02*
X22545000Y-9059000D01*
X22495000Y-9009000D01*
X22445000Y-9059000D01*
X22495000Y-9109000D01*
X22749000Y-3775000D02*
X22799000Y-3725000D01*
X22749000Y-3675000D01*
X22699000Y-3725000D01*
X22749000Y-3775000D01*
X22749000Y-4029000D02*
X22799000Y-3979000D01*
X22749000Y-3929000D01*
X22699000Y-3979000D01*
X22749000Y-4029000D01*
X22749000Y-8855000D02*
X22799000Y-8805000D01*
X22749000Y-8755000D01*
X22699000Y-8805000D01*
X22749000Y-8855000D01*
X22749000Y-9109000D02*
X22799000Y-9059000D01*
X22749000Y-9009000D01*
X22699000Y-9059000D01*
X22749000Y-9109000D01*
D17*
X13052100Y-11161000D02*
X13154100Y-11263000D01*
X13154100Y-11161000D02*
X13052100Y-11263000D01*
X13154100Y-11212000D02*
G75*
G03*
X13154100Y-11212000I-51000J0D01*
G01*
X13077100Y-9706000D02*
X13179100Y-9808000D01*
X13179100Y-9706000D02*
X13077100Y-9808000D01*
X13179100Y-9757000D02*
G75*
G03*
X13179100Y-9757000I-51000J0D01*
G01*
X13257100Y-9706000D02*
X13359100Y-9808000D01*
X13359100Y-9706000D02*
X13257100Y-9808000D01*
X13359100Y-9757000D02*
G75*
G03*
X13359100Y-9757000I-51000J0D01*
G01*
X13302100Y-11161000D02*
X13404100Y-11263000D01*
X13404100Y-11161000D02*
X13302100Y-11263000D01*
X13404100Y-11212000D02*
G75*
G03*
X13404100Y-11212000I-51000J0D01*
G01*
X13437000Y-9706000D02*
X13539000Y-9808000D01*
X13539000Y-9706000D02*
X13437000Y-9808000D01*
X13539000Y-9757000D02*
G75*
G03*
X13539000Y-9757000I-51000J0D01*
G01*
X13552100Y-11161000D02*
X13654100Y-11263000D01*
X13654100Y-11161000D02*
X13552100Y-11263000D01*
X13654100Y-11212000D02*
G75*
G03*
X13654100Y-11212000I-51000J0D01*
G01*
X13617000Y-9706000D02*
X13719000Y-9808000D01*
X13719000Y-9706000D02*
X13617000Y-9808000D01*
X13719000Y-9757000D02*
G75*
G03*
X13719000Y-9757000I-51000J0D01*
G01*
X13797100Y-9706000D02*
X13899100Y-9808000D01*
X13899100Y-9706000D02*
X13797100Y-9808000D01*
X13899100Y-9757000D02*
G75*
G03*
X13899100Y-9757000I-51000J0D01*
G01*
X13802100Y-11161000D02*
X13904100Y-11263000D01*
X13904100Y-11161000D02*
X13802100Y-11263000D01*
X13904100Y-11212000D02*
G75*
G03*
X13904100Y-11212000I-51000J0D01*
G01*
X13977100Y-9706000D02*
X14079100Y-9808000D01*
X14079100Y-9706000D02*
X13977100Y-9808000D01*
X14079100Y-9757000D02*
G75*
G03*
X14079100Y-9757000I-51000J0D01*
G01*
X14052100Y-11161000D02*
X14154100Y-11263000D01*
X14154100Y-11161000D02*
X14052100Y-11263000D01*
X14154100Y-11212000D02*
G75*
G03*
X14154100Y-11212000I-51000J0D01*
G01*
X14157100Y-9706000D02*
X14259100Y-9808000D01*
X14259100Y-9706000D02*
X14157100Y-9808000D01*
X14259100Y-9757000D02*
G75*
G03*
X14259100Y-9757000I-51000J0D01*
G01*
X14337000Y-9706000D02*
X14439000Y-9808000D01*
X14439000Y-9706000D02*
X14337000Y-9808000D01*
X14439000Y-9757000D02*
G75*
G03*
X14439000Y-9757000I-51000J0D01*
G01*
X14517000Y-9706000D02*
X14619000Y-9808000D01*
X14619000Y-9706000D02*
X14517000Y-9808000D01*
X14619000Y-9757000D02*
G75*
G03*
X14619000Y-9757000I-51000J0D01*
G01*
X14552100Y-11161000D02*
X14654100Y-11263000D01*
X14654100Y-11161000D02*
X14552100Y-11263000D01*
X14654100Y-11212000D02*
G75*
G03*
X14654100Y-11212000I-51000J0D01*
G01*
X14697000Y-9706000D02*
X14799000Y-9808000D01*
X14799000Y-9706000D02*
X14697000Y-9808000D01*
X14799000Y-9757000D02*
G75*
G03*
X14799000Y-9757000I-51000J0D01*
G01*
X14802100Y-11161000D02*
X14904100Y-11263000D01*
X14904100Y-11161000D02*
X14802100Y-11263000D01*
X14904100Y-11212000D02*
G75*
G03*
X14904100Y-11212000I-51000J0D01*
G01*
X14877000Y-9706000D02*
X14979000Y-9808000D01*
X14979000Y-9706000D02*
X14877000Y-9808000D01*
X14979000Y-9757000D02*
G75*
G03*
X14979000Y-9757000I-51000J0D01*
G01*
X15057100Y-9706000D02*
X15159100Y-9808000D01*
X15159100Y-9706000D02*
X15057100Y-9808000D01*
X15159100Y-9757000D02*
G75*
G03*
X15159100Y-9757000I-51000J0D01*
G01*
X15237000Y-9706000D02*
X15339000Y-9808000D01*
X15339000Y-9706000D02*
X15237000Y-9808000D01*
X15339000Y-9757000D02*
G75*
G03*
X15339000Y-9757000I-51000J0D01*
G01*
X15302100Y-11161000D02*
X15404100Y-11263000D01*
X15404100Y-11161000D02*
X15302100Y-11263000D01*
X15404100Y-11212000D02*
G75*
G03*
X15404100Y-11212000I-51000J0D01*
G01*
X15417100Y-9706000D02*
X15519100Y-9808000D01*
X15519100Y-9706000D02*
X15417100Y-9808000D01*
X15519100Y-9757000D02*
G75*
G03*
X15519100Y-9757000I-51000J0D01*
G01*
X15552100Y-11161000D02*
X15654100Y-11263000D01*
X15654100Y-11161000D02*
X15552100Y-11263000D01*
X15654100Y-11212000D02*
G75*
G03*
X15654100Y-11212000I-51000J0D01*
G01*
X15597100Y-9706000D02*
X15699100Y-9808000D01*
X15699100Y-9706000D02*
X15597100Y-9808000D01*
X15699100Y-9757000D02*
G75*
G03*
X15699100Y-9757000I-51000J0D01*
G01*
X15777100Y-9706000D02*
X15879100Y-9808000D01*
X15879100Y-9706000D02*
X15777100Y-9808000D01*
X15879100Y-9757000D02*
G75*
G03*
X15879100Y-9757000I-51000J0D01*
G01*
X15802100Y-11161000D02*
X15904100Y-11263000D01*
X15904100Y-11161000D02*
X15802100Y-11263000D01*
X15904100Y-11212000D02*
G75*
G03*
X15904100Y-11212000I-51000J0D01*
G01*
D18*
X6354550Y-5310750D02*
X6484550Y-5440750D01*
X6484550Y-5310750D02*
X6354550Y-5440750D01*
X6419550Y-5310750D02*
X6419550Y-5440750D01*
X6354550Y-5375750D02*
X6484550Y-5375750D01*
X6354550Y-6090750D02*
X6484550Y-6220750D01*
X6484550Y-6090750D02*
X6354550Y-6220750D01*
X6419550Y-6090750D02*
X6419550Y-6220750D01*
X6354550Y-6155750D02*
X6484550Y-6155750D01*
X6374750Y-8856000D02*
X6504750Y-8986000D01*
X6504750Y-8856000D02*
X6374750Y-8986000D01*
X6439750Y-8856000D02*
X6439750Y-8986000D01*
X6374750Y-8921000D02*
X6504750Y-8921000D01*
X6374750Y-9636000D02*
X6504750Y-9766000D01*
X6504750Y-9636000D02*
X6374750Y-9766000D01*
X6439750Y-9636000D02*
X6439750Y-9766000D01*
X6374750Y-9701000D02*
X6504750Y-9701000D01*
X10604550Y-4570750D02*
X10734550Y-4700750D01*
X10734550Y-4570750D02*
X10604550Y-4700750D01*
X10669550Y-4570750D02*
X10669550Y-4700750D01*
X10604550Y-4635750D02*
X10734550Y-4635750D01*
X10604550Y-6830750D02*
X10734550Y-6960750D01*
X10734550Y-6830750D02*
X10604550Y-6960750D01*
X10669550Y-6830750D02*
X10669550Y-6960750D01*
X10604550Y-6895750D02*
X10734550Y-6895750D01*
X10624750Y-8116000D02*
X10754750Y-8246000D01*
X10754750Y-8116000D02*
X10624750Y-8246000D01*
X10689750Y-8116000D02*
X10689750Y-8246000D01*
X10624750Y-8181000D02*
X10754750Y-8181000D01*
X10624750Y-10376000D02*
X10754750Y-10506000D01*
X10754750Y-10376000D02*
X10624750Y-10506000D01*
X10689750Y-10376000D02*
X10689750Y-10506000D01*
X10624750Y-10441000D02*
X10754750Y-10441000D01*
D19*
X5020300Y-9155500D02*
X5169300Y-9304500D01*
X5169300Y-9155500D02*
X5020300Y-9304500D01*
X5147480Y-9282680D02*
X5147480Y-9177320D01*
X5042120Y-9177320D01*
X5042120Y-9282680D01*
X5147480Y-9282680D01*
X5020300Y-9663500D02*
X5169300Y-9812500D01*
X5169300Y-9663500D02*
X5020300Y-9812500D01*
X5147480Y-9790680D02*
X5147480Y-9685320D01*
X5042120Y-9685320D01*
X5042120Y-9790680D01*
X5147480Y-9790680D01*
X5020300Y-10171500D02*
X5169300Y-10320500D01*
X5169300Y-10171500D02*
X5020300Y-10320500D01*
X5147480Y-10298680D02*
X5147480Y-10193320D01*
X5042120Y-10193320D01*
X5042120Y-10298680D01*
X5147480Y-10298680D01*
X5020300Y-10679500D02*
X5169300Y-10828500D01*
X5169300Y-10679500D02*
X5020300Y-10828500D01*
X5147480Y-10806680D02*
X5147480Y-10701320D01*
X5042120Y-10701320D01*
X5042120Y-10806680D01*
X5147480Y-10806680D01*
D20*
X5098050Y-6322750D02*
X5273050Y-6497750D01*
X5273050Y-6322750D02*
X5098050Y-6497750D01*
X5185550Y-6497750D02*
X5273050Y-6410250D01*
X5185550Y-6322750D01*
X5098050Y-6410250D01*
X5185550Y-6497750D01*
X5098050Y-6830750D02*
X5273050Y-7005750D01*
X5273050Y-6830750D02*
X5098050Y-7005750D01*
X5185550Y-7005750D02*
X5273050Y-6918250D01*
X5185550Y-6830750D01*
X5098050Y-6918250D01*
X5185550Y-7005750D01*
X11552300Y-4529250D02*
X11727300Y-4704250D01*
X11727300Y-4529250D02*
X11552300Y-4704250D01*
X11639800Y-4704250D02*
X11727300Y-4616750D01*
X11639800Y-4529250D01*
X11552300Y-4616750D01*
X11639800Y-4704250D01*
X12060300Y-4529250D02*
X12235300Y-4704250D01*
X12235300Y-4529250D02*
X12060300Y-4704250D01*
X12147800Y-4704250D02*
X12235300Y-4616750D01*
X12147800Y-4529250D01*
X12060300Y-4616750D01*
X12147800Y-4704250D01*
X12568300Y-4529250D02*
X12743300Y-4704250D01*
X12743300Y-4529250D02*
X12568300Y-4704250D01*
X12655800Y-4704250D02*
X12743300Y-4616750D01*
X12655800Y-4529250D01*
X12568300Y-4616750D01*
X12655800Y-4704250D01*
X13076300Y-4529250D02*
X13251300Y-4704250D01*
X13251300Y-4529250D02*
X13076300Y-4704250D01*
X13163800Y-4704250D02*
X13251300Y-4616750D01*
X13163800Y-4529250D01*
X13076300Y-4616750D01*
X13163800Y-4704250D01*
X14376423Y-14409250D02*
X14551423Y-14584250D01*
X14551423Y-14409250D02*
X14376423Y-14584250D01*
X14463923Y-14584250D02*
X14551423Y-14496750D01*
X14463923Y-14409250D01*
X14376423Y-14496750D01*
X14463923Y-14584250D01*
X14884423Y-14409250D02*
X15059423Y-14584250D01*
X15059423Y-14409250D02*
X14884423Y-14584250D01*
X14971923Y-14584250D02*
X15059423Y-14496750D01*
X14971923Y-14409250D01*
X14884423Y-14496750D01*
X14971923Y-14584250D01*
X15392423Y-14409250D02*
X15567423Y-14584250D01*
X15567423Y-14409250D02*
X15392423Y-14584250D01*
X15479923Y-14584250D02*
X15567423Y-14496750D01*
X15479923Y-14409250D01*
X15392423Y-14496750D01*
X15479923Y-14584250D01*
D12*
X7735550Y-11975543D02*
X7735550Y-12175543D01*
X7635550Y-12075543D02*
X7835550Y-12075543D01*
X7835550Y-12075543D02*
G75*
G03*
X7835550Y-12075543I-100000J0D01*
G01*
X7735550Y-12975543D02*
X7735550Y-13175543D01*
X7635550Y-13075543D02*
X7835550Y-13075543D01*
X7835550Y-13075543D02*
G75*
G03*
X7835550Y-13075543I-100000J0D01*
G01*
X4335777Y-15661234D02*
X4335777Y-15461234D01*
X4335777Y-15461234D02*
X4383396Y-15461234D01*
X4383396Y-15461234D02*
X4411967Y-15470758D01*
X4411967Y-15470758D02*
X4431015Y-15489805D01*
X4431015Y-15489805D02*
X4440539Y-15508853D01*
X4440539Y-15508853D02*
X4450063Y-15546948D01*
X4450063Y-15546948D02*
X4450063Y-15575519D01*
X4450063Y-15575519D02*
X4440539Y-15613615D01*
X4440539Y-15613615D02*
X4431015Y-15632662D01*
X4431015Y-15632662D02*
X4411967Y-15651710D01*
X4411967Y-15651710D02*
X4383396Y-15661234D01*
X4383396Y-15661234D02*
X4335777Y-15661234D01*
X4535777Y-15661234D02*
X4535777Y-15527900D01*
X4535777Y-15565996D02*
X4545301Y-15546948D01*
X4545301Y-15546948D02*
X4554824Y-15537424D01*
X4554824Y-15537424D02*
X4573872Y-15527900D01*
X4573872Y-15527900D02*
X4592920Y-15527900D01*
X4659586Y-15661234D02*
X4659586Y-15527900D01*
X4659586Y-15461234D02*
X4650063Y-15470758D01*
X4650063Y-15470758D02*
X4659586Y-15480281D01*
X4659586Y-15480281D02*
X4669110Y-15470758D01*
X4669110Y-15470758D02*
X4659586Y-15461234D01*
X4659586Y-15461234D02*
X4659586Y-15480281D01*
X4783396Y-15661234D02*
X4764348Y-15651710D01*
X4764348Y-15651710D02*
X4754824Y-15632662D01*
X4754824Y-15632662D02*
X4754824Y-15461234D01*
X4888158Y-15661234D02*
X4869110Y-15651710D01*
X4869110Y-15651710D02*
X4859586Y-15632662D01*
X4859586Y-15632662D02*
X4859586Y-15461234D01*
X5116729Y-15661234D02*
X5116729Y-15461234D01*
X5116729Y-15461234D02*
X5183396Y-15604091D01*
X5183396Y-15604091D02*
X5250063Y-15461234D01*
X5250063Y-15461234D02*
X5250063Y-15661234D01*
X5431015Y-15661234D02*
X5431015Y-15556472D01*
X5431015Y-15556472D02*
X5421491Y-15537424D01*
X5421491Y-15537424D02*
X5402444Y-15527900D01*
X5402444Y-15527900D02*
X5364348Y-15527900D01*
X5364348Y-15527900D02*
X5345301Y-15537424D01*
X5431015Y-15651710D02*
X5411967Y-15661234D01*
X5411967Y-15661234D02*
X5364348Y-15661234D01*
X5364348Y-15661234D02*
X5345301Y-15651710D01*
X5345301Y-15651710D02*
X5335777Y-15632662D01*
X5335777Y-15632662D02*
X5335777Y-15613615D01*
X5335777Y-15613615D02*
X5345301Y-15594567D01*
X5345301Y-15594567D02*
X5364348Y-15585043D01*
X5364348Y-15585043D02*
X5411967Y-15585043D01*
X5411967Y-15585043D02*
X5431015Y-15575519D01*
X5526253Y-15527900D02*
X5526253Y-15727900D01*
X5526253Y-15537424D02*
X5545301Y-15527900D01*
X5545301Y-15527900D02*
X5583396Y-15527900D01*
X5583396Y-15527900D02*
X5602443Y-15537424D01*
X5602443Y-15537424D02*
X5611967Y-15546948D01*
X5611967Y-15546948D02*
X5621491Y-15565996D01*
X5621491Y-15565996D02*
X5621491Y-15623138D01*
X5621491Y-15623138D02*
X5611967Y-15642186D01*
X5611967Y-15642186D02*
X5602443Y-15651710D01*
X5602443Y-15651710D02*
X5583396Y-15661234D01*
X5583396Y-15661234D02*
X5545301Y-15661234D01*
X5545301Y-15661234D02*
X5526253Y-15651710D01*
X5707205Y-15642186D02*
X5716729Y-15651710D01*
X5716729Y-15651710D02*
X5707205Y-15661234D01*
X5707205Y-15661234D02*
X5697682Y-15651710D01*
X5697682Y-15651710D02*
X5707205Y-15642186D01*
X5707205Y-15642186D02*
X5707205Y-15661234D01*
X5707205Y-15537424D02*
X5716729Y-15546948D01*
X5716729Y-15546948D02*
X5707205Y-15556472D01*
X5707205Y-15556472D02*
X5697682Y-15546948D01*
X5697682Y-15546948D02*
X5707205Y-15537424D01*
X5707205Y-15537424D02*
X5707205Y-15556472D01*
D13*
X4035000Y-15969750D02*
X4075000Y-16009750D01*
X4075000Y-15969750D02*
X4035000Y-16009750D01*
D12*
X4373872Y-15881234D02*
X4392920Y-15881234D01*
X4392920Y-15881234D02*
X4411967Y-15890758D01*
X4411967Y-15890758D02*
X4421491Y-15900281D01*
X4421491Y-15900281D02*
X4431015Y-15919329D01*
X4431015Y-15919329D02*
X4440539Y-15957424D01*
X4440539Y-15957424D02*
X4440539Y-16005043D01*
X4440539Y-16005043D02*
X4431015Y-16043138D01*
X4431015Y-16043138D02*
X4421491Y-16062186D01*
X4421491Y-16062186D02*
X4411967Y-16071710D01*
X4411967Y-16071710D02*
X4392920Y-16081234D01*
X4392920Y-16081234D02*
X4373872Y-16081234D01*
X4373872Y-16081234D02*
X4354824Y-16071710D01*
X4354824Y-16071710D02*
X4345301Y-16062186D01*
X4345301Y-16062186D02*
X4335777Y-16043138D01*
X4335777Y-16043138D02*
X4326253Y-16005043D01*
X4326253Y-16005043D02*
X4326253Y-15957424D01*
X4326253Y-15957424D02*
X4335777Y-15919329D01*
X4335777Y-15919329D02*
X4345301Y-15900281D01*
X4345301Y-15900281D02*
X4354824Y-15890758D01*
X4354824Y-15890758D02*
X4373872Y-15881234D01*
X4526253Y-16062186D02*
X4535777Y-16071710D01*
X4535777Y-16071710D02*
X4526253Y-16081234D01*
X4526253Y-16081234D02*
X4516729Y-16071710D01*
X4516729Y-16071710D02*
X4526253Y-16062186D01*
X4526253Y-16062186D02*
X4526253Y-16081234D01*
X4707205Y-15947900D02*
X4707205Y-16081234D01*
X4659586Y-15871710D02*
X4611967Y-16014567D01*
X4611967Y-16014567D02*
X4735777Y-16014567D01*
X4850063Y-15881234D02*
X4869110Y-15881234D01*
X4869110Y-15881234D02*
X4888158Y-15890758D01*
X4888158Y-15890758D02*
X4897682Y-15900281D01*
X4897682Y-15900281D02*
X4907205Y-15919329D01*
X4907205Y-15919329D02*
X4916729Y-15957424D01*
X4916729Y-15957424D02*
X4916729Y-16005043D01*
X4916729Y-16005043D02*
X4907205Y-16043138D01*
X4907205Y-16043138D02*
X4897682Y-16062186D01*
X4897682Y-16062186D02*
X4888158Y-16071710D01*
X4888158Y-16071710D02*
X4869110Y-16081234D01*
X4869110Y-16081234D02*
X4850063Y-16081234D01*
X4850063Y-16081234D02*
X4831015Y-16071710D01*
X4831015Y-16071710D02*
X4821491Y-16062186D01*
X4821491Y-16062186D02*
X4811967Y-16043138D01*
X4811967Y-16043138D02*
X4802444Y-16005043D01*
X4802444Y-16005043D02*
X4802444Y-15957424D01*
X4802444Y-15957424D02*
X4811967Y-15919329D01*
X4811967Y-15919329D02*
X4821491Y-15900281D01*
X4821491Y-15900281D02*
X4831015Y-15890758D01*
X4831015Y-15890758D02*
X4850063Y-15881234D01*
X5040539Y-15881234D02*
X5059586Y-15881234D01*
X5059586Y-15881234D02*
X5078634Y-15890758D01*
X5078634Y-15890758D02*
X5088158Y-15900281D01*
X5088158Y-15900281D02*
X5097682Y-15919329D01*
X5097682Y-15919329D02*
X5107205Y-15957424D01*
X5107205Y-15957424D02*
X5107205Y-16005043D01*
X5107205Y-16005043D02*
X5097682Y-16043138D01*
X5097682Y-16043138D02*
X5088158Y-16062186D01*
X5088158Y-16062186D02*
X5078634Y-16071710D01*
X5078634Y-16071710D02*
X5059586Y-16081234D01*
X5059586Y-16081234D02*
X5040539Y-16081234D01*
X5040539Y-16081234D02*
X5021491Y-16071710D01*
X5021491Y-16071710D02*
X5011967Y-16062186D01*
X5011967Y-16062186D02*
X5002444Y-16043138D01*
X5002444Y-16043138D02*
X4992920Y-16005043D01*
X4992920Y-16005043D02*
X4992920Y-15957424D01*
X4992920Y-15957424D02*
X5002444Y-15919329D01*
X5002444Y-15919329D02*
X5011967Y-15900281D01*
X5011967Y-15900281D02*
X5021491Y-15890758D01*
X5021491Y-15890758D02*
X5040539Y-15881234D01*
X5192920Y-16081234D02*
X5192920Y-15947900D01*
X5192920Y-15966948D02*
X5202444Y-15957424D01*
X5202444Y-15957424D02*
X5221491Y-15947900D01*
X5221491Y-15947900D02*
X5250063Y-15947900D01*
X5250063Y-15947900D02*
X5269110Y-15957424D01*
X5269110Y-15957424D02*
X5278634Y-15976472D01*
X5278634Y-15976472D02*
X5278634Y-16081234D01*
X5278634Y-15976472D02*
X5288158Y-15957424D01*
X5288158Y-15957424D02*
X5307205Y-15947900D01*
X5307205Y-15947900D02*
X5335777Y-15947900D01*
X5335777Y-15947900D02*
X5354825Y-15957424D01*
X5354825Y-15957424D02*
X5364348Y-15976472D01*
X5364348Y-15976472D02*
X5364348Y-16081234D01*
X5459586Y-16081234D02*
X5459586Y-15947900D01*
X5459586Y-15966948D02*
X5469110Y-15957424D01*
X5469110Y-15957424D02*
X5488158Y-15947900D01*
X5488158Y-15947900D02*
X5516729Y-15947900D01*
X5516729Y-15947900D02*
X5535777Y-15957424D01*
X5535777Y-15957424D02*
X5545301Y-15976472D01*
X5545301Y-15976472D02*
X5545301Y-16081234D01*
X5545301Y-15976472D02*
X5554825Y-15957424D01*
X5554825Y-15957424D02*
X5573872Y-15947900D01*
X5573872Y-15947900D02*
X5602443Y-15947900D01*
X5602443Y-15947900D02*
X5621491Y-15957424D01*
X5621491Y-15957424D02*
X5631015Y-15976472D01*
X5631015Y-15976472D02*
X5631015Y-16081234D01*
X6021491Y-15871710D02*
X5850063Y-16128853D01*
X6278634Y-15881234D02*
X6297682Y-15881234D01*
X6297682Y-15881234D02*
X6316729Y-15890758D01*
X6316729Y-15890758D02*
X6326253Y-15900281D01*
X6326253Y-15900281D02*
X6335777Y-15919329D01*
X6335777Y-15919329D02*
X6345301Y-15957424D01*
X6345301Y-15957424D02*
X6345301Y-16005043D01*
X6345301Y-16005043D02*
X6335777Y-16043138D01*
X6335777Y-16043138D02*
X6326253Y-16062186D01*
X6326253Y-16062186D02*
X6316729Y-16071710D01*
X6316729Y-16071710D02*
X6297682Y-16081234D01*
X6297682Y-16081234D02*
X6278634Y-16081234D01*
X6278634Y-16081234D02*
X6259586Y-16071710D01*
X6259586Y-16071710D02*
X6250063Y-16062186D01*
X6250063Y-16062186D02*
X6240539Y-16043138D01*
X6240539Y-16043138D02*
X6231015Y-16005043D01*
X6231015Y-16005043D02*
X6231015Y-15957424D01*
X6231015Y-15957424D02*
X6240539Y-15919329D01*
X6240539Y-15919329D02*
X6250063Y-15900281D01*
X6250063Y-15900281D02*
X6259586Y-15890758D01*
X6259586Y-15890758D02*
X6278634Y-15881234D01*
X6431015Y-16062186D02*
X6440539Y-16071710D01*
X6440539Y-16071710D02*
X6431015Y-16081234D01*
X6431015Y-16081234D02*
X6421491Y-16071710D01*
X6421491Y-16071710D02*
X6431015Y-16062186D01*
X6431015Y-16062186D02*
X6431015Y-16081234D01*
X6564348Y-15881234D02*
X6583396Y-15881234D01*
X6583396Y-15881234D02*
X6602444Y-15890758D01*
X6602444Y-15890758D02*
X6611967Y-15900281D01*
X6611967Y-15900281D02*
X6621491Y-15919329D01*
X6621491Y-15919329D02*
X6631015Y-15957424D01*
X6631015Y-15957424D02*
X6631015Y-16005043D01*
X6631015Y-16005043D02*
X6621491Y-16043138D01*
X6621491Y-16043138D02*
X6611967Y-16062186D01*
X6611967Y-16062186D02*
X6602444Y-16071710D01*
X6602444Y-16071710D02*
X6583396Y-16081234D01*
X6583396Y-16081234D02*
X6564348Y-16081234D01*
X6564348Y-16081234D02*
X6545301Y-16071710D01*
X6545301Y-16071710D02*
X6535777Y-16062186D01*
X6535777Y-16062186D02*
X6526253Y-16043138D01*
X6526253Y-16043138D02*
X6516729Y-16005043D01*
X6516729Y-16005043D02*
X6516729Y-15957424D01*
X6516729Y-15957424D02*
X6526253Y-15919329D01*
X6526253Y-15919329D02*
X6535777Y-15900281D01*
X6535777Y-15900281D02*
X6545301Y-15890758D01*
X6545301Y-15890758D02*
X6564348Y-15881234D01*
X6821491Y-16081234D02*
X6707206Y-16081234D01*
X6764348Y-16081234D02*
X6764348Y-15881234D01*
X6764348Y-15881234D02*
X6745301Y-15909805D01*
X6745301Y-15909805D02*
X6726253Y-15928853D01*
X6726253Y-15928853D02*
X6707206Y-15938377D01*
X7002444Y-15881234D02*
X6907206Y-15881234D01*
X6907206Y-15881234D02*
X6897682Y-15976472D01*
X6897682Y-15976472D02*
X6907206Y-15966948D01*
X6907206Y-15966948D02*
X6926253Y-15957424D01*
X6926253Y-15957424D02*
X6973872Y-15957424D01*
X6973872Y-15957424D02*
X6992920Y-15966948D01*
X6992920Y-15966948D02*
X7002444Y-15976472D01*
X7002444Y-15976472D02*
X7011967Y-15995519D01*
X7011967Y-15995519D02*
X7011967Y-16043138D01*
X7011967Y-16043138D02*
X7002444Y-16062186D01*
X7002444Y-16062186D02*
X6992920Y-16071710D01*
X6992920Y-16071710D02*
X6973872Y-16081234D01*
X6973872Y-16081234D02*
X6926253Y-16081234D01*
X6926253Y-16081234D02*
X6907206Y-16071710D01*
X6907206Y-16071710D02*
X6897682Y-16062186D01*
X7078634Y-15881234D02*
X7211967Y-15881234D01*
X7211967Y-15881234D02*
X7126253Y-16081234D01*
X7278634Y-15881234D02*
X7278634Y-15919329D01*
X7354825Y-15881234D02*
X7354825Y-15919329D01*
X7650063Y-16157424D02*
X7640539Y-16147900D01*
X7640539Y-16147900D02*
X7621491Y-16119329D01*
X7621491Y-16119329D02*
X7611968Y-16100281D01*
X7611968Y-16100281D02*
X7602444Y-16071710D01*
X7602444Y-16071710D02*
X7592920Y-16024091D01*
X7592920Y-16024091D02*
X7592920Y-15985996D01*
X7592920Y-15985996D02*
X7602444Y-15938377D01*
X7602444Y-15938377D02*
X7611968Y-15909805D01*
X7611968Y-15909805D02*
X7621491Y-15890758D01*
X7621491Y-15890758D02*
X7640539Y-15862186D01*
X7640539Y-15862186D02*
X7650063Y-15852662D01*
X7707206Y-15881234D02*
X7831015Y-15881234D01*
X7831015Y-15881234D02*
X7764348Y-15957424D01*
X7764348Y-15957424D02*
X7792920Y-15957424D01*
X7792920Y-15957424D02*
X7811968Y-15966948D01*
X7811968Y-15966948D02*
X7821491Y-15976472D01*
X7821491Y-15976472D02*
X7831015Y-15995519D01*
X7831015Y-15995519D02*
X7831015Y-16043138D01*
X7831015Y-16043138D02*
X7821491Y-16062186D01*
X7821491Y-16062186D02*
X7811968Y-16071710D01*
X7811968Y-16071710D02*
X7792920Y-16081234D01*
X7792920Y-16081234D02*
X7735777Y-16081234D01*
X7735777Y-16081234D02*
X7716729Y-16071710D01*
X7716729Y-16071710D02*
X7707206Y-16062186D01*
X7945301Y-15966948D02*
X7926253Y-15957424D01*
X7926253Y-15957424D02*
X7916729Y-15947900D01*
X7916729Y-15947900D02*
X7907206Y-15928853D01*
X7907206Y-15928853D02*
X7907206Y-15919329D01*
X7907206Y-15919329D02*
X7916729Y-15900281D01*
X7916729Y-15900281D02*
X7926253Y-15890758D01*
X7926253Y-15890758D02*
X7945301Y-15881234D01*
X7945301Y-15881234D02*
X7983396Y-15881234D01*
X7983396Y-15881234D02*
X8002444Y-15890758D01*
X8002444Y-15890758D02*
X8011968Y-15900281D01*
X8011968Y-15900281D02*
X8021491Y-15919329D01*
X8021491Y-15919329D02*
X8021491Y-15928853D01*
X8021491Y-15928853D02*
X8011968Y-15947900D01*
X8011968Y-15947900D02*
X8002444Y-15957424D01*
X8002444Y-15957424D02*
X7983396Y-15966948D01*
X7983396Y-15966948D02*
X7945301Y-15966948D01*
X7945301Y-15966948D02*
X7926253Y-15976472D01*
X7926253Y-15976472D02*
X7916729Y-15985996D01*
X7916729Y-15985996D02*
X7907206Y-16005043D01*
X7907206Y-16005043D02*
X7907206Y-16043138D01*
X7907206Y-16043138D02*
X7916729Y-16062186D01*
X7916729Y-16062186D02*
X7926253Y-16071710D01*
X7926253Y-16071710D02*
X7945301Y-16081234D01*
X7945301Y-16081234D02*
X7983396Y-16081234D01*
X7983396Y-16081234D02*
X8002444Y-16071710D01*
X8002444Y-16071710D02*
X8011968Y-16062186D01*
X8011968Y-16062186D02*
X8021491Y-16043138D01*
X8021491Y-16043138D02*
X8021491Y-16005043D01*
X8021491Y-16005043D02*
X8011968Y-15985996D01*
X8011968Y-15985996D02*
X8002444Y-15976472D01*
X8002444Y-15976472D02*
X7983396Y-15966948D01*
X8259587Y-16081234D02*
X8259587Y-15881234D01*
X8345301Y-16081234D02*
X8345301Y-15976472D01*
X8345301Y-15976472D02*
X8335777Y-15957424D01*
X8335777Y-15957424D02*
X8316730Y-15947900D01*
X8316730Y-15947900D02*
X8288158Y-15947900D01*
X8288158Y-15947900D02*
X8269110Y-15957424D01*
X8269110Y-15957424D02*
X8259587Y-15966948D01*
X8469111Y-16081234D02*
X8450063Y-16071710D01*
X8450063Y-16071710D02*
X8440539Y-16062186D01*
X8440539Y-16062186D02*
X8431015Y-16043138D01*
X8431015Y-16043138D02*
X8431015Y-15985996D01*
X8431015Y-15985996D02*
X8440539Y-15966948D01*
X8440539Y-15966948D02*
X8450063Y-15957424D01*
X8450063Y-15957424D02*
X8469111Y-15947900D01*
X8469111Y-15947900D02*
X8497682Y-15947900D01*
X8497682Y-15947900D02*
X8516730Y-15957424D01*
X8516730Y-15957424D02*
X8526253Y-15966948D01*
X8526253Y-15966948D02*
X8535777Y-15985996D01*
X8535777Y-15985996D02*
X8535777Y-16043138D01*
X8535777Y-16043138D02*
X8526253Y-16062186D01*
X8526253Y-16062186D02*
X8516730Y-16071710D01*
X8516730Y-16071710D02*
X8497682Y-16081234D01*
X8497682Y-16081234D02*
X8469111Y-16081234D01*
X8650063Y-16081234D02*
X8631015Y-16071710D01*
X8631015Y-16071710D02*
X8621492Y-16052662D01*
X8621492Y-16052662D02*
X8621492Y-15881234D01*
X8802444Y-16071710D02*
X8783396Y-16081234D01*
X8783396Y-16081234D02*
X8745301Y-16081234D01*
X8745301Y-16081234D02*
X8726253Y-16071710D01*
X8726253Y-16071710D02*
X8716730Y-16052662D01*
X8716730Y-16052662D02*
X8716730Y-15976472D01*
X8716730Y-15976472D02*
X8726253Y-15957424D01*
X8726253Y-15957424D02*
X8745301Y-15947900D01*
X8745301Y-15947900D02*
X8783396Y-15947900D01*
X8783396Y-15947900D02*
X8802444Y-15957424D01*
X8802444Y-15957424D02*
X8811968Y-15976472D01*
X8811968Y-15976472D02*
X8811968Y-15995519D01*
X8811968Y-15995519D02*
X8716730Y-16014567D01*
X8888158Y-16071710D02*
X8907206Y-16081234D01*
X8907206Y-16081234D02*
X8945301Y-16081234D01*
X8945301Y-16081234D02*
X8964349Y-16071710D01*
X8964349Y-16071710D02*
X8973873Y-16052662D01*
X8973873Y-16052662D02*
X8973873Y-16043138D01*
X8973873Y-16043138D02*
X8964349Y-16024091D01*
X8964349Y-16024091D02*
X8945301Y-16014567D01*
X8945301Y-16014567D02*
X8916730Y-16014567D01*
X8916730Y-16014567D02*
X8897682Y-16005043D01*
X8897682Y-16005043D02*
X8888158Y-15985996D01*
X8888158Y-15985996D02*
X8888158Y-15976472D01*
X8888158Y-15976472D02*
X8897682Y-15957424D01*
X8897682Y-15957424D02*
X8916730Y-15947900D01*
X8916730Y-15947900D02*
X8945301Y-15947900D01*
X8945301Y-15947900D02*
X8964349Y-15957424D01*
X9040539Y-16157424D02*
X9050063Y-16147900D01*
X9050063Y-16147900D02*
X9069111Y-16119329D01*
X9069111Y-16119329D02*
X9078634Y-16100281D01*
X9078634Y-16100281D02*
X9088158Y-16071710D01*
X9088158Y-16071710D02*
X9097682Y-16024091D01*
X9097682Y-16024091D02*
X9097682Y-15985996D01*
X9097682Y-15985996D02*
X9088158Y-15938377D01*
X9088158Y-15938377D02*
X9078634Y-15909805D01*
X9078634Y-15909805D02*
X9069111Y-15890758D01*
X9069111Y-15890758D02*
X9050063Y-15862186D01*
X9050063Y-15862186D02*
X9040539Y-15852662D01*
D14*
X4075000Y-16253750D02*
G75*
G03*
X4075000Y-16253750I-30000J0D01*
G01*
D12*
X4373872Y-16145234D02*
X4392920Y-16145234D01*
X4392920Y-16145234D02*
X4411967Y-16154758D01*
X4411967Y-16154758D02*
X4421491Y-16164281D01*
X4421491Y-16164281D02*
X4431015Y-16183329D01*
X4431015Y-16183329D02*
X4440539Y-16221424D01*
X4440539Y-16221424D02*
X4440539Y-16269043D01*
X4440539Y-16269043D02*
X4431015Y-16307138D01*
X4431015Y-16307138D02*
X4421491Y-16326186D01*
X4421491Y-16326186D02*
X4411967Y-16335710D01*
X4411967Y-16335710D02*
X4392920Y-16345234D01*
X4392920Y-16345234D02*
X4373872Y-16345234D01*
X4373872Y-16345234D02*
X4354824Y-16335710D01*
X4354824Y-16335710D02*
X4345301Y-16326186D01*
X4345301Y-16326186D02*
X4335777Y-16307138D01*
X4335777Y-16307138D02*
X4326253Y-16269043D01*
X4326253Y-16269043D02*
X4326253Y-16221424D01*
X4326253Y-16221424D02*
X4335777Y-16183329D01*
X4335777Y-16183329D02*
X4345301Y-16164281D01*
X4345301Y-16164281D02*
X4354824Y-16154758D01*
X4354824Y-16154758D02*
X4373872Y-16145234D01*
X4526253Y-16326186D02*
X4535777Y-16335710D01*
X4535777Y-16335710D02*
X4526253Y-16345234D01*
X4526253Y-16345234D02*
X4516729Y-16335710D01*
X4516729Y-16335710D02*
X4526253Y-16326186D01*
X4526253Y-16326186D02*
X4526253Y-16345234D01*
X4707205Y-16145234D02*
X4669110Y-16145234D01*
X4669110Y-16145234D02*
X4650063Y-16154758D01*
X4650063Y-16154758D02*
X4640539Y-16164281D01*
X4640539Y-16164281D02*
X4621491Y-16192853D01*
X4621491Y-16192853D02*
X4611967Y-16230948D01*
X4611967Y-16230948D02*
X4611967Y-16307138D01*
X4611967Y-16307138D02*
X4621491Y-16326186D01*
X4621491Y-16326186D02*
X4631015Y-16335710D01*
X4631015Y-16335710D02*
X4650063Y-16345234D01*
X4650063Y-16345234D02*
X4688158Y-16345234D01*
X4688158Y-16345234D02*
X4707205Y-16335710D01*
X4707205Y-16335710D02*
X4716729Y-16326186D01*
X4716729Y-16326186D02*
X4726253Y-16307138D01*
X4726253Y-16307138D02*
X4726253Y-16259519D01*
X4726253Y-16259519D02*
X4716729Y-16240472D01*
X4716729Y-16240472D02*
X4707205Y-16230948D01*
X4707205Y-16230948D02*
X4688158Y-16221424D01*
X4688158Y-16221424D02*
X4650063Y-16221424D01*
X4650063Y-16221424D02*
X4631015Y-16230948D01*
X4631015Y-16230948D02*
X4621491Y-16240472D01*
X4621491Y-16240472D02*
X4611967Y-16259519D01*
X4850063Y-16145234D02*
X4869110Y-16145234D01*
X4869110Y-16145234D02*
X4888158Y-16154758D01*
X4888158Y-16154758D02*
X4897682Y-16164281D01*
X4897682Y-16164281D02*
X4907205Y-16183329D01*
X4907205Y-16183329D02*
X4916729Y-16221424D01*
X4916729Y-16221424D02*
X4916729Y-16269043D01*
X4916729Y-16269043D02*
X4907205Y-16307138D01*
X4907205Y-16307138D02*
X4897682Y-16326186D01*
X4897682Y-16326186D02*
X4888158Y-16335710D01*
X4888158Y-16335710D02*
X4869110Y-16345234D01*
X4869110Y-16345234D02*
X4850063Y-16345234D01*
X4850063Y-16345234D02*
X4831015Y-16335710D01*
X4831015Y-16335710D02*
X4821491Y-16326186D01*
X4821491Y-16326186D02*
X4811967Y-16307138D01*
X4811967Y-16307138D02*
X4802444Y-16269043D01*
X4802444Y-16269043D02*
X4802444Y-16221424D01*
X4802444Y-16221424D02*
X4811967Y-16183329D01*
X4811967Y-16183329D02*
X4821491Y-16164281D01*
X4821491Y-16164281D02*
X4831015Y-16154758D01*
X4831015Y-16154758D02*
X4850063Y-16145234D01*
X5040539Y-16145234D02*
X5059586Y-16145234D01*
X5059586Y-16145234D02*
X5078634Y-16154758D01*
X5078634Y-16154758D02*
X5088158Y-16164281D01*
X5088158Y-16164281D02*
X5097682Y-16183329D01*
X5097682Y-16183329D02*
X5107205Y-16221424D01*
X5107205Y-16221424D02*
X5107205Y-16269043D01*
X5107205Y-16269043D02*
X5097682Y-16307138D01*
X5097682Y-16307138D02*
X5088158Y-16326186D01*
X5088158Y-16326186D02*
X5078634Y-16335710D01*
X5078634Y-16335710D02*
X5059586Y-16345234D01*
X5059586Y-16345234D02*
X5040539Y-16345234D01*
X5040539Y-16345234D02*
X5021491Y-16335710D01*
X5021491Y-16335710D02*
X5011967Y-16326186D01*
X5011967Y-16326186D02*
X5002444Y-16307138D01*
X5002444Y-16307138D02*
X4992920Y-16269043D01*
X4992920Y-16269043D02*
X4992920Y-16221424D01*
X4992920Y-16221424D02*
X5002444Y-16183329D01*
X5002444Y-16183329D02*
X5011967Y-16164281D01*
X5011967Y-16164281D02*
X5021491Y-16154758D01*
X5021491Y-16154758D02*
X5040539Y-16145234D01*
X5192920Y-16345234D02*
X5192920Y-16211900D01*
X5192920Y-16230948D02*
X5202444Y-16221424D01*
X5202444Y-16221424D02*
X5221491Y-16211900D01*
X5221491Y-16211900D02*
X5250063Y-16211900D01*
X5250063Y-16211900D02*
X5269110Y-16221424D01*
X5269110Y-16221424D02*
X5278634Y-16240472D01*
X5278634Y-16240472D02*
X5278634Y-16345234D01*
X5278634Y-16240472D02*
X5288158Y-16221424D01*
X5288158Y-16221424D02*
X5307205Y-16211900D01*
X5307205Y-16211900D02*
X5335777Y-16211900D01*
X5335777Y-16211900D02*
X5354825Y-16221424D01*
X5354825Y-16221424D02*
X5364348Y-16240472D01*
X5364348Y-16240472D02*
X5364348Y-16345234D01*
X5459586Y-16345234D02*
X5459586Y-16211900D01*
X5459586Y-16230948D02*
X5469110Y-16221424D01*
X5469110Y-16221424D02*
X5488158Y-16211900D01*
X5488158Y-16211900D02*
X5516729Y-16211900D01*
X5516729Y-16211900D02*
X5535777Y-16221424D01*
X5535777Y-16221424D02*
X5545301Y-16240472D01*
X5545301Y-16240472D02*
X5545301Y-16345234D01*
X5545301Y-16240472D02*
X5554825Y-16221424D01*
X5554825Y-16221424D02*
X5573872Y-16211900D01*
X5573872Y-16211900D02*
X5602443Y-16211900D01*
X5602443Y-16211900D02*
X5621491Y-16221424D01*
X5621491Y-16221424D02*
X5631015Y-16240472D01*
X5631015Y-16240472D02*
X5631015Y-16345234D01*
X6021491Y-16135710D02*
X5850063Y-16392853D01*
X6278634Y-16145234D02*
X6297682Y-16145234D01*
X6297682Y-16145234D02*
X6316729Y-16154758D01*
X6316729Y-16154758D02*
X6326253Y-16164281D01*
X6326253Y-16164281D02*
X6335777Y-16183329D01*
X6335777Y-16183329D02*
X6345301Y-16221424D01*
X6345301Y-16221424D02*
X6345301Y-16269043D01*
X6345301Y-16269043D02*
X6335777Y-16307138D01*
X6335777Y-16307138D02*
X6326253Y-16326186D01*
X6326253Y-16326186D02*
X6316729Y-16335710D01*
X6316729Y-16335710D02*
X6297682Y-16345234D01*
X6297682Y-16345234D02*
X6278634Y-16345234D01*
X6278634Y-16345234D02*
X6259586Y-16335710D01*
X6259586Y-16335710D02*
X6250063Y-16326186D01*
X6250063Y-16326186D02*
X6240539Y-16307138D01*
X6240539Y-16307138D02*
X6231015Y-16269043D01*
X6231015Y-16269043D02*
X6231015Y-16221424D01*
X6231015Y-16221424D02*
X6240539Y-16183329D01*
X6240539Y-16183329D02*
X6250063Y-16164281D01*
X6250063Y-16164281D02*
X6259586Y-16154758D01*
X6259586Y-16154758D02*
X6278634Y-16145234D01*
X6431015Y-16326186D02*
X6440539Y-16335710D01*
X6440539Y-16335710D02*
X6431015Y-16345234D01*
X6431015Y-16345234D02*
X6421491Y-16335710D01*
X6421491Y-16335710D02*
X6431015Y-16326186D01*
X6431015Y-16326186D02*
X6431015Y-16345234D01*
X6564348Y-16145234D02*
X6583396Y-16145234D01*
X6583396Y-16145234D02*
X6602444Y-16154758D01*
X6602444Y-16154758D02*
X6611967Y-16164281D01*
X6611967Y-16164281D02*
X6621491Y-16183329D01*
X6621491Y-16183329D02*
X6631015Y-16221424D01*
X6631015Y-16221424D02*
X6631015Y-16269043D01*
X6631015Y-16269043D02*
X6621491Y-16307138D01*
X6621491Y-16307138D02*
X6611967Y-16326186D01*
X6611967Y-16326186D02*
X6602444Y-16335710D01*
X6602444Y-16335710D02*
X6583396Y-16345234D01*
X6583396Y-16345234D02*
X6564348Y-16345234D01*
X6564348Y-16345234D02*
X6545301Y-16335710D01*
X6545301Y-16335710D02*
X6535777Y-16326186D01*
X6535777Y-16326186D02*
X6526253Y-16307138D01*
X6526253Y-16307138D02*
X6516729Y-16269043D01*
X6516729Y-16269043D02*
X6516729Y-16221424D01*
X6516729Y-16221424D02*
X6526253Y-16183329D01*
X6526253Y-16183329D02*
X6535777Y-16164281D01*
X6535777Y-16164281D02*
X6545301Y-16154758D01*
X6545301Y-16154758D02*
X6564348Y-16145234D01*
X6707206Y-16164281D02*
X6716729Y-16154758D01*
X6716729Y-16154758D02*
X6735777Y-16145234D01*
X6735777Y-16145234D02*
X6783396Y-16145234D01*
X6783396Y-16145234D02*
X6802444Y-16154758D01*
X6802444Y-16154758D02*
X6811967Y-16164281D01*
X6811967Y-16164281D02*
X6821491Y-16183329D01*
X6821491Y-16183329D02*
X6821491Y-16202377D01*
X6821491Y-16202377D02*
X6811967Y-16230948D01*
X6811967Y-16230948D02*
X6697682Y-16345234D01*
X6697682Y-16345234D02*
X6821491Y-16345234D01*
X6888158Y-16145234D02*
X7011967Y-16145234D01*
X7011967Y-16145234D02*
X6945301Y-16221424D01*
X6945301Y-16221424D02*
X6973872Y-16221424D01*
X6973872Y-16221424D02*
X6992920Y-16230948D01*
X6992920Y-16230948D02*
X7002444Y-16240472D01*
X7002444Y-16240472D02*
X7011967Y-16259519D01*
X7011967Y-16259519D02*
X7011967Y-16307138D01*
X7011967Y-16307138D02*
X7002444Y-16326186D01*
X7002444Y-16326186D02*
X6992920Y-16335710D01*
X6992920Y-16335710D02*
X6973872Y-16345234D01*
X6973872Y-16345234D02*
X6916729Y-16345234D01*
X6916729Y-16345234D02*
X6897682Y-16335710D01*
X6897682Y-16335710D02*
X6888158Y-16326186D01*
X7183396Y-16145234D02*
X7145301Y-16145234D01*
X7145301Y-16145234D02*
X7126253Y-16154758D01*
X7126253Y-16154758D02*
X7116729Y-16164281D01*
X7116729Y-16164281D02*
X7097682Y-16192853D01*
X7097682Y-16192853D02*
X7088158Y-16230948D01*
X7088158Y-16230948D02*
X7088158Y-16307138D01*
X7088158Y-16307138D02*
X7097682Y-16326186D01*
X7097682Y-16326186D02*
X7107206Y-16335710D01*
X7107206Y-16335710D02*
X7126253Y-16345234D01*
X7126253Y-16345234D02*
X7164348Y-16345234D01*
X7164348Y-16345234D02*
X7183396Y-16335710D01*
X7183396Y-16335710D02*
X7192920Y-16326186D01*
X7192920Y-16326186D02*
X7202444Y-16307138D01*
X7202444Y-16307138D02*
X7202444Y-16259519D01*
X7202444Y-16259519D02*
X7192920Y-16240472D01*
X7192920Y-16240472D02*
X7183396Y-16230948D01*
X7183396Y-16230948D02*
X7164348Y-16221424D01*
X7164348Y-16221424D02*
X7126253Y-16221424D01*
X7126253Y-16221424D02*
X7107206Y-16230948D01*
X7107206Y-16230948D02*
X7097682Y-16240472D01*
X7097682Y-16240472D02*
X7088158Y-16259519D01*
X7278634Y-16145234D02*
X7278634Y-16183329D01*
X7354825Y-16145234D02*
X7354825Y-16183329D01*
X7650063Y-16421424D02*
X7640539Y-16411900D01*
X7640539Y-16411900D02*
X7621491Y-16383329D01*
X7621491Y-16383329D02*
X7611968Y-16364281D01*
X7611968Y-16364281D02*
X7602444Y-16335710D01*
X7602444Y-16335710D02*
X7592920Y-16288091D01*
X7592920Y-16288091D02*
X7592920Y-16249996D01*
X7592920Y-16249996D02*
X7602444Y-16202377D01*
X7602444Y-16202377D02*
X7611968Y-16173805D01*
X7611968Y-16173805D02*
X7621491Y-16154758D01*
X7621491Y-16154758D02*
X7640539Y-16126186D01*
X7640539Y-16126186D02*
X7650063Y-16116662D01*
X7716729Y-16164281D02*
X7726253Y-16154758D01*
X7726253Y-16154758D02*
X7745301Y-16145234D01*
X7745301Y-16145234D02*
X7792920Y-16145234D01*
X7792920Y-16145234D02*
X7811968Y-16154758D01*
X7811968Y-16154758D02*
X7821491Y-16164281D01*
X7821491Y-16164281D02*
X7831015Y-16183329D01*
X7831015Y-16183329D02*
X7831015Y-16202377D01*
X7831015Y-16202377D02*
X7821491Y-16230948D01*
X7821491Y-16230948D02*
X7707206Y-16345234D01*
X7707206Y-16345234D02*
X7831015Y-16345234D01*
X8069110Y-16345234D02*
X8069110Y-16145234D01*
X8154825Y-16345234D02*
X8154825Y-16240472D01*
X8154825Y-16240472D02*
X8145301Y-16221424D01*
X8145301Y-16221424D02*
X8126253Y-16211900D01*
X8126253Y-16211900D02*
X8097682Y-16211900D01*
X8097682Y-16211900D02*
X8078634Y-16221424D01*
X8078634Y-16221424D02*
X8069110Y-16230948D01*
X8278634Y-16345234D02*
X8259587Y-16335710D01*
X8259587Y-16335710D02*
X8250063Y-16326186D01*
X8250063Y-16326186D02*
X8240539Y-16307138D01*
X8240539Y-16307138D02*
X8240539Y-16249996D01*
X8240539Y-16249996D02*
X8250063Y-16230948D01*
X8250063Y-16230948D02*
X8259587Y-16221424D01*
X8259587Y-16221424D02*
X8278634Y-16211900D01*
X8278634Y-16211900D02*
X8307206Y-16211900D01*
X8307206Y-16211900D02*
X8326253Y-16221424D01*
X8326253Y-16221424D02*
X8335777Y-16230948D01*
X8335777Y-16230948D02*
X8345301Y-16249996D01*
X8345301Y-16249996D02*
X8345301Y-16307138D01*
X8345301Y-16307138D02*
X8335777Y-16326186D01*
X8335777Y-16326186D02*
X8326253Y-16335710D01*
X8326253Y-16335710D02*
X8307206Y-16345234D01*
X8307206Y-16345234D02*
X8278634Y-16345234D01*
X8459587Y-16345234D02*
X8440539Y-16335710D01*
X8440539Y-16335710D02*
X8431015Y-16316662D01*
X8431015Y-16316662D02*
X8431015Y-16145234D01*
X8611968Y-16335710D02*
X8592920Y-16345234D01*
X8592920Y-16345234D02*
X8554825Y-16345234D01*
X8554825Y-16345234D02*
X8535777Y-16335710D01*
X8535777Y-16335710D02*
X8526253Y-16316662D01*
X8526253Y-16316662D02*
X8526253Y-16240472D01*
X8526253Y-16240472D02*
X8535777Y-16221424D01*
X8535777Y-16221424D02*
X8554825Y-16211900D01*
X8554825Y-16211900D02*
X8592920Y-16211900D01*
X8592920Y-16211900D02*
X8611968Y-16221424D01*
X8611968Y-16221424D02*
X8621492Y-16240472D01*
X8621492Y-16240472D02*
X8621492Y-16259519D01*
X8621492Y-16259519D02*
X8526253Y-16278567D01*
X8697682Y-16335710D02*
X8716730Y-16345234D01*
X8716730Y-16345234D02*
X8754825Y-16345234D01*
X8754825Y-16345234D02*
X8773873Y-16335710D01*
X8773873Y-16335710D02*
X8783396Y-16316662D01*
X8783396Y-16316662D02*
X8783396Y-16307138D01*
X8783396Y-16307138D02*
X8773873Y-16288091D01*
X8773873Y-16288091D02*
X8754825Y-16278567D01*
X8754825Y-16278567D02*
X8726253Y-16278567D01*
X8726253Y-16278567D02*
X8707206Y-16269043D01*
X8707206Y-16269043D02*
X8697682Y-16249996D01*
X8697682Y-16249996D02*
X8697682Y-16240472D01*
X8697682Y-16240472D02*
X8707206Y-16221424D01*
X8707206Y-16221424D02*
X8726253Y-16211900D01*
X8726253Y-16211900D02*
X8754825Y-16211900D01*
X8754825Y-16211900D02*
X8773873Y-16221424D01*
X8850063Y-16421424D02*
X8859587Y-16411900D01*
X8859587Y-16411900D02*
X8878634Y-16383329D01*
X8878634Y-16383329D02*
X8888158Y-16364281D01*
X8888158Y-16364281D02*
X8897682Y-16335710D01*
X8897682Y-16335710D02*
X8907206Y-16288091D01*
X8907206Y-16288091D02*
X8907206Y-16249996D01*
X8907206Y-16249996D02*
X8897682Y-16202377D01*
X8897682Y-16202377D02*
X8888158Y-16173805D01*
X8888158Y-16173805D02*
X8878634Y-16154758D01*
X8878634Y-16154758D02*
X8859587Y-16126186D01*
X8859587Y-16126186D02*
X8850063Y-16116662D01*
D15*
X4035000Y-16477750D02*
X4035000Y-16557750D01*
X3995000Y-16517750D02*
X4075000Y-16517750D01*
D12*
X4373872Y-16409234D02*
X4392920Y-16409234D01*
X4392920Y-16409234D02*
X4411967Y-16418758D01*
X4411967Y-16418758D02*
X4421491Y-16428281D01*
X4421491Y-16428281D02*
X4431015Y-16447329D01*
X4431015Y-16447329D02*
X4440539Y-16485424D01*
X4440539Y-16485424D02*
X4440539Y-16533043D01*
X4440539Y-16533043D02*
X4431015Y-16571138D01*
X4431015Y-16571138D02*
X4421491Y-16590186D01*
X4421491Y-16590186D02*
X4411967Y-16599710D01*
X4411967Y-16599710D02*
X4392920Y-16609234D01*
X4392920Y-16609234D02*
X4373872Y-16609234D01*
X4373872Y-16609234D02*
X4354824Y-16599710D01*
X4354824Y-16599710D02*
X4345301Y-16590186D01*
X4345301Y-16590186D02*
X4335777Y-16571138D01*
X4335777Y-16571138D02*
X4326253Y-16533043D01*
X4326253Y-16533043D02*
X4326253Y-16485424D01*
X4326253Y-16485424D02*
X4335777Y-16447329D01*
X4335777Y-16447329D02*
X4345301Y-16428281D01*
X4345301Y-16428281D02*
X4354824Y-16418758D01*
X4354824Y-16418758D02*
X4373872Y-16409234D01*
X4526253Y-16590186D02*
X4535777Y-16599710D01*
X4535777Y-16599710D02*
X4526253Y-16609234D01*
X4526253Y-16609234D02*
X4516729Y-16599710D01*
X4516729Y-16599710D02*
X4526253Y-16590186D01*
X4526253Y-16590186D02*
X4526253Y-16609234D01*
X4650063Y-16494948D02*
X4631015Y-16485424D01*
X4631015Y-16485424D02*
X4621491Y-16475900D01*
X4621491Y-16475900D02*
X4611967Y-16456853D01*
X4611967Y-16456853D02*
X4611967Y-16447329D01*
X4611967Y-16447329D02*
X4621491Y-16428281D01*
X4621491Y-16428281D02*
X4631015Y-16418758D01*
X4631015Y-16418758D02*
X4650063Y-16409234D01*
X4650063Y-16409234D02*
X4688158Y-16409234D01*
X4688158Y-16409234D02*
X4707205Y-16418758D01*
X4707205Y-16418758D02*
X4716729Y-16428281D01*
X4716729Y-16428281D02*
X4726253Y-16447329D01*
X4726253Y-16447329D02*
X4726253Y-16456853D01*
X4726253Y-16456853D02*
X4716729Y-16475900D01*
X4716729Y-16475900D02*
X4707205Y-16485424D01*
X4707205Y-16485424D02*
X4688158Y-16494948D01*
X4688158Y-16494948D02*
X4650063Y-16494948D01*
X4650063Y-16494948D02*
X4631015Y-16504472D01*
X4631015Y-16504472D02*
X4621491Y-16513996D01*
X4621491Y-16513996D02*
X4611967Y-16533043D01*
X4611967Y-16533043D02*
X4611967Y-16571138D01*
X4611967Y-16571138D02*
X4621491Y-16590186D01*
X4621491Y-16590186D02*
X4631015Y-16599710D01*
X4631015Y-16599710D02*
X4650063Y-16609234D01*
X4650063Y-16609234D02*
X4688158Y-16609234D01*
X4688158Y-16609234D02*
X4707205Y-16599710D01*
X4707205Y-16599710D02*
X4716729Y-16590186D01*
X4716729Y-16590186D02*
X4726253Y-16571138D01*
X4726253Y-16571138D02*
X4726253Y-16533043D01*
X4726253Y-16533043D02*
X4716729Y-16513996D01*
X4716729Y-16513996D02*
X4707205Y-16504472D01*
X4707205Y-16504472D02*
X4688158Y-16494948D01*
X4850063Y-16409234D02*
X4869110Y-16409234D01*
X4869110Y-16409234D02*
X4888158Y-16418758D01*
X4888158Y-16418758D02*
X4897682Y-16428281D01*
X4897682Y-16428281D02*
X4907205Y-16447329D01*
X4907205Y-16447329D02*
X4916729Y-16485424D01*
X4916729Y-16485424D02*
X4916729Y-16533043D01*
X4916729Y-16533043D02*
X4907205Y-16571138D01*
X4907205Y-16571138D02*
X4897682Y-16590186D01*
X4897682Y-16590186D02*
X4888158Y-16599710D01*
X4888158Y-16599710D02*
X4869110Y-16609234D01*
X4869110Y-16609234D02*
X4850063Y-16609234D01*
X4850063Y-16609234D02*
X4831015Y-16599710D01*
X4831015Y-16599710D02*
X4821491Y-16590186D01*
X4821491Y-16590186D02*
X4811967Y-16571138D01*
X4811967Y-16571138D02*
X4802444Y-16533043D01*
X4802444Y-16533043D02*
X4802444Y-16485424D01*
X4802444Y-16485424D02*
X4811967Y-16447329D01*
X4811967Y-16447329D02*
X4821491Y-16428281D01*
X4821491Y-16428281D02*
X4831015Y-16418758D01*
X4831015Y-16418758D02*
X4850063Y-16409234D01*
X5040539Y-16409234D02*
X5059586Y-16409234D01*
X5059586Y-16409234D02*
X5078634Y-16418758D01*
X5078634Y-16418758D02*
X5088158Y-16428281D01*
X5088158Y-16428281D02*
X5097682Y-16447329D01*
X5097682Y-16447329D02*
X5107205Y-16485424D01*
X5107205Y-16485424D02*
X5107205Y-16533043D01*
X5107205Y-16533043D02*
X5097682Y-16571138D01*
X5097682Y-16571138D02*
X5088158Y-16590186D01*
X5088158Y-16590186D02*
X5078634Y-16599710D01*
X5078634Y-16599710D02*
X5059586Y-16609234D01*
X5059586Y-16609234D02*
X5040539Y-16609234D01*
X5040539Y-16609234D02*
X5021491Y-16599710D01*
X5021491Y-16599710D02*
X5011967Y-16590186D01*
X5011967Y-16590186D02*
X5002444Y-16571138D01*
X5002444Y-16571138D02*
X4992920Y-16533043D01*
X4992920Y-16533043D02*
X4992920Y-16485424D01*
X4992920Y-16485424D02*
X5002444Y-16447329D01*
X5002444Y-16447329D02*
X5011967Y-16428281D01*
X5011967Y-16428281D02*
X5021491Y-16418758D01*
X5021491Y-16418758D02*
X5040539Y-16409234D01*
X5192920Y-16609234D02*
X5192920Y-16475900D01*
X5192920Y-16494948D02*
X5202444Y-16485424D01*
X5202444Y-16485424D02*
X5221491Y-16475900D01*
X5221491Y-16475900D02*
X5250063Y-16475900D01*
X5250063Y-16475900D02*
X5269110Y-16485424D01*
X5269110Y-16485424D02*
X5278634Y-16504472D01*
X5278634Y-16504472D02*
X5278634Y-16609234D01*
X5278634Y-16504472D02*
X5288158Y-16485424D01*
X5288158Y-16485424D02*
X5307205Y-16475900D01*
X5307205Y-16475900D02*
X5335777Y-16475900D01*
X5335777Y-16475900D02*
X5354825Y-16485424D01*
X5354825Y-16485424D02*
X5364348Y-16504472D01*
X5364348Y-16504472D02*
X5364348Y-16609234D01*
X5459586Y-16609234D02*
X5459586Y-16475900D01*
X5459586Y-16494948D02*
X5469110Y-16485424D01*
X5469110Y-16485424D02*
X5488158Y-16475900D01*
X5488158Y-16475900D02*
X5516729Y-16475900D01*
X5516729Y-16475900D02*
X5535777Y-16485424D01*
X5535777Y-16485424D02*
X5545301Y-16504472D01*
X5545301Y-16504472D02*
X5545301Y-16609234D01*
X5545301Y-16504472D02*
X5554825Y-16485424D01*
X5554825Y-16485424D02*
X5573872Y-16475900D01*
X5573872Y-16475900D02*
X5602443Y-16475900D01*
X5602443Y-16475900D02*
X5621491Y-16485424D01*
X5621491Y-16485424D02*
X5631015Y-16504472D01*
X5631015Y-16504472D02*
X5631015Y-16609234D01*
X6021491Y-16399710D02*
X5850063Y-16656853D01*
X6278634Y-16409234D02*
X6297682Y-16409234D01*
X6297682Y-16409234D02*
X6316729Y-16418758D01*
X6316729Y-16418758D02*
X6326253Y-16428281D01*
X6326253Y-16428281D02*
X6335777Y-16447329D01*
X6335777Y-16447329D02*
X6345301Y-16485424D01*
X6345301Y-16485424D02*
X6345301Y-16533043D01*
X6345301Y-16533043D02*
X6335777Y-16571138D01*
X6335777Y-16571138D02*
X6326253Y-16590186D01*
X6326253Y-16590186D02*
X6316729Y-16599710D01*
X6316729Y-16599710D02*
X6297682Y-16609234D01*
X6297682Y-16609234D02*
X6278634Y-16609234D01*
X6278634Y-16609234D02*
X6259586Y-16599710D01*
X6259586Y-16599710D02*
X6250063Y-16590186D01*
X6250063Y-16590186D02*
X6240539Y-16571138D01*
X6240539Y-16571138D02*
X6231015Y-16533043D01*
X6231015Y-16533043D02*
X6231015Y-16485424D01*
X6231015Y-16485424D02*
X6240539Y-16447329D01*
X6240539Y-16447329D02*
X6250063Y-16428281D01*
X6250063Y-16428281D02*
X6259586Y-16418758D01*
X6259586Y-16418758D02*
X6278634Y-16409234D01*
X6431015Y-16590186D02*
X6440539Y-16599710D01*
X6440539Y-16599710D02*
X6431015Y-16609234D01*
X6431015Y-16609234D02*
X6421491Y-16599710D01*
X6421491Y-16599710D02*
X6431015Y-16590186D01*
X6431015Y-16590186D02*
X6431015Y-16609234D01*
X6564348Y-16409234D02*
X6583396Y-16409234D01*
X6583396Y-16409234D02*
X6602444Y-16418758D01*
X6602444Y-16418758D02*
X6611967Y-16428281D01*
X6611967Y-16428281D02*
X6621491Y-16447329D01*
X6621491Y-16447329D02*
X6631015Y-16485424D01*
X6631015Y-16485424D02*
X6631015Y-16533043D01*
X6631015Y-16533043D02*
X6621491Y-16571138D01*
X6621491Y-16571138D02*
X6611967Y-16590186D01*
X6611967Y-16590186D02*
X6602444Y-16599710D01*
X6602444Y-16599710D02*
X6583396Y-16609234D01*
X6583396Y-16609234D02*
X6564348Y-16609234D01*
X6564348Y-16609234D02*
X6545301Y-16599710D01*
X6545301Y-16599710D02*
X6535777Y-16590186D01*
X6535777Y-16590186D02*
X6526253Y-16571138D01*
X6526253Y-16571138D02*
X6516729Y-16533043D01*
X6516729Y-16533043D02*
X6516729Y-16485424D01*
X6516729Y-16485424D02*
X6526253Y-16447329D01*
X6526253Y-16447329D02*
X6535777Y-16428281D01*
X6535777Y-16428281D02*
X6545301Y-16418758D01*
X6545301Y-16418758D02*
X6564348Y-16409234D01*
X6697682Y-16409234D02*
X6821491Y-16409234D01*
X6821491Y-16409234D02*
X6754825Y-16485424D01*
X6754825Y-16485424D02*
X6783396Y-16485424D01*
X6783396Y-16485424D02*
X6802444Y-16494948D01*
X6802444Y-16494948D02*
X6811967Y-16504472D01*
X6811967Y-16504472D02*
X6821491Y-16523519D01*
X6821491Y-16523519D02*
X6821491Y-16571138D01*
X6821491Y-16571138D02*
X6811967Y-16590186D01*
X6811967Y-16590186D02*
X6802444Y-16599710D01*
X6802444Y-16599710D02*
X6783396Y-16609234D01*
X6783396Y-16609234D02*
X6726253Y-16609234D01*
X6726253Y-16609234D02*
X6707206Y-16599710D01*
X6707206Y-16599710D02*
X6697682Y-16590186D01*
X7011967Y-16609234D02*
X6897682Y-16609234D01*
X6954825Y-16609234D02*
X6954825Y-16409234D01*
X6954825Y-16409234D02*
X6935777Y-16437805D01*
X6935777Y-16437805D02*
X6916729Y-16456853D01*
X6916729Y-16456853D02*
X6897682Y-16466377D01*
X7192920Y-16409234D02*
X7097682Y-16409234D01*
X7097682Y-16409234D02*
X7088158Y-16504472D01*
X7088158Y-16504472D02*
X7097682Y-16494948D01*
X7097682Y-16494948D02*
X7116729Y-16485424D01*
X7116729Y-16485424D02*
X7164348Y-16485424D01*
X7164348Y-16485424D02*
X7183396Y-16494948D01*
X7183396Y-16494948D02*
X7192920Y-16504472D01*
X7192920Y-16504472D02*
X7202444Y-16523519D01*
X7202444Y-16523519D02*
X7202444Y-16571138D01*
X7202444Y-16571138D02*
X7192920Y-16590186D01*
X7192920Y-16590186D02*
X7183396Y-16599710D01*
X7183396Y-16599710D02*
X7164348Y-16609234D01*
X7164348Y-16609234D02*
X7116729Y-16609234D01*
X7116729Y-16609234D02*
X7097682Y-16599710D01*
X7097682Y-16599710D02*
X7088158Y-16590186D01*
X7278634Y-16409234D02*
X7278634Y-16447329D01*
X7354825Y-16409234D02*
X7354825Y-16447329D01*
X7650063Y-16685424D02*
X7640539Y-16675900D01*
X7640539Y-16675900D02*
X7621491Y-16647329D01*
X7621491Y-16647329D02*
X7611968Y-16628281D01*
X7611968Y-16628281D02*
X7602444Y-16599710D01*
X7602444Y-16599710D02*
X7592920Y-16552091D01*
X7592920Y-16552091D02*
X7592920Y-16513996D01*
X7592920Y-16513996D02*
X7602444Y-16466377D01*
X7602444Y-16466377D02*
X7611968Y-16437805D01*
X7611968Y-16437805D02*
X7621491Y-16418758D01*
X7621491Y-16418758D02*
X7640539Y-16390186D01*
X7640539Y-16390186D02*
X7650063Y-16380662D01*
X7707206Y-16409234D02*
X7840539Y-16409234D01*
X7840539Y-16409234D02*
X7754825Y-16609234D01*
X7945301Y-16494948D02*
X7926253Y-16485424D01*
X7926253Y-16485424D02*
X7916729Y-16475900D01*
X7916729Y-16475900D02*
X7907206Y-16456853D01*
X7907206Y-16456853D02*
X7907206Y-16447329D01*
X7907206Y-16447329D02*
X7916729Y-16428281D01*
X7916729Y-16428281D02*
X7926253Y-16418758D01*
X7926253Y-16418758D02*
X7945301Y-16409234D01*
X7945301Y-16409234D02*
X7983396Y-16409234D01*
X7983396Y-16409234D02*
X8002444Y-16418758D01*
X8002444Y-16418758D02*
X8011968Y-16428281D01*
X8011968Y-16428281D02*
X8021491Y-16447329D01*
X8021491Y-16447329D02*
X8021491Y-16456853D01*
X8021491Y-16456853D02*
X8011968Y-16475900D01*
X8011968Y-16475900D02*
X8002444Y-16485424D01*
X8002444Y-16485424D02*
X7983396Y-16494948D01*
X7983396Y-16494948D02*
X7945301Y-16494948D01*
X7945301Y-16494948D02*
X7926253Y-16504472D01*
X7926253Y-16504472D02*
X7916729Y-16513996D01*
X7916729Y-16513996D02*
X7907206Y-16533043D01*
X7907206Y-16533043D02*
X7907206Y-16571138D01*
X7907206Y-16571138D02*
X7916729Y-16590186D01*
X7916729Y-16590186D02*
X7926253Y-16599710D01*
X7926253Y-16599710D02*
X7945301Y-16609234D01*
X7945301Y-16609234D02*
X7983396Y-16609234D01*
X7983396Y-16609234D02*
X8002444Y-16599710D01*
X8002444Y-16599710D02*
X8011968Y-16590186D01*
X8011968Y-16590186D02*
X8021491Y-16571138D01*
X8021491Y-16571138D02*
X8021491Y-16533043D01*
X8021491Y-16533043D02*
X8011968Y-16513996D01*
X8011968Y-16513996D02*
X8002444Y-16504472D01*
X8002444Y-16504472D02*
X7983396Y-16494948D01*
X8259587Y-16609234D02*
X8259587Y-16409234D01*
X8345301Y-16609234D02*
X8345301Y-16504472D01*
X8345301Y-16504472D02*
X8335777Y-16485424D01*
X8335777Y-16485424D02*
X8316730Y-16475900D01*
X8316730Y-16475900D02*
X8288158Y-16475900D01*
X8288158Y-16475900D02*
X8269110Y-16485424D01*
X8269110Y-16485424D02*
X8259587Y-16494948D01*
X8469111Y-16609234D02*
X8450063Y-16599710D01*
X8450063Y-16599710D02*
X8440539Y-16590186D01*
X8440539Y-16590186D02*
X8431015Y-16571138D01*
X8431015Y-16571138D02*
X8431015Y-16513996D01*
X8431015Y-16513996D02*
X8440539Y-16494948D01*
X8440539Y-16494948D02*
X8450063Y-16485424D01*
X8450063Y-16485424D02*
X8469111Y-16475900D01*
X8469111Y-16475900D02*
X8497682Y-16475900D01*
X8497682Y-16475900D02*
X8516730Y-16485424D01*
X8516730Y-16485424D02*
X8526253Y-16494948D01*
X8526253Y-16494948D02*
X8535777Y-16513996D01*
X8535777Y-16513996D02*
X8535777Y-16571138D01*
X8535777Y-16571138D02*
X8526253Y-16590186D01*
X8526253Y-16590186D02*
X8516730Y-16599710D01*
X8516730Y-16599710D02*
X8497682Y-16609234D01*
X8497682Y-16609234D02*
X8469111Y-16609234D01*
X8650063Y-16609234D02*
X8631015Y-16599710D01*
X8631015Y-16599710D02*
X8621492Y-16580662D01*
X8621492Y-16580662D02*
X8621492Y-16409234D01*
X8802444Y-16599710D02*
X8783396Y-16609234D01*
X8783396Y-16609234D02*
X8745301Y-16609234D01*
X8745301Y-16609234D02*
X8726253Y-16599710D01*
X8726253Y-16599710D02*
X8716730Y-16580662D01*
X8716730Y-16580662D02*
X8716730Y-16504472D01*
X8716730Y-16504472D02*
X8726253Y-16485424D01*
X8726253Y-16485424D02*
X8745301Y-16475900D01*
X8745301Y-16475900D02*
X8783396Y-16475900D01*
X8783396Y-16475900D02*
X8802444Y-16485424D01*
X8802444Y-16485424D02*
X8811968Y-16504472D01*
X8811968Y-16504472D02*
X8811968Y-16523519D01*
X8811968Y-16523519D02*
X8716730Y-16542567D01*
X8888158Y-16599710D02*
X8907206Y-16609234D01*
X8907206Y-16609234D02*
X8945301Y-16609234D01*
X8945301Y-16609234D02*
X8964349Y-16599710D01*
X8964349Y-16599710D02*
X8973873Y-16580662D01*
X8973873Y-16580662D02*
X8973873Y-16571138D01*
X8973873Y-16571138D02*
X8964349Y-16552091D01*
X8964349Y-16552091D02*
X8945301Y-16542567D01*
X8945301Y-16542567D02*
X8916730Y-16542567D01*
X8916730Y-16542567D02*
X8897682Y-16533043D01*
X8897682Y-16533043D02*
X8888158Y-16513996D01*
X8888158Y-16513996D02*
X8888158Y-16504472D01*
X8888158Y-16504472D02*
X8897682Y-16485424D01*
X8897682Y-16485424D02*
X8916730Y-16475900D01*
X8916730Y-16475900D02*
X8945301Y-16475900D01*
X8945301Y-16475900D02*
X8964349Y-16485424D01*
X9040539Y-16685424D02*
X9050063Y-16675900D01*
X9050063Y-16675900D02*
X9069111Y-16647329D01*
X9069111Y-16647329D02*
X9078634Y-16628281D01*
X9078634Y-16628281D02*
X9088158Y-16599710D01*
X9088158Y-16599710D02*
X9097682Y-16552091D01*
X9097682Y-16552091D02*
X9097682Y-16513996D01*
X9097682Y-16513996D02*
X9088158Y-16466377D01*
X9088158Y-16466377D02*
X9078634Y-16437805D01*
X9078634Y-16437805D02*
X9069111Y-16418758D01*
X9069111Y-16418758D02*
X9050063Y-16390186D01*
X9050063Y-16390186D02*
X9040539Y-16380662D01*
D16*
X4061820Y-16813570D02*
X4061820Y-16749930D01*
X3998180Y-16749930D01*
X3998180Y-16813570D01*
X4061820Y-16813570D01*
D12*
X4373872Y-16673234D02*
X4392920Y-16673234D01*
X4392920Y-16673234D02*
X4411967Y-16682758D01*
X4411967Y-16682758D02*
X4421491Y-16692281D01*
X4421491Y-16692281D02*
X4431015Y-16711329D01*
X4431015Y-16711329D02*
X4440539Y-16749424D01*
X4440539Y-16749424D02*
X4440539Y-16797043D01*
X4440539Y-16797043D02*
X4431015Y-16835139D01*
X4431015Y-16835139D02*
X4421491Y-16854186D01*
X4421491Y-16854186D02*
X4411967Y-16863710D01*
X4411967Y-16863710D02*
X4392920Y-16873234D01*
X4392920Y-16873234D02*
X4373872Y-16873234D01*
X4373872Y-16873234D02*
X4354824Y-16863710D01*
X4354824Y-16863710D02*
X4345301Y-16854186D01*
X4345301Y-16854186D02*
X4335777Y-16835139D01*
X4335777Y-16835139D02*
X4326253Y-16797043D01*
X4326253Y-16797043D02*
X4326253Y-16749424D01*
X4326253Y-16749424D02*
X4335777Y-16711329D01*
X4335777Y-16711329D02*
X4345301Y-16692281D01*
X4345301Y-16692281D02*
X4354824Y-16682758D01*
X4354824Y-16682758D02*
X4373872Y-16673234D01*
X4526253Y-16854186D02*
X4535777Y-16863710D01*
X4535777Y-16863710D02*
X4526253Y-16873234D01*
X4526253Y-16873234D02*
X4516729Y-16863710D01*
X4516729Y-16863710D02*
X4526253Y-16854186D01*
X4526253Y-16854186D02*
X4526253Y-16873234D01*
X4631015Y-16873234D02*
X4669110Y-16873234D01*
X4669110Y-16873234D02*
X4688158Y-16863710D01*
X4688158Y-16863710D02*
X4697682Y-16854186D01*
X4697682Y-16854186D02*
X4716729Y-16825615D01*
X4716729Y-16825615D02*
X4726253Y-16787520D01*
X4726253Y-16787520D02*
X4726253Y-16711329D01*
X4726253Y-16711329D02*
X4716729Y-16692281D01*
X4716729Y-16692281D02*
X4707205Y-16682758D01*
X4707205Y-16682758D02*
X4688158Y-16673234D01*
X4688158Y-16673234D02*
X4650063Y-16673234D01*
X4650063Y-16673234D02*
X4631015Y-16682758D01*
X4631015Y-16682758D02*
X4621491Y-16692281D01*
X4621491Y-16692281D02*
X4611967Y-16711329D01*
X4611967Y-16711329D02*
X4611967Y-16758948D01*
X4611967Y-16758948D02*
X4621491Y-16777996D01*
X4621491Y-16777996D02*
X4631015Y-16787520D01*
X4631015Y-16787520D02*
X4650063Y-16797043D01*
X4650063Y-16797043D02*
X4688158Y-16797043D01*
X4688158Y-16797043D02*
X4707205Y-16787520D01*
X4707205Y-16787520D02*
X4716729Y-16777996D01*
X4716729Y-16777996D02*
X4726253Y-16758948D01*
X4850063Y-16673234D02*
X4869110Y-16673234D01*
X4869110Y-16673234D02*
X4888158Y-16682758D01*
X4888158Y-16682758D02*
X4897682Y-16692281D01*
X4897682Y-16692281D02*
X4907205Y-16711329D01*
X4907205Y-16711329D02*
X4916729Y-16749424D01*
X4916729Y-16749424D02*
X4916729Y-16797043D01*
X4916729Y-16797043D02*
X4907205Y-16835139D01*
X4907205Y-16835139D02*
X4897682Y-16854186D01*
X4897682Y-16854186D02*
X4888158Y-16863710D01*
X4888158Y-16863710D02*
X4869110Y-16873234D01*
X4869110Y-16873234D02*
X4850063Y-16873234D01*
X4850063Y-16873234D02*
X4831015Y-16863710D01*
X4831015Y-16863710D02*
X4821491Y-16854186D01*
X4821491Y-16854186D02*
X4811967Y-16835139D01*
X4811967Y-16835139D02*
X4802444Y-16797043D01*
X4802444Y-16797043D02*
X4802444Y-16749424D01*
X4802444Y-16749424D02*
X4811967Y-16711329D01*
X4811967Y-16711329D02*
X4821491Y-16692281D01*
X4821491Y-16692281D02*
X4831015Y-16682758D01*
X4831015Y-16682758D02*
X4850063Y-16673234D01*
X5040539Y-16673234D02*
X5059586Y-16673234D01*
X5059586Y-16673234D02*
X5078634Y-16682758D01*
X5078634Y-16682758D02*
X5088158Y-16692281D01*
X5088158Y-16692281D02*
X5097682Y-16711329D01*
X5097682Y-16711329D02*
X5107205Y-16749424D01*
X5107205Y-16749424D02*
X5107205Y-16797043D01*
X5107205Y-16797043D02*
X5097682Y-16835139D01*
X5097682Y-16835139D02*
X5088158Y-16854186D01*
X5088158Y-16854186D02*
X5078634Y-16863710D01*
X5078634Y-16863710D02*
X5059586Y-16873234D01*
X5059586Y-16873234D02*
X5040539Y-16873234D01*
X5040539Y-16873234D02*
X5021491Y-16863710D01*
X5021491Y-16863710D02*
X5011967Y-16854186D01*
X5011967Y-16854186D02*
X5002444Y-16835139D01*
X5002444Y-16835139D02*
X4992920Y-16797043D01*
X4992920Y-16797043D02*
X4992920Y-16749424D01*
X4992920Y-16749424D02*
X5002444Y-16711329D01*
X5002444Y-16711329D02*
X5011967Y-16692281D01*
X5011967Y-16692281D02*
X5021491Y-16682758D01*
X5021491Y-16682758D02*
X5040539Y-16673234D01*
X5192920Y-16873234D02*
X5192920Y-16739900D01*
X5192920Y-16758948D02*
X5202444Y-16749424D01*
X5202444Y-16749424D02*
X5221491Y-16739900D01*
X5221491Y-16739900D02*
X5250063Y-16739900D01*
X5250063Y-16739900D02*
X5269110Y-16749424D01*
X5269110Y-16749424D02*
X5278634Y-16768472D01*
X5278634Y-16768472D02*
X5278634Y-16873234D01*
X5278634Y-16768472D02*
X5288158Y-16749424D01*
X5288158Y-16749424D02*
X5307205Y-16739900D01*
X5307205Y-16739900D02*
X5335777Y-16739900D01*
X5335777Y-16739900D02*
X5354825Y-16749424D01*
X5354825Y-16749424D02*
X5364348Y-16768472D01*
X5364348Y-16768472D02*
X5364348Y-16873234D01*
X5459586Y-16873234D02*
X5459586Y-16739900D01*
X5459586Y-16758948D02*
X5469110Y-16749424D01*
X5469110Y-16749424D02*
X5488158Y-16739900D01*
X5488158Y-16739900D02*
X5516729Y-16739900D01*
X5516729Y-16739900D02*
X5535777Y-16749424D01*
X5535777Y-16749424D02*
X5545301Y-16768472D01*
X5545301Y-16768472D02*
X5545301Y-16873234D01*
X5545301Y-16768472D02*
X5554825Y-16749424D01*
X5554825Y-16749424D02*
X5573872Y-16739900D01*
X5573872Y-16739900D02*
X5602443Y-16739900D01*
X5602443Y-16739900D02*
X5621491Y-16749424D01*
X5621491Y-16749424D02*
X5631015Y-16768472D01*
X5631015Y-16768472D02*
X5631015Y-16873234D01*
X6021491Y-16663710D02*
X5850063Y-16920853D01*
X6278634Y-16673234D02*
X6297682Y-16673234D01*
X6297682Y-16673234D02*
X6316729Y-16682758D01*
X6316729Y-16682758D02*
X6326253Y-16692281D01*
X6326253Y-16692281D02*
X6335777Y-16711329D01*
X6335777Y-16711329D02*
X6345301Y-16749424D01*
X6345301Y-16749424D02*
X6345301Y-16797043D01*
X6345301Y-16797043D02*
X6335777Y-16835139D01*
X6335777Y-16835139D02*
X6326253Y-16854186D01*
X6326253Y-16854186D02*
X6316729Y-16863710D01*
X6316729Y-16863710D02*
X6297682Y-16873234D01*
X6297682Y-16873234D02*
X6278634Y-16873234D01*
X6278634Y-16873234D02*
X6259586Y-16863710D01*
X6259586Y-16863710D02*
X6250063Y-16854186D01*
X6250063Y-16854186D02*
X6240539Y-16835139D01*
X6240539Y-16835139D02*
X6231015Y-16797043D01*
X6231015Y-16797043D02*
X6231015Y-16749424D01*
X6231015Y-16749424D02*
X6240539Y-16711329D01*
X6240539Y-16711329D02*
X6250063Y-16692281D01*
X6250063Y-16692281D02*
X6259586Y-16682758D01*
X6259586Y-16682758D02*
X6278634Y-16673234D01*
X6431015Y-16854186D02*
X6440539Y-16863710D01*
X6440539Y-16863710D02*
X6431015Y-16873234D01*
X6431015Y-16873234D02*
X6421491Y-16863710D01*
X6421491Y-16863710D02*
X6431015Y-16854186D01*
X6431015Y-16854186D02*
X6431015Y-16873234D01*
X6564348Y-16673234D02*
X6583396Y-16673234D01*
X6583396Y-16673234D02*
X6602444Y-16682758D01*
X6602444Y-16682758D02*
X6611967Y-16692281D01*
X6611967Y-16692281D02*
X6621491Y-16711329D01*
X6621491Y-16711329D02*
X6631015Y-16749424D01*
X6631015Y-16749424D02*
X6631015Y-16797043D01*
X6631015Y-16797043D02*
X6621491Y-16835139D01*
X6621491Y-16835139D02*
X6611967Y-16854186D01*
X6611967Y-16854186D02*
X6602444Y-16863710D01*
X6602444Y-16863710D02*
X6583396Y-16873234D01*
X6583396Y-16873234D02*
X6564348Y-16873234D01*
X6564348Y-16873234D02*
X6545301Y-16863710D01*
X6545301Y-16863710D02*
X6535777Y-16854186D01*
X6535777Y-16854186D02*
X6526253Y-16835139D01*
X6526253Y-16835139D02*
X6516729Y-16797043D01*
X6516729Y-16797043D02*
X6516729Y-16749424D01*
X6516729Y-16749424D02*
X6526253Y-16711329D01*
X6526253Y-16711329D02*
X6535777Y-16692281D01*
X6535777Y-16692281D02*
X6545301Y-16682758D01*
X6545301Y-16682758D02*
X6564348Y-16673234D01*
X6697682Y-16673234D02*
X6821491Y-16673234D01*
X6821491Y-16673234D02*
X6754825Y-16749424D01*
X6754825Y-16749424D02*
X6783396Y-16749424D01*
X6783396Y-16749424D02*
X6802444Y-16758948D01*
X6802444Y-16758948D02*
X6811967Y-16768472D01*
X6811967Y-16768472D02*
X6821491Y-16787520D01*
X6821491Y-16787520D02*
X6821491Y-16835139D01*
X6821491Y-16835139D02*
X6811967Y-16854186D01*
X6811967Y-16854186D02*
X6802444Y-16863710D01*
X6802444Y-16863710D02*
X6783396Y-16873234D01*
X6783396Y-16873234D02*
X6726253Y-16873234D01*
X6726253Y-16873234D02*
X6707206Y-16863710D01*
X6707206Y-16863710D02*
X6697682Y-16854186D01*
X7002444Y-16673234D02*
X6907206Y-16673234D01*
X6907206Y-16673234D02*
X6897682Y-16768472D01*
X6897682Y-16768472D02*
X6907206Y-16758948D01*
X6907206Y-16758948D02*
X6926253Y-16749424D01*
X6926253Y-16749424D02*
X6973872Y-16749424D01*
X6973872Y-16749424D02*
X6992920Y-16758948D01*
X6992920Y-16758948D02*
X7002444Y-16768472D01*
X7002444Y-16768472D02*
X7011967Y-16787520D01*
X7011967Y-16787520D02*
X7011967Y-16835139D01*
X7011967Y-16835139D02*
X7002444Y-16854186D01*
X7002444Y-16854186D02*
X6992920Y-16863710D01*
X6992920Y-16863710D02*
X6973872Y-16873234D01*
X6973872Y-16873234D02*
X6926253Y-16873234D01*
X6926253Y-16873234D02*
X6907206Y-16863710D01*
X6907206Y-16863710D02*
X6897682Y-16854186D01*
X7183396Y-16739900D02*
X7183396Y-16873234D01*
X7135777Y-16663710D02*
X7088158Y-16806567D01*
X7088158Y-16806567D02*
X7211967Y-16806567D01*
X7278634Y-16673234D02*
X7278634Y-16711329D01*
X7354825Y-16673234D02*
X7354825Y-16711329D01*
X7650063Y-16949424D02*
X7640539Y-16939900D01*
X7640539Y-16939900D02*
X7621491Y-16911329D01*
X7621491Y-16911329D02*
X7611968Y-16892281D01*
X7611968Y-16892281D02*
X7602444Y-16863710D01*
X7602444Y-16863710D02*
X7592920Y-16816091D01*
X7592920Y-16816091D02*
X7592920Y-16777996D01*
X7592920Y-16777996D02*
X7602444Y-16730377D01*
X7602444Y-16730377D02*
X7611968Y-16701805D01*
X7611968Y-16701805D02*
X7621491Y-16682758D01*
X7621491Y-16682758D02*
X7640539Y-16654186D01*
X7640539Y-16654186D02*
X7650063Y-16644662D01*
X7754825Y-16758948D02*
X7735777Y-16749424D01*
X7735777Y-16749424D02*
X7726253Y-16739900D01*
X7726253Y-16739900D02*
X7716729Y-16720853D01*
X7716729Y-16720853D02*
X7716729Y-16711329D01*
X7716729Y-16711329D02*
X7726253Y-16692281D01*
X7726253Y-16692281D02*
X7735777Y-16682758D01*
X7735777Y-16682758D02*
X7754825Y-16673234D01*
X7754825Y-16673234D02*
X7792920Y-16673234D01*
X7792920Y-16673234D02*
X7811968Y-16682758D01*
X7811968Y-16682758D02*
X7821491Y-16692281D01*
X7821491Y-16692281D02*
X7831015Y-16711329D01*
X7831015Y-16711329D02*
X7831015Y-16720853D01*
X7831015Y-16720853D02*
X7821491Y-16739900D01*
X7821491Y-16739900D02*
X7811968Y-16749424D01*
X7811968Y-16749424D02*
X7792920Y-16758948D01*
X7792920Y-16758948D02*
X7754825Y-16758948D01*
X7754825Y-16758948D02*
X7735777Y-16768472D01*
X7735777Y-16768472D02*
X7726253Y-16777996D01*
X7726253Y-16777996D02*
X7716729Y-16797043D01*
X7716729Y-16797043D02*
X7716729Y-16835139D01*
X7716729Y-16835139D02*
X7726253Y-16854186D01*
X7726253Y-16854186D02*
X7735777Y-16863710D01*
X7735777Y-16863710D02*
X7754825Y-16873234D01*
X7754825Y-16873234D02*
X7792920Y-16873234D01*
X7792920Y-16873234D02*
X7811968Y-16863710D01*
X7811968Y-16863710D02*
X7821491Y-16854186D01*
X7821491Y-16854186D02*
X7831015Y-16835139D01*
X7831015Y-16835139D02*
X7831015Y-16797043D01*
X7831015Y-16797043D02*
X7821491Y-16777996D01*
X7821491Y-16777996D02*
X7811968Y-16768472D01*
X7811968Y-16768472D02*
X7792920Y-16758948D01*
X8069110Y-16873234D02*
X8069110Y-16673234D01*
X8154825Y-16873234D02*
X8154825Y-16768472D01*
X8154825Y-16768472D02*
X8145301Y-16749424D01*
X8145301Y-16749424D02*
X8126253Y-16739900D01*
X8126253Y-16739900D02*
X8097682Y-16739900D01*
X8097682Y-16739900D02*
X8078634Y-16749424D01*
X8078634Y-16749424D02*
X8069110Y-16758948D01*
X8278634Y-16873234D02*
X8259587Y-16863710D01*
X8259587Y-16863710D02*
X8250063Y-16854186D01*
X8250063Y-16854186D02*
X8240539Y-16835139D01*
X8240539Y-16835139D02*
X8240539Y-16777996D01*
X8240539Y-16777996D02*
X8250063Y-16758948D01*
X8250063Y-16758948D02*
X8259587Y-16749424D01*
X8259587Y-16749424D02*
X8278634Y-16739900D01*
X8278634Y-16739900D02*
X8307206Y-16739900D01*
X8307206Y-16739900D02*
X8326253Y-16749424D01*
X8326253Y-16749424D02*
X8335777Y-16758948D01*
X8335777Y-16758948D02*
X8345301Y-16777996D01*
X8345301Y-16777996D02*
X8345301Y-16835139D01*
X8345301Y-16835139D02*
X8335777Y-16854186D01*
X8335777Y-16854186D02*
X8326253Y-16863710D01*
X8326253Y-16863710D02*
X8307206Y-16873234D01*
X8307206Y-16873234D02*
X8278634Y-16873234D01*
X8459587Y-16873234D02*
X8440539Y-16863710D01*
X8440539Y-16863710D02*
X8431015Y-16844662D01*
X8431015Y-16844662D02*
X8431015Y-16673234D01*
X8611968Y-16863710D02*
X8592920Y-16873234D01*
X8592920Y-16873234D02*
X8554825Y-16873234D01*
X8554825Y-16873234D02*
X8535777Y-16863710D01*
X8535777Y-16863710D02*
X8526253Y-16844662D01*
X8526253Y-16844662D02*
X8526253Y-16768472D01*
X8526253Y-16768472D02*
X8535777Y-16749424D01*
X8535777Y-16749424D02*
X8554825Y-16739900D01*
X8554825Y-16739900D02*
X8592920Y-16739900D01*
X8592920Y-16739900D02*
X8611968Y-16749424D01*
X8611968Y-16749424D02*
X8621492Y-16768472D01*
X8621492Y-16768472D02*
X8621492Y-16787520D01*
X8621492Y-16787520D02*
X8526253Y-16806567D01*
X8697682Y-16863710D02*
X8716730Y-16873234D01*
X8716730Y-16873234D02*
X8754825Y-16873234D01*
X8754825Y-16873234D02*
X8773873Y-16863710D01*
X8773873Y-16863710D02*
X8783396Y-16844662D01*
X8783396Y-16844662D02*
X8783396Y-16835139D01*
X8783396Y-16835139D02*
X8773873Y-16816091D01*
X8773873Y-16816091D02*
X8754825Y-16806567D01*
X8754825Y-16806567D02*
X8726253Y-16806567D01*
X8726253Y-16806567D02*
X8707206Y-16797043D01*
X8707206Y-16797043D02*
X8697682Y-16777996D01*
X8697682Y-16777996D02*
X8697682Y-16768472D01*
X8697682Y-16768472D02*
X8707206Y-16749424D01*
X8707206Y-16749424D02*
X8726253Y-16739900D01*
X8726253Y-16739900D02*
X8754825Y-16739900D01*
X8754825Y-16739900D02*
X8773873Y-16749424D01*
X8850063Y-16949424D02*
X8859587Y-16939900D01*
X8859587Y-16939900D02*
X8878634Y-16911329D01*
X8878634Y-16911329D02*
X8888158Y-16892281D01*
X8888158Y-16892281D02*
X8897682Y-16863710D01*
X8897682Y-16863710D02*
X8907206Y-16816091D01*
X8907206Y-16816091D02*
X8907206Y-16777996D01*
X8907206Y-16777996D02*
X8897682Y-16730377D01*
X8897682Y-16730377D02*
X8888158Y-16701805D01*
X8888158Y-16701805D02*
X8878634Y-16682758D01*
X8878634Y-16682758D02*
X8859587Y-16654186D01*
X8859587Y-16654186D02*
X8850063Y-16644662D01*
D11*
X4025000Y-17095750D02*
X4075000Y-17045750D01*
X4025000Y-16995750D01*
X3975000Y-17045750D01*
X4025000Y-17095750D01*
D12*
X4440539Y-17137234D02*
X4326253Y-17137234D01*
X4383396Y-17137234D02*
X4383396Y-16937234D01*
X4383396Y-16937234D02*
X4364348Y-16965805D01*
X4364348Y-16965805D02*
X4345301Y-16984853D01*
X4345301Y-16984853D02*
X4326253Y-16994377D01*
X4526253Y-17118186D02*
X4535777Y-17127710D01*
X4535777Y-17127710D02*
X4526253Y-17137234D01*
X4526253Y-17137234D02*
X4516729Y-17127710D01*
X4516729Y-17127710D02*
X4526253Y-17118186D01*
X4526253Y-17118186D02*
X4526253Y-17137234D01*
X4659586Y-16937234D02*
X4678634Y-16937234D01*
X4678634Y-16937234D02*
X4697682Y-16946758D01*
X4697682Y-16946758D02*
X4707205Y-16956281D01*
X4707205Y-16956281D02*
X4716729Y-16975329D01*
X4716729Y-16975329D02*
X4726253Y-17013424D01*
X4726253Y-17013424D02*
X4726253Y-17061043D01*
X4726253Y-17061043D02*
X4716729Y-17099139D01*
X4716729Y-17099139D02*
X4707205Y-17118186D01*
X4707205Y-17118186D02*
X4697682Y-17127710D01*
X4697682Y-17127710D02*
X4678634Y-17137234D01*
X4678634Y-17137234D02*
X4659586Y-17137234D01*
X4659586Y-17137234D02*
X4640539Y-17127710D01*
X4640539Y-17127710D02*
X4631015Y-17118186D01*
X4631015Y-17118186D02*
X4621491Y-17099139D01*
X4621491Y-17099139D02*
X4611967Y-17061043D01*
X4611967Y-17061043D02*
X4611967Y-17013424D01*
X4611967Y-17013424D02*
X4621491Y-16975329D01*
X4621491Y-16975329D02*
X4631015Y-16956281D01*
X4631015Y-16956281D02*
X4640539Y-16946758D01*
X4640539Y-16946758D02*
X4659586Y-16937234D01*
X4850063Y-16937234D02*
X4869110Y-16937234D01*
X4869110Y-16937234D02*
X4888158Y-16946758D01*
X4888158Y-16946758D02*
X4897682Y-16956281D01*
X4897682Y-16956281D02*
X4907205Y-16975329D01*
X4907205Y-16975329D02*
X4916729Y-17013424D01*
X4916729Y-17013424D02*
X4916729Y-17061043D01*
X4916729Y-17061043D02*
X4907205Y-17099139D01*
X4907205Y-17099139D02*
X4897682Y-17118186D01*
X4897682Y-17118186D02*
X4888158Y-17127710D01*
X4888158Y-17127710D02*
X4869110Y-17137234D01*
X4869110Y-17137234D02*
X4850063Y-17137234D01*
X4850063Y-17137234D02*
X4831015Y-17127710D01*
X4831015Y-17127710D02*
X4821491Y-17118186D01*
X4821491Y-17118186D02*
X4811967Y-17099139D01*
X4811967Y-17099139D02*
X4802444Y-17061043D01*
X4802444Y-17061043D02*
X4802444Y-17013424D01*
X4802444Y-17013424D02*
X4811967Y-16975329D01*
X4811967Y-16975329D02*
X4821491Y-16956281D01*
X4821491Y-16956281D02*
X4831015Y-16946758D01*
X4831015Y-16946758D02*
X4850063Y-16937234D01*
X5040539Y-16937234D02*
X5059586Y-16937234D01*
X5059586Y-16937234D02*
X5078634Y-16946758D01*
X5078634Y-16946758D02*
X5088158Y-16956281D01*
X5088158Y-16956281D02*
X5097682Y-16975329D01*
X5097682Y-16975329D02*
X5107205Y-17013424D01*
X5107205Y-17013424D02*
X5107205Y-17061043D01*
X5107205Y-17061043D02*
X5097682Y-17099139D01*
X5097682Y-17099139D02*
X5088158Y-17118186D01*
X5088158Y-17118186D02*
X5078634Y-17127710D01*
X5078634Y-17127710D02*
X5059586Y-17137234D01*
X5059586Y-17137234D02*
X5040539Y-17137234D01*
X5040539Y-17137234D02*
X5021491Y-17127710D01*
X5021491Y-17127710D02*
X5011967Y-17118186D01*
X5011967Y-17118186D02*
X5002444Y-17099139D01*
X5002444Y-17099139D02*
X4992920Y-17061043D01*
X4992920Y-17061043D02*
X4992920Y-17013424D01*
X4992920Y-17013424D02*
X5002444Y-16975329D01*
X5002444Y-16975329D02*
X5011967Y-16956281D01*
X5011967Y-16956281D02*
X5021491Y-16946758D01*
X5021491Y-16946758D02*
X5040539Y-16937234D01*
X5192920Y-17137234D02*
X5192920Y-17003900D01*
X5192920Y-17022948D02*
X5202444Y-17013424D01*
X5202444Y-17013424D02*
X5221491Y-17003900D01*
X5221491Y-17003900D02*
X5250063Y-17003900D01*
X5250063Y-17003900D02*
X5269110Y-17013424D01*
X5269110Y-17013424D02*
X5278634Y-17032472D01*
X5278634Y-17032472D02*
X5278634Y-17137234D01*
X5278634Y-17032472D02*
X5288158Y-17013424D01*
X5288158Y-17013424D02*
X5307205Y-17003900D01*
X5307205Y-17003900D02*
X5335777Y-17003900D01*
X5335777Y-17003900D02*
X5354825Y-17013424D01*
X5354825Y-17013424D02*
X5364348Y-17032472D01*
X5364348Y-17032472D02*
X5364348Y-17137234D01*
X5459586Y-17137234D02*
X5459586Y-17003900D01*
X5459586Y-17022948D02*
X5469110Y-17013424D01*
X5469110Y-17013424D02*
X5488158Y-17003900D01*
X5488158Y-17003900D02*
X5516729Y-17003900D01*
X5516729Y-17003900D02*
X5535777Y-17013424D01*
X5535777Y-17013424D02*
X5545301Y-17032472D01*
X5545301Y-17032472D02*
X5545301Y-17137234D01*
X5545301Y-17032472D02*
X5554825Y-17013424D01*
X5554825Y-17013424D02*
X5573872Y-17003900D01*
X5573872Y-17003900D02*
X5602443Y-17003900D01*
X5602443Y-17003900D02*
X5621491Y-17013424D01*
X5621491Y-17013424D02*
X5631015Y-17032472D01*
X5631015Y-17032472D02*
X5631015Y-17137234D01*
X6021491Y-16927710D02*
X5850063Y-17184853D01*
X6278634Y-16937234D02*
X6297682Y-16937234D01*
X6297682Y-16937234D02*
X6316729Y-16946758D01*
X6316729Y-16946758D02*
X6326253Y-16956281D01*
X6326253Y-16956281D02*
X6335777Y-16975329D01*
X6335777Y-16975329D02*
X6345301Y-17013424D01*
X6345301Y-17013424D02*
X6345301Y-17061043D01*
X6345301Y-17061043D02*
X6335777Y-17099139D01*
X6335777Y-17099139D02*
X6326253Y-17118186D01*
X6326253Y-17118186D02*
X6316729Y-17127710D01*
X6316729Y-17127710D02*
X6297682Y-17137234D01*
X6297682Y-17137234D02*
X6278634Y-17137234D01*
X6278634Y-17137234D02*
X6259586Y-17127710D01*
X6259586Y-17127710D02*
X6250063Y-17118186D01*
X6250063Y-17118186D02*
X6240539Y-17099139D01*
X6240539Y-17099139D02*
X6231015Y-17061043D01*
X6231015Y-17061043D02*
X6231015Y-17013424D01*
X6231015Y-17013424D02*
X6240539Y-16975329D01*
X6240539Y-16975329D02*
X6250063Y-16956281D01*
X6250063Y-16956281D02*
X6259586Y-16946758D01*
X6259586Y-16946758D02*
X6278634Y-16937234D01*
X6431015Y-17118186D02*
X6440539Y-17127710D01*
X6440539Y-17127710D02*
X6431015Y-17137234D01*
X6431015Y-17137234D02*
X6421491Y-17127710D01*
X6421491Y-17127710D02*
X6431015Y-17118186D01*
X6431015Y-17118186D02*
X6431015Y-17137234D01*
X6564348Y-16937234D02*
X6583396Y-16937234D01*
X6583396Y-16937234D02*
X6602444Y-16946758D01*
X6602444Y-16946758D02*
X6611967Y-16956281D01*
X6611967Y-16956281D02*
X6621491Y-16975329D01*
X6621491Y-16975329D02*
X6631015Y-17013424D01*
X6631015Y-17013424D02*
X6631015Y-17061043D01*
X6631015Y-17061043D02*
X6621491Y-17099139D01*
X6621491Y-17099139D02*
X6611967Y-17118186D01*
X6611967Y-17118186D02*
X6602444Y-17127710D01*
X6602444Y-17127710D02*
X6583396Y-17137234D01*
X6583396Y-17137234D02*
X6564348Y-17137234D01*
X6564348Y-17137234D02*
X6545301Y-17127710D01*
X6545301Y-17127710D02*
X6535777Y-17118186D01*
X6535777Y-17118186D02*
X6526253Y-17099139D01*
X6526253Y-17099139D02*
X6516729Y-17061043D01*
X6516729Y-17061043D02*
X6516729Y-17013424D01*
X6516729Y-17013424D02*
X6526253Y-16975329D01*
X6526253Y-16975329D02*
X6535777Y-16956281D01*
X6535777Y-16956281D02*
X6545301Y-16946758D01*
X6545301Y-16946758D02*
X6564348Y-16937234D01*
X6697682Y-16937234D02*
X6821491Y-16937234D01*
X6821491Y-16937234D02*
X6754825Y-17013424D01*
X6754825Y-17013424D02*
X6783396Y-17013424D01*
X6783396Y-17013424D02*
X6802444Y-17022948D01*
X6802444Y-17022948D02*
X6811967Y-17032472D01*
X6811967Y-17032472D02*
X6821491Y-17051520D01*
X6821491Y-17051520D02*
X6821491Y-17099139D01*
X6821491Y-17099139D02*
X6811967Y-17118186D01*
X6811967Y-17118186D02*
X6802444Y-17127710D01*
X6802444Y-17127710D02*
X6783396Y-17137234D01*
X6783396Y-17137234D02*
X6726253Y-17137234D01*
X6726253Y-17137234D02*
X6707206Y-17127710D01*
X6707206Y-17127710D02*
X6697682Y-17118186D01*
X6916729Y-17137234D02*
X6954825Y-17137234D01*
X6954825Y-17137234D02*
X6973872Y-17127710D01*
X6973872Y-17127710D02*
X6983396Y-17118186D01*
X6983396Y-17118186D02*
X7002444Y-17089615D01*
X7002444Y-17089615D02*
X7011967Y-17051520D01*
X7011967Y-17051520D02*
X7011967Y-16975329D01*
X7011967Y-16975329D02*
X7002444Y-16956281D01*
X7002444Y-16956281D02*
X6992920Y-16946758D01*
X6992920Y-16946758D02*
X6973872Y-16937234D01*
X6973872Y-16937234D02*
X6935777Y-16937234D01*
X6935777Y-16937234D02*
X6916729Y-16946758D01*
X6916729Y-16946758D02*
X6907206Y-16956281D01*
X6907206Y-16956281D02*
X6897682Y-16975329D01*
X6897682Y-16975329D02*
X6897682Y-17022948D01*
X6897682Y-17022948D02*
X6907206Y-17041996D01*
X6907206Y-17041996D02*
X6916729Y-17051520D01*
X6916729Y-17051520D02*
X6935777Y-17061043D01*
X6935777Y-17061043D02*
X6973872Y-17061043D01*
X6973872Y-17061043D02*
X6992920Y-17051520D01*
X6992920Y-17051520D02*
X7002444Y-17041996D01*
X7002444Y-17041996D02*
X7011967Y-17022948D01*
X7183396Y-17003900D02*
X7183396Y-17137234D01*
X7135777Y-16927710D02*
X7088158Y-17070567D01*
X7088158Y-17070567D02*
X7211967Y-17070567D01*
X7278634Y-16937234D02*
X7278634Y-16975329D01*
X7354825Y-16937234D02*
X7354825Y-16975329D01*
X7650063Y-17213424D02*
X7640539Y-17203900D01*
X7640539Y-17203900D02*
X7621491Y-17175329D01*
X7621491Y-17175329D02*
X7611968Y-17156281D01*
X7611968Y-17156281D02*
X7602444Y-17127710D01*
X7602444Y-17127710D02*
X7592920Y-17080091D01*
X7592920Y-17080091D02*
X7592920Y-17041996D01*
X7592920Y-17041996D02*
X7602444Y-16994377D01*
X7602444Y-16994377D02*
X7611968Y-16965805D01*
X7611968Y-16965805D02*
X7621491Y-16946758D01*
X7621491Y-16946758D02*
X7640539Y-16918186D01*
X7640539Y-16918186D02*
X7650063Y-16908662D01*
X7831015Y-17137234D02*
X7716729Y-17137234D01*
X7773872Y-17137234D02*
X7773872Y-16937234D01*
X7773872Y-16937234D02*
X7754825Y-16965805D01*
X7754825Y-16965805D02*
X7735777Y-16984853D01*
X7735777Y-16984853D02*
X7716729Y-16994377D01*
X7954825Y-16937234D02*
X7973872Y-16937234D01*
X7973872Y-16937234D02*
X7992920Y-16946758D01*
X7992920Y-16946758D02*
X8002444Y-16956281D01*
X8002444Y-16956281D02*
X8011968Y-16975329D01*
X8011968Y-16975329D02*
X8021491Y-17013424D01*
X8021491Y-17013424D02*
X8021491Y-17061043D01*
X8021491Y-17061043D02*
X8011968Y-17099139D01*
X8011968Y-17099139D02*
X8002444Y-17118186D01*
X8002444Y-17118186D02*
X7992920Y-17127710D01*
X7992920Y-17127710D02*
X7973872Y-17137234D01*
X7973872Y-17137234D02*
X7954825Y-17137234D01*
X7954825Y-17137234D02*
X7935777Y-17127710D01*
X7935777Y-17127710D02*
X7926253Y-17118186D01*
X7926253Y-17118186D02*
X7916729Y-17099139D01*
X7916729Y-17099139D02*
X7907206Y-17061043D01*
X7907206Y-17061043D02*
X7907206Y-17013424D01*
X7907206Y-17013424D02*
X7916729Y-16975329D01*
X7916729Y-16975329D02*
X7926253Y-16956281D01*
X7926253Y-16956281D02*
X7935777Y-16946758D01*
X7935777Y-16946758D02*
X7954825Y-16937234D01*
X8192920Y-17003900D02*
X8192920Y-17137234D01*
X8145301Y-16927710D02*
X8097682Y-17070567D01*
X8097682Y-17070567D02*
X8221491Y-17070567D01*
X8450063Y-17137234D02*
X8450063Y-16937234D01*
X8535777Y-17137234D02*
X8535777Y-17032472D01*
X8535777Y-17032472D02*
X8526253Y-17013424D01*
X8526253Y-17013424D02*
X8507206Y-17003900D01*
X8507206Y-17003900D02*
X8478634Y-17003900D01*
X8478634Y-17003900D02*
X8459587Y-17013424D01*
X8459587Y-17013424D02*
X8450063Y-17022948D01*
X8659587Y-17137234D02*
X8640539Y-17127710D01*
X8640539Y-17127710D02*
X8631015Y-17118186D01*
X8631015Y-17118186D02*
X8621492Y-17099139D01*
X8621492Y-17099139D02*
X8621492Y-17041996D01*
X8621492Y-17041996D02*
X8631015Y-17022948D01*
X8631015Y-17022948D02*
X8640539Y-17013424D01*
X8640539Y-17013424D02*
X8659587Y-17003900D01*
X8659587Y-17003900D02*
X8688158Y-17003900D01*
X8688158Y-17003900D02*
X8707206Y-17013424D01*
X8707206Y-17013424D02*
X8716730Y-17022948D01*
X8716730Y-17022948D02*
X8726253Y-17041996D01*
X8726253Y-17041996D02*
X8726253Y-17099139D01*
X8726253Y-17099139D02*
X8716730Y-17118186D01*
X8716730Y-17118186D02*
X8707206Y-17127710D01*
X8707206Y-17127710D02*
X8688158Y-17137234D01*
X8688158Y-17137234D02*
X8659587Y-17137234D01*
X8840539Y-17137234D02*
X8821492Y-17127710D01*
X8821492Y-17127710D02*
X8811968Y-17108662D01*
X8811968Y-17108662D02*
X8811968Y-16937234D01*
X8992920Y-17127710D02*
X8973873Y-17137234D01*
X8973873Y-17137234D02*
X8935777Y-17137234D01*
X8935777Y-17137234D02*
X8916730Y-17127710D01*
X8916730Y-17127710D02*
X8907206Y-17108662D01*
X8907206Y-17108662D02*
X8907206Y-17032472D01*
X8907206Y-17032472D02*
X8916730Y-17013424D01*
X8916730Y-17013424D02*
X8935777Y-17003900D01*
X8935777Y-17003900D02*
X8973873Y-17003900D01*
X8973873Y-17003900D02*
X8992920Y-17013424D01*
X8992920Y-17013424D02*
X9002444Y-17032472D01*
X9002444Y-17032472D02*
X9002444Y-17051520D01*
X9002444Y-17051520D02*
X8907206Y-17070567D01*
X9078634Y-17127710D02*
X9097682Y-17137234D01*
X9097682Y-17137234D02*
X9135777Y-17137234D01*
X9135777Y-17137234D02*
X9154825Y-17127710D01*
X9154825Y-17127710D02*
X9164349Y-17108662D01*
X9164349Y-17108662D02*
X9164349Y-17099139D01*
X9164349Y-17099139D02*
X9154825Y-17080091D01*
X9154825Y-17080091D02*
X9135777Y-17070567D01*
X9135777Y-17070567D02*
X9107206Y-17070567D01*
X9107206Y-17070567D02*
X9088158Y-17061043D01*
X9088158Y-17061043D02*
X9078634Y-17041996D01*
X9078634Y-17041996D02*
X9078634Y-17032472D01*
X9078634Y-17032472D02*
X9088158Y-17013424D01*
X9088158Y-17013424D02*
X9107206Y-17003900D01*
X9107206Y-17003900D02*
X9135777Y-17003900D01*
X9135777Y-17003900D02*
X9154825Y-17013424D01*
X9231015Y-17213424D02*
X9240539Y-17203900D01*
X9240539Y-17203900D02*
X9259587Y-17175329D01*
X9259587Y-17175329D02*
X9269111Y-17156281D01*
X9269111Y-17156281D02*
X9278634Y-17127710D01*
X9278634Y-17127710D02*
X9288158Y-17080091D01*
X9288158Y-17080091D02*
X9288158Y-17041996D01*
X9288158Y-17041996D02*
X9278634Y-16994377D01*
X9278634Y-16994377D02*
X9269111Y-16965805D01*
X9269111Y-16965805D02*
X9259587Y-16946758D01*
X9259587Y-16946758D02*
X9240539Y-16918186D01*
X9240539Y-16918186D02*
X9231015Y-16908662D01*
D17*
X3973000Y-17258750D02*
X4075000Y-17360750D01*
X4075000Y-17258750D02*
X3973000Y-17360750D01*
X4075000Y-17309750D02*
G75*
G03*
X4075000Y-17309750I-51000J0D01*
G01*
D12*
X4440539Y-17401234D02*
X4326253Y-17401234D01*
X4383396Y-17401234D02*
X4383396Y-17201234D01*
X4383396Y-17201234D02*
X4364348Y-17229805D01*
X4364348Y-17229805D02*
X4345301Y-17248853D01*
X4345301Y-17248853D02*
X4326253Y-17258377D01*
X4526253Y-17382186D02*
X4535777Y-17391710D01*
X4535777Y-17391710D02*
X4526253Y-17401234D01*
X4526253Y-17401234D02*
X4516729Y-17391710D01*
X4516729Y-17391710D02*
X4526253Y-17382186D01*
X4526253Y-17382186D02*
X4526253Y-17401234D01*
X4659586Y-17201234D02*
X4678634Y-17201234D01*
X4678634Y-17201234D02*
X4697682Y-17210758D01*
X4697682Y-17210758D02*
X4707205Y-17220281D01*
X4707205Y-17220281D02*
X4716729Y-17239329D01*
X4716729Y-17239329D02*
X4726253Y-17277424D01*
X4726253Y-17277424D02*
X4726253Y-17325043D01*
X4726253Y-17325043D02*
X4716729Y-17363139D01*
X4716729Y-17363139D02*
X4707205Y-17382186D01*
X4707205Y-17382186D02*
X4697682Y-17391710D01*
X4697682Y-17391710D02*
X4678634Y-17401234D01*
X4678634Y-17401234D02*
X4659586Y-17401234D01*
X4659586Y-17401234D02*
X4640539Y-17391710D01*
X4640539Y-17391710D02*
X4631015Y-17382186D01*
X4631015Y-17382186D02*
X4621491Y-17363139D01*
X4621491Y-17363139D02*
X4611967Y-17325043D01*
X4611967Y-17325043D02*
X4611967Y-17277424D01*
X4611967Y-17277424D02*
X4621491Y-17239329D01*
X4621491Y-17239329D02*
X4631015Y-17220281D01*
X4631015Y-17220281D02*
X4640539Y-17210758D01*
X4640539Y-17210758D02*
X4659586Y-17201234D01*
X4802444Y-17220281D02*
X4811967Y-17210758D01*
X4811967Y-17210758D02*
X4831015Y-17201234D01*
X4831015Y-17201234D02*
X4878634Y-17201234D01*
X4878634Y-17201234D02*
X4897682Y-17210758D01*
X4897682Y-17210758D02*
X4907205Y-17220281D01*
X4907205Y-17220281D02*
X4916729Y-17239329D01*
X4916729Y-17239329D02*
X4916729Y-17258377D01*
X4916729Y-17258377D02*
X4907205Y-17286948D01*
X4907205Y-17286948D02*
X4792920Y-17401234D01*
X4792920Y-17401234D02*
X4916729Y-17401234D01*
X5040539Y-17201234D02*
X5059586Y-17201234D01*
X5059586Y-17201234D02*
X5078634Y-17210758D01*
X5078634Y-17210758D02*
X5088158Y-17220281D01*
X5088158Y-17220281D02*
X5097682Y-17239329D01*
X5097682Y-17239329D02*
X5107205Y-17277424D01*
X5107205Y-17277424D02*
X5107205Y-17325043D01*
X5107205Y-17325043D02*
X5097682Y-17363139D01*
X5097682Y-17363139D02*
X5088158Y-17382186D01*
X5088158Y-17382186D02*
X5078634Y-17391710D01*
X5078634Y-17391710D02*
X5059586Y-17401234D01*
X5059586Y-17401234D02*
X5040539Y-17401234D01*
X5040539Y-17401234D02*
X5021491Y-17391710D01*
X5021491Y-17391710D02*
X5011967Y-17382186D01*
X5011967Y-17382186D02*
X5002444Y-17363139D01*
X5002444Y-17363139D02*
X4992920Y-17325043D01*
X4992920Y-17325043D02*
X4992920Y-17277424D01*
X4992920Y-17277424D02*
X5002444Y-17239329D01*
X5002444Y-17239329D02*
X5011967Y-17220281D01*
X5011967Y-17220281D02*
X5021491Y-17210758D01*
X5021491Y-17210758D02*
X5040539Y-17201234D01*
X5192920Y-17401234D02*
X5192920Y-17267900D01*
X5192920Y-17286948D02*
X5202444Y-17277424D01*
X5202444Y-17277424D02*
X5221491Y-17267900D01*
X5221491Y-17267900D02*
X5250063Y-17267900D01*
X5250063Y-17267900D02*
X5269110Y-17277424D01*
X5269110Y-17277424D02*
X5278634Y-17296472D01*
X5278634Y-17296472D02*
X5278634Y-17401234D01*
X5278634Y-17296472D02*
X5288158Y-17277424D01*
X5288158Y-17277424D02*
X5307205Y-17267900D01*
X5307205Y-17267900D02*
X5335777Y-17267900D01*
X5335777Y-17267900D02*
X5354825Y-17277424D01*
X5354825Y-17277424D02*
X5364348Y-17296472D01*
X5364348Y-17296472D02*
X5364348Y-17401234D01*
X5459586Y-17401234D02*
X5459586Y-17267900D01*
X5459586Y-17286948D02*
X5469110Y-17277424D01*
X5469110Y-17277424D02*
X5488158Y-17267900D01*
X5488158Y-17267900D02*
X5516729Y-17267900D01*
X5516729Y-17267900D02*
X5535777Y-17277424D01*
X5535777Y-17277424D02*
X5545301Y-17296472D01*
X5545301Y-17296472D02*
X5545301Y-17401234D01*
X5545301Y-17296472D02*
X5554825Y-17277424D01*
X5554825Y-17277424D02*
X5573872Y-17267900D01*
X5573872Y-17267900D02*
X5602443Y-17267900D01*
X5602443Y-17267900D02*
X5621491Y-17277424D01*
X5621491Y-17277424D02*
X5631015Y-17296472D01*
X5631015Y-17296472D02*
X5631015Y-17401234D01*
X6021491Y-17191710D02*
X5850063Y-17448853D01*
X6278634Y-17201234D02*
X6297682Y-17201234D01*
X6297682Y-17201234D02*
X6316729Y-17210758D01*
X6316729Y-17210758D02*
X6326253Y-17220281D01*
X6326253Y-17220281D02*
X6335777Y-17239329D01*
X6335777Y-17239329D02*
X6345301Y-17277424D01*
X6345301Y-17277424D02*
X6345301Y-17325043D01*
X6345301Y-17325043D02*
X6335777Y-17363139D01*
X6335777Y-17363139D02*
X6326253Y-17382186D01*
X6326253Y-17382186D02*
X6316729Y-17391710D01*
X6316729Y-17391710D02*
X6297682Y-17401234D01*
X6297682Y-17401234D02*
X6278634Y-17401234D01*
X6278634Y-17401234D02*
X6259586Y-17391710D01*
X6259586Y-17391710D02*
X6250063Y-17382186D01*
X6250063Y-17382186D02*
X6240539Y-17363139D01*
X6240539Y-17363139D02*
X6231015Y-17325043D01*
X6231015Y-17325043D02*
X6231015Y-17277424D01*
X6231015Y-17277424D02*
X6240539Y-17239329D01*
X6240539Y-17239329D02*
X6250063Y-17220281D01*
X6250063Y-17220281D02*
X6259586Y-17210758D01*
X6259586Y-17210758D02*
X6278634Y-17201234D01*
X6431015Y-17382186D02*
X6440539Y-17391710D01*
X6440539Y-17391710D02*
X6431015Y-17401234D01*
X6431015Y-17401234D02*
X6421491Y-17391710D01*
X6421491Y-17391710D02*
X6431015Y-17382186D01*
X6431015Y-17382186D02*
X6431015Y-17401234D01*
X6564348Y-17201234D02*
X6583396Y-17201234D01*
X6583396Y-17201234D02*
X6602444Y-17210758D01*
X6602444Y-17210758D02*
X6611967Y-17220281D01*
X6611967Y-17220281D02*
X6621491Y-17239329D01*
X6621491Y-17239329D02*
X6631015Y-17277424D01*
X6631015Y-17277424D02*
X6631015Y-17325043D01*
X6631015Y-17325043D02*
X6621491Y-17363139D01*
X6621491Y-17363139D02*
X6611967Y-17382186D01*
X6611967Y-17382186D02*
X6602444Y-17391710D01*
X6602444Y-17391710D02*
X6583396Y-17401234D01*
X6583396Y-17401234D02*
X6564348Y-17401234D01*
X6564348Y-17401234D02*
X6545301Y-17391710D01*
X6545301Y-17391710D02*
X6535777Y-17382186D01*
X6535777Y-17382186D02*
X6526253Y-17363139D01*
X6526253Y-17363139D02*
X6516729Y-17325043D01*
X6516729Y-17325043D02*
X6516729Y-17277424D01*
X6516729Y-17277424D02*
X6526253Y-17239329D01*
X6526253Y-17239329D02*
X6535777Y-17220281D01*
X6535777Y-17220281D02*
X6545301Y-17210758D01*
X6545301Y-17210758D02*
X6564348Y-17201234D01*
X6802444Y-17267900D02*
X6802444Y-17401234D01*
X6754825Y-17191710D02*
X6707206Y-17334567D01*
X6707206Y-17334567D02*
X6831015Y-17334567D01*
X6945301Y-17201234D02*
X6964348Y-17201234D01*
X6964348Y-17201234D02*
X6983396Y-17210758D01*
X6983396Y-17210758D02*
X6992920Y-17220281D01*
X6992920Y-17220281D02*
X7002444Y-17239329D01*
X7002444Y-17239329D02*
X7011967Y-17277424D01*
X7011967Y-17277424D02*
X7011967Y-17325043D01*
X7011967Y-17325043D02*
X7002444Y-17363139D01*
X7002444Y-17363139D02*
X6992920Y-17382186D01*
X6992920Y-17382186D02*
X6983396Y-17391710D01*
X6983396Y-17391710D02*
X6964348Y-17401234D01*
X6964348Y-17401234D02*
X6945301Y-17401234D01*
X6945301Y-17401234D02*
X6926253Y-17391710D01*
X6926253Y-17391710D02*
X6916729Y-17382186D01*
X6916729Y-17382186D02*
X6907206Y-17363139D01*
X6907206Y-17363139D02*
X6897682Y-17325043D01*
X6897682Y-17325043D02*
X6897682Y-17277424D01*
X6897682Y-17277424D02*
X6907206Y-17239329D01*
X6907206Y-17239329D02*
X6916729Y-17220281D01*
X6916729Y-17220281D02*
X6926253Y-17210758D01*
X6926253Y-17210758D02*
X6945301Y-17201234D01*
X7088158Y-17220281D02*
X7097682Y-17210758D01*
X7097682Y-17210758D02*
X7116729Y-17201234D01*
X7116729Y-17201234D02*
X7164348Y-17201234D01*
X7164348Y-17201234D02*
X7183396Y-17210758D01*
X7183396Y-17210758D02*
X7192920Y-17220281D01*
X7192920Y-17220281D02*
X7202444Y-17239329D01*
X7202444Y-17239329D02*
X7202444Y-17258377D01*
X7202444Y-17258377D02*
X7192920Y-17286948D01*
X7192920Y-17286948D02*
X7078634Y-17401234D01*
X7078634Y-17401234D02*
X7202444Y-17401234D01*
X7278634Y-17201234D02*
X7278634Y-17239329D01*
X7354825Y-17201234D02*
X7354825Y-17239329D01*
X7650063Y-17477424D02*
X7640539Y-17467900D01*
X7640539Y-17467900D02*
X7621491Y-17439329D01*
X7621491Y-17439329D02*
X7611968Y-17420281D01*
X7611968Y-17420281D02*
X7602444Y-17391710D01*
X7602444Y-17391710D02*
X7592920Y-17344091D01*
X7592920Y-17344091D02*
X7592920Y-17305996D01*
X7592920Y-17305996D02*
X7602444Y-17258377D01*
X7602444Y-17258377D02*
X7611968Y-17229805D01*
X7611968Y-17229805D02*
X7621491Y-17210758D01*
X7621491Y-17210758D02*
X7640539Y-17182186D01*
X7640539Y-17182186D02*
X7650063Y-17172662D01*
X7716729Y-17220281D02*
X7726253Y-17210758D01*
X7726253Y-17210758D02*
X7745301Y-17201234D01*
X7745301Y-17201234D02*
X7792920Y-17201234D01*
X7792920Y-17201234D02*
X7811968Y-17210758D01*
X7811968Y-17210758D02*
X7821491Y-17220281D01*
X7821491Y-17220281D02*
X7831015Y-17239329D01*
X7831015Y-17239329D02*
X7831015Y-17258377D01*
X7831015Y-17258377D02*
X7821491Y-17286948D01*
X7821491Y-17286948D02*
X7707206Y-17401234D01*
X7707206Y-17401234D02*
X7831015Y-17401234D01*
X8002444Y-17201234D02*
X7964348Y-17201234D01*
X7964348Y-17201234D02*
X7945301Y-17210758D01*
X7945301Y-17210758D02*
X7935777Y-17220281D01*
X7935777Y-17220281D02*
X7916729Y-17248853D01*
X7916729Y-17248853D02*
X7907206Y-17286948D01*
X7907206Y-17286948D02*
X7907206Y-17363139D01*
X7907206Y-17363139D02*
X7916729Y-17382186D01*
X7916729Y-17382186D02*
X7926253Y-17391710D01*
X7926253Y-17391710D02*
X7945301Y-17401234D01*
X7945301Y-17401234D02*
X7983396Y-17401234D01*
X7983396Y-17401234D02*
X8002444Y-17391710D01*
X8002444Y-17391710D02*
X8011968Y-17382186D01*
X8011968Y-17382186D02*
X8021491Y-17363139D01*
X8021491Y-17363139D02*
X8021491Y-17315520D01*
X8021491Y-17315520D02*
X8011968Y-17296472D01*
X8011968Y-17296472D02*
X8002444Y-17286948D01*
X8002444Y-17286948D02*
X7983396Y-17277424D01*
X7983396Y-17277424D02*
X7945301Y-17277424D01*
X7945301Y-17277424D02*
X7926253Y-17286948D01*
X7926253Y-17286948D02*
X7916729Y-17296472D01*
X7916729Y-17296472D02*
X7907206Y-17315520D01*
X8259587Y-17401234D02*
X8259587Y-17201234D01*
X8345301Y-17401234D02*
X8345301Y-17296472D01*
X8345301Y-17296472D02*
X8335777Y-17277424D01*
X8335777Y-17277424D02*
X8316730Y-17267900D01*
X8316730Y-17267900D02*
X8288158Y-17267900D01*
X8288158Y-17267900D02*
X8269110Y-17277424D01*
X8269110Y-17277424D02*
X8259587Y-17286948D01*
X8469111Y-17401234D02*
X8450063Y-17391710D01*
X8450063Y-17391710D02*
X8440539Y-17382186D01*
X8440539Y-17382186D02*
X8431015Y-17363139D01*
X8431015Y-17363139D02*
X8431015Y-17305996D01*
X8431015Y-17305996D02*
X8440539Y-17286948D01*
X8440539Y-17286948D02*
X8450063Y-17277424D01*
X8450063Y-17277424D02*
X8469111Y-17267900D01*
X8469111Y-17267900D02*
X8497682Y-17267900D01*
X8497682Y-17267900D02*
X8516730Y-17277424D01*
X8516730Y-17277424D02*
X8526253Y-17286948D01*
X8526253Y-17286948D02*
X8535777Y-17305996D01*
X8535777Y-17305996D02*
X8535777Y-17363139D01*
X8535777Y-17363139D02*
X8526253Y-17382186D01*
X8526253Y-17382186D02*
X8516730Y-17391710D01*
X8516730Y-17391710D02*
X8497682Y-17401234D01*
X8497682Y-17401234D02*
X8469111Y-17401234D01*
X8650063Y-17401234D02*
X8631015Y-17391710D01*
X8631015Y-17391710D02*
X8621492Y-17372662D01*
X8621492Y-17372662D02*
X8621492Y-17201234D01*
X8802444Y-17391710D02*
X8783396Y-17401234D01*
X8783396Y-17401234D02*
X8745301Y-17401234D01*
X8745301Y-17401234D02*
X8726253Y-17391710D01*
X8726253Y-17391710D02*
X8716730Y-17372662D01*
X8716730Y-17372662D02*
X8716730Y-17296472D01*
X8716730Y-17296472D02*
X8726253Y-17277424D01*
X8726253Y-17277424D02*
X8745301Y-17267900D01*
X8745301Y-17267900D02*
X8783396Y-17267900D01*
X8783396Y-17267900D02*
X8802444Y-17277424D01*
X8802444Y-17277424D02*
X8811968Y-17296472D01*
X8811968Y-17296472D02*
X8811968Y-17315520D01*
X8811968Y-17315520D02*
X8716730Y-17334567D01*
X8888158Y-17391710D02*
X8907206Y-17401234D01*
X8907206Y-17401234D02*
X8945301Y-17401234D01*
X8945301Y-17401234D02*
X8964349Y-17391710D01*
X8964349Y-17391710D02*
X8973873Y-17372662D01*
X8973873Y-17372662D02*
X8973873Y-17363139D01*
X8973873Y-17363139D02*
X8964349Y-17344091D01*
X8964349Y-17344091D02*
X8945301Y-17334567D01*
X8945301Y-17334567D02*
X8916730Y-17334567D01*
X8916730Y-17334567D02*
X8897682Y-17325043D01*
X8897682Y-17325043D02*
X8888158Y-17305996D01*
X8888158Y-17305996D02*
X8888158Y-17296472D01*
X8888158Y-17296472D02*
X8897682Y-17277424D01*
X8897682Y-17277424D02*
X8916730Y-17267900D01*
X8916730Y-17267900D02*
X8945301Y-17267900D01*
X8945301Y-17267900D02*
X8964349Y-17277424D01*
X9040539Y-17477424D02*
X9050063Y-17467900D01*
X9050063Y-17467900D02*
X9069111Y-17439329D01*
X9069111Y-17439329D02*
X9078634Y-17420281D01*
X9078634Y-17420281D02*
X9088158Y-17391710D01*
X9088158Y-17391710D02*
X9097682Y-17344091D01*
X9097682Y-17344091D02*
X9097682Y-17305996D01*
X9097682Y-17305996D02*
X9088158Y-17258377D01*
X9088158Y-17258377D02*
X9078634Y-17229805D01*
X9078634Y-17229805D02*
X9069111Y-17210758D01*
X9069111Y-17210758D02*
X9050063Y-17182186D01*
X9050063Y-17182186D02*
X9040539Y-17172662D01*
D18*
X3945000Y-17508750D02*
X4075000Y-17638750D01*
X4075000Y-17508750D02*
X3945000Y-17638750D01*
X4010000Y-17508750D02*
X4010000Y-17638750D01*
X3945000Y-17573750D02*
X4075000Y-17573750D01*
D12*
X4440539Y-17665234D02*
X4326253Y-17665234D01*
X4383396Y-17665234D02*
X4383396Y-17465234D01*
X4383396Y-17465234D02*
X4364348Y-17493805D01*
X4364348Y-17493805D02*
X4345301Y-17512853D01*
X4345301Y-17512853D02*
X4326253Y-17522377D01*
X4526253Y-17646186D02*
X4535777Y-17655710D01*
X4535777Y-17655710D02*
X4526253Y-17665234D01*
X4526253Y-17665234D02*
X4516729Y-17655710D01*
X4516729Y-17655710D02*
X4526253Y-17646186D01*
X4526253Y-17646186D02*
X4526253Y-17665234D01*
X4602444Y-17465234D02*
X4726253Y-17465234D01*
X4726253Y-17465234D02*
X4659586Y-17541424D01*
X4659586Y-17541424D02*
X4688158Y-17541424D01*
X4688158Y-17541424D02*
X4707205Y-17550948D01*
X4707205Y-17550948D02*
X4716729Y-17560472D01*
X4716729Y-17560472D02*
X4726253Y-17579520D01*
X4726253Y-17579520D02*
X4726253Y-17627139D01*
X4726253Y-17627139D02*
X4716729Y-17646186D01*
X4716729Y-17646186D02*
X4707205Y-17655710D01*
X4707205Y-17655710D02*
X4688158Y-17665234D01*
X4688158Y-17665234D02*
X4631015Y-17665234D01*
X4631015Y-17665234D02*
X4611967Y-17655710D01*
X4611967Y-17655710D02*
X4602444Y-17646186D01*
X4850063Y-17465234D02*
X4869110Y-17465234D01*
X4869110Y-17465234D02*
X4888158Y-17474758D01*
X4888158Y-17474758D02*
X4897682Y-17484281D01*
X4897682Y-17484281D02*
X4907205Y-17503329D01*
X4907205Y-17503329D02*
X4916729Y-17541424D01*
X4916729Y-17541424D02*
X4916729Y-17589043D01*
X4916729Y-17589043D02*
X4907205Y-17627139D01*
X4907205Y-17627139D02*
X4897682Y-17646186D01*
X4897682Y-17646186D02*
X4888158Y-17655710D01*
X4888158Y-17655710D02*
X4869110Y-17665234D01*
X4869110Y-17665234D02*
X4850063Y-17665234D01*
X4850063Y-17665234D02*
X4831015Y-17655710D01*
X4831015Y-17655710D02*
X4821491Y-17646186D01*
X4821491Y-17646186D02*
X4811967Y-17627139D01*
X4811967Y-17627139D02*
X4802444Y-17589043D01*
X4802444Y-17589043D02*
X4802444Y-17541424D01*
X4802444Y-17541424D02*
X4811967Y-17503329D01*
X4811967Y-17503329D02*
X4821491Y-17484281D01*
X4821491Y-17484281D02*
X4831015Y-17474758D01*
X4831015Y-17474758D02*
X4850063Y-17465234D01*
X5040539Y-17465234D02*
X5059586Y-17465234D01*
X5059586Y-17465234D02*
X5078634Y-17474758D01*
X5078634Y-17474758D02*
X5088158Y-17484281D01*
X5088158Y-17484281D02*
X5097682Y-17503329D01*
X5097682Y-17503329D02*
X5107205Y-17541424D01*
X5107205Y-17541424D02*
X5107205Y-17589043D01*
X5107205Y-17589043D02*
X5097682Y-17627139D01*
X5097682Y-17627139D02*
X5088158Y-17646186D01*
X5088158Y-17646186D02*
X5078634Y-17655710D01*
X5078634Y-17655710D02*
X5059586Y-17665234D01*
X5059586Y-17665234D02*
X5040539Y-17665234D01*
X5040539Y-17665234D02*
X5021491Y-17655710D01*
X5021491Y-17655710D02*
X5011967Y-17646186D01*
X5011967Y-17646186D02*
X5002444Y-17627139D01*
X5002444Y-17627139D02*
X4992920Y-17589043D01*
X4992920Y-17589043D02*
X4992920Y-17541424D01*
X4992920Y-17541424D02*
X5002444Y-17503329D01*
X5002444Y-17503329D02*
X5011967Y-17484281D01*
X5011967Y-17484281D02*
X5021491Y-17474758D01*
X5021491Y-17474758D02*
X5040539Y-17465234D01*
X5192920Y-17665234D02*
X5192920Y-17531900D01*
X5192920Y-17550948D02*
X5202444Y-17541424D01*
X5202444Y-17541424D02*
X5221491Y-17531900D01*
X5221491Y-17531900D02*
X5250063Y-17531900D01*
X5250063Y-17531900D02*
X5269110Y-17541424D01*
X5269110Y-17541424D02*
X5278634Y-17560472D01*
X5278634Y-17560472D02*
X5278634Y-17665234D01*
X5278634Y-17560472D02*
X5288158Y-17541424D01*
X5288158Y-17541424D02*
X5307205Y-17531900D01*
X5307205Y-17531900D02*
X5335777Y-17531900D01*
X5335777Y-17531900D02*
X5354825Y-17541424D01*
X5354825Y-17541424D02*
X5364348Y-17560472D01*
X5364348Y-17560472D02*
X5364348Y-17665234D01*
X5459586Y-17665234D02*
X5459586Y-17531900D01*
X5459586Y-17550948D02*
X5469110Y-17541424D01*
X5469110Y-17541424D02*
X5488158Y-17531900D01*
X5488158Y-17531900D02*
X5516729Y-17531900D01*
X5516729Y-17531900D02*
X5535777Y-17541424D01*
X5535777Y-17541424D02*
X5545301Y-17560472D01*
X5545301Y-17560472D02*
X5545301Y-17665234D01*
X5545301Y-17560472D02*
X5554825Y-17541424D01*
X5554825Y-17541424D02*
X5573872Y-17531900D01*
X5573872Y-17531900D02*
X5602443Y-17531900D01*
X5602443Y-17531900D02*
X5621491Y-17541424D01*
X5621491Y-17541424D02*
X5631015Y-17560472D01*
X5631015Y-17560472D02*
X5631015Y-17665234D01*
X6021491Y-17455710D02*
X5850063Y-17712853D01*
X6278634Y-17465234D02*
X6297682Y-17465234D01*
X6297682Y-17465234D02*
X6316729Y-17474758D01*
X6316729Y-17474758D02*
X6326253Y-17484281D01*
X6326253Y-17484281D02*
X6335777Y-17503329D01*
X6335777Y-17503329D02*
X6345301Y-17541424D01*
X6345301Y-17541424D02*
X6345301Y-17589043D01*
X6345301Y-17589043D02*
X6335777Y-17627139D01*
X6335777Y-17627139D02*
X6326253Y-17646186D01*
X6326253Y-17646186D02*
X6316729Y-17655710D01*
X6316729Y-17655710D02*
X6297682Y-17665234D01*
X6297682Y-17665234D02*
X6278634Y-17665234D01*
X6278634Y-17665234D02*
X6259586Y-17655710D01*
X6259586Y-17655710D02*
X6250063Y-17646186D01*
X6250063Y-17646186D02*
X6240539Y-17627139D01*
X6240539Y-17627139D02*
X6231015Y-17589043D01*
X6231015Y-17589043D02*
X6231015Y-17541424D01*
X6231015Y-17541424D02*
X6240539Y-17503329D01*
X6240539Y-17503329D02*
X6250063Y-17484281D01*
X6250063Y-17484281D02*
X6259586Y-17474758D01*
X6259586Y-17474758D02*
X6278634Y-17465234D01*
X6431015Y-17646186D02*
X6440539Y-17655710D01*
X6440539Y-17655710D02*
X6431015Y-17665234D01*
X6431015Y-17665234D02*
X6421491Y-17655710D01*
X6421491Y-17655710D02*
X6431015Y-17646186D01*
X6431015Y-17646186D02*
X6431015Y-17665234D01*
X6564348Y-17465234D02*
X6583396Y-17465234D01*
X6583396Y-17465234D02*
X6602444Y-17474758D01*
X6602444Y-17474758D02*
X6611967Y-17484281D01*
X6611967Y-17484281D02*
X6621491Y-17503329D01*
X6621491Y-17503329D02*
X6631015Y-17541424D01*
X6631015Y-17541424D02*
X6631015Y-17589043D01*
X6631015Y-17589043D02*
X6621491Y-17627139D01*
X6621491Y-17627139D02*
X6611967Y-17646186D01*
X6611967Y-17646186D02*
X6602444Y-17655710D01*
X6602444Y-17655710D02*
X6583396Y-17665234D01*
X6583396Y-17665234D02*
X6564348Y-17665234D01*
X6564348Y-17665234D02*
X6545301Y-17655710D01*
X6545301Y-17655710D02*
X6535777Y-17646186D01*
X6535777Y-17646186D02*
X6526253Y-17627139D01*
X6526253Y-17627139D02*
X6516729Y-17589043D01*
X6516729Y-17589043D02*
X6516729Y-17541424D01*
X6516729Y-17541424D02*
X6526253Y-17503329D01*
X6526253Y-17503329D02*
X6535777Y-17484281D01*
X6535777Y-17484281D02*
X6545301Y-17474758D01*
X6545301Y-17474758D02*
X6564348Y-17465234D01*
X6811967Y-17465234D02*
X6716729Y-17465234D01*
X6716729Y-17465234D02*
X6707206Y-17560472D01*
X6707206Y-17560472D02*
X6716729Y-17550948D01*
X6716729Y-17550948D02*
X6735777Y-17541424D01*
X6735777Y-17541424D02*
X6783396Y-17541424D01*
X6783396Y-17541424D02*
X6802444Y-17550948D01*
X6802444Y-17550948D02*
X6811967Y-17560472D01*
X6811967Y-17560472D02*
X6821491Y-17579520D01*
X6821491Y-17579520D02*
X6821491Y-17627139D01*
X6821491Y-17627139D02*
X6811967Y-17646186D01*
X6811967Y-17646186D02*
X6802444Y-17655710D01*
X6802444Y-17655710D02*
X6783396Y-17665234D01*
X6783396Y-17665234D02*
X6735777Y-17665234D01*
X6735777Y-17665234D02*
X6716729Y-17655710D01*
X6716729Y-17655710D02*
X6707206Y-17646186D01*
X7011967Y-17665234D02*
X6897682Y-17665234D01*
X6954825Y-17665234D02*
X6954825Y-17465234D01*
X6954825Y-17465234D02*
X6935777Y-17493805D01*
X6935777Y-17493805D02*
X6916729Y-17512853D01*
X6916729Y-17512853D02*
X6897682Y-17522377D01*
X7088158Y-17484281D02*
X7097682Y-17474758D01*
X7097682Y-17474758D02*
X7116729Y-17465234D01*
X7116729Y-17465234D02*
X7164348Y-17465234D01*
X7164348Y-17465234D02*
X7183396Y-17474758D01*
X7183396Y-17474758D02*
X7192920Y-17484281D01*
X7192920Y-17484281D02*
X7202444Y-17503329D01*
X7202444Y-17503329D02*
X7202444Y-17522377D01*
X7202444Y-17522377D02*
X7192920Y-17550948D01*
X7192920Y-17550948D02*
X7078634Y-17665234D01*
X7078634Y-17665234D02*
X7202444Y-17665234D01*
X7278634Y-17465234D02*
X7278634Y-17503329D01*
X7354825Y-17465234D02*
X7354825Y-17503329D01*
X7650063Y-17741424D02*
X7640539Y-17731900D01*
X7640539Y-17731900D02*
X7621491Y-17703329D01*
X7621491Y-17703329D02*
X7611968Y-17684281D01*
X7611968Y-17684281D02*
X7602444Y-17655710D01*
X7602444Y-17655710D02*
X7592920Y-17608091D01*
X7592920Y-17608091D02*
X7592920Y-17569996D01*
X7592920Y-17569996D02*
X7602444Y-17522377D01*
X7602444Y-17522377D02*
X7611968Y-17493805D01*
X7611968Y-17493805D02*
X7621491Y-17474758D01*
X7621491Y-17474758D02*
X7640539Y-17446186D01*
X7640539Y-17446186D02*
X7650063Y-17436662D01*
X7754825Y-17550948D02*
X7735777Y-17541424D01*
X7735777Y-17541424D02*
X7726253Y-17531900D01*
X7726253Y-17531900D02*
X7716729Y-17512853D01*
X7716729Y-17512853D02*
X7716729Y-17503329D01*
X7716729Y-17503329D02*
X7726253Y-17484281D01*
X7726253Y-17484281D02*
X7735777Y-17474758D01*
X7735777Y-17474758D02*
X7754825Y-17465234D01*
X7754825Y-17465234D02*
X7792920Y-17465234D01*
X7792920Y-17465234D02*
X7811968Y-17474758D01*
X7811968Y-17474758D02*
X7821491Y-17484281D01*
X7821491Y-17484281D02*
X7831015Y-17503329D01*
X7831015Y-17503329D02*
X7831015Y-17512853D01*
X7831015Y-17512853D02*
X7821491Y-17531900D01*
X7821491Y-17531900D02*
X7811968Y-17541424D01*
X7811968Y-17541424D02*
X7792920Y-17550948D01*
X7792920Y-17550948D02*
X7754825Y-17550948D01*
X7754825Y-17550948D02*
X7735777Y-17560472D01*
X7735777Y-17560472D02*
X7726253Y-17569996D01*
X7726253Y-17569996D02*
X7716729Y-17589043D01*
X7716729Y-17589043D02*
X7716729Y-17627139D01*
X7716729Y-17627139D02*
X7726253Y-17646186D01*
X7726253Y-17646186D02*
X7735777Y-17655710D01*
X7735777Y-17655710D02*
X7754825Y-17665234D01*
X7754825Y-17665234D02*
X7792920Y-17665234D01*
X7792920Y-17665234D02*
X7811968Y-17655710D01*
X7811968Y-17655710D02*
X7821491Y-17646186D01*
X7821491Y-17646186D02*
X7831015Y-17627139D01*
X7831015Y-17627139D02*
X7831015Y-17589043D01*
X7831015Y-17589043D02*
X7821491Y-17569996D01*
X7821491Y-17569996D02*
X7811968Y-17560472D01*
X7811968Y-17560472D02*
X7792920Y-17550948D01*
X8069110Y-17665234D02*
X8069110Y-17465234D01*
X8154825Y-17665234D02*
X8154825Y-17560472D01*
X8154825Y-17560472D02*
X8145301Y-17541424D01*
X8145301Y-17541424D02*
X8126253Y-17531900D01*
X8126253Y-17531900D02*
X8097682Y-17531900D01*
X8097682Y-17531900D02*
X8078634Y-17541424D01*
X8078634Y-17541424D02*
X8069110Y-17550948D01*
X8278634Y-17665234D02*
X8259587Y-17655710D01*
X8259587Y-17655710D02*
X8250063Y-17646186D01*
X8250063Y-17646186D02*
X8240539Y-17627139D01*
X8240539Y-17627139D02*
X8240539Y-17569996D01*
X8240539Y-17569996D02*
X8250063Y-17550948D01*
X8250063Y-17550948D02*
X8259587Y-17541424D01*
X8259587Y-17541424D02*
X8278634Y-17531900D01*
X8278634Y-17531900D02*
X8307206Y-17531900D01*
X8307206Y-17531900D02*
X8326253Y-17541424D01*
X8326253Y-17541424D02*
X8335777Y-17550948D01*
X8335777Y-17550948D02*
X8345301Y-17569996D01*
X8345301Y-17569996D02*
X8345301Y-17627139D01*
X8345301Y-17627139D02*
X8335777Y-17646186D01*
X8335777Y-17646186D02*
X8326253Y-17655710D01*
X8326253Y-17655710D02*
X8307206Y-17665234D01*
X8307206Y-17665234D02*
X8278634Y-17665234D01*
X8459587Y-17665234D02*
X8440539Y-17655710D01*
X8440539Y-17655710D02*
X8431015Y-17636662D01*
X8431015Y-17636662D02*
X8431015Y-17465234D01*
X8611968Y-17655710D02*
X8592920Y-17665234D01*
X8592920Y-17665234D02*
X8554825Y-17665234D01*
X8554825Y-17665234D02*
X8535777Y-17655710D01*
X8535777Y-17655710D02*
X8526253Y-17636662D01*
X8526253Y-17636662D02*
X8526253Y-17560472D01*
X8526253Y-17560472D02*
X8535777Y-17541424D01*
X8535777Y-17541424D02*
X8554825Y-17531900D01*
X8554825Y-17531900D02*
X8592920Y-17531900D01*
X8592920Y-17531900D02*
X8611968Y-17541424D01*
X8611968Y-17541424D02*
X8621492Y-17560472D01*
X8621492Y-17560472D02*
X8621492Y-17579520D01*
X8621492Y-17579520D02*
X8526253Y-17598567D01*
X8697682Y-17655710D02*
X8716730Y-17665234D01*
X8716730Y-17665234D02*
X8754825Y-17665234D01*
X8754825Y-17665234D02*
X8773873Y-17655710D01*
X8773873Y-17655710D02*
X8783396Y-17636662D01*
X8783396Y-17636662D02*
X8783396Y-17627139D01*
X8783396Y-17627139D02*
X8773873Y-17608091D01*
X8773873Y-17608091D02*
X8754825Y-17598567D01*
X8754825Y-17598567D02*
X8726253Y-17598567D01*
X8726253Y-17598567D02*
X8707206Y-17589043D01*
X8707206Y-17589043D02*
X8697682Y-17569996D01*
X8697682Y-17569996D02*
X8697682Y-17560472D01*
X8697682Y-17560472D02*
X8707206Y-17541424D01*
X8707206Y-17541424D02*
X8726253Y-17531900D01*
X8726253Y-17531900D02*
X8754825Y-17531900D01*
X8754825Y-17531900D02*
X8773873Y-17541424D01*
X8850063Y-17741424D02*
X8859587Y-17731900D01*
X8859587Y-17731900D02*
X8878634Y-17703329D01*
X8878634Y-17703329D02*
X8888158Y-17684281D01*
X8888158Y-17684281D02*
X8897682Y-17655710D01*
X8897682Y-17655710D02*
X8907206Y-17608091D01*
X8907206Y-17608091D02*
X8907206Y-17569996D01*
X8907206Y-17569996D02*
X8897682Y-17522377D01*
X8897682Y-17522377D02*
X8888158Y-17493805D01*
X8888158Y-17493805D02*
X8878634Y-17474758D01*
X8878634Y-17474758D02*
X8859587Y-17446186D01*
X8859587Y-17446186D02*
X8850063Y-17436662D01*
D19*
X3926000Y-17763250D02*
X4075000Y-17912250D01*
X4075000Y-17763250D02*
X3926000Y-17912250D01*
X4053180Y-17890430D02*
X4053180Y-17785070D01*
X3947820Y-17785070D01*
X3947820Y-17890430D01*
X4053180Y-17890430D01*
D12*
X4440539Y-17929234D02*
X4326253Y-17929234D01*
X4383396Y-17929234D02*
X4383396Y-17729234D01*
X4383396Y-17729234D02*
X4364348Y-17757805D01*
X4364348Y-17757805D02*
X4345301Y-17776853D01*
X4345301Y-17776853D02*
X4326253Y-17786377D01*
X4526253Y-17910186D02*
X4535777Y-17919710D01*
X4535777Y-17919710D02*
X4526253Y-17929234D01*
X4526253Y-17929234D02*
X4516729Y-17919710D01*
X4516729Y-17919710D02*
X4526253Y-17910186D01*
X4526253Y-17910186D02*
X4526253Y-17929234D01*
X4707205Y-17795900D02*
X4707205Y-17929234D01*
X4659586Y-17719710D02*
X4611967Y-17862567D01*
X4611967Y-17862567D02*
X4735777Y-17862567D01*
X4821491Y-17929234D02*
X4859586Y-17929234D01*
X4859586Y-17929234D02*
X4878634Y-17919710D01*
X4878634Y-17919710D02*
X4888158Y-17910186D01*
X4888158Y-17910186D02*
X4907205Y-17881615D01*
X4907205Y-17881615D02*
X4916729Y-17843520D01*
X4916729Y-17843520D02*
X4916729Y-17767329D01*
X4916729Y-17767329D02*
X4907205Y-17748281D01*
X4907205Y-17748281D02*
X4897682Y-17738758D01*
X4897682Y-17738758D02*
X4878634Y-17729234D01*
X4878634Y-17729234D02*
X4840539Y-17729234D01*
X4840539Y-17729234D02*
X4821491Y-17738758D01*
X4821491Y-17738758D02*
X4811967Y-17748281D01*
X4811967Y-17748281D02*
X4802444Y-17767329D01*
X4802444Y-17767329D02*
X4802444Y-17814948D01*
X4802444Y-17814948D02*
X4811967Y-17833996D01*
X4811967Y-17833996D02*
X4821491Y-17843520D01*
X4821491Y-17843520D02*
X4840539Y-17853043D01*
X4840539Y-17853043D02*
X4878634Y-17853043D01*
X4878634Y-17853043D02*
X4897682Y-17843520D01*
X4897682Y-17843520D02*
X4907205Y-17833996D01*
X4907205Y-17833996D02*
X4916729Y-17814948D01*
X5040539Y-17729234D02*
X5059586Y-17729234D01*
X5059586Y-17729234D02*
X5078634Y-17738758D01*
X5078634Y-17738758D02*
X5088158Y-17748281D01*
X5088158Y-17748281D02*
X5097682Y-17767329D01*
X5097682Y-17767329D02*
X5107205Y-17805424D01*
X5107205Y-17805424D02*
X5107205Y-17853043D01*
X5107205Y-17853043D02*
X5097682Y-17891139D01*
X5097682Y-17891139D02*
X5088158Y-17910186D01*
X5088158Y-17910186D02*
X5078634Y-17919710D01*
X5078634Y-17919710D02*
X5059586Y-17929234D01*
X5059586Y-17929234D02*
X5040539Y-17929234D01*
X5040539Y-17929234D02*
X5021491Y-17919710D01*
X5021491Y-17919710D02*
X5011967Y-17910186D01*
X5011967Y-17910186D02*
X5002444Y-17891139D01*
X5002444Y-17891139D02*
X4992920Y-17853043D01*
X4992920Y-17853043D02*
X4992920Y-17805424D01*
X4992920Y-17805424D02*
X5002444Y-17767329D01*
X5002444Y-17767329D02*
X5011967Y-17748281D01*
X5011967Y-17748281D02*
X5021491Y-17738758D01*
X5021491Y-17738758D02*
X5040539Y-17729234D01*
X5192920Y-17929234D02*
X5192920Y-17795900D01*
X5192920Y-17814948D02*
X5202444Y-17805424D01*
X5202444Y-17805424D02*
X5221491Y-17795900D01*
X5221491Y-17795900D02*
X5250063Y-17795900D01*
X5250063Y-17795900D02*
X5269110Y-17805424D01*
X5269110Y-17805424D02*
X5278634Y-17824472D01*
X5278634Y-17824472D02*
X5278634Y-17929234D01*
X5278634Y-17824472D02*
X5288158Y-17805424D01*
X5288158Y-17805424D02*
X5307205Y-17795900D01*
X5307205Y-17795900D02*
X5335777Y-17795900D01*
X5335777Y-17795900D02*
X5354825Y-17805424D01*
X5354825Y-17805424D02*
X5364348Y-17824472D01*
X5364348Y-17824472D02*
X5364348Y-17929234D01*
X5459586Y-17929234D02*
X5459586Y-17795900D01*
X5459586Y-17814948D02*
X5469110Y-17805424D01*
X5469110Y-17805424D02*
X5488158Y-17795900D01*
X5488158Y-17795900D02*
X5516729Y-17795900D01*
X5516729Y-17795900D02*
X5535777Y-17805424D01*
X5535777Y-17805424D02*
X5545301Y-17824472D01*
X5545301Y-17824472D02*
X5545301Y-17929234D01*
X5545301Y-17824472D02*
X5554825Y-17805424D01*
X5554825Y-17805424D02*
X5573872Y-17795900D01*
X5573872Y-17795900D02*
X5602443Y-17795900D01*
X5602443Y-17795900D02*
X5621491Y-17805424D01*
X5621491Y-17805424D02*
X5631015Y-17824472D01*
X5631015Y-17824472D02*
X5631015Y-17929234D01*
X6021491Y-17719710D02*
X5850063Y-17976853D01*
X6278634Y-17729234D02*
X6297682Y-17729234D01*
X6297682Y-17729234D02*
X6316729Y-17738758D01*
X6316729Y-17738758D02*
X6326253Y-17748281D01*
X6326253Y-17748281D02*
X6335777Y-17767329D01*
X6335777Y-17767329D02*
X6345301Y-17805424D01*
X6345301Y-17805424D02*
X6345301Y-17853043D01*
X6345301Y-17853043D02*
X6335777Y-17891139D01*
X6335777Y-17891139D02*
X6326253Y-17910186D01*
X6326253Y-17910186D02*
X6316729Y-17919710D01*
X6316729Y-17919710D02*
X6297682Y-17929234D01*
X6297682Y-17929234D02*
X6278634Y-17929234D01*
X6278634Y-17929234D02*
X6259586Y-17919710D01*
X6259586Y-17919710D02*
X6250063Y-17910186D01*
X6250063Y-17910186D02*
X6240539Y-17891139D01*
X6240539Y-17891139D02*
X6231015Y-17853043D01*
X6231015Y-17853043D02*
X6231015Y-17805424D01*
X6231015Y-17805424D02*
X6240539Y-17767329D01*
X6240539Y-17767329D02*
X6250063Y-17748281D01*
X6250063Y-17748281D02*
X6259586Y-17738758D01*
X6259586Y-17738758D02*
X6278634Y-17729234D01*
X6431015Y-17910186D02*
X6440539Y-17919710D01*
X6440539Y-17919710D02*
X6431015Y-17929234D01*
X6431015Y-17929234D02*
X6421491Y-17919710D01*
X6421491Y-17919710D02*
X6431015Y-17910186D01*
X6431015Y-17910186D02*
X6431015Y-17929234D01*
X6564348Y-17729234D02*
X6583396Y-17729234D01*
X6583396Y-17729234D02*
X6602444Y-17738758D01*
X6602444Y-17738758D02*
X6611967Y-17748281D01*
X6611967Y-17748281D02*
X6621491Y-17767329D01*
X6621491Y-17767329D02*
X6631015Y-17805424D01*
X6631015Y-17805424D02*
X6631015Y-17853043D01*
X6631015Y-17853043D02*
X6621491Y-17891139D01*
X6621491Y-17891139D02*
X6611967Y-17910186D01*
X6611967Y-17910186D02*
X6602444Y-17919710D01*
X6602444Y-17919710D02*
X6583396Y-17929234D01*
X6583396Y-17929234D02*
X6564348Y-17929234D01*
X6564348Y-17929234D02*
X6545301Y-17919710D01*
X6545301Y-17919710D02*
X6535777Y-17910186D01*
X6535777Y-17910186D02*
X6526253Y-17891139D01*
X6526253Y-17891139D02*
X6516729Y-17853043D01*
X6516729Y-17853043D02*
X6516729Y-17805424D01*
X6516729Y-17805424D02*
X6526253Y-17767329D01*
X6526253Y-17767329D02*
X6535777Y-17748281D01*
X6535777Y-17748281D02*
X6545301Y-17738758D01*
X6545301Y-17738758D02*
X6564348Y-17729234D01*
X6811967Y-17729234D02*
X6716729Y-17729234D01*
X6716729Y-17729234D02*
X6707206Y-17824472D01*
X6707206Y-17824472D02*
X6716729Y-17814948D01*
X6716729Y-17814948D02*
X6735777Y-17805424D01*
X6735777Y-17805424D02*
X6783396Y-17805424D01*
X6783396Y-17805424D02*
X6802444Y-17814948D01*
X6802444Y-17814948D02*
X6811967Y-17824472D01*
X6811967Y-17824472D02*
X6821491Y-17843520D01*
X6821491Y-17843520D02*
X6821491Y-17891139D01*
X6821491Y-17891139D02*
X6811967Y-17910186D01*
X6811967Y-17910186D02*
X6802444Y-17919710D01*
X6802444Y-17919710D02*
X6783396Y-17929234D01*
X6783396Y-17929234D02*
X6735777Y-17929234D01*
X6735777Y-17929234D02*
X6716729Y-17919710D01*
X6716729Y-17919710D02*
X6707206Y-17910186D01*
X6935777Y-17814948D02*
X6916729Y-17805424D01*
X6916729Y-17805424D02*
X6907206Y-17795900D01*
X6907206Y-17795900D02*
X6897682Y-17776853D01*
X6897682Y-17776853D02*
X6897682Y-17767329D01*
X6897682Y-17767329D02*
X6907206Y-17748281D01*
X6907206Y-17748281D02*
X6916729Y-17738758D01*
X6916729Y-17738758D02*
X6935777Y-17729234D01*
X6935777Y-17729234D02*
X6973872Y-17729234D01*
X6973872Y-17729234D02*
X6992920Y-17738758D01*
X6992920Y-17738758D02*
X7002444Y-17748281D01*
X7002444Y-17748281D02*
X7011967Y-17767329D01*
X7011967Y-17767329D02*
X7011967Y-17776853D01*
X7011967Y-17776853D02*
X7002444Y-17795900D01*
X7002444Y-17795900D02*
X6992920Y-17805424D01*
X6992920Y-17805424D02*
X6973872Y-17814948D01*
X6973872Y-17814948D02*
X6935777Y-17814948D01*
X6935777Y-17814948D02*
X6916729Y-17824472D01*
X6916729Y-17824472D02*
X6907206Y-17833996D01*
X6907206Y-17833996D02*
X6897682Y-17853043D01*
X6897682Y-17853043D02*
X6897682Y-17891139D01*
X6897682Y-17891139D02*
X6907206Y-17910186D01*
X6907206Y-17910186D02*
X6916729Y-17919710D01*
X6916729Y-17919710D02*
X6935777Y-17929234D01*
X6935777Y-17929234D02*
X6973872Y-17929234D01*
X6973872Y-17929234D02*
X6992920Y-17919710D01*
X6992920Y-17919710D02*
X7002444Y-17910186D01*
X7002444Y-17910186D02*
X7011967Y-17891139D01*
X7011967Y-17891139D02*
X7011967Y-17853043D01*
X7011967Y-17853043D02*
X7002444Y-17833996D01*
X7002444Y-17833996D02*
X6992920Y-17824472D01*
X6992920Y-17824472D02*
X6973872Y-17814948D01*
X7078634Y-17729234D02*
X7211967Y-17729234D01*
X7211967Y-17729234D02*
X7126253Y-17929234D01*
X7278634Y-17729234D02*
X7278634Y-17767329D01*
X7354825Y-17729234D02*
X7354825Y-17767329D01*
X7650063Y-18005424D02*
X7640539Y-17995900D01*
X7640539Y-17995900D02*
X7621491Y-17967329D01*
X7621491Y-17967329D02*
X7611968Y-17948281D01*
X7611968Y-17948281D02*
X7602444Y-17919710D01*
X7602444Y-17919710D02*
X7592920Y-17872091D01*
X7592920Y-17872091D02*
X7592920Y-17833996D01*
X7592920Y-17833996D02*
X7602444Y-17786377D01*
X7602444Y-17786377D02*
X7611968Y-17757805D01*
X7611968Y-17757805D02*
X7621491Y-17738758D01*
X7621491Y-17738758D02*
X7640539Y-17710186D01*
X7640539Y-17710186D02*
X7650063Y-17700662D01*
X7811968Y-17795900D02*
X7811968Y-17929234D01*
X7764348Y-17719710D02*
X7716729Y-17862567D01*
X7716729Y-17862567D02*
X7840539Y-17862567D01*
X8069110Y-17929234D02*
X8069110Y-17729234D01*
X8154825Y-17929234D02*
X8154825Y-17824472D01*
X8154825Y-17824472D02*
X8145301Y-17805424D01*
X8145301Y-17805424D02*
X8126253Y-17795900D01*
X8126253Y-17795900D02*
X8097682Y-17795900D01*
X8097682Y-17795900D02*
X8078634Y-17805424D01*
X8078634Y-17805424D02*
X8069110Y-17814948D01*
X8278634Y-17929234D02*
X8259587Y-17919710D01*
X8259587Y-17919710D02*
X8250063Y-17910186D01*
X8250063Y-17910186D02*
X8240539Y-17891139D01*
X8240539Y-17891139D02*
X8240539Y-17833996D01*
X8240539Y-17833996D02*
X8250063Y-17814948D01*
X8250063Y-17814948D02*
X8259587Y-17805424D01*
X8259587Y-17805424D02*
X8278634Y-17795900D01*
X8278634Y-17795900D02*
X8307206Y-17795900D01*
X8307206Y-17795900D02*
X8326253Y-17805424D01*
X8326253Y-17805424D02*
X8335777Y-17814948D01*
X8335777Y-17814948D02*
X8345301Y-17833996D01*
X8345301Y-17833996D02*
X8345301Y-17891139D01*
X8345301Y-17891139D02*
X8335777Y-17910186D01*
X8335777Y-17910186D02*
X8326253Y-17919710D01*
X8326253Y-17919710D02*
X8307206Y-17929234D01*
X8307206Y-17929234D02*
X8278634Y-17929234D01*
X8459587Y-17929234D02*
X8440539Y-17919710D01*
X8440539Y-17919710D02*
X8431015Y-17900662D01*
X8431015Y-17900662D02*
X8431015Y-17729234D01*
X8611968Y-17919710D02*
X8592920Y-17929234D01*
X8592920Y-17929234D02*
X8554825Y-17929234D01*
X8554825Y-17929234D02*
X8535777Y-17919710D01*
X8535777Y-17919710D02*
X8526253Y-17900662D01*
X8526253Y-17900662D02*
X8526253Y-17824472D01*
X8526253Y-17824472D02*
X8535777Y-17805424D01*
X8535777Y-17805424D02*
X8554825Y-17795900D01*
X8554825Y-17795900D02*
X8592920Y-17795900D01*
X8592920Y-17795900D02*
X8611968Y-17805424D01*
X8611968Y-17805424D02*
X8621492Y-17824472D01*
X8621492Y-17824472D02*
X8621492Y-17843520D01*
X8621492Y-17843520D02*
X8526253Y-17862567D01*
X8697682Y-17919710D02*
X8716730Y-17929234D01*
X8716730Y-17929234D02*
X8754825Y-17929234D01*
X8754825Y-17929234D02*
X8773873Y-17919710D01*
X8773873Y-17919710D02*
X8783396Y-17900662D01*
X8783396Y-17900662D02*
X8783396Y-17891139D01*
X8783396Y-17891139D02*
X8773873Y-17872091D01*
X8773873Y-17872091D02*
X8754825Y-17862567D01*
X8754825Y-17862567D02*
X8726253Y-17862567D01*
X8726253Y-17862567D02*
X8707206Y-17853043D01*
X8707206Y-17853043D02*
X8697682Y-17833996D01*
X8697682Y-17833996D02*
X8697682Y-17824472D01*
X8697682Y-17824472D02*
X8707206Y-17805424D01*
X8707206Y-17805424D02*
X8726253Y-17795900D01*
X8726253Y-17795900D02*
X8754825Y-17795900D01*
X8754825Y-17795900D02*
X8773873Y-17805424D01*
X8850063Y-18005424D02*
X8859587Y-17995900D01*
X8859587Y-17995900D02*
X8878634Y-17967329D01*
X8878634Y-17967329D02*
X8888158Y-17948281D01*
X8888158Y-17948281D02*
X8897682Y-17919710D01*
X8897682Y-17919710D02*
X8907206Y-17872091D01*
X8907206Y-17872091D02*
X8907206Y-17833996D01*
X8907206Y-17833996D02*
X8897682Y-17786377D01*
X8897682Y-17786377D02*
X8888158Y-17757805D01*
X8888158Y-17757805D02*
X8878634Y-17738758D01*
X8878634Y-17738758D02*
X8859587Y-17710186D01*
X8859587Y-17710186D02*
X8850063Y-17700662D01*
D20*
X3900000Y-18019250D02*
X4075000Y-18194250D01*
X4075000Y-18019250D02*
X3900000Y-18194250D01*
X3987500Y-18194250D02*
X4075000Y-18106750D01*
X3987500Y-18019250D01*
X3900000Y-18106750D01*
X3987500Y-18194250D01*
D12*
X4440539Y-18198234D02*
X4326253Y-18198234D01*
X4383396Y-18198234D02*
X4383396Y-17998234D01*
X4383396Y-17998234D02*
X4364348Y-18026805D01*
X4364348Y-18026805D02*
X4345301Y-18045853D01*
X4345301Y-18045853D02*
X4326253Y-18055377D01*
X4526253Y-18179186D02*
X4535777Y-18188710D01*
X4535777Y-18188710D02*
X4526253Y-18198234D01*
X4526253Y-18198234D02*
X4516729Y-18188710D01*
X4516729Y-18188710D02*
X4526253Y-18179186D01*
X4526253Y-18179186D02*
X4526253Y-18198234D01*
X4602444Y-17998234D02*
X4735777Y-17998234D01*
X4735777Y-17998234D02*
X4650063Y-18198234D01*
X4907205Y-17998234D02*
X4811967Y-17998234D01*
X4811967Y-17998234D02*
X4802444Y-18093472D01*
X4802444Y-18093472D02*
X4811967Y-18083948D01*
X4811967Y-18083948D02*
X4831015Y-18074424D01*
X4831015Y-18074424D02*
X4878634Y-18074424D01*
X4878634Y-18074424D02*
X4897682Y-18083948D01*
X4897682Y-18083948D02*
X4907205Y-18093472D01*
X4907205Y-18093472D02*
X4916729Y-18112520D01*
X4916729Y-18112520D02*
X4916729Y-18160139D01*
X4916729Y-18160139D02*
X4907205Y-18179186D01*
X4907205Y-18179186D02*
X4897682Y-18188710D01*
X4897682Y-18188710D02*
X4878634Y-18198234D01*
X4878634Y-18198234D02*
X4831015Y-18198234D01*
X4831015Y-18198234D02*
X4811967Y-18188710D01*
X4811967Y-18188710D02*
X4802444Y-18179186D01*
X5040539Y-17998234D02*
X5059586Y-17998234D01*
X5059586Y-17998234D02*
X5078634Y-18007758D01*
X5078634Y-18007758D02*
X5088158Y-18017281D01*
X5088158Y-18017281D02*
X5097682Y-18036329D01*
X5097682Y-18036329D02*
X5107205Y-18074424D01*
X5107205Y-18074424D02*
X5107205Y-18122043D01*
X5107205Y-18122043D02*
X5097682Y-18160139D01*
X5097682Y-18160139D02*
X5088158Y-18179186D01*
X5088158Y-18179186D02*
X5078634Y-18188710D01*
X5078634Y-18188710D02*
X5059586Y-18198234D01*
X5059586Y-18198234D02*
X5040539Y-18198234D01*
X5040539Y-18198234D02*
X5021491Y-18188710D01*
X5021491Y-18188710D02*
X5011967Y-18179186D01*
X5011967Y-18179186D02*
X5002444Y-18160139D01*
X5002444Y-18160139D02*
X4992920Y-18122043D01*
X4992920Y-18122043D02*
X4992920Y-18074424D01*
X4992920Y-18074424D02*
X5002444Y-18036329D01*
X5002444Y-18036329D02*
X5011967Y-18017281D01*
X5011967Y-18017281D02*
X5021491Y-18007758D01*
X5021491Y-18007758D02*
X5040539Y-17998234D01*
X5192920Y-18198234D02*
X5192920Y-18064900D01*
X5192920Y-18083948D02*
X5202444Y-18074424D01*
X5202444Y-18074424D02*
X5221491Y-18064900D01*
X5221491Y-18064900D02*
X5250063Y-18064900D01*
X5250063Y-18064900D02*
X5269110Y-18074424D01*
X5269110Y-18074424D02*
X5278634Y-18093472D01*
X5278634Y-18093472D02*
X5278634Y-18198234D01*
X5278634Y-18093472D02*
X5288158Y-18074424D01*
X5288158Y-18074424D02*
X5307205Y-18064900D01*
X5307205Y-18064900D02*
X5335777Y-18064900D01*
X5335777Y-18064900D02*
X5354825Y-18074424D01*
X5354825Y-18074424D02*
X5364348Y-18093472D01*
X5364348Y-18093472D02*
X5364348Y-18198234D01*
X5459586Y-18198234D02*
X5459586Y-18064900D01*
X5459586Y-18083948D02*
X5469110Y-18074424D01*
X5469110Y-18074424D02*
X5488158Y-18064900D01*
X5488158Y-18064900D02*
X5516729Y-18064900D01*
X5516729Y-18064900D02*
X5535777Y-18074424D01*
X5535777Y-18074424D02*
X5545301Y-18093472D01*
X5545301Y-18093472D02*
X5545301Y-18198234D01*
X5545301Y-18093472D02*
X5554825Y-18074424D01*
X5554825Y-18074424D02*
X5573872Y-18064900D01*
X5573872Y-18064900D02*
X5602443Y-18064900D01*
X5602443Y-18064900D02*
X5621491Y-18074424D01*
X5621491Y-18074424D02*
X5631015Y-18093472D01*
X5631015Y-18093472D02*
X5631015Y-18198234D01*
X6021491Y-17988710D02*
X5850063Y-18245853D01*
X6278634Y-17998234D02*
X6297682Y-17998234D01*
X6297682Y-17998234D02*
X6316729Y-18007758D01*
X6316729Y-18007758D02*
X6326253Y-18017281D01*
X6326253Y-18017281D02*
X6335777Y-18036329D01*
X6335777Y-18036329D02*
X6345301Y-18074424D01*
X6345301Y-18074424D02*
X6345301Y-18122043D01*
X6345301Y-18122043D02*
X6335777Y-18160139D01*
X6335777Y-18160139D02*
X6326253Y-18179186D01*
X6326253Y-18179186D02*
X6316729Y-18188710D01*
X6316729Y-18188710D02*
X6297682Y-18198234D01*
X6297682Y-18198234D02*
X6278634Y-18198234D01*
X6278634Y-18198234D02*
X6259586Y-18188710D01*
X6259586Y-18188710D02*
X6250063Y-18179186D01*
X6250063Y-18179186D02*
X6240539Y-18160139D01*
X6240539Y-18160139D02*
X6231015Y-18122043D01*
X6231015Y-18122043D02*
X6231015Y-18074424D01*
X6231015Y-18074424D02*
X6240539Y-18036329D01*
X6240539Y-18036329D02*
X6250063Y-18017281D01*
X6250063Y-18017281D02*
X6259586Y-18007758D01*
X6259586Y-18007758D02*
X6278634Y-17998234D01*
X6431015Y-18179186D02*
X6440539Y-18188710D01*
X6440539Y-18188710D02*
X6431015Y-18198234D01*
X6431015Y-18198234D02*
X6421491Y-18188710D01*
X6421491Y-18188710D02*
X6431015Y-18179186D01*
X6431015Y-18179186D02*
X6431015Y-18198234D01*
X6564348Y-17998234D02*
X6583396Y-17998234D01*
X6583396Y-17998234D02*
X6602444Y-18007758D01*
X6602444Y-18007758D02*
X6611967Y-18017281D01*
X6611967Y-18017281D02*
X6621491Y-18036329D01*
X6621491Y-18036329D02*
X6631015Y-18074424D01*
X6631015Y-18074424D02*
X6631015Y-18122043D01*
X6631015Y-18122043D02*
X6621491Y-18160139D01*
X6621491Y-18160139D02*
X6611967Y-18179186D01*
X6611967Y-18179186D02*
X6602444Y-18188710D01*
X6602444Y-18188710D02*
X6583396Y-18198234D01*
X6583396Y-18198234D02*
X6564348Y-18198234D01*
X6564348Y-18198234D02*
X6545301Y-18188710D01*
X6545301Y-18188710D02*
X6535777Y-18179186D01*
X6535777Y-18179186D02*
X6526253Y-18160139D01*
X6526253Y-18160139D02*
X6516729Y-18122043D01*
X6516729Y-18122043D02*
X6516729Y-18074424D01*
X6516729Y-18074424D02*
X6526253Y-18036329D01*
X6526253Y-18036329D02*
X6535777Y-18017281D01*
X6535777Y-18017281D02*
X6545301Y-18007758D01*
X6545301Y-18007758D02*
X6564348Y-17998234D01*
X6802444Y-17998234D02*
X6764348Y-17998234D01*
X6764348Y-17998234D02*
X6745301Y-18007758D01*
X6745301Y-18007758D02*
X6735777Y-18017281D01*
X6735777Y-18017281D02*
X6716729Y-18045853D01*
X6716729Y-18045853D02*
X6707206Y-18083948D01*
X6707206Y-18083948D02*
X6707206Y-18160139D01*
X6707206Y-18160139D02*
X6716729Y-18179186D01*
X6716729Y-18179186D02*
X6726253Y-18188710D01*
X6726253Y-18188710D02*
X6745301Y-18198234D01*
X6745301Y-18198234D02*
X6783396Y-18198234D01*
X6783396Y-18198234D02*
X6802444Y-18188710D01*
X6802444Y-18188710D02*
X6811967Y-18179186D01*
X6811967Y-18179186D02*
X6821491Y-18160139D01*
X6821491Y-18160139D02*
X6821491Y-18112520D01*
X6821491Y-18112520D02*
X6811967Y-18093472D01*
X6811967Y-18093472D02*
X6802444Y-18083948D01*
X6802444Y-18083948D02*
X6783396Y-18074424D01*
X6783396Y-18074424D02*
X6745301Y-18074424D01*
X6745301Y-18074424D02*
X6726253Y-18083948D01*
X6726253Y-18083948D02*
X6716729Y-18093472D01*
X6716729Y-18093472D02*
X6707206Y-18112520D01*
X6935777Y-18083948D02*
X6916729Y-18074424D01*
X6916729Y-18074424D02*
X6907206Y-18064900D01*
X6907206Y-18064900D02*
X6897682Y-18045853D01*
X6897682Y-18045853D02*
X6897682Y-18036329D01*
X6897682Y-18036329D02*
X6907206Y-18017281D01*
X6907206Y-18017281D02*
X6916729Y-18007758D01*
X6916729Y-18007758D02*
X6935777Y-17998234D01*
X6935777Y-17998234D02*
X6973872Y-17998234D01*
X6973872Y-17998234D02*
X6992920Y-18007758D01*
X6992920Y-18007758D02*
X7002444Y-18017281D01*
X7002444Y-18017281D02*
X7011967Y-18036329D01*
X7011967Y-18036329D02*
X7011967Y-18045853D01*
X7011967Y-18045853D02*
X7002444Y-18064900D01*
X7002444Y-18064900D02*
X6992920Y-18074424D01*
X6992920Y-18074424D02*
X6973872Y-18083948D01*
X6973872Y-18083948D02*
X6935777Y-18083948D01*
X6935777Y-18083948D02*
X6916729Y-18093472D01*
X6916729Y-18093472D02*
X6907206Y-18102996D01*
X6907206Y-18102996D02*
X6897682Y-18122043D01*
X6897682Y-18122043D02*
X6897682Y-18160139D01*
X6897682Y-18160139D02*
X6907206Y-18179186D01*
X6907206Y-18179186D02*
X6916729Y-18188710D01*
X6916729Y-18188710D02*
X6935777Y-18198234D01*
X6935777Y-18198234D02*
X6973872Y-18198234D01*
X6973872Y-18198234D02*
X6992920Y-18188710D01*
X6992920Y-18188710D02*
X7002444Y-18179186D01*
X7002444Y-18179186D02*
X7011967Y-18160139D01*
X7011967Y-18160139D02*
X7011967Y-18122043D01*
X7011967Y-18122043D02*
X7002444Y-18102996D01*
X7002444Y-18102996D02*
X6992920Y-18093472D01*
X6992920Y-18093472D02*
X6973872Y-18083948D01*
X7107206Y-18198234D02*
X7145301Y-18198234D01*
X7145301Y-18198234D02*
X7164348Y-18188710D01*
X7164348Y-18188710D02*
X7173872Y-18179186D01*
X7173872Y-18179186D02*
X7192920Y-18150615D01*
X7192920Y-18150615D02*
X7202444Y-18112520D01*
X7202444Y-18112520D02*
X7202444Y-18036329D01*
X7202444Y-18036329D02*
X7192920Y-18017281D01*
X7192920Y-18017281D02*
X7183396Y-18007758D01*
X7183396Y-18007758D02*
X7164348Y-17998234D01*
X7164348Y-17998234D02*
X7126253Y-17998234D01*
X7126253Y-17998234D02*
X7107206Y-18007758D01*
X7107206Y-18007758D02*
X7097682Y-18017281D01*
X7097682Y-18017281D02*
X7088158Y-18036329D01*
X7088158Y-18036329D02*
X7088158Y-18083948D01*
X7088158Y-18083948D02*
X7097682Y-18102996D01*
X7097682Y-18102996D02*
X7107206Y-18112520D01*
X7107206Y-18112520D02*
X7126253Y-18122043D01*
X7126253Y-18122043D02*
X7164348Y-18122043D01*
X7164348Y-18122043D02*
X7183396Y-18112520D01*
X7183396Y-18112520D02*
X7192920Y-18102996D01*
X7192920Y-18102996D02*
X7202444Y-18083948D01*
X7278634Y-17998234D02*
X7278634Y-18036329D01*
X7354825Y-17998234D02*
X7354825Y-18036329D01*
X7650063Y-18274424D02*
X7640539Y-18264900D01*
X7640539Y-18264900D02*
X7621491Y-18236329D01*
X7621491Y-18236329D02*
X7611968Y-18217281D01*
X7611968Y-18217281D02*
X7602444Y-18188710D01*
X7602444Y-18188710D02*
X7592920Y-18141091D01*
X7592920Y-18141091D02*
X7592920Y-18102996D01*
X7592920Y-18102996D02*
X7602444Y-18055377D01*
X7602444Y-18055377D02*
X7611968Y-18026805D01*
X7611968Y-18026805D02*
X7621491Y-18007758D01*
X7621491Y-18007758D02*
X7640539Y-17979186D01*
X7640539Y-17979186D02*
X7650063Y-17969662D01*
X7735777Y-18198234D02*
X7773872Y-18198234D01*
X7773872Y-18198234D02*
X7792920Y-18188710D01*
X7792920Y-18188710D02*
X7802444Y-18179186D01*
X7802444Y-18179186D02*
X7821491Y-18150615D01*
X7821491Y-18150615D02*
X7831015Y-18112520D01*
X7831015Y-18112520D02*
X7831015Y-18036329D01*
X7831015Y-18036329D02*
X7821491Y-18017281D01*
X7821491Y-18017281D02*
X7811968Y-18007758D01*
X7811968Y-18007758D02*
X7792920Y-17998234D01*
X7792920Y-17998234D02*
X7754825Y-17998234D01*
X7754825Y-17998234D02*
X7735777Y-18007758D01*
X7735777Y-18007758D02*
X7726253Y-18017281D01*
X7726253Y-18017281D02*
X7716729Y-18036329D01*
X7716729Y-18036329D02*
X7716729Y-18083948D01*
X7716729Y-18083948D02*
X7726253Y-18102996D01*
X7726253Y-18102996D02*
X7735777Y-18112520D01*
X7735777Y-18112520D02*
X7754825Y-18122043D01*
X7754825Y-18122043D02*
X7792920Y-18122043D01*
X7792920Y-18122043D02*
X7811968Y-18112520D01*
X7811968Y-18112520D02*
X7821491Y-18102996D01*
X7821491Y-18102996D02*
X7831015Y-18083948D01*
X8069110Y-18198234D02*
X8069110Y-17998234D01*
X8154825Y-18198234D02*
X8154825Y-18093472D01*
X8154825Y-18093472D02*
X8145301Y-18074424D01*
X8145301Y-18074424D02*
X8126253Y-18064900D01*
X8126253Y-18064900D02*
X8097682Y-18064900D01*
X8097682Y-18064900D02*
X8078634Y-18074424D01*
X8078634Y-18074424D02*
X8069110Y-18083948D01*
X8278634Y-18198234D02*
X8259587Y-18188710D01*
X8259587Y-18188710D02*
X8250063Y-18179186D01*
X8250063Y-18179186D02*
X8240539Y-18160139D01*
X8240539Y-18160139D02*
X8240539Y-18102996D01*
X8240539Y-18102996D02*
X8250063Y-18083948D01*
X8250063Y-18083948D02*
X8259587Y-18074424D01*
X8259587Y-18074424D02*
X8278634Y-18064900D01*
X8278634Y-18064900D02*
X8307206Y-18064900D01*
X8307206Y-18064900D02*
X8326253Y-18074424D01*
X8326253Y-18074424D02*
X8335777Y-18083948D01*
X8335777Y-18083948D02*
X8345301Y-18102996D01*
X8345301Y-18102996D02*
X8345301Y-18160139D01*
X8345301Y-18160139D02*
X8335777Y-18179186D01*
X8335777Y-18179186D02*
X8326253Y-18188710D01*
X8326253Y-18188710D02*
X8307206Y-18198234D01*
X8307206Y-18198234D02*
X8278634Y-18198234D01*
X8459587Y-18198234D02*
X8440539Y-18188710D01*
X8440539Y-18188710D02*
X8431015Y-18169662D01*
X8431015Y-18169662D02*
X8431015Y-17998234D01*
X8611968Y-18188710D02*
X8592920Y-18198234D01*
X8592920Y-18198234D02*
X8554825Y-18198234D01*
X8554825Y-18198234D02*
X8535777Y-18188710D01*
X8535777Y-18188710D02*
X8526253Y-18169662D01*
X8526253Y-18169662D02*
X8526253Y-18093472D01*
X8526253Y-18093472D02*
X8535777Y-18074424D01*
X8535777Y-18074424D02*
X8554825Y-18064900D01*
X8554825Y-18064900D02*
X8592920Y-18064900D01*
X8592920Y-18064900D02*
X8611968Y-18074424D01*
X8611968Y-18074424D02*
X8621492Y-18093472D01*
X8621492Y-18093472D02*
X8621492Y-18112520D01*
X8621492Y-18112520D02*
X8526253Y-18131567D01*
X8697682Y-18188710D02*
X8716730Y-18198234D01*
X8716730Y-18198234D02*
X8754825Y-18198234D01*
X8754825Y-18198234D02*
X8773873Y-18188710D01*
X8773873Y-18188710D02*
X8783396Y-18169662D01*
X8783396Y-18169662D02*
X8783396Y-18160139D01*
X8783396Y-18160139D02*
X8773873Y-18141091D01*
X8773873Y-18141091D02*
X8754825Y-18131567D01*
X8754825Y-18131567D02*
X8726253Y-18131567D01*
X8726253Y-18131567D02*
X8707206Y-18122043D01*
X8707206Y-18122043D02*
X8697682Y-18102996D01*
X8697682Y-18102996D02*
X8697682Y-18093472D01*
X8697682Y-18093472D02*
X8707206Y-18074424D01*
X8707206Y-18074424D02*
X8726253Y-18064900D01*
X8726253Y-18064900D02*
X8754825Y-18064900D01*
X8754825Y-18064900D02*
X8773873Y-18074424D01*
X8850063Y-18274424D02*
X8859587Y-18264900D01*
X8859587Y-18264900D02*
X8878634Y-18236329D01*
X8878634Y-18236329D02*
X8888158Y-18217281D01*
X8888158Y-18217281D02*
X8897682Y-18188710D01*
X8897682Y-18188710D02*
X8907206Y-18141091D01*
X8907206Y-18141091D02*
X8907206Y-18102996D01*
X8907206Y-18102996D02*
X8897682Y-18055377D01*
X8897682Y-18055377D02*
X8888158Y-18026805D01*
X8888158Y-18026805D02*
X8878634Y-18007758D01*
X8878634Y-18007758D02*
X8859587Y-17979186D01*
X8859587Y-17979186D02*
X8850063Y-17969662D01*
X3975000Y-18301750D02*
X3975000Y-18501750D01*
X3875000Y-18401750D02*
X4075000Y-18401750D01*
X4075000Y-18401750D02*
G75*
G03*
X4075000Y-18401750I-100000J0D01*
G01*
X4326253Y-18312281D02*
X4335777Y-18302758D01*
X4335777Y-18302758D02*
X4354824Y-18293234D01*
X4354824Y-18293234D02*
X4402444Y-18293234D01*
X4402444Y-18293234D02*
X4421491Y-18302758D01*
X4421491Y-18302758D02*
X4431015Y-18312281D01*
X4431015Y-18312281D02*
X4440539Y-18331329D01*
X4440539Y-18331329D02*
X4440539Y-18350377D01*
X4440539Y-18350377D02*
X4431015Y-18378948D01*
X4431015Y-18378948D02*
X4316729Y-18493234D01*
X4316729Y-18493234D02*
X4440539Y-18493234D01*
X4526253Y-18474186D02*
X4535777Y-18483710D01*
X4535777Y-18483710D02*
X4526253Y-18493234D01*
X4526253Y-18493234D02*
X4516729Y-18483710D01*
X4516729Y-18483710D02*
X4526253Y-18474186D01*
X4526253Y-18474186D02*
X4526253Y-18493234D01*
X4659586Y-18293234D02*
X4678634Y-18293234D01*
X4678634Y-18293234D02*
X4697682Y-18302758D01*
X4697682Y-18302758D02*
X4707205Y-18312281D01*
X4707205Y-18312281D02*
X4716729Y-18331329D01*
X4716729Y-18331329D02*
X4726253Y-18369424D01*
X4726253Y-18369424D02*
X4726253Y-18417043D01*
X4726253Y-18417043D02*
X4716729Y-18455139D01*
X4716729Y-18455139D02*
X4707205Y-18474186D01*
X4707205Y-18474186D02*
X4697682Y-18483710D01*
X4697682Y-18483710D02*
X4678634Y-18493234D01*
X4678634Y-18493234D02*
X4659586Y-18493234D01*
X4659586Y-18493234D02*
X4640539Y-18483710D01*
X4640539Y-18483710D02*
X4631015Y-18474186D01*
X4631015Y-18474186D02*
X4621491Y-18455139D01*
X4621491Y-18455139D02*
X4611967Y-18417043D01*
X4611967Y-18417043D02*
X4611967Y-18369424D01*
X4611967Y-18369424D02*
X4621491Y-18331329D01*
X4621491Y-18331329D02*
X4631015Y-18312281D01*
X4631015Y-18312281D02*
X4640539Y-18302758D01*
X4640539Y-18302758D02*
X4659586Y-18293234D01*
X4850063Y-18293234D02*
X4869110Y-18293234D01*
X4869110Y-18293234D02*
X4888158Y-18302758D01*
X4888158Y-18302758D02*
X4897682Y-18312281D01*
X4897682Y-18312281D02*
X4907205Y-18331329D01*
X4907205Y-18331329D02*
X4916729Y-18369424D01*
X4916729Y-18369424D02*
X4916729Y-18417043D01*
X4916729Y-18417043D02*
X4907205Y-18455139D01*
X4907205Y-18455139D02*
X4897682Y-18474186D01*
X4897682Y-18474186D02*
X4888158Y-18483710D01*
X4888158Y-18483710D02*
X4869110Y-18493234D01*
X4869110Y-18493234D02*
X4850063Y-18493234D01*
X4850063Y-18493234D02*
X4831015Y-18483710D01*
X4831015Y-18483710D02*
X4821491Y-18474186D01*
X4821491Y-18474186D02*
X4811967Y-18455139D01*
X4811967Y-18455139D02*
X4802444Y-18417043D01*
X4802444Y-18417043D02*
X4802444Y-18369424D01*
X4802444Y-18369424D02*
X4811967Y-18331329D01*
X4811967Y-18331329D02*
X4821491Y-18312281D01*
X4821491Y-18312281D02*
X4831015Y-18302758D01*
X4831015Y-18302758D02*
X4850063Y-18293234D01*
X5040539Y-18293234D02*
X5059586Y-18293234D01*
X5059586Y-18293234D02*
X5078634Y-18302758D01*
X5078634Y-18302758D02*
X5088158Y-18312281D01*
X5088158Y-18312281D02*
X5097682Y-18331329D01*
X5097682Y-18331329D02*
X5107205Y-18369424D01*
X5107205Y-18369424D02*
X5107205Y-18417043D01*
X5107205Y-18417043D02*
X5097682Y-18455139D01*
X5097682Y-18455139D02*
X5088158Y-18474186D01*
X5088158Y-18474186D02*
X5078634Y-18483710D01*
X5078634Y-18483710D02*
X5059586Y-18493234D01*
X5059586Y-18493234D02*
X5040539Y-18493234D01*
X5040539Y-18493234D02*
X5021491Y-18483710D01*
X5021491Y-18483710D02*
X5011967Y-18474186D01*
X5011967Y-18474186D02*
X5002444Y-18455139D01*
X5002444Y-18455139D02*
X4992920Y-18417043D01*
X4992920Y-18417043D02*
X4992920Y-18369424D01*
X4992920Y-18369424D02*
X5002444Y-18331329D01*
X5002444Y-18331329D02*
X5011967Y-18312281D01*
X5011967Y-18312281D02*
X5021491Y-18302758D01*
X5021491Y-18302758D02*
X5040539Y-18293234D01*
X5192920Y-18493234D02*
X5192920Y-18359900D01*
X5192920Y-18378948D02*
X5202444Y-18369424D01*
X5202444Y-18369424D02*
X5221491Y-18359900D01*
X5221491Y-18359900D02*
X5250063Y-18359900D01*
X5250063Y-18359900D02*
X5269110Y-18369424D01*
X5269110Y-18369424D02*
X5278634Y-18388472D01*
X5278634Y-18388472D02*
X5278634Y-18493234D01*
X5278634Y-18388472D02*
X5288158Y-18369424D01*
X5288158Y-18369424D02*
X5307205Y-18359900D01*
X5307205Y-18359900D02*
X5335777Y-18359900D01*
X5335777Y-18359900D02*
X5354825Y-18369424D01*
X5354825Y-18369424D02*
X5364348Y-18388472D01*
X5364348Y-18388472D02*
X5364348Y-18493234D01*
X5459586Y-18493234D02*
X5459586Y-18359900D01*
X5459586Y-18378948D02*
X5469110Y-18369424D01*
X5469110Y-18369424D02*
X5488158Y-18359900D01*
X5488158Y-18359900D02*
X5516729Y-18359900D01*
X5516729Y-18359900D02*
X5535777Y-18369424D01*
X5535777Y-18369424D02*
X5545301Y-18388472D01*
X5545301Y-18388472D02*
X5545301Y-18493234D01*
X5545301Y-18388472D02*
X5554825Y-18369424D01*
X5554825Y-18369424D02*
X5573872Y-18359900D01*
X5573872Y-18359900D02*
X5602443Y-18359900D01*
X5602443Y-18359900D02*
X5621491Y-18369424D01*
X5621491Y-18369424D02*
X5631015Y-18388472D01*
X5631015Y-18388472D02*
X5631015Y-18493234D01*
X6021491Y-18283710D02*
X5850063Y-18540853D01*
X6278634Y-18293234D02*
X6297682Y-18293234D01*
X6297682Y-18293234D02*
X6316729Y-18302758D01*
X6316729Y-18302758D02*
X6326253Y-18312281D01*
X6326253Y-18312281D02*
X6335777Y-18331329D01*
X6335777Y-18331329D02*
X6345301Y-18369424D01*
X6345301Y-18369424D02*
X6345301Y-18417043D01*
X6345301Y-18417043D02*
X6335777Y-18455139D01*
X6335777Y-18455139D02*
X6326253Y-18474186D01*
X6326253Y-18474186D02*
X6316729Y-18483710D01*
X6316729Y-18483710D02*
X6297682Y-18493234D01*
X6297682Y-18493234D02*
X6278634Y-18493234D01*
X6278634Y-18493234D02*
X6259586Y-18483710D01*
X6259586Y-18483710D02*
X6250063Y-18474186D01*
X6250063Y-18474186D02*
X6240539Y-18455139D01*
X6240539Y-18455139D02*
X6231015Y-18417043D01*
X6231015Y-18417043D02*
X6231015Y-18369424D01*
X6231015Y-18369424D02*
X6240539Y-18331329D01*
X6240539Y-18331329D02*
X6250063Y-18312281D01*
X6250063Y-18312281D02*
X6259586Y-18302758D01*
X6259586Y-18302758D02*
X6278634Y-18293234D01*
X6431015Y-18474186D02*
X6440539Y-18483710D01*
X6440539Y-18483710D02*
X6431015Y-18493234D01*
X6431015Y-18493234D02*
X6421491Y-18483710D01*
X6421491Y-18483710D02*
X6431015Y-18474186D01*
X6431015Y-18474186D02*
X6431015Y-18493234D01*
X6564348Y-18293234D02*
X6583396Y-18293234D01*
X6583396Y-18293234D02*
X6602444Y-18302758D01*
X6602444Y-18302758D02*
X6611967Y-18312281D01*
X6611967Y-18312281D02*
X6621491Y-18331329D01*
X6621491Y-18331329D02*
X6631015Y-18369424D01*
X6631015Y-18369424D02*
X6631015Y-18417043D01*
X6631015Y-18417043D02*
X6621491Y-18455139D01*
X6621491Y-18455139D02*
X6611967Y-18474186D01*
X6611967Y-18474186D02*
X6602444Y-18483710D01*
X6602444Y-18483710D02*
X6583396Y-18493234D01*
X6583396Y-18493234D02*
X6564348Y-18493234D01*
X6564348Y-18493234D02*
X6545301Y-18483710D01*
X6545301Y-18483710D02*
X6535777Y-18474186D01*
X6535777Y-18474186D02*
X6526253Y-18455139D01*
X6526253Y-18455139D02*
X6516729Y-18417043D01*
X6516729Y-18417043D02*
X6516729Y-18369424D01*
X6516729Y-18369424D02*
X6526253Y-18331329D01*
X6526253Y-18331329D02*
X6535777Y-18312281D01*
X6535777Y-18312281D02*
X6545301Y-18302758D01*
X6545301Y-18302758D02*
X6564348Y-18293234D01*
X6697682Y-18293234D02*
X6831015Y-18293234D01*
X6831015Y-18293234D02*
X6745301Y-18493234D01*
X6935777Y-18378948D02*
X6916729Y-18369424D01*
X6916729Y-18369424D02*
X6907206Y-18359900D01*
X6907206Y-18359900D02*
X6897682Y-18340853D01*
X6897682Y-18340853D02*
X6897682Y-18331329D01*
X6897682Y-18331329D02*
X6907206Y-18312281D01*
X6907206Y-18312281D02*
X6916729Y-18302758D01*
X6916729Y-18302758D02*
X6935777Y-18293234D01*
X6935777Y-18293234D02*
X6973872Y-18293234D01*
X6973872Y-18293234D02*
X6992920Y-18302758D01*
X6992920Y-18302758D02*
X7002444Y-18312281D01*
X7002444Y-18312281D02*
X7011967Y-18331329D01*
X7011967Y-18331329D02*
X7011967Y-18340853D01*
X7011967Y-18340853D02*
X7002444Y-18359900D01*
X7002444Y-18359900D02*
X6992920Y-18369424D01*
X6992920Y-18369424D02*
X6973872Y-18378948D01*
X6973872Y-18378948D02*
X6935777Y-18378948D01*
X6935777Y-18378948D02*
X6916729Y-18388472D01*
X6916729Y-18388472D02*
X6907206Y-18397996D01*
X6907206Y-18397996D02*
X6897682Y-18417043D01*
X6897682Y-18417043D02*
X6897682Y-18455139D01*
X6897682Y-18455139D02*
X6907206Y-18474186D01*
X6907206Y-18474186D02*
X6916729Y-18483710D01*
X6916729Y-18483710D02*
X6935777Y-18493234D01*
X6935777Y-18493234D02*
X6973872Y-18493234D01*
X6973872Y-18493234D02*
X6992920Y-18483710D01*
X6992920Y-18483710D02*
X7002444Y-18474186D01*
X7002444Y-18474186D02*
X7011967Y-18455139D01*
X7011967Y-18455139D02*
X7011967Y-18417043D01*
X7011967Y-18417043D02*
X7002444Y-18397996D01*
X7002444Y-18397996D02*
X6992920Y-18388472D01*
X6992920Y-18388472D02*
X6973872Y-18378948D01*
X7078634Y-18293234D02*
X7211967Y-18293234D01*
X7211967Y-18293234D02*
X7126253Y-18493234D01*
X7278634Y-18293234D02*
X7278634Y-18331329D01*
X7354825Y-18293234D02*
X7354825Y-18331329D01*
X7650063Y-18569424D02*
X7640539Y-18559900D01*
X7640539Y-18559900D02*
X7621491Y-18531329D01*
X7621491Y-18531329D02*
X7611968Y-18512281D01*
X7611968Y-18512281D02*
X7602444Y-18483710D01*
X7602444Y-18483710D02*
X7592920Y-18436091D01*
X7592920Y-18436091D02*
X7592920Y-18397996D01*
X7592920Y-18397996D02*
X7602444Y-18350377D01*
X7602444Y-18350377D02*
X7611968Y-18321805D01*
X7611968Y-18321805D02*
X7621491Y-18302758D01*
X7621491Y-18302758D02*
X7640539Y-18274186D01*
X7640539Y-18274186D02*
X7650063Y-18264662D01*
X7716729Y-18312281D02*
X7726253Y-18302758D01*
X7726253Y-18302758D02*
X7745301Y-18293234D01*
X7745301Y-18293234D02*
X7792920Y-18293234D01*
X7792920Y-18293234D02*
X7811968Y-18302758D01*
X7811968Y-18302758D02*
X7821491Y-18312281D01*
X7821491Y-18312281D02*
X7831015Y-18331329D01*
X7831015Y-18331329D02*
X7831015Y-18350377D01*
X7831015Y-18350377D02*
X7821491Y-18378948D01*
X7821491Y-18378948D02*
X7707206Y-18493234D01*
X7707206Y-18493234D02*
X7831015Y-18493234D01*
X8069110Y-18493234D02*
X8069110Y-18293234D01*
X8154825Y-18493234D02*
X8154825Y-18388472D01*
X8154825Y-18388472D02*
X8145301Y-18369424D01*
X8145301Y-18369424D02*
X8126253Y-18359900D01*
X8126253Y-18359900D02*
X8097682Y-18359900D01*
X8097682Y-18359900D02*
X8078634Y-18369424D01*
X8078634Y-18369424D02*
X8069110Y-18378948D01*
X8278634Y-18493234D02*
X8259587Y-18483710D01*
X8259587Y-18483710D02*
X8250063Y-18474186D01*
X8250063Y-18474186D02*
X8240539Y-18455139D01*
X8240539Y-18455139D02*
X8240539Y-18397996D01*
X8240539Y-18397996D02*
X8250063Y-18378948D01*
X8250063Y-18378948D02*
X8259587Y-18369424D01*
X8259587Y-18369424D02*
X8278634Y-18359900D01*
X8278634Y-18359900D02*
X8307206Y-18359900D01*
X8307206Y-18359900D02*
X8326253Y-18369424D01*
X8326253Y-18369424D02*
X8335777Y-18378948D01*
X8335777Y-18378948D02*
X8345301Y-18397996D01*
X8345301Y-18397996D02*
X8345301Y-18455139D01*
X8345301Y-18455139D02*
X8335777Y-18474186D01*
X8335777Y-18474186D02*
X8326253Y-18483710D01*
X8326253Y-18483710D02*
X8307206Y-18493234D01*
X8307206Y-18493234D02*
X8278634Y-18493234D01*
X8459587Y-18493234D02*
X8440539Y-18483710D01*
X8440539Y-18483710D02*
X8431015Y-18464662D01*
X8431015Y-18464662D02*
X8431015Y-18293234D01*
X8611968Y-18483710D02*
X8592920Y-18493234D01*
X8592920Y-18493234D02*
X8554825Y-18493234D01*
X8554825Y-18493234D02*
X8535777Y-18483710D01*
X8535777Y-18483710D02*
X8526253Y-18464662D01*
X8526253Y-18464662D02*
X8526253Y-18388472D01*
X8526253Y-18388472D02*
X8535777Y-18369424D01*
X8535777Y-18369424D02*
X8554825Y-18359900D01*
X8554825Y-18359900D02*
X8592920Y-18359900D01*
X8592920Y-18359900D02*
X8611968Y-18369424D01*
X8611968Y-18369424D02*
X8621492Y-18388472D01*
X8621492Y-18388472D02*
X8621492Y-18407520D01*
X8621492Y-18407520D02*
X8526253Y-18426567D01*
X8697682Y-18483710D02*
X8716730Y-18493234D01*
X8716730Y-18493234D02*
X8754825Y-18493234D01*
X8754825Y-18493234D02*
X8773873Y-18483710D01*
X8773873Y-18483710D02*
X8783396Y-18464662D01*
X8783396Y-18464662D02*
X8783396Y-18455139D01*
X8783396Y-18455139D02*
X8773873Y-18436091D01*
X8773873Y-18436091D02*
X8754825Y-18426567D01*
X8754825Y-18426567D02*
X8726253Y-18426567D01*
X8726253Y-18426567D02*
X8707206Y-18417043D01*
X8707206Y-18417043D02*
X8697682Y-18397996D01*
X8697682Y-18397996D02*
X8697682Y-18388472D01*
X8697682Y-18388472D02*
X8707206Y-18369424D01*
X8707206Y-18369424D02*
X8726253Y-18359900D01*
X8726253Y-18359900D02*
X8754825Y-18359900D01*
X8754825Y-18359900D02*
X8773873Y-18369424D01*
X8850063Y-18569424D02*
X8859587Y-18559900D01*
X8859587Y-18559900D02*
X8878634Y-18531329D01*
X8878634Y-18531329D02*
X8888158Y-18512281D01*
X8888158Y-18512281D02*
X8897682Y-18483710D01*
X8897682Y-18483710D02*
X8907206Y-18436091D01*
X8907206Y-18436091D02*
X8907206Y-18397996D01*
X8907206Y-18397996D02*
X8897682Y-18350377D01*
X8897682Y-18350377D02*
X8888158Y-18321805D01*
X8888158Y-18321805D02*
X8878634Y-18302758D01*
X8878634Y-18302758D02*
X8859587Y-18274186D01*
X8859587Y-18274186D02*
X8850063Y-18264662D01*
M02*
