%TF.GenerationSoftware,KiCad,Pcbnew,7.0.6*%
%TF.CreationDate,2024-01-17T13:07:11+07:00*%
%TF.ProjectId,Main,4d61696e-2e6b-4696-9361-645f70636258,rev?*%
%TF.SameCoordinates,Original*%
%TF.FileFunction,Legend,Bot*%
%TF.FilePolarity,Positive*%
%FSLAX46Y46*%
G04 Gerber Fmt 4.6, Leading zero omitted, Abs format (unit mm)*
G04 Created by KiCad (PCBNEW 7.0.6) date 2024-01-17 13:07:11*
%MOMM*%
%LPD*%
G01*
G04 APERTURE LIST*
%ADD10C,0.150000*%
%ADD11C,0.254000*%
%ADD12C,0.120000*%
%ADD13C,0.200000*%
G04 APERTURE END LIST*
D10*
X144879580Y-137009642D02*
X144927200Y-136962023D01*
X144927200Y-136962023D02*
X144974819Y-136819166D01*
X144974819Y-136819166D02*
X144974819Y-136723928D01*
X144974819Y-136723928D02*
X144927200Y-136581071D01*
X144927200Y-136581071D02*
X144831961Y-136485833D01*
X144831961Y-136485833D02*
X144736723Y-136438214D01*
X144736723Y-136438214D02*
X144546247Y-136390595D01*
X144546247Y-136390595D02*
X144403390Y-136390595D01*
X144403390Y-136390595D02*
X144212914Y-136438214D01*
X144212914Y-136438214D02*
X144117676Y-136485833D01*
X144117676Y-136485833D02*
X144022438Y-136581071D01*
X144022438Y-136581071D02*
X143974819Y-136723928D01*
X143974819Y-136723928D02*
X143974819Y-136819166D01*
X143974819Y-136819166D02*
X144022438Y-136962023D01*
X144022438Y-136962023D02*
X144070057Y-137009642D01*
X144974819Y-137962023D02*
X144974819Y-137390595D01*
X144974819Y-137676309D02*
X143974819Y-137676309D01*
X143974819Y-137676309D02*
X144117676Y-137581071D01*
X144117676Y-137581071D02*
X144212914Y-137485833D01*
X144212914Y-137485833D02*
X144260533Y-137390595D01*
X144070057Y-138342976D02*
X144022438Y-138390595D01*
X144022438Y-138390595D02*
X143974819Y-138485833D01*
X143974819Y-138485833D02*
X143974819Y-138723928D01*
X143974819Y-138723928D02*
X144022438Y-138819166D01*
X144022438Y-138819166D02*
X144070057Y-138866785D01*
X144070057Y-138866785D02*
X144165295Y-138914404D01*
X144165295Y-138914404D02*
X144260533Y-138914404D01*
X144260533Y-138914404D02*
X144403390Y-138866785D01*
X144403390Y-138866785D02*
X144974819Y-138295357D01*
X144974819Y-138295357D02*
X144974819Y-138914404D01*
X163289580Y-137119642D02*
X163337200Y-137072023D01*
X163337200Y-137072023D02*
X163384819Y-136929166D01*
X163384819Y-136929166D02*
X163384819Y-136833928D01*
X163384819Y-136833928D02*
X163337200Y-136691071D01*
X163337200Y-136691071D02*
X163241961Y-136595833D01*
X163241961Y-136595833D02*
X163146723Y-136548214D01*
X163146723Y-136548214D02*
X162956247Y-136500595D01*
X162956247Y-136500595D02*
X162813390Y-136500595D01*
X162813390Y-136500595D02*
X162622914Y-136548214D01*
X162622914Y-136548214D02*
X162527676Y-136595833D01*
X162527676Y-136595833D02*
X162432438Y-136691071D01*
X162432438Y-136691071D02*
X162384819Y-136833928D01*
X162384819Y-136833928D02*
X162384819Y-136929166D01*
X162384819Y-136929166D02*
X162432438Y-137072023D01*
X162432438Y-137072023D02*
X162480057Y-137119642D01*
X163384819Y-138072023D02*
X163384819Y-137500595D01*
X163384819Y-137786309D02*
X162384819Y-137786309D01*
X162384819Y-137786309D02*
X162527676Y-137691071D01*
X162527676Y-137691071D02*
X162622914Y-137595833D01*
X162622914Y-137595833D02*
X162670533Y-137500595D01*
X162718152Y-138929166D02*
X163384819Y-138929166D01*
X162337200Y-138691071D02*
X163051485Y-138452976D01*
X163051485Y-138452976D02*
X163051485Y-139072023D01*
X125749580Y-137009642D02*
X125797200Y-136962023D01*
X125797200Y-136962023D02*
X125844819Y-136819166D01*
X125844819Y-136819166D02*
X125844819Y-136723928D01*
X125844819Y-136723928D02*
X125797200Y-136581071D01*
X125797200Y-136581071D02*
X125701961Y-136485833D01*
X125701961Y-136485833D02*
X125606723Y-136438214D01*
X125606723Y-136438214D02*
X125416247Y-136390595D01*
X125416247Y-136390595D02*
X125273390Y-136390595D01*
X125273390Y-136390595D02*
X125082914Y-136438214D01*
X125082914Y-136438214D02*
X124987676Y-136485833D01*
X124987676Y-136485833D02*
X124892438Y-136581071D01*
X124892438Y-136581071D02*
X124844819Y-136723928D01*
X124844819Y-136723928D02*
X124844819Y-136819166D01*
X124844819Y-136819166D02*
X124892438Y-136962023D01*
X124892438Y-136962023D02*
X124940057Y-137009642D01*
X125844819Y-137962023D02*
X125844819Y-137390595D01*
X125844819Y-137676309D02*
X124844819Y-137676309D01*
X124844819Y-137676309D02*
X124987676Y-137581071D01*
X124987676Y-137581071D02*
X125082914Y-137485833D01*
X125082914Y-137485833D02*
X125130533Y-137390595D01*
X124844819Y-138581071D02*
X124844819Y-138676309D01*
X124844819Y-138676309D02*
X124892438Y-138771547D01*
X124892438Y-138771547D02*
X124940057Y-138819166D01*
X124940057Y-138819166D02*
X125035295Y-138866785D01*
X125035295Y-138866785D02*
X125225771Y-138914404D01*
X125225771Y-138914404D02*
X125463866Y-138914404D01*
X125463866Y-138914404D02*
X125654342Y-138866785D01*
X125654342Y-138866785D02*
X125749580Y-138819166D01*
X125749580Y-138819166D02*
X125797200Y-138771547D01*
X125797200Y-138771547D02*
X125844819Y-138676309D01*
X125844819Y-138676309D02*
X125844819Y-138581071D01*
X125844819Y-138581071D02*
X125797200Y-138485833D01*
X125797200Y-138485833D02*
X125749580Y-138438214D01*
X125749580Y-138438214D02*
X125654342Y-138390595D01*
X125654342Y-138390595D02*
X125463866Y-138342976D01*
X125463866Y-138342976D02*
X125225771Y-138342976D01*
X125225771Y-138342976D02*
X125035295Y-138390595D01*
X125035295Y-138390595D02*
X124940057Y-138438214D01*
X124940057Y-138438214D02*
X124892438Y-138485833D01*
X124892438Y-138485833D02*
X124844819Y-138581071D01*
X148399580Y-137059642D02*
X148447200Y-137012023D01*
X148447200Y-137012023D02*
X148494819Y-136869166D01*
X148494819Y-136869166D02*
X148494819Y-136773928D01*
X148494819Y-136773928D02*
X148447200Y-136631071D01*
X148447200Y-136631071D02*
X148351961Y-136535833D01*
X148351961Y-136535833D02*
X148256723Y-136488214D01*
X148256723Y-136488214D02*
X148066247Y-136440595D01*
X148066247Y-136440595D02*
X147923390Y-136440595D01*
X147923390Y-136440595D02*
X147732914Y-136488214D01*
X147732914Y-136488214D02*
X147637676Y-136535833D01*
X147637676Y-136535833D02*
X147542438Y-136631071D01*
X147542438Y-136631071D02*
X147494819Y-136773928D01*
X147494819Y-136773928D02*
X147494819Y-136869166D01*
X147494819Y-136869166D02*
X147542438Y-137012023D01*
X147542438Y-137012023D02*
X147590057Y-137059642D01*
X148494819Y-138012023D02*
X148494819Y-137440595D01*
X148494819Y-137726309D02*
X147494819Y-137726309D01*
X147494819Y-137726309D02*
X147637676Y-137631071D01*
X147637676Y-137631071D02*
X147732914Y-137535833D01*
X147732914Y-137535833D02*
X147780533Y-137440595D01*
X148494819Y-138964404D02*
X148494819Y-138392976D01*
X148494819Y-138678690D02*
X147494819Y-138678690D01*
X147494819Y-138678690D02*
X147637676Y-138583452D01*
X147637676Y-138583452D02*
X147732914Y-138488214D01*
X147732914Y-138488214D02*
X147780533Y-138392976D01*
X166439580Y-137149642D02*
X166487200Y-137102023D01*
X166487200Y-137102023D02*
X166534819Y-136959166D01*
X166534819Y-136959166D02*
X166534819Y-136863928D01*
X166534819Y-136863928D02*
X166487200Y-136721071D01*
X166487200Y-136721071D02*
X166391961Y-136625833D01*
X166391961Y-136625833D02*
X166296723Y-136578214D01*
X166296723Y-136578214D02*
X166106247Y-136530595D01*
X166106247Y-136530595D02*
X165963390Y-136530595D01*
X165963390Y-136530595D02*
X165772914Y-136578214D01*
X165772914Y-136578214D02*
X165677676Y-136625833D01*
X165677676Y-136625833D02*
X165582438Y-136721071D01*
X165582438Y-136721071D02*
X165534819Y-136863928D01*
X165534819Y-136863928D02*
X165534819Y-136959166D01*
X165534819Y-136959166D02*
X165582438Y-137102023D01*
X165582438Y-137102023D02*
X165630057Y-137149642D01*
X166534819Y-138102023D02*
X166534819Y-137530595D01*
X166534819Y-137816309D02*
X165534819Y-137816309D01*
X165534819Y-137816309D02*
X165677676Y-137721071D01*
X165677676Y-137721071D02*
X165772914Y-137625833D01*
X165772914Y-137625833D02*
X165820533Y-137530595D01*
X165534819Y-138435357D02*
X165534819Y-139054404D01*
X165534819Y-139054404D02*
X165915771Y-138721071D01*
X165915771Y-138721071D02*
X165915771Y-138863928D01*
X165915771Y-138863928D02*
X165963390Y-138959166D01*
X165963390Y-138959166D02*
X166011009Y-139006785D01*
X166011009Y-139006785D02*
X166106247Y-139054404D01*
X166106247Y-139054404D02*
X166344342Y-139054404D01*
X166344342Y-139054404D02*
X166439580Y-139006785D01*
X166439580Y-139006785D02*
X166487200Y-138959166D01*
X166487200Y-138959166D02*
X166534819Y-138863928D01*
X166534819Y-138863928D02*
X166534819Y-138578214D01*
X166534819Y-138578214D02*
X166487200Y-138482976D01*
X166487200Y-138482976D02*
X166439580Y-138435357D01*
X189299580Y-99017142D02*
X189347200Y-98969523D01*
X189347200Y-98969523D02*
X189394819Y-98826666D01*
X189394819Y-98826666D02*
X189394819Y-98731428D01*
X189394819Y-98731428D02*
X189347200Y-98588571D01*
X189347200Y-98588571D02*
X189251961Y-98493333D01*
X189251961Y-98493333D02*
X189156723Y-98445714D01*
X189156723Y-98445714D02*
X188966247Y-98398095D01*
X188966247Y-98398095D02*
X188823390Y-98398095D01*
X188823390Y-98398095D02*
X188632914Y-98445714D01*
X188632914Y-98445714D02*
X188537676Y-98493333D01*
X188537676Y-98493333D02*
X188442438Y-98588571D01*
X188442438Y-98588571D02*
X188394819Y-98731428D01*
X188394819Y-98731428D02*
X188394819Y-98826666D01*
X188394819Y-98826666D02*
X188442438Y-98969523D01*
X188442438Y-98969523D02*
X188490057Y-99017142D01*
X189394819Y-99969523D02*
X189394819Y-99398095D01*
X189394819Y-99683809D02*
X188394819Y-99683809D01*
X188394819Y-99683809D02*
X188537676Y-99588571D01*
X188537676Y-99588571D02*
X188632914Y-99493333D01*
X188632914Y-99493333D02*
X188680533Y-99398095D01*
X188394819Y-100874285D02*
X188394819Y-100398095D01*
X188394819Y-100398095D02*
X188871009Y-100350476D01*
X188871009Y-100350476D02*
X188823390Y-100398095D01*
X188823390Y-100398095D02*
X188775771Y-100493333D01*
X188775771Y-100493333D02*
X188775771Y-100731428D01*
X188775771Y-100731428D02*
X188823390Y-100826666D01*
X188823390Y-100826666D02*
X188871009Y-100874285D01*
X188871009Y-100874285D02*
X188966247Y-100921904D01*
X188966247Y-100921904D02*
X189204342Y-100921904D01*
X189204342Y-100921904D02*
X189299580Y-100874285D01*
X189299580Y-100874285D02*
X189347200Y-100826666D01*
X189347200Y-100826666D02*
X189394819Y-100731428D01*
X189394819Y-100731428D02*
X189394819Y-100493333D01*
X189394819Y-100493333D02*
X189347200Y-100398095D01*
X189347200Y-100398095D02*
X189299580Y-100350476D01*
D11*
X171342988Y-137311818D02*
X171342988Y-136041818D01*
X170012511Y-137190865D02*
X170072987Y-137251342D01*
X170072987Y-137251342D02*
X170254416Y-137311818D01*
X170254416Y-137311818D02*
X170375368Y-137311818D01*
X170375368Y-137311818D02*
X170556797Y-137251342D01*
X170556797Y-137251342D02*
X170677749Y-137130389D01*
X170677749Y-137130389D02*
X170738226Y-137009437D01*
X170738226Y-137009437D02*
X170798702Y-136767532D01*
X170798702Y-136767532D02*
X170798702Y-136586103D01*
X170798702Y-136586103D02*
X170738226Y-136344199D01*
X170738226Y-136344199D02*
X170677749Y-136223246D01*
X170677749Y-136223246D02*
X170556797Y-136102294D01*
X170556797Y-136102294D02*
X170375368Y-136041818D01*
X170375368Y-136041818D02*
X170254416Y-136041818D01*
X170254416Y-136041818D02*
X170072987Y-136102294D01*
X170072987Y-136102294D02*
X170012511Y-136162770D01*
X168923940Y-136465151D02*
X168923940Y-137311818D01*
X169226321Y-135981342D02*
X169528702Y-136888484D01*
X169528702Y-136888484D02*
X168742511Y-136888484D01*
D10*
X129039580Y-137485833D02*
X129087200Y-137438214D01*
X129087200Y-137438214D02*
X129134819Y-137295357D01*
X129134819Y-137295357D02*
X129134819Y-137200119D01*
X129134819Y-137200119D02*
X129087200Y-137057262D01*
X129087200Y-137057262D02*
X128991961Y-136962024D01*
X128991961Y-136962024D02*
X128896723Y-136914405D01*
X128896723Y-136914405D02*
X128706247Y-136866786D01*
X128706247Y-136866786D02*
X128563390Y-136866786D01*
X128563390Y-136866786D02*
X128372914Y-136914405D01*
X128372914Y-136914405D02*
X128277676Y-136962024D01*
X128277676Y-136962024D02*
X128182438Y-137057262D01*
X128182438Y-137057262D02*
X128134819Y-137200119D01*
X128134819Y-137200119D02*
X128134819Y-137295357D01*
X128134819Y-137295357D02*
X128182438Y-137438214D01*
X128182438Y-137438214D02*
X128230057Y-137485833D01*
X129134819Y-137962024D02*
X129134819Y-138152500D01*
X129134819Y-138152500D02*
X129087200Y-138247738D01*
X129087200Y-138247738D02*
X129039580Y-138295357D01*
X129039580Y-138295357D02*
X128896723Y-138390595D01*
X128896723Y-138390595D02*
X128706247Y-138438214D01*
X128706247Y-138438214D02*
X128325295Y-138438214D01*
X128325295Y-138438214D02*
X128230057Y-138390595D01*
X128230057Y-138390595D02*
X128182438Y-138342976D01*
X128182438Y-138342976D02*
X128134819Y-138247738D01*
X128134819Y-138247738D02*
X128134819Y-138057262D01*
X128134819Y-138057262D02*
X128182438Y-137962024D01*
X128182438Y-137962024D02*
X128230057Y-137914405D01*
X128230057Y-137914405D02*
X128325295Y-137866786D01*
X128325295Y-137866786D02*
X128563390Y-137866786D01*
X128563390Y-137866786D02*
X128658628Y-137914405D01*
X128658628Y-137914405D02*
X128706247Y-137962024D01*
X128706247Y-137962024D02*
X128753866Y-138057262D01*
X128753866Y-138057262D02*
X128753866Y-138247738D01*
X128753866Y-138247738D02*
X128706247Y-138342976D01*
X128706247Y-138342976D02*
X128658628Y-138390595D01*
X128658628Y-138390595D02*
X128563390Y-138438214D01*
D11*
X153459762Y-137196818D02*
X153459762Y-135926818D01*
X152129285Y-137075865D02*
X152189761Y-137136342D01*
X152189761Y-137136342D02*
X152371190Y-137196818D01*
X152371190Y-137196818D02*
X152492142Y-137196818D01*
X152492142Y-137196818D02*
X152673571Y-137136342D01*
X152673571Y-137136342D02*
X152794523Y-137015389D01*
X152794523Y-137015389D02*
X152855000Y-136894437D01*
X152855000Y-136894437D02*
X152915476Y-136652532D01*
X152915476Y-136652532D02*
X152915476Y-136471103D01*
X152915476Y-136471103D02*
X152855000Y-136229199D01*
X152855000Y-136229199D02*
X152794523Y-136108246D01*
X152794523Y-136108246D02*
X152673571Y-135987294D01*
X152673571Y-135987294D02*
X152492142Y-135926818D01*
X152492142Y-135926818D02*
X152371190Y-135926818D01*
X152371190Y-135926818D02*
X152189761Y-135987294D01*
X152189761Y-135987294D02*
X152129285Y-136047770D01*
X151705952Y-135926818D02*
X150919761Y-135926818D01*
X150919761Y-135926818D02*
X151343095Y-136410627D01*
X151343095Y-136410627D02*
X151161666Y-136410627D01*
X151161666Y-136410627D02*
X151040714Y-136471103D01*
X151040714Y-136471103D02*
X150980238Y-136531580D01*
X150980238Y-136531580D02*
X150919761Y-136652532D01*
X150919761Y-136652532D02*
X150919761Y-136954913D01*
X150919761Y-136954913D02*
X150980238Y-137075865D01*
X150980238Y-137075865D02*
X151040714Y-137136342D01*
X151040714Y-137136342D02*
X151161666Y-137196818D01*
X151161666Y-137196818D02*
X151524523Y-137196818D01*
X151524523Y-137196818D02*
X151645476Y-137136342D01*
X151645476Y-137136342D02*
X151705952Y-137075865D01*
X134410988Y-137136818D02*
X134410988Y-135866818D01*
X133080511Y-137015865D02*
X133140987Y-137076342D01*
X133140987Y-137076342D02*
X133322416Y-137136818D01*
X133322416Y-137136818D02*
X133443368Y-137136818D01*
X133443368Y-137136818D02*
X133624797Y-137076342D01*
X133624797Y-137076342D02*
X133745749Y-136955389D01*
X133745749Y-136955389D02*
X133806226Y-136834437D01*
X133806226Y-136834437D02*
X133866702Y-136592532D01*
X133866702Y-136592532D02*
X133866702Y-136411103D01*
X133866702Y-136411103D02*
X133806226Y-136169199D01*
X133806226Y-136169199D02*
X133745749Y-136048246D01*
X133745749Y-136048246D02*
X133624797Y-135927294D01*
X133624797Y-135927294D02*
X133443368Y-135866818D01*
X133443368Y-135866818D02*
X133322416Y-135866818D01*
X133322416Y-135866818D02*
X133140987Y-135927294D01*
X133140987Y-135927294D02*
X133080511Y-135987770D01*
X132596702Y-135987770D02*
X132536226Y-135927294D01*
X132536226Y-135927294D02*
X132415273Y-135866818D01*
X132415273Y-135866818D02*
X132112892Y-135866818D01*
X132112892Y-135866818D02*
X131991940Y-135927294D01*
X131991940Y-135927294D02*
X131931464Y-135987770D01*
X131931464Y-135987770D02*
X131870987Y-136108722D01*
X131870987Y-136108722D02*
X131870987Y-136229675D01*
X131870987Y-136229675D02*
X131931464Y-136411103D01*
X131931464Y-136411103D02*
X132657178Y-137136818D01*
X132657178Y-137136818D02*
X131870987Y-137136818D01*
D12*
X142105000Y-137913752D02*
X142105000Y-137391248D01*
X143575000Y-137913752D02*
X143575000Y-137391248D01*
X160515000Y-138023752D02*
X160515000Y-137501248D01*
X161985000Y-138023752D02*
X161985000Y-137501248D01*
X122975000Y-137913752D02*
X122975000Y-137391248D01*
X124445000Y-137913752D02*
X124445000Y-137391248D01*
X145625000Y-137963752D02*
X145625000Y-137441248D01*
X147095000Y-137963752D02*
X147095000Y-137441248D01*
X163665000Y-138053752D02*
X163665000Y-137531248D01*
X165135000Y-138053752D02*
X165135000Y-137531248D01*
X191355000Y-99398748D02*
X191355000Y-99921252D01*
X189885000Y-99398748D02*
X189885000Y-99921252D01*
D13*
X173578226Y-134157500D02*
X172053226Y-134157500D01*
X171703226Y-139187500D02*
X171703226Y-134287500D01*
X171703226Y-134287500D02*
X168503226Y-134287500D01*
X168503226Y-139187500D02*
X171703226Y-139187500D01*
X168503226Y-134287500D02*
X168503226Y-139187500D01*
D12*
X126265000Y-137913752D02*
X126265000Y-137391248D01*
X127735000Y-137913752D02*
X127735000Y-137391248D01*
D13*
X155695000Y-134042500D02*
X154170000Y-134042500D01*
X153820000Y-139072500D02*
X153820000Y-134172500D01*
X153820000Y-134172500D02*
X150620000Y-134172500D01*
X150620000Y-139072500D02*
X153820000Y-139072500D01*
X150620000Y-134172500D02*
X150620000Y-139072500D01*
X136646226Y-133982500D02*
X135121226Y-133982500D01*
X134771226Y-139012500D02*
X134771226Y-134112500D01*
X134771226Y-134112500D02*
X131571226Y-134112500D01*
X131571226Y-139012500D02*
X134771226Y-139012500D01*
X131571226Y-134112500D02*
X131571226Y-139012500D01*
M02*
