%TF.GenerationSoftware,KiCad,Pcbnew,7.0.6*%
%TF.CreationDate,2024-01-17T13:08:57+07:00*%
%TF.ProjectId,Main,4d61696e-2e6b-4696-9361-645f70636258,rev?*%
%TF.SameCoordinates,Original*%
%TF.FileFunction,Drillmap*%
%TF.FilePolarity,Positive*%
%FSLAX45Y45*%
G04 Gerber Fmt 4.5, Leading zero omitted, Abs format (unit mm)*
G04 Created by KiCad (PCBNEW 7.0.6) date 2024-01-17 13:08:57*
%MOMM*%
%LPD*%
G01*
G04 APERTURE LIST*
%ADD10C,0.150000*%
%ADD11C,0.100000*%
%ADD12C,0.200000*%
%ADD13C,0.340000*%
G04 APERTURE END LIST*
D10*
X4655000Y-14943000D02*
G75*
G03*
X4655000Y-14943000I-200000J0D01*
G01*
X26780000Y-14935000D02*
G75*
G03*
X26780000Y-14935000I-200000J0D01*
G01*
D11*
X4080000Y-2556000D02*
X26991800Y-2556000D01*
X26991800Y-15344750D01*
X4080000Y-15344750D01*
X4080000Y-2556000D01*
D10*
X4679000Y-2921000D02*
G75*
G03*
X4679000Y-2921000I-200000J0D01*
G01*
X26780000Y-2945000D02*
G75*
G03*
X26780000Y-2945000I-200000J0D01*
G01*
D12*
D13*
X12754300Y-10314500D02*
X13094300Y-10654500D01*
X13094300Y-10314500D02*
X12754300Y-10654500D01*
X15829300Y-10314500D02*
X16169300Y-10654500D01*
X16169300Y-10314500D02*
X15829300Y-10654500D01*
D12*
X4335777Y-15661234D02*
X4335777Y-15461234D01*
X4335777Y-15461234D02*
X4383396Y-15461234D01*
X4383396Y-15461234D02*
X4411967Y-15470758D01*
X4411967Y-15470758D02*
X4431015Y-15489805D01*
X4431015Y-15489805D02*
X4440539Y-15508853D01*
X4440539Y-15508853D02*
X4450063Y-15546948D01*
X4450063Y-15546948D02*
X4450063Y-15575519D01*
X4450063Y-15575519D02*
X4440539Y-15613615D01*
X4440539Y-15613615D02*
X4431015Y-15632662D01*
X4431015Y-15632662D02*
X4411967Y-15651710D01*
X4411967Y-15651710D02*
X4383396Y-15661234D01*
X4383396Y-15661234D02*
X4335777Y-15661234D01*
X4535777Y-15661234D02*
X4535777Y-15527900D01*
X4535777Y-15565996D02*
X4545301Y-15546948D01*
X4545301Y-15546948D02*
X4554824Y-15537424D01*
X4554824Y-15537424D02*
X4573872Y-15527900D01*
X4573872Y-15527900D02*
X4592920Y-15527900D01*
X4659586Y-15661234D02*
X4659586Y-15527900D01*
X4659586Y-15461234D02*
X4650063Y-15470758D01*
X4650063Y-15470758D02*
X4659586Y-15480281D01*
X4659586Y-15480281D02*
X4669110Y-15470758D01*
X4669110Y-15470758D02*
X4659586Y-15461234D01*
X4659586Y-15461234D02*
X4659586Y-15480281D01*
X4783396Y-15661234D02*
X4764348Y-15651710D01*
X4764348Y-15651710D02*
X4754824Y-15632662D01*
X4754824Y-15632662D02*
X4754824Y-15461234D01*
X4888158Y-15661234D02*
X4869110Y-15651710D01*
X4869110Y-15651710D02*
X4859586Y-15632662D01*
X4859586Y-15632662D02*
X4859586Y-15461234D01*
X5116729Y-15661234D02*
X5116729Y-15461234D01*
X5116729Y-15461234D02*
X5183396Y-15604091D01*
X5183396Y-15604091D02*
X5250063Y-15461234D01*
X5250063Y-15461234D02*
X5250063Y-15661234D01*
X5431015Y-15661234D02*
X5431015Y-15556472D01*
X5431015Y-15556472D02*
X5421491Y-15537424D01*
X5421491Y-15537424D02*
X5402444Y-15527900D01*
X5402444Y-15527900D02*
X5364348Y-15527900D01*
X5364348Y-15527900D02*
X5345301Y-15537424D01*
X5431015Y-15651710D02*
X5411967Y-15661234D01*
X5411967Y-15661234D02*
X5364348Y-15661234D01*
X5364348Y-15661234D02*
X5345301Y-15651710D01*
X5345301Y-15651710D02*
X5335777Y-15632662D01*
X5335777Y-15632662D02*
X5335777Y-15613615D01*
X5335777Y-15613615D02*
X5345301Y-15594567D01*
X5345301Y-15594567D02*
X5364348Y-15585043D01*
X5364348Y-15585043D02*
X5411967Y-15585043D01*
X5411967Y-15585043D02*
X5431015Y-15575519D01*
X5526253Y-15527900D02*
X5526253Y-15727900D01*
X5526253Y-15537424D02*
X5545301Y-15527900D01*
X5545301Y-15527900D02*
X5583396Y-15527900D01*
X5583396Y-15527900D02*
X5602443Y-15537424D01*
X5602443Y-15537424D02*
X5611967Y-15546948D01*
X5611967Y-15546948D02*
X5621491Y-15565996D01*
X5621491Y-15565996D02*
X5621491Y-15623138D01*
X5621491Y-15623138D02*
X5611967Y-15642186D01*
X5611967Y-15642186D02*
X5602443Y-15651710D01*
X5602443Y-15651710D02*
X5583396Y-15661234D01*
X5583396Y-15661234D02*
X5545301Y-15661234D01*
X5545301Y-15661234D02*
X5526253Y-15651710D01*
X5707205Y-15642186D02*
X5716729Y-15651710D01*
X5716729Y-15651710D02*
X5707205Y-15661234D01*
X5707205Y-15661234D02*
X5697682Y-15651710D01*
X5697682Y-15651710D02*
X5707205Y-15642186D01*
X5707205Y-15642186D02*
X5707205Y-15661234D01*
X5707205Y-15537424D02*
X5716729Y-15546948D01*
X5716729Y-15546948D02*
X5707205Y-15556472D01*
X5707205Y-15556472D02*
X5697682Y-15546948D01*
X5697682Y-15546948D02*
X5707205Y-15537424D01*
X5707205Y-15537424D02*
X5707205Y-15556472D01*
X3875000Y-15889750D02*
X4075000Y-16089750D01*
X4075000Y-15889750D02*
X3875000Y-16089750D01*
X4316729Y-15881234D02*
X4440539Y-15881234D01*
X4440539Y-15881234D02*
X4373872Y-15957424D01*
X4373872Y-15957424D02*
X4402444Y-15957424D01*
X4402444Y-15957424D02*
X4421491Y-15966948D01*
X4421491Y-15966948D02*
X4431015Y-15976472D01*
X4431015Y-15976472D02*
X4440539Y-15995519D01*
X4440539Y-15995519D02*
X4440539Y-16043138D01*
X4440539Y-16043138D02*
X4431015Y-16062186D01*
X4431015Y-16062186D02*
X4421491Y-16071710D01*
X4421491Y-16071710D02*
X4402444Y-16081234D01*
X4402444Y-16081234D02*
X4345301Y-16081234D01*
X4345301Y-16081234D02*
X4326253Y-16071710D01*
X4326253Y-16071710D02*
X4316729Y-16062186D01*
X4526253Y-16062186D02*
X4535777Y-16071710D01*
X4535777Y-16071710D02*
X4526253Y-16081234D01*
X4526253Y-16081234D02*
X4516729Y-16071710D01*
X4516729Y-16071710D02*
X4526253Y-16062186D01*
X4526253Y-16062186D02*
X4526253Y-16081234D01*
X4707205Y-15947900D02*
X4707205Y-16081234D01*
X4659586Y-15871710D02*
X4611967Y-16014567D01*
X4611967Y-16014567D02*
X4735777Y-16014567D01*
X4850063Y-15881234D02*
X4869110Y-15881234D01*
X4869110Y-15881234D02*
X4888158Y-15890758D01*
X4888158Y-15890758D02*
X4897682Y-15900281D01*
X4897682Y-15900281D02*
X4907205Y-15919329D01*
X4907205Y-15919329D02*
X4916729Y-15957424D01*
X4916729Y-15957424D02*
X4916729Y-16005043D01*
X4916729Y-16005043D02*
X4907205Y-16043138D01*
X4907205Y-16043138D02*
X4897682Y-16062186D01*
X4897682Y-16062186D02*
X4888158Y-16071710D01*
X4888158Y-16071710D02*
X4869110Y-16081234D01*
X4869110Y-16081234D02*
X4850063Y-16081234D01*
X4850063Y-16081234D02*
X4831015Y-16071710D01*
X4831015Y-16071710D02*
X4821491Y-16062186D01*
X4821491Y-16062186D02*
X4811967Y-16043138D01*
X4811967Y-16043138D02*
X4802444Y-16005043D01*
X4802444Y-16005043D02*
X4802444Y-15957424D01*
X4802444Y-15957424D02*
X4811967Y-15919329D01*
X4811967Y-15919329D02*
X4821491Y-15900281D01*
X4821491Y-15900281D02*
X4831015Y-15890758D01*
X4831015Y-15890758D02*
X4850063Y-15881234D01*
X5040539Y-15881234D02*
X5059586Y-15881234D01*
X5059586Y-15881234D02*
X5078634Y-15890758D01*
X5078634Y-15890758D02*
X5088158Y-15900281D01*
X5088158Y-15900281D02*
X5097682Y-15919329D01*
X5097682Y-15919329D02*
X5107205Y-15957424D01*
X5107205Y-15957424D02*
X5107205Y-16005043D01*
X5107205Y-16005043D02*
X5097682Y-16043138D01*
X5097682Y-16043138D02*
X5088158Y-16062186D01*
X5088158Y-16062186D02*
X5078634Y-16071710D01*
X5078634Y-16071710D02*
X5059586Y-16081234D01*
X5059586Y-16081234D02*
X5040539Y-16081234D01*
X5040539Y-16081234D02*
X5021491Y-16071710D01*
X5021491Y-16071710D02*
X5011967Y-16062186D01*
X5011967Y-16062186D02*
X5002444Y-16043138D01*
X5002444Y-16043138D02*
X4992920Y-16005043D01*
X4992920Y-16005043D02*
X4992920Y-15957424D01*
X4992920Y-15957424D02*
X5002444Y-15919329D01*
X5002444Y-15919329D02*
X5011967Y-15900281D01*
X5011967Y-15900281D02*
X5021491Y-15890758D01*
X5021491Y-15890758D02*
X5040539Y-15881234D01*
X5192920Y-16081234D02*
X5192920Y-15947900D01*
X5192920Y-15966948D02*
X5202444Y-15957424D01*
X5202444Y-15957424D02*
X5221491Y-15947900D01*
X5221491Y-15947900D02*
X5250063Y-15947900D01*
X5250063Y-15947900D02*
X5269110Y-15957424D01*
X5269110Y-15957424D02*
X5278634Y-15976472D01*
X5278634Y-15976472D02*
X5278634Y-16081234D01*
X5278634Y-15976472D02*
X5288158Y-15957424D01*
X5288158Y-15957424D02*
X5307205Y-15947900D01*
X5307205Y-15947900D02*
X5335777Y-15947900D01*
X5335777Y-15947900D02*
X5354825Y-15957424D01*
X5354825Y-15957424D02*
X5364348Y-15976472D01*
X5364348Y-15976472D02*
X5364348Y-16081234D01*
X5459586Y-16081234D02*
X5459586Y-15947900D01*
X5459586Y-15966948D02*
X5469110Y-15957424D01*
X5469110Y-15957424D02*
X5488158Y-15947900D01*
X5488158Y-15947900D02*
X5516729Y-15947900D01*
X5516729Y-15947900D02*
X5535777Y-15957424D01*
X5535777Y-15957424D02*
X5545301Y-15976472D01*
X5545301Y-15976472D02*
X5545301Y-16081234D01*
X5545301Y-15976472D02*
X5554825Y-15957424D01*
X5554825Y-15957424D02*
X5573872Y-15947900D01*
X5573872Y-15947900D02*
X5602443Y-15947900D01*
X5602443Y-15947900D02*
X5621491Y-15957424D01*
X5621491Y-15957424D02*
X5631015Y-15976472D01*
X5631015Y-15976472D02*
X5631015Y-16081234D01*
X6021491Y-15871710D02*
X5850063Y-16128853D01*
X6278634Y-15881234D02*
X6297682Y-15881234D01*
X6297682Y-15881234D02*
X6316729Y-15890758D01*
X6316729Y-15890758D02*
X6326253Y-15900281D01*
X6326253Y-15900281D02*
X6335777Y-15919329D01*
X6335777Y-15919329D02*
X6345301Y-15957424D01*
X6345301Y-15957424D02*
X6345301Y-16005043D01*
X6345301Y-16005043D02*
X6335777Y-16043138D01*
X6335777Y-16043138D02*
X6326253Y-16062186D01*
X6326253Y-16062186D02*
X6316729Y-16071710D01*
X6316729Y-16071710D02*
X6297682Y-16081234D01*
X6297682Y-16081234D02*
X6278634Y-16081234D01*
X6278634Y-16081234D02*
X6259586Y-16071710D01*
X6259586Y-16071710D02*
X6250063Y-16062186D01*
X6250063Y-16062186D02*
X6240539Y-16043138D01*
X6240539Y-16043138D02*
X6231015Y-16005043D01*
X6231015Y-16005043D02*
X6231015Y-15957424D01*
X6231015Y-15957424D02*
X6240539Y-15919329D01*
X6240539Y-15919329D02*
X6250063Y-15900281D01*
X6250063Y-15900281D02*
X6259586Y-15890758D01*
X6259586Y-15890758D02*
X6278634Y-15881234D01*
X6431015Y-16062186D02*
X6440539Y-16071710D01*
X6440539Y-16071710D02*
X6431015Y-16081234D01*
X6431015Y-16081234D02*
X6421491Y-16071710D01*
X6421491Y-16071710D02*
X6431015Y-16062186D01*
X6431015Y-16062186D02*
X6431015Y-16081234D01*
X6631015Y-16081234D02*
X6516729Y-16081234D01*
X6573872Y-16081234D02*
X6573872Y-15881234D01*
X6573872Y-15881234D02*
X6554825Y-15909805D01*
X6554825Y-15909805D02*
X6535777Y-15928853D01*
X6535777Y-15928853D02*
X6516729Y-15938377D01*
X6697682Y-15881234D02*
X6821491Y-15881234D01*
X6821491Y-15881234D02*
X6754825Y-15957424D01*
X6754825Y-15957424D02*
X6783396Y-15957424D01*
X6783396Y-15957424D02*
X6802444Y-15966948D01*
X6802444Y-15966948D02*
X6811967Y-15976472D01*
X6811967Y-15976472D02*
X6821491Y-15995519D01*
X6821491Y-15995519D02*
X6821491Y-16043138D01*
X6821491Y-16043138D02*
X6811967Y-16062186D01*
X6811967Y-16062186D02*
X6802444Y-16071710D01*
X6802444Y-16071710D02*
X6783396Y-16081234D01*
X6783396Y-16081234D02*
X6726253Y-16081234D01*
X6726253Y-16081234D02*
X6707206Y-16071710D01*
X6707206Y-16071710D02*
X6697682Y-16062186D01*
X6888158Y-15881234D02*
X7011967Y-15881234D01*
X7011967Y-15881234D02*
X6945301Y-15957424D01*
X6945301Y-15957424D02*
X6973872Y-15957424D01*
X6973872Y-15957424D02*
X6992920Y-15966948D01*
X6992920Y-15966948D02*
X7002444Y-15976472D01*
X7002444Y-15976472D02*
X7011967Y-15995519D01*
X7011967Y-15995519D02*
X7011967Y-16043138D01*
X7011967Y-16043138D02*
X7002444Y-16062186D01*
X7002444Y-16062186D02*
X6992920Y-16071710D01*
X6992920Y-16071710D02*
X6973872Y-16081234D01*
X6973872Y-16081234D02*
X6916729Y-16081234D01*
X6916729Y-16081234D02*
X6897682Y-16071710D01*
X6897682Y-16071710D02*
X6888158Y-16062186D01*
X7107206Y-16081234D02*
X7145301Y-16081234D01*
X7145301Y-16081234D02*
X7164348Y-16071710D01*
X7164348Y-16071710D02*
X7173872Y-16062186D01*
X7173872Y-16062186D02*
X7192920Y-16033615D01*
X7192920Y-16033615D02*
X7202444Y-15995519D01*
X7202444Y-15995519D02*
X7202444Y-15919329D01*
X7202444Y-15919329D02*
X7192920Y-15900281D01*
X7192920Y-15900281D02*
X7183396Y-15890758D01*
X7183396Y-15890758D02*
X7164348Y-15881234D01*
X7164348Y-15881234D02*
X7126253Y-15881234D01*
X7126253Y-15881234D02*
X7107206Y-15890758D01*
X7107206Y-15890758D02*
X7097682Y-15900281D01*
X7097682Y-15900281D02*
X7088158Y-15919329D01*
X7088158Y-15919329D02*
X7088158Y-15966948D01*
X7088158Y-15966948D02*
X7097682Y-15985996D01*
X7097682Y-15985996D02*
X7107206Y-15995519D01*
X7107206Y-15995519D02*
X7126253Y-16005043D01*
X7126253Y-16005043D02*
X7164348Y-16005043D01*
X7164348Y-16005043D02*
X7183396Y-15995519D01*
X7183396Y-15995519D02*
X7192920Y-15985996D01*
X7192920Y-15985996D02*
X7202444Y-15966948D01*
X7278634Y-15881234D02*
X7278634Y-15919329D01*
X7354825Y-15881234D02*
X7354825Y-15919329D01*
X7650063Y-16157424D02*
X7640539Y-16147900D01*
X7640539Y-16147900D02*
X7621491Y-16119329D01*
X7621491Y-16119329D02*
X7611968Y-16100281D01*
X7611968Y-16100281D02*
X7602444Y-16071710D01*
X7602444Y-16071710D02*
X7592920Y-16024091D01*
X7592920Y-16024091D02*
X7592920Y-15985996D01*
X7592920Y-15985996D02*
X7602444Y-15938377D01*
X7602444Y-15938377D02*
X7611968Y-15909805D01*
X7611968Y-15909805D02*
X7621491Y-15890758D01*
X7621491Y-15890758D02*
X7640539Y-15862186D01*
X7640539Y-15862186D02*
X7650063Y-15852662D01*
X7716729Y-15900281D02*
X7726253Y-15890758D01*
X7726253Y-15890758D02*
X7745301Y-15881234D01*
X7745301Y-15881234D02*
X7792920Y-15881234D01*
X7792920Y-15881234D02*
X7811968Y-15890758D01*
X7811968Y-15890758D02*
X7821491Y-15900281D01*
X7821491Y-15900281D02*
X7831015Y-15919329D01*
X7831015Y-15919329D02*
X7831015Y-15938377D01*
X7831015Y-15938377D02*
X7821491Y-15966948D01*
X7821491Y-15966948D02*
X7707206Y-16081234D01*
X7707206Y-16081234D02*
X7831015Y-16081234D01*
X8069110Y-16081234D02*
X8069110Y-15881234D01*
X8154825Y-16081234D02*
X8154825Y-15976472D01*
X8154825Y-15976472D02*
X8145301Y-15957424D01*
X8145301Y-15957424D02*
X8126253Y-15947900D01*
X8126253Y-15947900D02*
X8097682Y-15947900D01*
X8097682Y-15947900D02*
X8078634Y-15957424D01*
X8078634Y-15957424D02*
X8069110Y-15966948D01*
X8278634Y-16081234D02*
X8259587Y-16071710D01*
X8259587Y-16071710D02*
X8250063Y-16062186D01*
X8250063Y-16062186D02*
X8240539Y-16043138D01*
X8240539Y-16043138D02*
X8240539Y-15985996D01*
X8240539Y-15985996D02*
X8250063Y-15966948D01*
X8250063Y-15966948D02*
X8259587Y-15957424D01*
X8259587Y-15957424D02*
X8278634Y-15947900D01*
X8278634Y-15947900D02*
X8307206Y-15947900D01*
X8307206Y-15947900D02*
X8326253Y-15957424D01*
X8326253Y-15957424D02*
X8335777Y-15966948D01*
X8335777Y-15966948D02*
X8345301Y-15985996D01*
X8345301Y-15985996D02*
X8345301Y-16043138D01*
X8345301Y-16043138D02*
X8335777Y-16062186D01*
X8335777Y-16062186D02*
X8326253Y-16071710D01*
X8326253Y-16071710D02*
X8307206Y-16081234D01*
X8307206Y-16081234D02*
X8278634Y-16081234D01*
X8459587Y-16081234D02*
X8440539Y-16071710D01*
X8440539Y-16071710D02*
X8431015Y-16052662D01*
X8431015Y-16052662D02*
X8431015Y-15881234D01*
X8611968Y-16071710D02*
X8592920Y-16081234D01*
X8592920Y-16081234D02*
X8554825Y-16081234D01*
X8554825Y-16081234D02*
X8535777Y-16071710D01*
X8535777Y-16071710D02*
X8526253Y-16052662D01*
X8526253Y-16052662D02*
X8526253Y-15976472D01*
X8526253Y-15976472D02*
X8535777Y-15957424D01*
X8535777Y-15957424D02*
X8554825Y-15947900D01*
X8554825Y-15947900D02*
X8592920Y-15947900D01*
X8592920Y-15947900D02*
X8611968Y-15957424D01*
X8611968Y-15957424D02*
X8621492Y-15976472D01*
X8621492Y-15976472D02*
X8621492Y-15995519D01*
X8621492Y-15995519D02*
X8526253Y-16014567D01*
X8697682Y-16071710D02*
X8716730Y-16081234D01*
X8716730Y-16081234D02*
X8754825Y-16081234D01*
X8754825Y-16081234D02*
X8773873Y-16071710D01*
X8773873Y-16071710D02*
X8783396Y-16052662D01*
X8783396Y-16052662D02*
X8783396Y-16043138D01*
X8783396Y-16043138D02*
X8773873Y-16024091D01*
X8773873Y-16024091D02*
X8754825Y-16014567D01*
X8754825Y-16014567D02*
X8726253Y-16014567D01*
X8726253Y-16014567D02*
X8707206Y-16005043D01*
X8707206Y-16005043D02*
X8697682Y-15985996D01*
X8697682Y-15985996D02*
X8697682Y-15976472D01*
X8697682Y-15976472D02*
X8707206Y-15957424D01*
X8707206Y-15957424D02*
X8726253Y-15947900D01*
X8726253Y-15947900D02*
X8754825Y-15947900D01*
X8754825Y-15947900D02*
X8773873Y-15957424D01*
X8850063Y-16157424D02*
X8859587Y-16147900D01*
X8859587Y-16147900D02*
X8878634Y-16119329D01*
X8878634Y-16119329D02*
X8888158Y-16100281D01*
X8888158Y-16100281D02*
X8897682Y-16071710D01*
X8897682Y-16071710D02*
X8907206Y-16024091D01*
X8907206Y-16024091D02*
X8907206Y-15985996D01*
X8907206Y-15985996D02*
X8897682Y-15938377D01*
X8897682Y-15938377D02*
X8888158Y-15909805D01*
X8888158Y-15909805D02*
X8878634Y-15890758D01*
X8878634Y-15890758D02*
X8859587Y-15862186D01*
X8859587Y-15862186D02*
X8850063Y-15852662D01*
X9211968Y-16157424D02*
X9202444Y-16147900D01*
X9202444Y-16147900D02*
X9183396Y-16119329D01*
X9183396Y-16119329D02*
X9173873Y-16100281D01*
X9173873Y-16100281D02*
X9164349Y-16071710D01*
X9164349Y-16071710D02*
X9154825Y-16024091D01*
X9154825Y-16024091D02*
X9154825Y-15985996D01*
X9154825Y-15985996D02*
X9164349Y-15938377D01*
X9164349Y-15938377D02*
X9173873Y-15909805D01*
X9173873Y-15909805D02*
X9183396Y-15890758D01*
X9183396Y-15890758D02*
X9202444Y-15862186D01*
X9202444Y-15862186D02*
X9211968Y-15852662D01*
X9288158Y-15947900D02*
X9288158Y-16081234D01*
X9288158Y-15966948D02*
X9297682Y-15957424D01*
X9297682Y-15957424D02*
X9316730Y-15947900D01*
X9316730Y-15947900D02*
X9345301Y-15947900D01*
X9345301Y-15947900D02*
X9364349Y-15957424D01*
X9364349Y-15957424D02*
X9373873Y-15976472D01*
X9373873Y-15976472D02*
X9373873Y-16081234D01*
X9497682Y-16081234D02*
X9478634Y-16071710D01*
X9478634Y-16071710D02*
X9469111Y-16062186D01*
X9469111Y-16062186D02*
X9459587Y-16043138D01*
X9459587Y-16043138D02*
X9459587Y-15985996D01*
X9459587Y-15985996D02*
X9469111Y-15966948D01*
X9469111Y-15966948D02*
X9478634Y-15957424D01*
X9478634Y-15957424D02*
X9497682Y-15947900D01*
X9497682Y-15947900D02*
X9526254Y-15947900D01*
X9526254Y-15947900D02*
X9545301Y-15957424D01*
X9545301Y-15957424D02*
X9554825Y-15966948D01*
X9554825Y-15966948D02*
X9564349Y-15985996D01*
X9564349Y-15985996D02*
X9564349Y-16043138D01*
X9564349Y-16043138D02*
X9554825Y-16062186D01*
X9554825Y-16062186D02*
X9545301Y-16071710D01*
X9545301Y-16071710D02*
X9526254Y-16081234D01*
X9526254Y-16081234D02*
X9497682Y-16081234D01*
X9621492Y-15947900D02*
X9697682Y-15947900D01*
X9650063Y-15881234D02*
X9650063Y-16052662D01*
X9650063Y-16052662D02*
X9659587Y-16071710D01*
X9659587Y-16071710D02*
X9678634Y-16081234D01*
X9678634Y-16081234D02*
X9697682Y-16081234D01*
X9916730Y-15947900D02*
X9916730Y-16147900D01*
X9916730Y-15957424D02*
X9935777Y-15947900D01*
X9935777Y-15947900D02*
X9973873Y-15947900D01*
X9973873Y-15947900D02*
X9992920Y-15957424D01*
X9992920Y-15957424D02*
X10002444Y-15966948D01*
X10002444Y-15966948D02*
X10011968Y-15985996D01*
X10011968Y-15985996D02*
X10011968Y-16043138D01*
X10011968Y-16043138D02*
X10002444Y-16062186D01*
X10002444Y-16062186D02*
X9992920Y-16071710D01*
X9992920Y-16071710D02*
X9973873Y-16081234D01*
X9973873Y-16081234D02*
X9935777Y-16081234D01*
X9935777Y-16081234D02*
X9916730Y-16071710D01*
X10126254Y-16081234D02*
X10107206Y-16071710D01*
X10107206Y-16071710D02*
X10097682Y-16052662D01*
X10097682Y-16052662D02*
X10097682Y-15881234D01*
X10288158Y-16081234D02*
X10288158Y-15976472D01*
X10288158Y-15976472D02*
X10278635Y-15957424D01*
X10278635Y-15957424D02*
X10259587Y-15947900D01*
X10259587Y-15947900D02*
X10221492Y-15947900D01*
X10221492Y-15947900D02*
X10202444Y-15957424D01*
X10288158Y-16071710D02*
X10269111Y-16081234D01*
X10269111Y-16081234D02*
X10221492Y-16081234D01*
X10221492Y-16081234D02*
X10202444Y-16071710D01*
X10202444Y-16071710D02*
X10192920Y-16052662D01*
X10192920Y-16052662D02*
X10192920Y-16033615D01*
X10192920Y-16033615D02*
X10202444Y-16014567D01*
X10202444Y-16014567D02*
X10221492Y-16005043D01*
X10221492Y-16005043D02*
X10269111Y-16005043D01*
X10269111Y-16005043D02*
X10288158Y-15995519D01*
X10354825Y-15947900D02*
X10431015Y-15947900D01*
X10383396Y-15881234D02*
X10383396Y-16052662D01*
X10383396Y-16052662D02*
X10392920Y-16071710D01*
X10392920Y-16071710D02*
X10411968Y-16081234D01*
X10411968Y-16081234D02*
X10431015Y-16081234D01*
X10573873Y-16071710D02*
X10554825Y-16081234D01*
X10554825Y-16081234D02*
X10516730Y-16081234D01*
X10516730Y-16081234D02*
X10497682Y-16071710D01*
X10497682Y-16071710D02*
X10488158Y-16052662D01*
X10488158Y-16052662D02*
X10488158Y-15976472D01*
X10488158Y-15976472D02*
X10497682Y-15957424D01*
X10497682Y-15957424D02*
X10516730Y-15947900D01*
X10516730Y-15947900D02*
X10554825Y-15947900D01*
X10554825Y-15947900D02*
X10573873Y-15957424D01*
X10573873Y-15957424D02*
X10583396Y-15976472D01*
X10583396Y-15976472D02*
X10583396Y-15995519D01*
X10583396Y-15995519D02*
X10488158Y-16014567D01*
X10754825Y-16081234D02*
X10754825Y-15881234D01*
X10754825Y-16071710D02*
X10735777Y-16081234D01*
X10735777Y-16081234D02*
X10697682Y-16081234D01*
X10697682Y-16081234D02*
X10678635Y-16071710D01*
X10678635Y-16071710D02*
X10669111Y-16062186D01*
X10669111Y-16062186D02*
X10659587Y-16043138D01*
X10659587Y-16043138D02*
X10659587Y-15985996D01*
X10659587Y-15985996D02*
X10669111Y-15966948D01*
X10669111Y-15966948D02*
X10678635Y-15957424D01*
X10678635Y-15957424D02*
X10697682Y-15947900D01*
X10697682Y-15947900D02*
X10735777Y-15947900D01*
X10735777Y-15947900D02*
X10754825Y-15957424D01*
X10831016Y-16157424D02*
X10840539Y-16147900D01*
X10840539Y-16147900D02*
X10859587Y-16119329D01*
X10859587Y-16119329D02*
X10869111Y-16100281D01*
X10869111Y-16100281D02*
X10878635Y-16071710D01*
X10878635Y-16071710D02*
X10888158Y-16024091D01*
X10888158Y-16024091D02*
X10888158Y-15985996D01*
X10888158Y-15985996D02*
X10878635Y-15938377D01*
X10878635Y-15938377D02*
X10869111Y-15909805D01*
X10869111Y-15909805D02*
X10859587Y-15890758D01*
X10859587Y-15890758D02*
X10840539Y-15862186D01*
X10840539Y-15862186D02*
X10831016Y-15852662D01*
M02*
